<?xml version="1.0" encoding="UTF-8" standalone="no"?>
<!-- Created with Inkscape (http://www.inkscape.org/) -->

<svg
   width="48mm"
   height="47.999924mm"
   viewBox="0 0 48 47.999924"
   version="1.1"
   id="svg1"
   inkscape:version="1.4.2 (2aeb623e1d, 2025-05-12)"
   sodipodi:docname="favicon.svg"
   xml:space="preserve"
   xmlns:inkscape="http://www.inkscape.org/namespaces/inkscape"
   xmlns:sodipodi="http://sodipodi.sourceforge.net/DTD/sodipodi-0.dtd"
   xmlns="http://www.w3.org/2000/svg"
   xmlns:svg="http://www.w3.org/2000/svg"><sodipodi:namedview
     id="namedview1"
     pagecolor="#ffffff"
     bordercolor="#000000"
     borderopacity="0.25"
     inkscape:showpageshadow="2"
     inkscape:pageopacity="0.0"
     inkscape:pagecheckerboard="0"
     inkscape:deskcolor="#d1d1d1"
     inkscape:document-units="mm"
     inkscape:zoom="1.2674155"
     inkscape:cx="307.71282"
     inkscape:cy="114.80055"
     inkscape:window-width="2494"
     inkscape:window-height="1371"
     inkscape:window-x="66"
     inkscape:window-y="32"
     inkscape:window-maximized="1"
     inkscape:current-layer="layer1"
     showgrid="false" /><defs
     id="defs1" /><g
     inkscape:label="Layer 1"
     inkscape:groupmode="layer"
     id="layer1"
     transform="translate(24.47586,-6.4970676)"><path
       style="fill:#175c42;fill-opacity:1;stroke:none;stroke-width:2.09192;stroke-linecap:round;stroke-linejoin:round;stroke-dasharray:none;stroke-opacity:1;paint-order:normal"
       d="m 11.074638,6.4973415 c -0.01181,0.062608 -0.08008,0.1188652 -0.149978,0.083616 -0.03765,-0.018992 -0.05229,-0.063729 -0.09786,-0.069706 -0.103585,-0.013598 -0.166003,0.075085 -0.267398,0.070603 -0.09361,-0.00412 -0.168448,-0.104222 -0.267398,-0.070767 -0.102863,0.034771 -0.170674,0.1467022 -0.22182,0.234077 -0.01683,0.028755 -0.04533,0.058388 -0.05277,0.091305 -0.01113,0.04921 0.04355,0.081091 0.0095,0.1304205 -0.05474,0.079189 -0.1920263,0.087102 -0.2684546,0.1306333 -0.022307,0.012773 -0.033366,0.03998 -0.05364,0.055715 -0.03557,0.027611 -0.1014347,0.058041 -0.1432145,0.076621 C 9.4695859,7.2707833 9.3615987,7.2413063 9.2680759,7.228955 9.2253669,7.223235 9.1789099,7.2298541 9.1376381,7.217119 9.0994171,7.205417 9.0665371,7.179227 9.0267651,7.171473 8.9817621,7.162693 8.9513281,7.193817 8.9093724,7.200228 8.7780302,7.220271 8.6135884,7.227161 8.5130021,7.3332594 c -0.042377,0.044701 -0.01769,0.110045 -0.043567,0.1618405 -0.014792,0.029619 -0.044092,0.092874 -0.069712,0.1128115 -0.045892,0.035698 -0.1215599,0.033614 -0.1751484,0.053085 -0.034832,0.012643 -0.079145,0.045461 -0.1169864,0.043897 -0.033289,-0.0013 -0.00966,-0.088992 -0.039922,-0.1150864 C 8.0266898,7.5544996 7.9704501,7.537908 7.9320778,7.4995269 7.9079606,7.4754006 7.9218725,7.4435867 7.9021698,7.4174526 7.857629,7.3583878 7.7787188,7.3068358 7.7185093,7.2670235 7.6874565,7.2464879 7.5908732,7.235422 7.5593375,7.2538563 c -0.031667,0.01854 -0.05762,0.058653 -0.095966,0.064293 -0.036334,0.00532 -0.062709,-0.036869 -0.09969,-0.035577 -0.090294,0.00319 -0.1832371,0.043464 -0.2739192,0.059504 -0.080709,0.01419 -0.1787595,0.016133 -0.2540925,0.053693 -0.056041,0.027944 -0.044704,0.1013729 -0.064345,0.1515133 -0.018363,0.046882 -0.061047,0.096839 -0.05648,0.150003 0.00462,0.053894 0.069502,0.065507 0.082915,0.1114495 0.025215,0.086373 -0.1190085,0.2173771 -0.1840936,0.2516292 -0.038921,0.020488 -0.1337591,0.037954 -0.176091,0.03029 -0.044173,-0.00808 -0.084673,-0.034864 -0.1304379,-0.034122 -0.079702,0.00129 -0.1410708,0.03682 -0.2152222,0.058716 -0.043551,0.012904 -0.08096,9.892e-4 -0.1239156,0.0073 -0.033079,0.00495 -0.058662,0.029273 -0.091306,0.035516 -0.052234,0.010039 -0.1038639,-0.033326 -0.1500034,-0.019186 -0.053955,0.016566 -0.1265715,0.080769 -0.1588915,0.1257475 -0.020869,0.029052 -0.031996,0.072727 -0.063533,0.092734 -0.026342,0.016709 -0.062081,8.093e-4 -0.090626,-8.147e-4 -0.047959,-0.00261 -0.125122,-0.00182 -0.1693081,0.018012 -0.039284,0.017582 -0.04392,0.063395 -0.07339,0.090518 -0.041813,0.038501 -0.1188895,0.052642 -0.1681806,0.084562 -0.033433,0.021649 -0.064531,0.064269 -0.1024897,0.076715 -0.018569,0.00613 -0.040857,-0.00391 -0.060558,-8.576e-4 -0.042916,0.00652 -0.078997,0.033444 -0.123915,0.029755 -0.036149,-0.003 -0.067545,-0.023812 -0.1043507,-0.025089 -0.037091,-0.0013 -0.068803,0.025845 -0.1043494,0.021753 -0.038895,-0.00456 -0.071099,-0.033197 -0.1108729,-0.034174 -0.064004,-0.00157 -0.1238733,0.054337 -0.1891346,0.05684 -0.043244,0.00157 -0.079387,-0.030212 -0.123915,-0.022952 -0.059654,0.00977 -0.1039428,0.064516 -0.1630473,0.072962 -0.047559,0.00677 -0.094093,-0.026367 -0.1434813,-0.021831 -0.090749,0.00834 -0.1572608,0.044731 -0.2413099,0.072258 -0.042457,0.013894 -0.087906,0.015367 -0.1304377,0.029326 -0.06692,0.021987 -0.088838,0.1269596 -0.1500083,0.1343757 -0.047343,0.00573 -0.080608,-0.050922 -0.1304338,-0.047155 -0.031052,0.00234 -0.053908,0.027462 -0.084786,0.0293 -0.092968,0.00561 -0.1945709,-0.021244 -0.2869632,-0.00352 -0.036667,0.00704 -0.062623,0.035555 -0.097828,0.043011 -0.038148,0.00808 -0.077769,-0.00456 -0.1173929,0.00534 -0.024787,0.00613 -0.046051,0.025963 -0.07174,0.027488 -0.048067,0.00273 -0.1091625,0.016787 -0.1565253,0.013295 -0.05757,-0.00443 -0.1098084,-0.034017 -0.1695691,-0.023135 -0.067205,0.012252 -0.085843,0.099198 -0.1434813,0.1277676 -0.053216,0.026393 -0.1091807,-0.03742 -0.163047,-0.010816 -0.057403,0.028465 -0.079427,0.1011665 -0.1304631,0.1381554 -0.044055,0.03192 -0.1011556,0.04554 -0.1499778,0.068661 -0.09194,0.043506 -0.1886779,0.097609 -0.2869632,0.1219027 C 1.1693285,9.4528519 1.1507785,9.3577719 1.0765859,9.328355 1.0311439,9.31033 0.97455378,9.3096 0.92658248,9.30002 0.83173348,9.281043 0.73106588,9.244797 0.63309758,9.26556 0.57022458,9.278855 0.51449211,9.314931 0.45700661,9.341871 c -0.091884,0.043063 -0.1630169,0.067552 -0.2412143,0.1374222 -0.03918,0.035009 -0.056385,0.086114 -0.09795,0.118574 -0.04692,0.036648 -0.12495887,0.080894 -0.18258727,0.095388 -0.035396,0.00886 -0.077209,-0.00267 -0.1106156,0.011411 -0.046071,0.01952 -0.059071,0.079535 -0.1046322,0.1015308 -0.050667,0.024472 -0.1058243,-0.00182 -0.1564998,-0.011532 -0.030229,-0.00583 -0.055165,0.0074 -0.084786,0.00704 -0.038251,-6.276e-4 -0.072447,-0.016157 -0.1108717,-0.00522 -0.062278,0.017747 -0.1106994,0.06708 -0.1695691,0.090873 -0.055154,0.022263 -0.1168733,0.015222 -0.1695436,0.045728 -0.041187,0.023853 -0.060605,0.069714 -0.10437984,0.089792 -0.091658,0.042 -0.1833661,0.007 -0.2739146,0.03072 -0.058585,0.01534 -0.086927,0.08183 -0.1434811,0.101689 -0.049169,0.01729 -0.1058728,-0.03244 -0.1565253,-0.03173 -0.033805,4.66e-4 -0.053948,0.02622 -0.084786,0.03486 -0.043106,0.01214 -0.092138,-0.0068 -0.1369588,-9.08e-4 -0.040361,0.0052 -0.080012,0.03276 -0.1201617,0.03126 -0.050821,-0.0019 -0.094672,-0.03873 -0.1407139,-0.05618 -0.05704,-0.02162 -0.1873975,-0.0349 -0.2478316,-0.02393 -0.032007,0.0058 -0.060292,0.03908 -0.084786,0.0587 -0.049239,0.03945 -0.116611,0.06627 -0.1609994,0.109628 -0.023176,0.02265 -0.016555,0.07121 -0.054509,0.07937 -0.050421,0.0108 -0.081169,-0.06037 -0.1301501,-0.06278 -0.051557,-0.0024 -0.07552,0.05734 -0.123915,0.06213 -0.04146,0.004 -0.078391,-0.03123 -0.1173928,-0.04011 -0.038041,-0.0086 -0.1043955,0.0051 -0.1434812,0.0119 -0.078919,0.01329 -0.1459571,0.07004 -0.2217446,0.09152 -0.052234,0.0148 -0.1032788,-0.01731 -0.1565242,-0.0039 -0.065842,0.01653 -0.104347,0.06396 -0.1630524,0.0841 -0.087607,0.03008 -0.1873075,0.02747 -0.2739145,0.06397 -0.043021,0.01814 -0.073065,0.06447 -0.1173965,0.07689 -0.044902,0.01252 -0.073417,-0.04224 -0.1173964,-0.0386 -0.045096,0.0038 -0.063353,0.05828 -0.104347,0.07064 -0.020151,0.0061 -0.038687,-0.0069 -0.058692,-0.0045 -0.019969,0.0024 -0.033722,0.01897 -0.052174,0.02543 -0.023088,0.0081 -0.048495,4.87e-4 -0.071742,0.0086 -0.053533,0.01879 -0.1186103,0.03912 -0.1695687,0.06445 -0.031719,0.01576 -0.058522,0.04529 -0.09131,0.05736 -0.036101,0.0133 -0.07548,0.0076 -0.1108656,0.02609 -0.092135,0.04784 -0.1740043,0.139395 -0.2608748,0.199384 -0.045376,0.03133 -0.089246,0.06734 -0.1369597,0.09496 -0.057539,0.03328 -0.097355,0.02599 -0.123915,0.09434 -0.043603,-0.02325 -0.099455,-0.05098 -0.1500031,-0.05098 -0.040022,-4e-6 -0.076719,0.02054 -0.1173964,0.01775 -0.068452,-0.0047 -0.1403161,-0.0283 -0.1999587,0.02435 -0.030469,0.02689 -0.031901,0.07265 -0.050596,0.106714 -0.025395,0.04627 -0.075359,0.08729 -0.1211959,0.112237 -0.086126,0.04684 -0.1392758,-0.0257 -0.2217179,-0.0058 -0.044587,0.0108 -0.050511,0.06999 -0.091917,0.08378 -0.02286,0.0075 -0.04795,-0.0068 -0.07115,-0.0068 -0.0451,-10e-6 -0.111023,0.0066 -0.156525,0.01515 -0.03853,0.0073 -0.07401,0.05026 -0.110878,0.04961 -0.0718,-0.0012 -0.1283657,-0.07949 -0.2021777,-0.08465 -0.05706,-0.004 -0.137552,0.06607 -0.18843,0.0437 -0.02232,-0.01 -0.02373,-0.03769 -0.04256,-0.05077 -0.01895,-0.01316 -0.0479,-0.01435 -0.06901,-0.02493 -0.05811,-0.02895 -0.106507,-0.07457 -0.1760907,-0.06559 -0.06227,0.0081 -0.09727,0.06954 -0.137895,0.108632 -0.02223,0.02139 -0.05259,0.02742 -0.07733,0.04474 -0.03577,0.02502 -0.06118,0.06233 -0.104359,0.0764 -0.157391,0.05132 -0.3098507,-0.04153 -0.4695747,-0.0056 -0.05077,0.01165 -0.130355,0.03906 -0.167426,0.07638 -0.03054,0.03074 -0.04283,0.08261 -0.08693,0.09894 -0.04052,0.01502 -0.08862,-0.0035 -0.130434,0.0091 -0.0449,0.0136 -0.07797,0.04972 -0.12391,0.06233 -0.06725,0.01846 -0.134929,0.01449 -0.202179,0.02677 -0.03398,0.0061 -0.05924,0.02719 -0.0913,0.03742 -0.05399,0.0172 -0.108972,0.02229 -0.163046,0.04237 -0.04548,0.01686 -0.128173,0.05686 -0.159575,0.09397 -0.02951,0.03487 -0.03281,0.08313 -0.07531,0.107491 -0.1271936,0.07288 -0.2764526,0.03604 -0.4107796,0.08548 -0.06221,0.02289 -0.07019,0.07209 -0.117493,0.110319 -0.05516,0.04457 -0.1338676,0.06695 -0.2020786,0.08193 -0.02085,0.0047 -0.03826,-0.0053 -0.05869,-0.0047 -0.039,0.0015 -0.0694,0.02076 -0.110878,0.01551 -0.03932,-0.005 -0.07705,-0.02263 -0.117396,-0.01771 -0.04976,0.0059 -0.08581,0.06752 -0.13696,0.06111 -0.04914,-0.0061 -0.08727,-0.05528 -0.136961,-0.06765 -0.06612,-0.01646 -0.100341,0.0069 -0.163045,0.01056 -0.04336,0.0023 -0.0862,-0.01375 -0.130435,-0.01093 -0.02973,0.0017 -0.04993,0.02513 -0.07826,0.02742 -0.0488,0.0039 -0.09644,-0.02316 -0.143477,0.005 -0.03982,0.02383 -0.05968,0.08672 -0.104396,0.09973 -0.05093,0.0148 -0.102404,-0.0442 -0.156495,-0.02247 -0.06532,0.02624 -0.08789,0.09439 -0.163052,0.115514 -0.05052,0.01419 -0.111036,0.02355 -0.163048,0.01238 -0.048,-0.0102 -0.09238,-0.03921 -0.143474,-0.02651 -0.07334,0.01825 -0.0958,0.107381 -0.150099,0.150341 -0.04347,0.03438 -0.08384,0.02383 -0.130342,0.04263 -0.04034,0.01633 -0.06624,0.05699 -0.104347,0.07771 -0.02438,0.01329 -0.05504,0.0084 -0.07765,0.024 -0.05607,0.0386 -0.06469,0.122464 -0.124627,0.159053 -0.04886,0.02983 -0.111848,-3.7e-4 -0.162951,0.02516 -0.03367,0.01682 -0.05914,0.04715 -0.09131,0.06669 -0.03055,0.01855 -0.06959,0.02531 -0.09722,0.04791 -0.03403,0.02785 -0.0499,0.07144 -0.09191,0.09087 -0.10936,0.05058 -0.185645,-0.01419 -0.293484,-0.0011 -0.06241,0.0075 -0.117347,0.06327 -0.178861,0.06454 -0.03764,7.81e-4 -0.07132,-0.02094 -0.108098,-0.02542 -0.03114,-0.0038 -0.06804,0.0059 -0.09779,-0.0051 -0.02117,-0.008 -0.03649,-0.04011 -0.0593,-0.04039 -0.0205,-2.61e-4 -0.04165,0.02458 -0.05811,0.03477 -0.03415,0.02111 -0.07299,0.03525 -0.110866,0.04818 -0.05704,0.01947 -0.118222,0.01056 -0.176091,0.02614 -0.06048,0.01641 -0.140784,0.06272 -0.195656,0.09416 -0.09374,0.05373 -0.180502,0.119241 -0.28044,0.165167 -0.05739,0.02635 -0.117991,0.03304 -0.176091,0.05504 -0.04346,0.01645 -0.08082,0.06794 -0.130447,0.0653 -0.02496,-0.0013 -0.04663,-0.01735 -0.07174,-0.01981 -0.04755,-0.0047 -0.104481,0.01105 -0.150005,-0.0046 -0.03172,-0.0108 -0.05312,-0.03968 -0.08478,-0.05038 -0.02541,-0.0085 -0.05584,0.0036 -0.07911,-0.0108 -0.04921,-0.03027 -0.06593,-0.09375 -0.118429,-0.126907 -0.03338,-0.02107 -0.0762,-0.01329 -0.108887,-0.0348 -0.07073,-0.04631 -0.150153,-0.204901 -0.26097,-0.148735 -0.04542,0.02302 -0.05231,0.0694 -0.06133,0.11441 -0.0108,0.05361 -0.02417,0.107831 -0.01557,0.163048 0.0085,0.05442 0.02956,0.09848 0.02823,0.156524 -0.0017,0.07606 -0.02386,0.154647 0.0029,0.228267 -0.08881,0.04534 -0.138037,0.110683 -0.247833,0.100912 -0.128797,-0.01165 -0.289894,-0.141324 -0.415911,-0.0315 -0.03502,0.03052 -0.01806,0.09165 -0.02291,0.132789 -0.0102,0.08548 -0.03177,0.158377 -0.04953,0.24131 -0.01105,0.05186 -0.02079,0.116534 -0.07254,0.145462 -0.01992,0.01105 -0.038,-8.48e-4 -0.05868,0.0021 -0.04263,0.0059 -0.08242,0.04915 -0.129084,0.02191 -0.04841,-0.02826 -0.0593,-0.08219 -0.125187,-0.09108 -0.04541,-0.0061 -0.05446,0.05571 -0.09794,0.06367 -0.06222,0.01129 -0.138841,-0.0092 -0.169497,0.06673 -0.02942,0.07304 0.07774,0.06948 0.117312,0.09585 0.02917,0.01945 0.05078,0.04865 0.07827,0.0703 0.04465,0.03519 0.09715,0.05845 0.135751,0.1013 0.08636,0.09584 0.14721,0.289237 0.155162,0.417304 0.0034,0.05288 -0.03983,0.101471 -0.04139,0.156527 -0.0016,0.05844 -0.0023,0.131512 0.008,0.189133 0.0076,0.04405 0.0276,0.08482 0.02108,0.130435 -0.01435,0.100535 -0.0626,0.192174 -0.09353,0.286963 -0.02264,0.06939 -0.0266,0.144879 -0.04635,0.215223 -0.01056,0.03749 -0.03402,0.07214 -0.03943,0.110878 -0.0093,0.06826 0.05393,0.09961 0.07593,0.156527 0.01715,0.04437 4.92e-4,0.09153 0.0011,0.136959 3.69e-4,0.02843 0.01252,0.05654 0.0092,0.08478 -0.01178,0.101264 -0.131897,0.148525 -0.1333,0.254354 -0.0011,0.08207 0.01839,0.166001 0.01238,0.247831 -0.0059,0.08117 -0.03111,0.187775 -0.01264,0.267397 0.0139,0.05972 0.08843,0.08493 0.100098,0.142355 0.0066,0.03216 -0.04019,0.04563 -0.0295,0.08592 0.01435,0.05411 0.06061,0.08939 0.08675,0.136959 0.02694,0.04901 0.02939,0.110138 0.04631,0.163049 0.0171,0.0535 0.05274,0.111679 0.05026,0.169467 -0.0013,0.03064 -0.02872,0.04092 -0.04207,0.0656 -0.02255,0.04178 -0.01214,0.101822 -0.0558,0.13183 -0.03014,0.0207 -0.073,-7.99e-4 -0.100839,0.02274 -0.04627,0.03911 -0.0052,0.12335 -0.0345,0.171148 -0.03409,0.05555 -0.116656,0.05148 -0.150344,0.105136 -0.02831,0.04506 -0.0028,0.101907 0.004,0.149319 0.0087,0.06235 0.0024,0.140441 -0.0085,0.202179 -0.0074,0.04173 -0.02077,0.0891 -0.04579,0.123883 -0.0148,0.02056 -0.03994,0.03551 -0.0497,0.0593 -0.02247,0.0548 0.0034,0.10981 -0.02601,0.168987 -0.01538,0.03099 -0.02733,0.06946 -0.04767,0.09723 -0.01686,0.02303 -0.04014,0.03591 -0.04627,0.06581 -0.01605,0.07794 0.06694,0.122685 0.06022,0.195648 -0.0058,0.06373 -0.04778,0.123309 -0.05481,0.189135 -0.0041,0.0396 0.01584,0.06708 0.01845,0.104347 0.0034,0.04771 -0.0087,0.102551 -0.01496,0.150003 -0.0059,0.04669 -0.04229,0.09805 -0.03968,0.143474 0.0034,0.05703 0.07381,0.101895 0.09723,0.150005 0.0157,0.03221 0.001,0.107467 -0.0046,0.143476 -0.0035,0.0226 -0.02139,0.03723 -0.02661,0.05869 -0.0064,0.02655 0.01044,0.05094 -7.4e-5,0.07827 -0.01129,0.02996 -0.03531,0.05256 -0.04189,0.08478 -0.02013,0.09835 -0.01068,0.212171 -0.04664,0.306529 -0.02151,0.0563 -0.08031,0.09126 -0.09998,0.150001 -0.01869,0.05579 0.0196,0.112346 -0.0021,0.169571 -0.02321,0.06116 -0.08851,0.09763 -0.107867,0.156551 -0.01837,0.0559 0.02695,0.116765 0.0089,0.169258 -0.01419,0.04126 -0.06672,0.05807 -0.08224,0.10465 -0.05134,0.154097 -0.02709,0.313966 -0.06514,0.469575 -0.01225,0.04999 -0.05193,0.07381 -0.07372,0.117396 -0.0211,0.04223 -9.1e-4,0.09284 -0.0148,0.136961 -0.01105,0.03545 -0.04569,0.05589 -0.05628,0.0913 -0.03275,0.109639 -0.06326,0.2245 -0.07433,0.339136 -0.0041,0.04365 0.0079,0.0876 0.0035,0.130448 -0.0064,0.06091 -0.04258,0.114908 -0.04621,0.17609 -0.0025,0.04491 0.02035,0.08599 0.02183,0.130448 0.0032,0.09141 -0.0148,0.226022 -0.04308,0.31305 -0.01764,0.05418 -0.08071,0.07774 -0.09992,0.130447 -0.01962,0.05395 0.02238,0.110975 -0.01238,0.162789 -0.04876,0.07248 -0.127651,0.102599 -0.166153,0.189393 -0.02404,0.05416 0.02308,0.104893 0.004,0.156525 -0.01644,0.04443 -0.08251,0.06499 -0.09051,0.110842 -0.0049,0.02752 0.02355,0.03267 0.03275,0.05365 0.01465,0.03331 0.02429,0.09899 0.02313,0.135497 -0.0019,0.06044 -0.05713,0.09993 -0.07106,0.156524 -0.01202,0.04844 0.01165,0.09556 0.0052,0.14346 -0.0041,0.031 -0.03443,0.04493 -0.04686,0.07185 -0.01789,0.03876 -0.0068,0.08432 -0.02378,0.123818 -0.03774,0.08777 -0.161628,0.10124 -0.201726,0.189136 -0.02416,0.0529 -0.0046,0.118319 -0.03367,0.169571 -0.03492,0.06141 -0.106714,0.09584 -0.142833,0.156523 -0.02813,0.04728 9.76e-4,0.101725 -0.05874,0.130435 0.03081,0.04903 0.0095,0.06561 0.0084,0.117396 -5.41e-4,0.02302 0.01419,0.0424 0.01435,0.06522 2.64e-4,0.03289 -0.01652,0.06508 -0.01959,0.09782 -0.0036,0.03874 0.04489,0.06306 0.03808,0.09755 -0.0072,0.03602 -0.06783,0.05067 -0.0848,0.08509 -0.01316,0.02662 -0.0056,0.05759 -0.01783,0.08474 -0.04754,0.105306 -0.113124,0.212076 -0.142324,0.326094 -0.01304,0.05086 0.01178,0.09374 0.0108,0.143478 -0.0011,0.06221 -0.05659,0.112346 -0.05158,0.176089 0.0064,0.08178 0.05528,0.166443 0.07112,0.247832 0.0074,0.03863 -0.01896,0.07865 -0.02162,0.117396 -0.0025,0.03943 0.01556,0.07867 0.01117,0.117397 -0.0072,0.06407 -0.09995,0.06751 -0.118526,0.130447 -0.01854,0.06278 0.0034,0.131471 -0.0061,0.195651 -0.0095,0.06446 -0.05414,0.11821 -0.06576,0.182611 -0.01165,0.06366 0.0089,0.131219 0.0089,0.195658 l -0.07174,-0.01304 0.01304,0.05869 c -0.05358,0.01593 -0.07452,0.05997 -0.111449,0.09755 -0.03945,0.04013 -0.09978,0.05449 -0.129775,0.104651 -0.05151,0.08608 0.02139,0.233399 0.01913,0.326089 -0.0023,0.09914 -0.0859,0.194897 -0.101871,0.293485 -0.0083,0.05086 0.02356,0.09419 0.02825,0.143476 0.0053,0.05584 -0.03438,0.178349 -0.06088,0.22824 -0.01516,0.02855 -0.04385,0.04107 -0.06185,0.06645 -0.02702,0.03809 -0.04852,0.09802 -0.06352,0.142279 -0.02457,0.07253 0.01304,0.127468 0.0045,0.195657 -0.0066,0.05249 -0.05373,0.08358 -0.07098,0.130447 -0.01316,0.03571 0.0045,0.07391 -0.0049,0.110865 -0.01497,0.06043 -0.09053,0.08145 -0.09794,0.143476 -0.0061,0.05095 0.0238,0.09939 0.02482,0.150004 0.0017,0.08412 -0.03307,0.169711 -0.03742,0.254353 -0.0046,0.08751 0.02751,0.159244 0.0023,0.247833 -0.01563,0.05515 -0.0576,0.07405 -0.08122,0.11952 -0.0136,0.02623 -0.007,0.06605 -0.01951,0.0957 -0.02179,0.0516 -0.06344,0.09726 -0.08103,0.150003 -0.01,0.02957 -5.08e-4,0.06157 -0.01093,0.0913 -0.0161,0.04614 -0.04707,0.08087 -0.05506,0.130447 -0.0092,0.05795 -0.0024,0.128068 -0.02677,0.182589 -0.0161,0.03628 -0.05193,0.04176 -0.08006,0.06426 -0.02741,0.02195 -0.09141,0.124183 -0.09672,0.157501 -0.0074,0.04664 0.03808,0.159752 0.06067,0.201595 0.01999,0.03701 0.0488,0.0519 0.04741,0.0984 -0.0012,0.03903 -0.0073,0.09127 -0.03006,0.123884 -0.03454,0.04959 -0.08514,0.06338 -0.09245,0.13046 -0.0058,0.05337 -0.01068,0.116073 -0.0073,0.169571 0.0012,0.01933 0.01521,0.04002 0.01316,0.05868 -0.0045,0.03777 -0.0564,0.04848 -0.05772,0.09132 -0.0015,0.04563 0.03587,0.08407 0.02979,0.130435 -0.0072,0.05416 -0.06425,0.08735 -0.06879,0.143489 -0.0074,0.09252 0.04487,0.184214 0.01611,0.280441 -0.01,0.03301 -0.03829,0.0491 -0.05297,0.07853 -0.01928,0.03861 -0.0087,0.08772 -0.03997,0.121421 -0.02308,0.02492 -0.06123,0.0171 -0.08375,0.0396 -0.01686,0.01684 -0.01789,0.05215 -0.02882,0.07353 -0.02119,0.04136 -0.06108,0.07191 -0.07289,0.117409 0.110283,0.06895 -0.05878,0.190152 -0.07174,0.254353 0.05272,0.01584 0.06086,0.07552 0.09071,0.117409 0.03979,0.05579 0.08678,0.106787 0.101555,0.176091 0.01449,0.06781 -0.0136,0.153375 -0.02169,0.221743 -0.0058,0.04936 0.01868,0.07238 0.02302,0.117397 0.004,0.04149 -0.02113,0.08147 -0.01629,0.123922 0.0066,0.05752 0.05412,0.09539 0.0886,0.13696 0.0343,0.04137 0.07041,0.09793 0.09949,0.143476 0.0509,0.07969 0.06179,0.227271 0.07592,0.319571 0.01202,0.07832 -0.0609,0.162516 -0.05594,0.247832 0.0024,0.04459 0.03568,0.08171 0.03699,0.123923 0.0011,0.03471 -0.02565,0.06374 -0.02824,0.09782 -0.0024,0.03286 0.02475,0.05448 0.03038,0.08478 0.0056,0.03002 -0.01093,0.05964 -0.0038,0.0913 0.0069,0.02979 0.02594,0.05481 0.03365,0.08421 0.01093,0.04159 0.0083,0.08325 0.02453,0.124497 0.0148,0.03713 0.04169,0.07226 0.05151,0.110878 0.01897,0.07463 -0.07253,0.132588 -0.01105,0.214615 0.037,0.04936 0.108669,0.05915 0.150305,0.105245 0.04975,0.05507 0.06667,0.133061 0.11537,0.187651 0.02442,0.02736 0.0604,0.04093 0.08817,0.06434 0.02894,0.0244 0.04506,0.06 0.07246,0.0863 0.04187,0.04019 0.09663,0.07135 0.135467,0.112165 0.03158,0.03319 0.03813,0.08421 0.07381,0.113949 0.05856,0.04877 0.154618,0.01948 0.22106,0.05725 0.07106,0.0404 0.155153,0.09948 0.214965,0.155315 0.03161,0.0295 0.05509,0.06779 0.09158,0.09212 0.06261,0.04176 0.139129,0.04511 0.20218,0.07674 0.04515,0.02265 0.107163,0.06272 0.143473,0.09752 0.03957,0.03791 0.07167,0.08996 0.123924,0.111206 0.105864,0.04301 0.209325,7.92e-4 0.31305,0.03074 0.09696,0.02798 0.165204,0.11044 0.2674,0.128836 0.08361,0.01504 0.138274,-0.02189 0.215222,-0.03916 0.0324,-0.0073 0.0596,0.0083 0.0913,0.0084 0.03121,2.21e-4 0.06017,-0.01642 0.0913,-0.01605 0.03077,3.86e-4 0.06027,0.01514 0.09131,0.01656 0.05043,0.0022 0.09322,-0.01093 0.143476,0.0056 0.04417,0.01449 0.09522,0.0636 0.143475,0.05709 0.05967,-0.0081 0.09113,-0.110174 0.150004,-0.104578 0.05347,0.0051 0.07235,0.08351 0.123909,0.09677 0.07417,0.01907 0.103934,-0.09572 0.169565,-0.09618 0.06862,-4.74e-4 0.116789,0.07418 0.189134,0.06738 0.02851,-0.0025 0.05021,-0.02427 0.07827,-0.02706 0.03343,-0.0034 0.06329,0.01435 0.09782,0.004 0.0357,-0.0108 0.06567,-0.04432 0.104347,-0.04535 0.05406,-0.0015 0.09279,0.05449 0.150004,0.04862 0.06487,-0.0068 0.121184,-0.06487 0.182612,-0.07953 0.03257,-0.0076 0.06549,0.0184 0.09782,0.02032 0.05355,0.0032 0.0971,-0.09085 0.148796,-0.06887 0.02308,0.01 0.03863,0.04467 0.05337,0.06384 h 0.0066 c 0.06721,-0.06486 0.05963,0.01044 0.124013,0.01748 0.05103,0.0057 0.09937,-0.03251 0.149909,-0.03321 0.052,-7.36e-4 0.104869,0.03507 0.156525,0.01576 0.106411,-0.03974 0.178008,-0.10828 0.267398,-0.17197 0.03569,-0.02542 0.08049,-0.0312 0.117385,-0.05446 0.05997,-0.03779 0.104395,-0.08614 0.169568,-0.117602 0.04816,-0.02326 0.101167,-0.03171 0.150005,-0.05306 0.103291,-0.04512 0.18974,-0.09449 0.300007,-0.126139 0.0822,-0.0236 0.192423,-0.03399 0.267396,-0.07149 0.05879,-0.0294 0.09306,-0.09778 0.156526,-0.122724 0.0472,-0.01854 0.101835,0.0035 0.150003,-0.01044 0.03197,-0.0091 0.05582,-0.03729 0.08478,-0.05285 0.03525,-0.01892 0.07554,-0.02339 0.110878,-0.04125 0.05291,-0.02673 0.08276,-0.09462 0.13696,-0.115345 0.0812,-0.03105 0.177169,-0.01841 0.260876,-0.05393 0.0426,-0.01806 0.07513,-0.05367 0.117408,-0.07265 0.07529,-0.03378 0.159956,-0.05327 0.234787,-0.08601 0.03112,-0.0136 0.05223,-0.04602 0.08478,-0.05612 0.02367,-0.0073 0.04734,0.0072 0.07173,0.0022 0.03824,-0.0076 0.0702,-0.04385 0.110878,-0.04001 0.0337,0.0032 0.05494,0.03487 0.0913,0.02783 0.06304,-0.01225 0.103218,-0.08037 0.16957,-0.08701 0.07297,-0.0073 0.132867,0.04221 0.208439,0.01105 0.03835,-0.01578 0.05305,-0.06345 0.08513,-0.08821 0.03242,-0.02499 0.07571,-0.02198 0.110768,-0.04246 0.04843,-0.02831 0.08354,-0.07423 0.130542,-0.102247 0.03191,-0.01903 0.0713,-0.01578 0.103995,-0.03305 0.03849,-0.02031 0.05981,-0.05487 0.104614,-0.06599 0.04898,-0.01214 0.101458,-0.0051 0.150004,-0.0202 0.05322,-0.01658 0.08916,-0.06341 0.143475,-0.07839 0.03021,-0.0084 0.07985,-0.02383 0.110865,-0.01875 0.05255,0.0086 0.07143,0.03858 0.130448,0.02419 0.06532,-0.01594 0.119715,-0.09466 0.18904,-0.09017 0.04036,0.0025 0.04425,0.0648 0.08514,0.06068 0.0708,-0.0072 0.192972,-0.02522 0.25213,-0.06686 0.03551,-0.02497 0.04663,-0.08761 0.09326,-0.09731 0.02745,-0.0057 0.05903,0.0181 0.08478,0.02531 0.03011,0.0084 0.08083,0.0045 0.110878,-0.005 0.05362,-0.0165 0.1631966,-0.08684 0.1970306,-0.13199 0.03071,-0.04099 0.03639,-0.09597 0.08343,-0.124588 0.03956,-0.02406 0.08984,-0.01277 0.130421,-0.03513 0.0468,-0.02595 0.08173,-0.07163 0.129331,-0.09553 0.0269,-0.01345 0.05816,-0.0076 0.0859,-0.02355 0.03538,-0.02015 0.06408,-0.0495 0.1043466,-0.06054 0.05515,-0.01511 0.11543,0.0056 0.169569,-0.01329 0.05497,-0.01911 0.08637,-0.08153 0.143475,-0.09453 0.05052,-0.01165 0.09984,0.02054 0.1500029,0.01329 0.07468,-0.0108 0.08685,-0.111315 0.156527,-0.130395 0.105124,-0.02879 0.206524,-0.02096 0.31305,-0.0455 0.04531,-0.01056 0.07815,-0.05346 0.1239217,-0.06012 0.05588,-0.0081 0.129306,0.02591 0.182613,0.0092 0.02748,-0.0085 0.0523,-0.03485 0.07825,-0.04828 0.05114,-0.02649 0.117907,-0.04101 0.163048,-0.076 0.03909,-0.0303 0.06651,-0.08439 0.1109017,-0.106228 0.04911,-0.02418 0.105682,0.0139 0.156499,-0.0021 0.08688,-0.0272 0.11288,-0.110101 0.215223,-0.115454 0.0492,-0.0024 0.08802,0.04737 0.1369607,0.04125 0.02877,-0.0036 0.0474,-0.0294 0.07174,-0.04234 0.03508,-0.01865 0.07475,-0.01225 0.110877,-3.01e-4 0.146702,0.04841 0.176046,0.165144 0.176282,0.305943 5.9e-5,0.03607 0.01973,0.0685 0.01801,0.104347 -0.0046,0.09536 -0.03729,0.191802 -0.04894,0.286963 -0.0066,0.05277 0.03649,0.09738 0.02951,0.143475 -0.01117,0.07354 -0.07833,0.136004 -0.06054,0.215223 0.01277,0.05693 0.08429,0.100584 0.08503,0.156525 9.68e-4,0.07248 -0.0547,0.0925 -0.09077,0.143504 -0.02417,0.03418 -0.02012,0.07381 -0.03505,0.110744 -0.0089,0.02212 -0.03042,0.0361 -0.03759,0.05906 -0.01618,0.05186 0.01521,0.104784 0.0074,0.156272 -0.01388,0.09198 -0.08437,0.183022 -0.110004,0.273918 -0.01044,0.03676 0.01614,0.06977 0.0084,0.102976 -0.0047,0.01969 -0.03024,0.03126 -0.04154,0.04729 -0.02306,0.03276 -0.04789,0.07177 -0.06888,0.105925 -0.02729,0.0444 0.0034,0.09521 -0.01492,0.141592 -0.02746,0.06962 -0.0999,0.121694 -0.1257997,0.189167 -0.02007,0.0523 -0.01907,0.114605 -0.02435,0.169563 -0.0078,0.08256 -0.02751,0.164136 -0.0247,0.247832 0.0016,0.04687 0.02879,0.08974 0.02169,0.13696 -0.0076,0.05171 -0.01238,0.114483 -0.03163,0.163048 -0.01497,0.03784 -0.04575,0.0702 -0.05335,0.110878 -0.0075,0.04037 0.02496,0.07984 0.0085,0.117396 -0.03292,0.07497 -0.11401,0.08977 -0.138342,0.17609 -0.03055,0.108413 -0.0089,0.231639 -0.04341,0.339112 -0.01832,0.057 -0.0811,0.08365 -0.08858,0.150029 -0.0058,0.05156 0.03021,0.09354 0.03017,0.143474 -6.8e-5,0.05191 -0.04049,0.07129 -0.0631,0.11112 -0.02879,0.05078 -0.0129,0.104991 -0.07265,0.136708 0.01068,0.04911 -0.01732,0.0752 -0.03642,0.117396 -0.0108,0.02383 -0.0089,0.04999 -0.02512,0.07165 -0.02604,0.03489 -0.069,0.04991 -0.09805,0.08138 -0.0367,0.03977 -0.06436,0.160551 -0.04913,0.212191 -0.05804,0.03185 -0.06004,0.139529 -0.08988,0.195655 -0.06808,0.128041 -0.185938,0.197288 -0.202469,0.352183 -0.0045,0.04155 -0.0018,0.104821 0.01429,0.143476 0.01389,0.0332 0.04534,0.06582 0.04013,0.104347 -0.0119,0.08783 -0.1108544,0.16959 -0.1123234,0.260876 -4.56e-4,0.02833 0.02207,0.05219 0.0307,0.07827 -0.173032,0.05806 -0.225078,0.232542 -0.319043,0.371063 -0.02909,0.04286 -0.09916,0.04087 -0.124261,0.08615 -0.01277,0.02311 -0.0039,0.05287 -0.01316,0.07758 -0.02013,0.05364 -0.054,0.09657 -0.05736,0.156525 -0.0021,0.03906 0.01708,0.07858 0.0081,0.117397 -0.0129,0.05624 -0.06859,0.09501 -0.08406,0.150004 -0.01905,0.06761 -0.0075,0.151203 -0.01857,0.221743 -0.01732,0.111837 -0.07537,0.217814 -0.08239,0.332617 -0.0034,0.05382 0.02763,0.103157 0.03199,0.156525 -0.115818,0.02723 -0.202925,0.190581 -0.246554,0.286956 -0.01032,0.02273 -0.03259,0.03719 -0.0421,0.05981 -0.01345,0.03218 0.0018,0.07027 -0.01068,0.103231 -0.03036,0.07996 -0.1135125,0.112504 -0.1486615,0.182644 -0.02021,0.04036 -0.01056,0.08808 -0.02272,0.130433 -0.01727,0.05986 -0.05811,0.1055 -0.07406,0.169571 -0.01798,0.07235 -0.0061,0.152748 -0.02282,0.221744 -0.01419,0.05857 -0.08637,0.07856 -0.111606,0.130539 -0.01449,0.02973 0.01008,0.05651 -6.6e-4,0.0836 -0.01769,0.04511 -0.07904,0.06527 -0.10164,0.106132 -0.01093,0.0198 -0.0059,0.04404 -0.01629,0.06428 -0.02535,0.04994 -0.058,0.08883 -0.07873,0.143731 -0.01008,0.02669 0.0021,0.05057 -0.01252,0.07827 -0.03331,0.06277 -0.09867,0.09547 -0.1253416,0.163048 -0.06643,0.168348 0.01738,0.356337 -0.0311,0.528177 -0.0072,0.02559 -0.0311,0.03816 -0.04562,0.05906 -0.02663,0.03827 -0.05159,0.0795 -0.078,0.118258 -0.01823,0.02674 -0.0084,0.06231 -0.029,0.08882 -0.03054,0.03917 -0.08529,0.04578 -0.102029,0.09922 -0.02337,0.07459 0.05589,0.138303 0.03847,0.208699 -0.01214,0.04888 -0.06918,0.06917 -0.09886,0.104929 -0.02428,0.02928 -0.01044,0.05959 -0.02521,0.09073 -0.0155,0.03242 -0.04965,0.04954 -0.06995,0.07835 -0.01834,0.02604 -0.01769,0.05856 -0.03559,0.08469 -0.05384,0.07856 -0.146627,0.121232 -0.184066,0.208701 -0.01,0.02287 -0.0059,0.04885 -0.01667,0.07149 -0.01238,0.02648 -0.03657,0.04135 -0.04145,0.07201 -0.0066,0.04152 0.0058,0.105257 -0.03471,0.132921 -0.02252,0.01539 -0.0583,0.0041 -0.08408,0.004 -0.0086,0.06911 -0.005,0.140159 -0.01435,0.208701 -0.0046,0.0325 -0.0265,0.0583 -0.03024,0.09131 -0.0053,0.04709 0.0119,0.105172 -0.0025,0.150002 -0.01093,0.03398 -0.04456,0.05499 -0.0627,0.08477 -0.0236,0.03877 -0.01664,0.08945 -0.03721,0.130433 -0.01598,0.03183 -0.05063,0.05134 -0.06326,0.08478 -0.01574,0.04173 0.01736,0.08902 -6.23e-4,0.13034 -0.01316,0.03012 -0.04238,0.07337 -0.06954,0.09163 -0.03156,0.02122 -0.08499,0.02933 -0.09564,0.07162 -0.01304,0.05155 0.03291,0.09092 0.04596,0.136869 0.01316,0.04626 0.0064,0.12722 0.0068,0.176091 2.03e-4,0.03438 -0.03702,0.06245 -0.05214,0.0913 -0.02394,0.04565 -0.03758,0.10527 -0.04116,0.156527 -0.0046,0.06431 0.02117,0.120261 0.03006,0.182612 0.0063,0.04398 -0.0072,0.08662 -0.004,0.130435 0.0022,0.03092 0.01832,0.06386 0.01202,0.09505 -0.0197,0.09653 -0.14446,0.05251 -0.188565,0.115042 -0.0306,0.0434 -0.0081,0.118197 -0.01435,0.168175 -0.0073,0.05853 -0.04939,0.135151 -0.07388,0.189038 -0.02087,0.04596 -0.08403,0.07236 -0.116546,0.111072 -0.08989,0.106945 -0.161971,0.226745 -0.272254,0.316839 -0.03285,0.02684 -0.08231,0.01965 -0.11191,0.05085 -0.04745,0.05004 -0.01375,0.113997 -0.05194,0.167004 -0.0346,0.04807 -0.05539,0.100329 -0.0862,0.14999 -0.01826,0.02941 -0.05153,0.04462 -0.06899,0.07294 -0.01765,0.02865 -0.0063,0.141234 0.0032,0.174791 0.01117,0.03997 0.05892,0.05201 0.08838,0.0753 0.03892,0.03075 0.07169,0.0778 0.09641,0.120456 0.03568,0.06158 0.01238,0.120152 0.03434,0.182613 0.01811,0.05153 0.07355,0.07552 0.08735,0.123949 0.02121,0.0743 -0.0068,0.113318 0.06246,0.174862 0.09998,0.08892 0.251536,0.06833 0.345538,0.164258 0.02623,0.02677 0.05824,0.05903 0.06389,0.09782 0.0063,0.04349 -0.01895,0.08925 0.01252,0.128288 0.03075,0.03815 0.0898,0.03881 0.124653,0.07458 0.05947,0.06105 0.09659,0.144418 0.15557,0.205866 0.03756,0.03914 0.09577,0.03653 0.139112,0.06544 0.04018,0.02678 0.05972,0.07472 0.0984,0.101543 0.03825,0.02652 0.08326,0.0069 0.123219,0.02263 0.05193,0.02036 0.04964,0.09232 0.09819,0.114496 0.101968,0.04658 0.219661,0.02657 0.319285,0.08154 0.04999,0.02757 0.06913,0.0807 0.100693,0.125226 0.02942,0.04153 0.07048,0.07883 0.105367,0.115916 0.03294,0.03503 0.0811,0.03169 0.113524,0.07323 0.02596,-0.0073 0.0647,-0.02739 0.09127,-0.01719 0.04204,0.01611 0.05327,0.07053 0.09789,0.08468 0.06215,0.01973 0.110623,-0.0091 0.159646,0.05018 0.04403,0.05323 0.05533,0.16829 0.127324,0.191138 0.04337,0.01375 0.0949,-0.0013 0.136842,0.02028 0.02843,0.01464 0.03463,0.0522 0.061341,0.06482 0.05133,0.02423 0.106107,0.0066 0.153295,0.05097 0.03579,0.03363 0.04001,0.08131 0.06207,0.122529 0.04081,0.07626 0.09927,0.14618 0.173398,0.191982 0.07785,0.04812 0.1703319,-0.0032 0.2543539,0.04501 0.13215,0.07575 0.217124,0.227458 0.345686,0.307796 0.03747,0.02342 0.09352,0.05124 0.1369334,0.05954 0.03102,0.0059 0.06186,-0.0015 0.0913,0.01329 0.0385,0.01926 0.06245,0.05767 0.09783,0.08125 0.07214,0.04812 0.169179,0.09519 0.247831,0.133569 0.04546,0.02217 0.0861,-5.7e-5 0.1304337,0.01329 0.03796,0.01129 0.06247,0.04732 0.09782,0.06374 0.08021,0.03731 0.134326,-0.04215 0.202178,-0.0672 0.04512,-0.01667 0.08895,0.02925 0.1369607,0.01516 0.06339,-0.01862 0.106568,-0.07127 0.163046,-0.101312 0.07786,-0.04143 0.212261,-0.03186 0.280442,0.02011 h 0.0066 c 0.04144,-0.03158 0.07161,-0.01105 0.1173837,-0.02159 0.07541,-0.01737 0.186974,-0.04149 0.267397,-0.02844 0.04863,0.0079 0.08826,0.04277 0.13696,0.04885 0.06351,0.0079 0.1155635,-0.024 0.1760911,-0.03489 0.049272,-0.0087 0.1011666,-0.0038 0.1500042,-0.01542 0.1110356,-0.02657 0.1889669,-0.112456 0.2804405,-0.173695 0.032448,-0.02172 0.071632,-0.02768 0.1043469,-0.04938 0.028952,-0.01923 0.052198,-0.05253 0.084791,-0.06559 0.053169,-0.02133 0.1238956,0.03608 0.1742289,0.01419 0.073866,-0.03204 0.1214945,-0.115819 0.1909965,-0.15395 0.077338,-0.04244 0.1724432,-0.05004 0.2543536,-0.0814 0.062577,-0.02395 0.099431,-0.07609 0.1565254,-0.106059 0.044987,-0.0236 0.098557,-0.02212 0.1434807,-0.04621 0.049916,-0.02678 0.08274,-0.07552 0.1304374,-0.105136 0.073575,-0.04569 0.1583207,-0.0777 0.2282621,-0.128863 0.043567,-0.03187 0.069095,-0.07979 0.110902,-0.112953 0.027738,-0.02201 0.062771,-0.0318 0.088421,-0.05688 0.1098096,-0.107321 0.183423,-0.239061 0.3093908,-0.330945 0.042268,-0.03084 0.1044319,-0.06805 0.1565253,-0.07694 0.045097,-0.0076 0.093847,0.0092 0.1369597,-0.01105 0.093458,-0.04416 0.1331516,-0.147643 0.2152478,-0.196986 0.057867,-0.03477 0.1438917,-0.03681 0.2086744,-0.05649 0.075973,-0.0231 0.1729112,-0.07928 0.24131,-0.121486 0.059496,-0.03668 0.1388656,-0.0729 0.185662,-0.12546 0.031756,-0.03568 0.034974,-0.08681 0.069377,-0.121269 0.03824,-0.03831 0.092605,-0.04419 0.1360129,-0.07331 0.033584,-0.02252 0.046585,-0.0643 0.079114,-0.08726 0.042874,-0.03025 0.1241118,0.0074 0.1755018,-0.0073 0.060631,-0.01743 0.091829,-0.07458 0.1434813,-0.105246 0.03623,-0.02151 0.081313,-0.01929 0.1171342,-0.04115 0.031559,-0.01927 0.044494,-0.05651 0.068532,-0.08312 0.046006,-0.05095 0.1088627,-0.109421 0.1665186,-0.146551 0.04631,-0.02982 0.086398,-0.0235 0.1369604,-0.03508 0.061672,-0.01419 0.1166802,-0.04927 0.1760907,-0.06827 0.020866,-0.0068 0.045033,0.0017 0.064604,-0.0069 0.029114,-0.0129 0.036762,-0.05248 0.052589,-0.07697 0.024761,-0.03835 0.07092,-0.08002 0.1110732,-0.102028 0.03955,-0.02167 0.0712,0.023 0.109477,0.01117 0.02416,-0.0074 0.027563,-0.04054 0.039499,-0.05907 0.017286,-0.02683 0.050059,-0.0466 0.07929,-0.05833 0.051087,-0.02047 0.09892,0.0232 0.1499781,0.01056 0.056545,-0.01404 0.059335,-0.09504 0.1174243,-0.110793 0.033888,-0.0091 0.069995,0.0102 0.1043458,-0.0028 0.057039,-0.02152 0.10959217,-0.07257 0.16304727,-0.102562 0.033632,-0.01889 0.064896,-0.005 0.097828,-0.01669 0.030363,-0.01093 0.054206,-0.03687 0.084786,-0.04897 0.094962,-0.03762 0.2164498,-0.0592 0.30000677,-0.119048 0.083814,-0.06001 0.1417044,-0.148482 0.2347879,-0.200104 0.042709,-0.02368 0.094295,-0.01068 0.1369589,-0.03377 0.044181,-0.02395 0.079055,-0.06339 0.12205507,-0.08784 0.02116,-0.01202 0.050282,-0.0052 0.073602,-0.01304 0.1051518,-0.03513 0.1488364,-0.05697 0.2608753,-0.02541 0.021883,-0.04902 0.049547,-0.08444 0.10435175,-0.100195 0.023985,-0.0069 0.04974,-4.42e-4 0.071646,-0.01465 0.033425,-0.02163 0.05158,-0.06117 0.084881,-0.0837 0.033664,-0.02276 0.075062,-0.0108 0.1108741,-0.02688 0.081838,-0.03692 0.1528534,-0.09975 0.2347879,-0.137722 0.05587,-0.02591 0.1213719,-0.02285 0.1760909,-0.05023 0.057275,-0.02866 0.1255116,-0.09596 0.1623434,-0.148124 0.021413,-0.03036 0.027573,-0.06932 0.054266,-0.09631 0.044646,-0.04514 0.1138348,-0.0081 0.1595346,-0.04933 0.084721,-0.07638 0.134788,-0.19879 0.23039,-0.267024 0.049121,-0.03506 0.1065466,-0.02128 0.1565255,-0.04627 0.0672,-0.03361 0.113149,-0.100438 0.1891347,-0.123218 0.046906,-0.01406 0.099856,0.01803 0.1434766,-0.0091 0.053744,-0.03337 0.074924,-0.108304 0.1306998,-0.13747 0.057473,-0.03004 0.136935,0.0102 0.1917221,-0.04028 0.042761,-0.03932 0.017766,-0.116777 0.069178,-0.159706 0.1295012,-0.10811 0.289872,-0.173766 0.4235453,-0.275735 0.047904,-0.03655 0.061663,-0.105488 0.1110878,-0.136228 0.04346,-0.02703 0.1015053,-0.05968 0.1498823,-0.07542 0.04481,-0.01464 0.089483,-0.01178 0.130438,-0.03843 0.035658,-0.02337 0.080831,-0.05788 0.1061265,-0.09246 0.016118,-0.02203 0.014717,-0.05378 0.038821,-0.07027 0.048494,-0.03324 0.1178724,0.0058 0.1680994,-0.01935 0.042491,-0.02135 0.056782,-0.07442 0.096822,-0.0982 0.025156,-0.01493 0.058148,-7.7e-4 0.085213,-0.01252 0.052743,-0.02292 0.1203753,-0.07697 0.1701517,-0.110101 0.1262793,-0.08401 0.2037771,-0.244689 0.3391381,-0.312593 0.022857,-0.01165 0.049102,-0.0073 0.07174,-0.02081 0.036694,-0.02179 0.062092,-0.0609 0.1043495,-0.07395 0.055014,-0.01698 0.1468316,-0.0049 0.1941916,-0.0408 0.03868,-0.02942 0.027824,-0.0909 0.067369,-0.122346 0.028777,-0.02288 0.066775,-0.02936 0.097022,-0.04961 0.031218,-0.0209 0.041694,-0.05856 0.071963,-0.08082 0.080773,-0.0594 0.1828931,-0.09847 0.2672972,-0.156431 0.066524,-0.04567 0.121419,-0.11231 0.1891346,-0.154295 0.0383,-0.02373 0.086499,-0.02371 0.1239154,-0.04986 0.040373,-0.0282 0.070861,-0.06897 0.1108717,-0.09823 0.03224,-0.02357 0.071215,-0.03264 0.1034839,-0.05455 0.020674,-0.01404 0.029015,-0.03926 0.047223,-0.05606 0.027005,-0.02491 0.062347,-0.03938 0.090603,-0.06296 0.053248,-0.04442 0.089548,-0.100523 0.1500034,-0.137349 0.094638,-0.05765 0.1905264,-0.110429 0.2869631,-0.163895 0.029233,-0.01622 0.05352,-0.04214 0.084784,-0.05438 0.083979,-0.03289 0.1908702,-0.02756 0.2673719,-0.07634 0.1029146,-0.06564 0.1861536,-0.173537 0.2739446,-0.257481 0.031791,-0.0304 0.063672,-0.07555 0.1043503,-0.09439 0.038923,-0.01801 0.074141,0.03082 0.1171363,0.0076 0.038268,-0.02053 0.056163,-0.06763 0.091571,-0.09284 0.025616,-0.01823 0.058041,-0.01945 0.084777,-0.03834 0.1041848,-0.07361 0.1916185,-0.161547 0.2872463,-0.242557 0.038966,-0.03302 0.1401192,-0.05325 0.1587577,-0.100923 0.024571,-0.06283 -0.011639,-0.202949 -0.051621,-0.253643 -0.024843,-0.03149 -0.059892,-0.05278 -0.084384,-0.08486 -0.062103,-0.08142 -0.083836,-0.191933 -0.1503524,-0.273656 -0.035221,-0.04329 -0.091596,-0.05873 -0.1334879,-0.09371 -0.044997,-0.03756 -0.067228,-0.09492 -0.1114862,-0.132269 -0.041288,-0.03485 -0.1003598,-0.03182 -0.1428867,-0.06399 -0.042905,-0.03246 -0.062681,-0.08469 -0.1044519,-0.117736 -0.046965,-0.03716 -0.1078807,-0.05208 -0.1564297,-0.08687 -0.044152,-0.03162 -0.074752,-0.08091 -0.123915,-0.105743 -0.047019,-0.02373 -0.1024302,-0.02267 -0.1500034,-0.04642 -0.092326,-0.04609 -0.184291,-0.117494 -0.2804315,-0.152169 -0.096405,-0.03477 -0.2114996,-0.06538 -0.3130506,-0.07989 -0.048482,-0.0069 -0.095237,-5.72e-4 -0.1434814,-0.01329 -0.057012,-0.015 -0.1227984,-0.02436 -0.1760911,-0.04951 -0.039937,-0.01886 -0.072056,-0.05588 -0.117394,-0.06186 -0.057191,-0.0075 -0.1149965,0.04086 -0.1695692,0.02332 -0.04572,-0.01464 -0.06498,-0.06578 -0.1043749,-0.0897 -0.043637,-0.0265 -0.1131708,-0.02681 -0.1630216,-0.03155 -0.1684131,-0.01606 -0.3412782,0.01642 -0.5087073,-0.0093 -0.101385,-0.01566 -0.2005735,-0.03535 -0.3000068,-0.06027 -0.042429,-0.01068 -0.079197,-0.03352 -0.1239149,-0.03554 -0.1534253,-0.0069 -0.3067693,0.05865 -0.4565322,0.0768 -0.054563,0.0066 -0.1299365,0.0096 -0.1826131,-0.0068 -0.042309,-0.01316 -0.079088,-0.04564 -0.123915,-0.05006 -0.1529061,-0.01502 -0.2928529,0.03179 -0.4434883,-0.0072 v -0.0066 c 0.039144,-0.01949 0.070352,-0.05145 0.110873,-0.06873 0.1160611,-0.04947 0.2176584,-0.05435 0.3391381,-0.07013 0.055192,-0.0072 0.107803,-0.03046 0.1630472,-0.0361 0.057823,-0.0059 0.1122616,0.03074 0.1695691,0.02184 0.1695085,-0.02635 0.3058679,-0.150728 0.4760978,-0.176369 0.06161,-0.0092 0.1153656,0.04382 0.1760909,0.04845 0.058926,0.0046 0.1175008,-0.01667 0.1760911,-0.01811 0.098447,-0.0023 0.2006324,0.01752 0.3000067,0.01869 0.06693,7.96e-4 0.1578182,0.01534 0.2217442,-0.0056 0.048113,-0.01571 0.084941,-0.0652 0.1369596,-0.06947 0.1159422,-0.0095 0.217394,0.07496 0.3260943,0.08682 0.065366,0.0072 0.1180083,-0.05 0.182613,-0.04238 0.059572,0.007 0.1419115,0.03212 0.1956566,0.05842 0.036542,0.01789 0.069623,0.04924 0.1108717,0.05552 0.062636,0.0095 0.1099832,-0.03556 0.169569,-0.03534 0.04951,1.78e-4 0.097877,0.04211 0.1434815,0.05824 0.061145,0.02163 0.1288682,0.01435 0.1891346,0.03796 0.057761,0.02263 0.079622,0.0924 0.1369851,0.112031 0.065739,0.02251 0.1254256,-0.04031 0.1891094,-0.02271 0.09541,0.02637 0.1824439,0.121135 0.2673971,0.170091 0.060018,0.03458 0.1305456,4.55e-4 0.1891347,0.02975 0.046393,0.0232 0.068327,0.07271 0.1049395,0.10652 0.038091,0.03518 0.091816,0.05864 0.1363702,0.08483 0.066887,0.03931 0.1548246,0.0019 0.2146139,0.04505 0.048152,0.03466 0.056707,0.101822 0.099644,0.141083 0.076959,0.07036 0.163907,0.129971 0.240103,0.200583 0.077177,0.07151 0.1433854,0.152334 0.2163335,0.22732 0.038022,0.03907 0.094444,0.03574 0.1355872,0.06829 0.040675,0.03218 0.059723,0.08673 0.090002,0.127702 0.04116,0.05568 0.097862,0.09907 0.1361595,0.156526 0.042349,0.06353 0.027542,0.145612 0.068456,0.208608 0.041246,0.06351 0.1238485,0.08077 0.1510892,0.156617 0.035929,0.10005 0.011836,0.193389 0.026088,0.293486 0.00686,0.04811 0.011144,0.111291 0.028036,0.156525 0.00782,0.02091 0.028519,0.03541 0.030122,0.05869 0.00505,0.07317 -0.033813,0.1582 -0.034027,0.234789 0.018732,0.0035 0.067591,6.93e-4 0.075537,0.02163 0.016711,0.04406 -0.047415,0.137183 -0.058518,0.180538 -0.014732,0.05748 0.014061,0.112735 0.00784,0.169572 -0.00915,0.0836 -0.067272,0.183301 -0.1003727,0.260873 -0.026578,0.0623 -0.010767,0.156975 -0.051204,0.208414 -0.039533,0.05027 -0.1195037,0.03729 -0.1546718,0.09188 -0.02337,0.03627 -0.016215,0.08443 -0.032529,0.123636 -0.024114,0.05795 -0.097933,0.117857 -0.1491337,0.152388 -0.085507,0.05766 -0.2135347,0.04949 -0.2932238,0.117239 -0.065316,0.05552 -0.094188,0.154446 -0.1514683,0.219523 -0.045058,0.05119 -0.1011727,0.07298 -0.1553216,0.111145 -0.049873,0.03515 -0.091907,0.0804 -0.143481,0.113548 -0.097139,0.06242 -0.2339219,0.02752 -0.3248685,0.08982 -0.060474,0.04142 -0.041134,0.136333 -0.1056719,0.180463 -0.074419,0.0509 -0.1770017,0.112383 -0.2607799,0.145298 -0.050577,0.01987 -0.1109129,0.01652 -0.1564996,0.04876 -0.052474,0.0371 -0.079773,0.101045 -0.1304631,0.141428 -0.075687,0.06029 -0.1881698,0.102477 -0.2509015,0.175048 -0.027681,0.03202 -0.039559,0.07478 -0.062834,0.109737 -0.032998,0.04956 -0.081616,0.100826 -0.1234886,0.143384 -0.081215,0.08255 -0.2003823,0.114896 -0.2787182,0.20881 -0.044622,0.05348 -0.045574,0.127507 -0.092777,0.182604 -0.096647,0.112833 -0.2331065,0.170071 -0.3099458,0.300008 -0.029064,0.04915 -0.0258,0.102672 -0.037592,0.156526 -0.012343,0.05636 -0.037762,0.123193 -0.061251,0.17609 -0.025298,0.05698 -0.079467,0.09052 -0.1094769,0.143476 -0.033674,0.05942 -0.00867,0.128629 -0.032689,0.189136 -0.045337,0.114252 -0.1387111,0.209189 -0.1705021,0.332615 -0.021156,0.08213 -0.049634,0.182702 -0.051671,0.267398 -0.00137,0.057 0.021667,0.112589 0.022765,0.169567 0.00117,0.06077 -0.011229,0.121257 -0.00505,0.182615 0.00589,0.05869 0.039622,0.110574 0.043953,0.169567 0.00397,0.05391 0.015941,0.116911 3.024e-4,0.169569 -0.015627,0.05262 -0.062825,0.0986 -0.057108,0.156527 0.00521,0.05288 0.04422,0.102065 0.064745,0.150004 0.040728,0.09511 0.076884,0.19684 0.1135143,0.293484 0.020152,0.05317 0.012249,0.114604 0.027477,0.169569 0.020882,0.07538 0.061018,0.137558 0.090011,0.208702 0.039284,0.09641 0.062197,0.201288 0.1129511,0.293484 0.025413,0.04615 0.058662,0.105949 0.099315,0.140022 0.046692,0.03912 0.099354,0.05385 0.1347655,0.107819 0.028144,0.04287 0.062537,0.08996 0.082902,0.13696 0.040995,0.0946 0.055223,0.192113 0.1295267,0.273233 0.043841,0.04786 0.1165225,0.04683 0.1583564,0.09863 0.031714,0.03924 0.042421,0.09181 0.076431,0.129723 0.037466,0.04177 0.090969,0.06423 0.1240631,0.111473 0.034086,0.04866 0.044401,0.106277 0.089278,0.148898 0.096173,0.09135 0.2229575,0.137305 0.3187286,0.230482 0.057544,0.056 0.072674,0.137767 0.1258869,0.193846 0.042636,0.04493 0.1107864,0.03695 0.1616586,0.06647 0.065153,0.03783 0.1010542,0.107321 0.1695691,0.143639 0.079609,0.04222 0.1981084,0.08229 0.286963,0.09572 0.050377,0.0075 0.1022363,-0.01405 0.1500033,0.0073 0.052911,0.02363 0.1292496,0.06886 0.1681996,0.111776 0.031085,0.03424 0.042998,0.09051 0.086416,0.112092 0.058471,0.02907 0.1267407,-0.0139 0.1888736,0.0079 0.051093,0.01795 0.1166839,0.03526 0.163047,0.0623 0.038742,0.02258 0.067957,0.05879 0.1108742,0.07467 0.046469,0.01719 0.10122,0.0102 0.1500033,0.01757 0.061147,0.0092 0.12089,0.02917 0.1826128,0.0352 0.060523,0.0059 0.1103582,-0.04769 0.169569,-0.04019 0.06928,0.0087 0.1217957,0.06016 0.1956566,0.06254 0.1520766,0.005 0.3021375,-0.04378 0.4500105,-0.06305 0.05904,-0.0075 0.117118,0.0093 0.176091,0.0036 0.04541,-0.0046 0.09107,-0.02651 0.13696,-0.02404 0.05827,0.0032 0.09826,0.0601 0.156525,0.06356 0.06097,0.0036 0.104577,-0.04904 0.163047,-0.05381 0.109738,-0.0089 0.224486,0.07356 0.332616,0.07356 0.04782,0 0.08695,-0.02941 0.130438,-0.04445 0.05917,-0.02047 0.139609,-0.03627 0.202178,-0.03911 0.04809,-0.0022 0.0949,0.0151 0.143482,0.0119 0.05915,-0.004 0.116508,-0.02614 0.176091,-0.0254 0.107639,0.0013 0.19087,0.01914 0.300007,-0.0083 0.0659,-0.0165 0.08907,-0.08363 0.143481,-0.117518 0.03715,-0.02315 0.08946,-0.01678 0.130438,-0.0315 0.0619,-0.02228 0.111858,-0.07009 0.176091,-0.08812 0.05838,-0.01638 0.111,0.03051 0.169569,0.02207 0.06645,-0.0095 0.09383,-0.08597 0.156525,-0.100342 0.045,-0.01044 0.09162,0.01056 0.136959,0.01056 0.08974,0 0.177075,-0.02598 0.254353,-0.0699 0.111486,-0.06337 0.21327,-0.140876 0.326095,-0.201996 0.05699,-0.03087 0.129222,-0.03799 0.182005,-0.07463 0.04999,-0.03468 0.05999,-0.103498 0.111507,-0.138021 0.04892,-0.03276 0.116362,-0.01202 0.162413,-0.05205 0.04143,-0.036 0.05203,-0.09423 0.08754,-0.134869 0.0402,-0.04601 0.104755,-0.05562 0.146656,-0.09878 0.0703,-0.0724 0.119511,-0.18123 0.19745,-0.244421 0.04455,-0.03613 0.109075,-0.01645 0.15471,-0.04842 0.05041,-0.03532 0.02809,-0.10828 0.05431,-0.156491 0.04092,-0.07524 0.13287,-0.09664 0.175823,-0.176091 0.01097,-0.02028 0.03133,-0.05917 0.02125,-0.0827 -0.01267,-0.02961 -0.07153,-0.0041 -0.09363,-4.75e-4 -0.08348,0.0139 -0.181607,-0.01926 -0.260876,-0.0451 -0.137322,-0.04476 -0.291603,-0.05032 -0.423923,-0.103935 -0.178673,-0.07236 -0.334791,-0.194159 -0.521751,-0.249051 -0.05991,-0.01758 -0.117741,0.02686 -0.176091,0.0093 -0.05047,-0.01514 -0.07779,-0.07338 -0.123915,-0.09765 -0.0967,-0.05087 -0.199784,-0.10953 -0.300007,-0.15326 -0.04419,-0.01928 -0.09822,-0.01659 -0.136274,-0.04936 -0.04902,-0.04217 -0.03687,-0.120565 -0.08686,-0.161781 -0.04269,-0.0352 -0.105042,-0.03053 -0.148332,-0.06646 -0.0444,-0.03685 -0.04783,-0.09921 -0.08645,-0.140248 -0.03822,-0.04062 -0.09917,-0.0413 -0.142067,-0.075 -0.04614,-0.03622 -0.06158,-0.09464 -0.104638,-0.133001 -0.05556,-0.0495 -0.129419,-0.05313 -0.180396,-0.112274 -0.03344,-0.03878 -0.08319,-0.08832 -0.100574,-0.13696 -0.01298,-0.03632 -0.0042,-0.0794 -0.01185,-0.117397 -0.01124,-0.05569 -0.04393,-0.144551 -0.07009,-0.195657 -0.02335,-0.04561 -0.07035,-0.0736 -0.09677,-0.117396 -0.02901,-0.0481 -0.02568,-0.107357 -0.05216,-0.156525 -0.103617,-0.192424 -0.241144,-0.369631 -0.231151,-0.600015 0.0026,-0.06061 0.0052,-0.146314 0.02931,-0.202179 0.02031,-0.04703 0.06417,-0.07918 0.07595,-0.130447 0.013,-0.0566 0.03557,-0.125213 0.03768,-0.182611 0.0027,-0.07354 -0.02911,-0.127247 0.01567,-0.195656 0.05151,-0.0787 0.105879,-0.169175 0.173776,-0.234528 0.04252,-0.04092 0.09969,-0.0614 0.139607,-0.105208 0.106049,-0.116365 0.187068,-0.251717 0.316901,-0.343961 0.05357,-0.03805 0.122967,-0.02531 0.175483,-0.06074 0.05199,-0.03508 0.05857,-0.10794 0.111577,-0.142744 0.05903,-0.03875 0.134126,-0.02871 0.195561,-0.06938 0.126939,-0.084 0.181189,-0.217048 0.31305,-0.296113 0.04957,-0.02973 0.109978,-0.03631 0.163048,-0.05833 0.117212,-0.0486 0.231453,-0.102878 0.34566,-0.158137 0.05269,-0.02549 0.109109,-0.04955 0.156525,-0.08414 0.03606,-0.02629 0.06462,-0.0628 0.104352,-0.08384 0.05358,-0.02837 0.116503,-0.06207 0.176091,-0.07479 0.05704,-0.01214 0.112671,-9.18e-4 0.169569,-0.02098 0.09965,-0.03514 0.192772,-0.106107 0.293485,-0.132867 0.04124,-0.01093 0.08242,0.0053 0.123915,0.0068 0.06641,0.0021 0.151551,-0.0119 0.215222,-0.03083 0.156895,-0.04706 0.31736,-0.115661 0.469576,-0.177081 0.047,-0.01897 0.08796,-0.05319 0.136959,-0.06709 0.110957,-0.03149 0.239281,0.04353 0.34566,0.0102 0.05047,-0.01582 0.07189,-0.07026 0.106305,-0.105403 0.03795,-0.03876 0.09707,-0.06102 0.148048,-0.07663 0.08017,-0.02456 0.125011,0.02677 0.202179,0.02949 0.07127,0.0024 0.11615,-0.06086 0.182613,-0.07327 0.05402,-0.0102 0.109952,0.02833 0.163021,0.0073 0.06227,-0.02457 0.07541,-0.106641 0.136986,-0.136543 0.09877,-0.04795 0.214751,-0.06292 0.313051,-0.11276 0.13809,-0.07003 0.257586,-0.180064 0.397835,-0.246798 0.059,-0.02808 0.136054,0.0034 0.189135,-0.02952 0.07625,-0.04721 0.127122,-0.15253 0.189393,-0.216877 0.05609,-0.05795 0.130846,-0.04235 0.187488,-0.08904 0.03759,-0.03098 0.04058,-0.08591 0.0628,-0.126203 0.02142,-0.03887 0.06465,-0.07229 0.09536,-0.104347 0.02495,-0.02603 0.05013,-0.0518 0.08452,-0.0646 0.0383,-0.01419 0.09053,-0.01464 0.118345,-0.0485 0.03697,-0.04499 0.01499,-0.115661 0.05396,-0.159435 0.03612,-0.04057 0.0952,-0.03176 0.14075,-0.0523 0.05347,-0.0241 0.12913,-0.09268 0.165576,-0.138827 0.02603,-0.03296 0.03671,-0.07553 0.06006,-0.110295 0.05718,-0.08508 0.124396,-0.165256 0.185329,-0.247832 0.04106,-0.05567 0.09874,-0.09607 0.133833,-0.156526 0.08077,-0.139157 0.140731,-0.293168 0.224298,-0.430444 0.04778,-0.0785 0.123376,-0.132776 0.168035,-0.215223 0.03569,-0.06584 0.03297,-0.145956 0.07038,-0.208701 0.0336,-0.05636 0.08727,-0.08618 0.111463,-0.150002 0.01943,-0.05125 0.03728,-0.107649 0.03513,-0.163047 -0.0017,-0.04303 -0.01968,-0.0878 -0.0075,-0.130434 0.02932,-0.103692 0.136175,-0.170617 0.170686,-0.273918 0.05114,-0.153089 0.02111,-0.333933 0.06408,-0.489142 0.01165,-0.04173 0.03844,-0.07688 0.053,-0.117396 0.01785,-0.04972 0.02427,-0.101555 0.04703,-0.150003 0.02363,-0.05034 0.05853,-0.09538 0.07253,-0.150005 0.01659,-0.06483 -0.02907,-0.120103 -0.01895,-0.182612 0.0078,-0.04871 0.04223,-0.08894 0.05308,-0.136961 0.01445,-0.06392 -0.0061,-0.131685 0.001,-0.195658 0.01178,-0.103946 0.05331,-0.208335 0.05455,-0.31305 0.0012,-0.09944 -0.0038,-0.204172 -0.03201,-0.300008 -0.01516,-0.05131 -0.06063,-0.0957 -0.0643,-0.150001 -0.0038,-0.05501 0.04931,-0.09671 0.056,-0.150003 0.0083,-0.06524 -0.03172,-0.114216 -0.04017,-0.176093 -0.0058,-0.04332 0.01141,-0.08722 0.0047,-0.130448 -0.01953,-0.125421 -0.09192,-0.233283 -0.128145,-0.35218 -0.0282,-0.09255 -0.06011,-0.186732 -0.08365,-0.280441 -0.01316,-0.05245 -0.01178,-0.114046 -0.03563,-0.163048 -0.02038,-0.0417 -0.06292,-0.06442 -0.09273,-0.0981 -0.02901,-0.03273 -0.04416,-0.07745 -0.06106,-0.117142 -0.05149,-0.120916 -0.01891,-0.25152 -0.0613,-0.371746 -0.04039,-0.114556 -0.15372,-0.187905 -0.190645,-0.306531 -0.03042,-0.0977 -0.0074,-0.197168 -0.05949,-0.293484 -0.06191,-0.114459 -0.18233,-0.137722 -0.26013,-0.228292 -0.04049,-0.04716 -0.05563,-0.111788 -0.09009,-0.163021 -0.02931,-0.04358 -0.0791,-0.07587 -0.100645,-0.123922 -0.01988,-0.04428 -0.0047,-0.101398 -0.03247,-0.142279 -0.0388,-0.05688 -0.12635,-0.05489 -0.171667,-0.11208 -0.05953,-0.07514 -0.136906,-0.176668 -0.169186,-0.267391 -0.01978,-0.05559 0.01629,-0.125774 -0.02704,-0.174702 -0.02774,-0.03131 -0.07473,-0.04031 -0.108143,-0.06424 -0.04459,-0.03195 -0.07147,-0.08203 -0.117386,-0.112553 -0.0808,-0.05373 -0.157516,-0.06232 -0.227683,-0.137647 -0.05935,-0.06372 -0.08885,-0.136065 -0.140996,-0.202084 -0.03752,-0.04749 -0.09454,-0.07824 -0.127016,-0.130539 -0.02925,-0.04707 -0.02687,-0.10703 -0.06657,-0.148871 -0.04023,-0.0424 -0.09444,-0.06958 -0.135311,-0.112031 -0.03519,-0.03655 -0.05581,-0.08932 -0.09818,-0.118331 -0.04487,-0.03072 -0.108754,-0.02553 -0.147341,-0.06641 -0.04411,-0.04672 -0.0152,-0.129123 -0.06275,-0.171116 -0.04603,-0.04066 -0.127774,-0.0015 -0.18087,-0.03968 -0.03724,-0.02684 -0.05647,-0.07274 -0.08625,-0.106617 -0.0719,-0.08183 -0.164196,-0.187957 -0.25315,-0.250122 -0.08376,-0.05855 -0.202344,-0.06621 -0.286964,-0.120443 -0.05005,-0.03206 -0.06978,-0.10158 -0.123943,-0.125122 -0.04656,-0.02024 -0.09595,-0.005 -0.143456,-0.01557 -0.03473,-0.0076 -0.06803,-0.03377 -0.09782,-0.05239 -0.07629,-0.04763 -0.09124,-0.107067 -0.142106,-0.172711 -0.02885,-0.03722 -0.07979,-0.07078 -0.118769,-0.09697 -0.05112,-0.03435 -0.167551,-0.06907 -0.228266,-0.07832 -0.04855,-0.0074 -0.09839,3.7e-5 -0.143482,-0.02434 -0.131288,-0.07038 -0.219809,-0.184486 -0.34611,-0.259736 -0.104008,-0.06196 -0.229829,-0.0752 -0.33259,-0.145463 -0.05007,-0.03424 -0.05878,-0.110222 -0.111159,-0.137752 -0.05085,-0.02673 -0.110124,0.01202 -0.162786,0.0039 -0.06167,-0.0093 -0.09152,-0.08046 -0.150003,-0.09869 -0.06611,-0.02062 -0.132221,0.02686 -0.195657,-0.0064 -0.05256,-0.02755 -0.09452,-0.07322 -0.143481,-0.106495 -0.08985,-0.06107 -0.185046,-0.112954 -0.273919,-0.175189 -0.03573,-0.02502 -0.06502,-0.05921 -0.104352,-0.07893 -0.05103,-0.02559 -0.132247,-0.04953 -0.189135,-0.05402 -0.04386,-0.0035 -0.08823,0.01521 -0.130438,-0.0029 -0.05517,-0.02382 -0.08136,-0.08347 -0.130438,-0.115952 -0.0466,-0.03083 -0.107455,-0.01753 -0.156525,-0.04263 -0.03618,-0.01852 -0.05985,-0.05312 -0.09131,-0.07779 -0.0456,-0.03574 -0.115532,-0.07145 -0.169569,-0.09246 -0.04594,-0.01788 -0.09634,-0.0032 -0.143481,-0.0016 -0.05564,0.0017 -0.123065,-0.01214 -0.176091,-0.0287 -0.07761,-0.0243 -0.08315,-0.123049 -0.156526,-0.152689 -0.08683,-0.03508 -0.195223,-0.03969 -0.286963,-0.05838 -0.05918,-0.01214 -0.112437,-0.0404 -0.169569,-0.05869 -0.05335,-0.01706 -0.111009,-0.0231 -0.163047,-0.04342 -0.08775,-0.03432 -0.190921,-0.07231 -0.27392,-0.116474 -0.04774,-0.02541 -0.08635,-0.06615 -0.13696,-0.08616 -0.10345,-0.04093 -0.22012,-0.0356 -0.326094,-0.06842 -0.06113,-0.01891 -0.116088,-0.05127 -0.176091,-0.07132 -0.04483,-0.01498 -0.09363,-0.01661 -0.13696,-0.03626 -0.04548,-0.0206 -0.08128,-0.06064 -0.130438,-0.07325 -0.0442,-0.01129 -0.08619,0.0039 -0.130438,0.0038 -0.08579,-4.14e-4 -0.173645,-0.0119 -0.260875,-0.0119 0.04192,-0.03662 0.08816,-0.07321 0.101643,-0.130449 0.01086,-0.04613 -0.009,-0.09213 0.01663,-0.135106 0.03259,-0.05473 0.08939,-0.05743 0.124722,-0.102234 0.03087,-0.03916 0.01767,-0.119582 0.04406,-0.166442 0.02535,-0.045 0.07713,-0.0772 0.104109,-0.12133 0.01749,-0.02859 0.01103,-0.0697 0.02861,-0.100996 0.01848,-0.03292 0.05153,-0.05942 0.05912,-0.09782 0.0076,-0.0386 -0.0056,-0.08448 -0.0056,-0.123923 1.6e-5,-0.04192 0.01694,-0.08236 0.01546,-0.12391 -8.85e-4,-0.02481 -0.01745,-0.04707 -0.01487,-0.07174 0.0051,-0.04807 0.04322,-0.08773 0.04725,-0.136959 0.0036,-0.04417 -0.02144,-0.102271 -0.0073,-0.14346 0.0156,-0.04556 0.07465,-0.05534 0.09552,-0.09795 0.01644,-0.03355 0.0033,-0.06934 0.01233,-0.103667 0.0086,-0.0327 0.05239,-0.118149 0.07759,-0.141518 0.03603,-0.03341 0.09363,-0.04525 0.135564,-0.0708 0.07679,-0.0468 0.136142,-0.124053 0.170366,-0.205931 0.01512,-0.03619 0.04008,-0.08787 0.04933,-0.124249 0.0086,-0.03371 -0.0048,-0.06991 0.0047,-0.103776 0.01271,-0.04525 0.05192,-0.07625 0.06247,-0.123923 0.01348,-0.06088 -0.006,-0.139365 0.0271,-0.195042 0.03451,-0.05803 0.116009,-0.04046 0.166684,-0.07008 0.0172,-0.01008 0.0215,-0.03236 0.03231,-0.04794 0.0276,-0.03972 0.06764,-0.07887 0.08609,-0.124171 0.01273,-0.03125 0.0027,-0.06579 0.01273,-0.09754 0.008,-0.02516 0.03605,-0.04008 0.03919,-0.06593 0.0052,-0.04309 -0.02211,-0.08652 -0.0126,-0.129748 0.01631,-0.07422 0.0777,-0.135407 0.08995,-0.215223 0.0058,-0.0377 -0.02807,-0.07583 -0.01615,-0.110878 0.02075,-0.06099 0.06136,-0.111521 0.08774,-0.16957 0.01136,-0.02503 0.0092,-0.06073 0.0267,-0.08206 0.01523,-0.01854 0.04148,-0.02423 0.05791,-0.04257 0.06098,-0.06803 0.12806,-0.152947 0.180033,-0.227584 0.03519,-0.05055 0.02887,-0.110004 0.05443,-0.163023 0.02157,-0.04476 0.07557,-0.0845 0.113666,-0.115175 0.05602,-0.04511 0.129099,-0.0023 0.181387,-0.03967 0.04538,-0.03236 0.04407,-0.10385 0.06028,-0.151659 0.01812,-0.05345 0.09708,-0.142713 0.149647,-0.163073 7.33e-4,-0.088 0.04439,-0.15461 0.07262,-0.234788 0.01821,-0.05171 0.02204,-0.106642 0.0592,-0.149978 0.03793,-0.04423 0.09448,-0.06295 0.133616,-0.10499 0.03617,-0.03886 0.05631,-0.09586 0.09988,-0.127507 0.02581,-0.01874 0.0621,-0.0093 0.09121,-0.02236 0.04836,-0.02145 0.09498,-0.06307 0.13696,-0.09511 0.05125,-0.0391 0.110156,-0.07986 0.153055,-0.128133 0.02583,-0.02906 0.03395,-0.06726 0.06245,-0.09528 0.03399,-0.03341 0.09609,-0.04697 0.123715,-0.08301 0.01758,-0.02293 0.02381,-0.06095 0.03762,-0.08715 0.03139,-0.0596 0.08585,-0.13151 0.102955,-0.195658 0.0097,-0.0365 -0.01285,-0.07518 2.39e-4,-0.110877 0.01996,-0.05444 0.08947,-0.08499 0.109521,-0.137212 0.02171,-0.05657 -0.01619,-0.125774 0.0032,-0.188879 0.01559,-0.05075 0.02735,-0.125903 0.05751,-0.169311 0.02414,-0.03473 0.06629,-0.04884 0.08025,-0.09158 0.01825,-0.05589 -0.02949,-0.135242 -0.0061,-0.181922 0.02263,-0.04523 0.108967,-0.0537 0.149554,-0.07848 0.05771,-0.03523 0.08571,-0.09935 0.136972,-0.141817 0.03815,-0.03161 0.0946,-0.04273 0.12627,-0.08162 0.06545,-0.08039 -0.01893,-0.165526 0.0184,-0.240007 0.02416,-0.04822 0.08879,-0.05543 0.117882,-0.09853 0.01808,-0.02677 0.01698,-0.06709 0.03012,-0.09721 0.02315,-0.05302 0.06377,-0.09675 0.08638,-0.150003 0.01271,-0.02991 0.0059,-0.06208 0.0171,-0.09128 0.01764,-0.04596 0.07495,-0.05522 0.09525,-0.09811 0.02405,-0.05079 0.0014,-0.109785 0.01078,-0.162784 -0.01764,-0.01056 -0.03644,-0.01982 -0.05149,-0.03399 -0.08184,-0.07718 -0.01,-0.15527 -0.0035,-0.239922 0.0021,-0.02748 -0.01358,-0.06423 -0.02016,-0.0913 -0.0139,-0.05717 -0.05227,-0.101944 -0.05501,-0.163047 -0.0037,-0.08202 0.0085,-0.180955 0.02737,-0.260874 0.0115,-0.0488 0.03532,-0.09234 0.03733,-0.143476 0.0026,-0.06607 -0.02791,-0.124874 -0.03173,-0.189135 -0.0022,-0.03643 0.03511,-0.072 0.02719,-0.10425 -0.0094,-0.03849 -0.06676,-0.05906 -0.08844,-0.09143 -0.02954,-0.04409 -0.01823,-0.103667 -0.04516,-0.149977 -0.02899,-0.04987 -0.06863,-0.127663 -0.111556,-0.165937 -0.04978,-0.04436 -0.135445,-0.07345 -0.193554,-0.110101 -0.02698,-0.01701 -0.04473,-0.04714 -0.07232,-0.06193 -0.0355,-0.01905 -0.08122,0.005 -0.11613,-0.01434 -0.04788,-0.0264 -0.05918,-0.08386 -0.118075,-0.102721 -0.05016,-0.01606 -0.103602,0.0168 -0.149997,1.29e-4 -0.05287,-0.01899 -0.05665,-0.08455 -0.09904,-0.113378 -0.03222,-0.02192 -0.07532,-0.0053 -0.10908,-0.02576 -0.05029,-0.03043 -0.07169,-0.09251 -0.118584,-0.12404 -0.02958,-0.01987 -0.06503,-0.0066 -0.09719,-0.01659 -0.05549,-0.01732 -0.108205,-0.05508 -0.163073,-0.07575 -0.09043,-0.03407 -0.185695,-0.04652 -0.28044,-0.06935 -0.04781,-0.01165 -0.09357,-0.03764 -0.143482,-0.03895 -0.03692,-9.71e-4 -0.07389,0.01202 -0.110874,0.0096 -0.03327,-0.0021 -0.06417,-0.01817 -0.09783,-0.01666 -0.07488,0.0035 -0.151835,0.02116 -0.228008,-0.0022 -0.02673,-0.0083 -0.04187,-0.03495 -0.0655,-0.04887 -0.04324,-0.0255 -0.109063,-0.05509 -0.1565,-0.07236 -0.05574,-0.02028 -0.109986,0.02854 -0.162787,0.0136 -0.03518,-0.01 -0.05422,-0.05554 -0.09157,-0.06957 -0.06353,-0.02387 -0.132564,-0.01068 -0.195073,-0.0312 -0.02459,-0.0081 -0.041,-0.03008 -0.06581,-0.03861 -0.04004,-0.01375 -0.08304,-0.0074 -0.12391,-0.01419 -0.04324,-0.0072 -0.07875,-0.02561 -0.123915,-0.0237 -0.03147,0.0013 -0.07855,8.55e-4 -0.103741,0.02139 -0.03053,0.02488 -0.04321,0.06924 -0.07913,0.08807 -0.07247,0.03796 -0.17925,0.01719 -0.25407,0.04613 -0.05879,0.02272 -0.08708,0.09774 -0.150029,0.119047 -0.03294,0.01117 -0.104449,0.03787 -0.13696,0.03659 -0.06522,-0.0024 -0.119747,-0.03427 -0.189135,-0.03076 -0.04821,0.0023 -0.08131,0.04014 -0.130438,0.03859 -0.05854,-0.0017 -0.124276,-0.03948 -0.182613,-0.02156 -0.04,0.01225 -0.06809,0.04857 -0.104351,0.06804 -0.05351,0.02872 -0.125572,0.05169 -0.1826132,0.07459 -0.052547,0.02107 -0.1148533,0.0073 -0.1629452,0.04031 -0.053009,0.0364 -0.054515,0.108474 -0.100074,0.149875 -0.023509,0.02135 -0.056503,0.01044 -0.082643,0.02649 -0.026651,0.01646 -0.044326,0.0442 -0.07174,0.0598 -0.042252,0.02405 -0.1221803,0.04193 -0.1695691,0.05496 -0.047962,0.01316 -0.1009395,-0.02257 -0.1500035,-0.0214 -0.044312,0.0011 -0.081294,0.02733 -0.123915,0.03531 -0.035797,0.0068 -0.068866,-0.0139 -0.1043518,-0.0154 -0.027399,-0.0012 -0.05144,0.01658 -0.078263,0.01304 -0.084597,-0.01117 -0.1439847,-0.0701 -0.2347879,-0.05098 -0.080014,0.01684 -0.1274288,0.0645 -0.1957521,0.09952 -0.02843,0.01464 -0.062909,0.0092 -0.09121,0.02368 -0.047761,0.02436 -0.099886,0.06907 -0.1434812,0.10164 -0.04714,0.03523 -0.1138114,0.120674 -0.1696646,0.135674 -0.030291,0.0081 -0.061069,-0.0075 -0.09121,-0.0087 -0.028756,-0.0011 -0.049997,0.0207 -0.078262,0.01973 -0.055649,-0.0019 -0.1077065,-0.03196 -0.1630473,-0.03389 -0.054433,-0.0019 -0.086692,0.04043 -0.1369589,0.0491 -0.026447,0.0046 -0.051625,-0.0093 -0.078263,-0.0052 -0.032102,0.0051 -0.058118,0.02611 -0.091306,0.0272 -0.028352,9.34e-4 -0.056579,-0.0102 -0.084786,-0.0035 -0.057878,0.0139 -0.096201,0.08 -0.1500099,0.09025 -0.057655,0.01105 -0.1123308,-0.0344 -0.1695626,-0.0029 -0.059904,0.03292 -0.1091492,0.133001 -0.1826128,0.135646 -0.05458,0.0019 -0.1019495,-0.04524 -0.1565252,-0.04894 -0.067242,-0.0047 -0.1316323,0.0382 -0.2021786,0.022 -0.052159,-0.01202 -0.094638,-0.06144 -0.1500034,-0.06048 -0.06298,0.0011 -0.095773,0.07109 -0.1500034,0.0925 -0.05722,0.0226 -0.1289149,-0.0066 -0.1891348,0.0066 -0.057155,0.01238 -0.093822,0.06746 -0.1500034,0.08363 -0.070183,0.02017 -0.1353499,-0.01827 -0.2021785,0.02542 -0.087849,0.05744 -0.1448779,0.168001 -0.2459703,0.209593 -0.041403,0.01703 -0.1010695,-0.0013 -0.1450866,0.01629 -0.038259,0.01534 -0.048815,0.06822 -0.091567,0.07651 -0.045462,0.0087 -0.090654,-0.03491 -0.1369548,-0.01777 -0.049953,0.01847 -0.071626,0.08237 -0.1239149,0.09666 -0.047404,0.01304 -0.097215,-0.01648 -0.1434815,0.0049 -0.1346444,0.06202 -0.2374199,0.172281 -0.3978097,0.171701 -0.037456,-1.36e-4 -0.069349,-0.02816 -0.1043506,-0.03811 -0.036307,-0.01044 -0.079732,-0.007 -0.1173929,-0.01068 -0.055705,-0.0052 -0.1515207,0.0312 -0.2000098,-0.0022 -0.066841,-0.04614 0.077012,-0.155174 0.1015975,-0.181437 0.060666,-0.06481 0.1395483,-0.05816 0.2006881,-0.110684 0.03185,-0.02736 0.00709,-0.07691 0.048083,-0.104589 0.029944,-0.02021 0.069126,-0.02365 0.096601,-0.04817 0.020752,-0.01852 0.020465,-0.04528 0.037315,-0.0653 0.016235,-0.01929 0.037164,-0.02844 0.040757,-0.05606 0.01342,-0.103206 -0.071685,-0.170764 -0.1357765,-0.229462 -0.021972,-0.02013 -0.044403,-0.04937 -0.012512,-0.07221 0.026674,-0.01912 0.062078,-0.0086 0.089551,-0.02966 0.040387,-0.0308 0.058497,-0.08609 0.1054674,-0.109154 0.033823,-0.01658 0.070357,0.0013 0.1037558,-0.02178 0.036409,-0.02525 0.055432,-0.07112 0.082228,-0.105136 0.033364,-0.04234 0.075438,-0.07975 0.1140157,-0.117288 0.035467,-0.03452 0.079166,-0.05069 0.117394,-0.08081 0.052101,-0.04103 0.077959,-0.08528 0.119346,-0.131498 0.035287,-0.03942 0.085856,-0.0737 0.1155161,-0.117251 0.029001,-0.04258 0.025532,-0.107588 0.052021,-0.152067 0.011653,-0.01957 0.030764,-0.03204 0.04049,-0.05333 0.014597,-0.03194 0.013678,-0.06838 0.034657,-0.09779 0.029571,-0.04149 0.081391,-0.06454 0.1045667,-0.110878 0.011399,-0.02279 0.00668,-0.04865 0.016605,-0.07174 0.010974,-0.02553 0.034183,-0.04431 0.041246,-0.07173 0.00664,-0.02578 -0.00342,-0.05195 0.00337,-0.07827 0.01531,-0.0592 0.054817,-0.129032 0.084609,-0.182614 0.018608,-0.03347 0.054274,-0.05358 0.072184,-0.0859 0.033842,-0.06106 0.035596,-0.122685 0.087996,-0.180398 0.053028,-0.05841 0.1404117,-0.108365 0.1715658,-0.18372 0.011933,-0.02887 -0.00134,-0.05555 0.00307,-0.08478 0.00539,-0.03571 0.027126,-0.08302 0.040577,-0.117409 0.017718,-0.04528 0.057359,-0.07022 0.077508,-0.111448 0.022649,-0.04633 0.01648,-0.102744 0.035912,-0.149421 0.013167,-0.03162 0.04402,-0.05134 0.054399,-0.08478 0.0093,-0.02996 -1.29e-5,-0.06159 0.011666,-0.0913 0.030635,-0.07796 0.085234,-0.148405 0.1135896,-0.228266 0.013826,-0.03894 -0.00376,-0.08415 0.00765,-0.123923 0.00943,-0.03289 0.042893,-0.05152 0.050975,-0.08478 0.00739,-0.03041 -0.010415,-0.06138 0.00516,-0.09104 0.016127,-0.03071 0.055038,-0.05213 0.077941,-0.07855 0.03881,-0.04478 0.061646,-0.101373 0.1037643,-0.143176 0.04009,-0.03979 0.094768,-0.06096 0.1355648,-0.100074 0.046515,-0.04461 0.072798,-0.104396 0.12505,-0.144597 0.053257,-0.04099 0.1511529,-0.04169 0.1917205,-0.09615 0.024362,-0.0327 0.017572,-0.107952 0.02794,-0.148615 0.011933,-0.04681 0.058771,-0.07069 0.070352,-0.117397 0.016923,-0.06826 -0.014375,-0.139067 -2.229e-4,-0.202176 0.015289,-0.06818 0.1030858,-0.08587 0.1376983,-0.143492 0.04288,-0.07139 0.099084,-0.137527 0.1304378,-0.215216 0.020941,-0.05189 0.014192,-0.104347 0.028575,-0.156524 0.019285,-0.06995 0.083332,-0.124041 0.1439496,-0.156525 -0.00791,-0.02476 -0.028136,-0.0646 -0.020949,-0.09062 0.020073,-0.07266 0.1674162,-0.02179 0.1933097,-0.11157 0.016351,-0.05668 -0.010913,-0.121281 0.017848,-0.176085 0.030526,-0.05817 0.1196256,-0.09025 0.1259481,-0.163048 0.00353,-0.04082 -0.045072,-0.06793 -0.057209,-0.104347 -0.016697,-0.05008 0.012173,-0.182274 0.037262,-0.228265 0.039051,-0.07157 0.117376,-0.07591 0.1731103,-0.125305 0.050917,-0.04512 0.073823,-0.100803 0.1109102,-0.154875 0.040985,-0.05976 0.08916,-0.102004 0.1238342,-0.169832 0.016014,-0.03133 0.00967,-0.06509 0.019496,-0.09782 0.010687,-0.03562 0.044019,-0.0563 0.055593,-0.09131 0.013418,-0.04057 0.00196,-0.08412 0.014255,-0.12391 0.013207,-0.04281 0.059872,-0.07132 0.064157,-0.117396 0.00315,-0.03389 -0.015891,-0.06513 -0.020537,-0.09783 -0.00635,-0.04471 0.00136,-0.113354 0.014897,-0.156525 0.017508,-0.05588 0.068011,-0.07883 0.1061216,-0.117979 0.022736,-0.02336 0.035352,-0.05359 0.059665,-0.07571 0.022724,-0.02069 0.055497,-0.03659 0.066522,-0.06719 0.019666,-0.0546 -0.045912,-0.106665 -0.040839,-0.163023 0.00632,-0.07021 0.047841,-0.135362 0.066719,-0.202176 0.016636,-0.05886 0.00957,-0.127821 0.022107,-0.189135 0.020639,-0.100912 0.098577,-0.133331 0.1423486,-0.216332 0.022126,-0.04195 -0.00847,-0.08711 0.00766,-0.129058 0.023069,-0.05994 0.084762,-0.11163 0.110334,-0.176351 0.034457,-0.08721 -0.012721,-0.194965 0.020167,-0.286961 0.038782,-0.108511 0.201392,-0.110951 0.2753299,-0.189393 0.046056,-0.04886 0.04889,-0.100402 0.078304,-0.156166 0.015441,-0.02928 0.048149,-0.04207 0.062032,-0.07196 0.018047,-0.03886 0.010986,-0.0851 0.030344,-0.123805 0.016111,-0.0322 0.046625,-0.05522 0.055217,-0.0913 0.01192,-0.05005 -0.00673,-0.110902 -0.00305,-0.163046 0.090606,0.02398 0.075597,-0.02889 0.1114592,-0.09127 0.012486,-0.02172 0.03553,-0.03574 0.044857,-0.0593 0.028819,-0.07282 0.031801,-0.149621 0.071726,-0.221162 0.017355,-0.0311 0.039278,-0.05552 0.047058,-0.09131 0.016685,-0.07673 -0.00157,-0.158691 0.025877,-0.234664 0.019741,-0.05466 0.1027179,-0.04483 0.1246332,-0.09823 0.019154,-0.04669 0.00449,-0.102041 0.021459,-0.14972 0.012577,-0.03535 0.038345,-0.06348 0.052749,-0.09782 0.00912,-0.02175 0.00436,-0.05047 0.01935,-0.06919 0.022174,-0.0277 0.059464,-0.03656 0.079908,-0.06803 0.019347,-0.02977 0.017609,-0.06701 0.034463,-0.09755 0.02969,-0.05379 0.104546,-0.128381 0.155615,-0.162387 0.04336,-0.02887 0.105731,-0.06673 0.156525,-0.07814 0.06503,-0.01464 0.127066,0.0036 0.182613,-0.0421 0.06707,-0.05517 0.07498,-0.130179 0.117844,-0.200033 0.03314,-0.05399 0.08852,-0.09313 0.116945,-0.150002 0.03389,-0.06781 0.04417,-0.151281 0.09,-0.215128 0.02697,-0.03756 0.07608,-0.05329 0.100809,-0.09165 0.01571,-0.02437 -2.45e-4,-0.05382 0.01556,-0.07661 0.03667,-0.05289 0.132906,-0.08518 0.184919,-0.122946 0.07842,-0.05694 0.130911,-0.132719 0.193523,-0.203403 0.01998,-0.02255 0.0491,-0.0332 0.06875,-0.05552 0.02866,-0.03255 0.04567,-0.07871 0.04401,-0.121707 -0.0016,-0.04209 -0.01859,-0.08793 0.01479,-0.122529 0.03148,-0.03264 0.08071,-0.0358 0.114515,-0.06425 0.0361,-0.03037 0.03423,-0.08577 0.06883,-0.116923 0.02654,-0.02391 0.07108,-0.02021 0.102129,-0.03858 0.04867,-0.02878 0.0823,-0.07688 0.130438,-0.105427 0.07147,-0.04243 0.151493,-0.04902 0.217285,-0.106119 0.07725,-0.06703 0.169908,-0.158609 0.228789,-0.242947 0.01904,-0.02726 0.0095,-0.0621 0.0326,-0.0896 0.03503,-0.04175 0.09929,-0.05193 0.128794,-0.0987 0.0205,-0.03248 0.0528,-0.125356 0.05628,-0.1627867 0.003,-0.032727 -0.01219,-0.065357 -2.17e-4,-0.097816 0.02694,-0.073113 0.118528,-0.1046505 0.140931,-0.1760922 0.01375,-0.043834 0.0037,-0.097586 0.01129,-0.1434747 0.01757,-0.1063499 0.0498,-0.2080804 0.06952,-0.3130511 0.0084,-0.044588 -4.23e-4,-0.093581 0.01027,-0.1367064 0.0358,-0.144726 0.171873,-0.2610126 0.160208,-0.4237283 -0.01093,-0.1524259 -0.08298,-0.3255528 -0.178236,-0.4429054 -0.04626,-0.056996 -0.104223,-0.099394 -0.143609,-0.1636294 -0.02768,-0.045135 -0.0045,-0.097465 -0.02697,-0.1433859 -0.02113,-0.043115 -0.07526,-0.060436 -0.104564,-0.097947 -0.02865,-0.036663 -0.02375,-0.085552 -0.04826,-0.123597 -0.02712,-0.042111 -0.08421,-0.046803 -0.110257,-0.091613 C 12.2854,7.6065869 12.2808,7.5558739 12.26404,7.5145117 12.24139,7.4586257 12.20656,7.4093741 12.18806,7.3514648 c -0.0134,-0.041974 -0.0091,-0.090812 -0.02892,-0.130447 -0.02041,-0.040791 -0.05811,-0.071288 -0.08111,-0.1108694 -0.02279,-0.039222 -0.03347,-0.087581 -0.06205,-0.1232125 -0.0441,-0.054982 -0.126373,-0.017383 -0.17725,-0.061978 -0.05485,-0.04808 -0.09274,-0.1175067 -0.152321,-0.1624433 -0.04013,-0.030257 -0.09425,-0.031507 -0.133308,-0.056885 -0.03309,-0.021479 -0.04162,-0.064293 -0.08083,-0.082913 -0.08219,-0.039022 -0.176166,-0.023342 -0.260849,-0.051552 -0.05071,-0.016899 -0.08254,-0.064281 -0.136961,-0.074098 z"
       id="path2" /></g></svg>
