<?xml version="1.0" encoding="UTF-8" standalone="no"?>
<!-- Created with Inkscape (http://www.inkscape.org/) -->

<svg
   version="1.1"
   id="svg1"
   width="48"
   height="48.000439"
   viewBox="0 0 47.999998 48.000438"
   sodipodi:docname="Bubble 9.svg"
   inkscape:version="1.4.2 (2aeb623e1d, 2025-05-12)"
   xmlns:inkscape="http://www.inkscape.org/namespaces/inkscape"
   xmlns:sodipodi="http://sodipodi.sourceforge.net/DTD/sodipodi-0.dtd"
   xmlns="http://www.w3.org/2000/svg"
   xmlns:svg="http://www.w3.org/2000/svg">
  <defs
     id="defs1" />
  <sodipodi:namedview
     id="namedview1"
     pagecolor="#ffffff"
     bordercolor="#000000"
     borderopacity="0.25"
     inkscape:showpageshadow="2"
     inkscape:pageopacity="0.0"
     inkscape:pagecheckerboard="0"
     inkscape:deskcolor="#d1d1d1"
     inkscape:zoom="9.6011534"
     inkscape:cx="16.716742"
     inkscape:cy="24.007532"
     inkscape:window-width="2494"
     inkscape:window-height="1371"
     inkscape:window-x="66"
     inkscape:window-y="32"
     inkscape:window-maximized="1"
     inkscape:current-layer="g1" />
  <g
     inkscape:groupmode="layer"
     id="layer1"
     inkscape:label="Image 1"
     transform="translate(-0.15564935,0.04058426)">
    <g
       inkscape:groupmode="layer"
       inkscape:label="Image"
       id="g1">
      <path
         style="display:inline;fill:#175c42;fill-opacity:1;stroke:none;stroke-width:0.0404958"
         d="m 21.740699,0.05823925 c -0.03379,0.07011156 -0.09896,0.01723287 -0.155504,0.02856222 -0.05814,0.01164887 -0.09841,0.07005778 -0.155503,0.08771142 -0.04958,0.0153283 -0.09892,-0.0119019 -0.149025,-0.00311 -0.04295,0.007539 -0.08046,0.031726 -0.122853,0.040537 -0.0573,0.0119083 -0.136405,0.00684 -0.194635,0.001123 -0.05171,-0.005078 -0.08933,-0.0544637 -0.142545,-0.0503541 -0.04794,0.003702 -0.07377,0.050642 -0.116628,0.0657519 -0.04292,0.0151322 -0.09088,-0.009757 -0.136066,0.0054 -0.07311,0.0245285 -0.126128,0.0879835 -0.200859,0.11003159 -0.05932,0.0175018 -0.132544,0.0360381 -0.19438,0.0380344 -0.03635,0.001174 -0.08046,-0.0165621 -0.115529,-0.00229 -0.07358,0.029951 -0.13897,0.11997521 -0.214917,0.14140006 -0.0587,0.016559 -0.127309,-0.0230637 -0.187901,-0.019767 -0.0764,0.004157 -0.132025,0.0652678 -0.207338,0.0685709 -0.109448,0.004799 -0.219912,-0.0284451 -0.330447,-0.0255567 -0.04833,0.001262 -0.08902,0.0363988 -0.136065,0.036383 -0.0475,-1.58e-5 -0.08658,-0.0423973 -0.136067,-0.0349087 -0.04207,0.006365 -0.06892,0.0476617 -0.103669,0.0682482 -0.04437,0.0262843 -0.104695,0.0430901 -0.155504,0.0504205 -0.04094,0.005907 -0.102788,0.001246 -0.142545,-0.0103676 -0.03101,-0.009058 -0.06388,-0.0308844 -0.09719,-0.021314 -0.06838,0.0196499 -0.15113,0.11682415 -0.207339,0.16244836 -0.06117,0.0496486 -0.121957,0.046469 -0.187901,0.0794415 -0.03863,0.0193177 -0.06765,0.0590733 -0.110148,0.0708614 -0.05505,0.0152714 -0.102201,-0.0487626 -0.161984,-0.0359337 -0.0423,0.009077 -0.07556,0.0415178 -0.116627,0.054353 -0.03625,0.0113325 -0.07425,0.001841 -0.110149,0.0120412 -0.03633,0.0103233 -0.06585,0.037544 -0.103669,0.0440898 -0.03062,0.0053 -0.05977,-0.00598 -0.09071,0.00324 -0.0844,0.025161 -0.165147,0.079673 -0.252694,0.099629 -0.04093,0.00933 -0.08165,-0.00652 -0.123108,9.395e-4 -0.06298,0.011332 -0.11857,0.046744 -0.181421,0.058802 -0.08473,0.016252 -0.168617,0.012253 -0.252693,0.024364 -0.104458,0.015047 -0.207255,0.056748 -0.311009,0.077974 -0.04068,0.00832 -0.08239,7.561e-4 -0.123106,0.00962 -0.07022,0.015297 -0.09642,0.093118 -0.161984,0.1135687 -0.0617,0.019245 -0.126949,-0.032966 -0.1879,-2.835e-4 -0.06594,0.035358 -0.08744,0.1002398 -0.168463,0.1128821 -0.0763,0.011905 -0.184601,0.024554 -0.259174,3.24e-4 -0.08934,-0.02903 -0.113684,-0.096715 -0.220297,-0.079932 -0.102393,0.016119 -0.168117,0.081077 -0.259173,0.1189722 -0.05795,0.02412 -0.122624,-0.00588 -0.181421,0.017353 -0.147076,0.058128 -0.259935,0.1533589 -0.421157,0.1817914 -0.04537,0.008 -0.09031,-0.00812 -0.136066,-0.00153 -0.135395,0.019501 -0.308962,0.090198 -0.414677,0.1759797 -0.0386,0.031321 -0.0813,0.066334 -0.10054,0.1136477 -0.02245,0.055208 0.01597,0.1065958 0.0076,0.1619833 -0.0084,0.055552 -0.06128,0.097152 -0.06024,0.155504 8.34e-4,0.047004 0.04255,0.061782 0.06231,0.097769 0.02064,0.037578 0.03119,0.1000722 0.04573,0.1419664 0.01524,0.043887 -0.0016,0.092476 0.01804,0.1360596 0.02178,0.048308 0.07861,0.070087 0.10394,0.1166343 0.0401,0.07369 0.04754,0.1788713 0.07668,0.2591733 0.01414,0.038961 0.02621,0.087446 0.04691,0.1231074 0.01916,0.03302 0.05049,0.054622 0.06599,0.090711 0.02026,0.047162 0.009,0.1016572 0.02827,0.1490246 0.02584,0.063538 0.09282,0.1283117 0.10479,0.19438 0.0087,0.048158 -0.02707,0.094608 -0.01514,0.14252 0.01256,0.05044 0.0935,0.053651 0.09966,0.1037896 0.0059,0.048044 -0.06226,0.076069 -0.05481,0.129492 0.0074,0.053417 0.08156,0.078774 0.0833,0.1295863 8.1e-4,0.023633 -0.01598,0.047501 -0.01887,0.071273 -0.0059,0.048656 0.01328,0.094526 0.01109,0.1425454 -0.0026,0.057587 -0.0265,0.1095068 -0.01665,0.1684626 0.01584,0.094861 0.08364,0.1795265 0.09942,0.2721319 0.01392,0.08166 -0.02662,0.1652486 -0.0064,0.252694 0.01477,0.063924 0.08713,0.100256 0.08546,0.1684627 -0.0022,0.088281 -0.0771,0.1716963 -0.07637,0.2591734 4.17e-4,0.049722 0.04987,0.087838 0.04843,0.136066 -0.0016,0.053819 -0.07362,0.076851 -0.07435,0.1360659 -4.98e-4,0.040382 0.02148,0.076771 0.024,0.1166279 0.0021,0.032852 -0.01273,0.064205 -0.01088,0.09719 0.0043,0.076325 0.02539,0.1495406 0.02839,0.2267766 0.002,0.052566 -0.04523,0.095004 -0.04128,0.1490247 0.005,0.068476 0.0639,0.1136887 0.06402,0.1879006 2.02e-4,0.1307226 0.01779,0.2591924 0.06282,0.3822807 0.01592,0.043517 0.05609,0.080077 0.06793,0.1231072 0.01,0.036285 -0.0242,0.074902 -0.02994,0.1101487 -0.0091,0.056071 0.04987,0.095855 0.09358,0.116628 -0.02561,0.070283 0.01101,0.1250118 0.0053,0.19438 -0.0038,0.046163 -0.04143,0.085367 -0.0426,0.1295866 -9.84e-4,0.037417 0.03243,0.06592 0.03428,0.1036693 0.0028,0.05808 -0.02423,0.1151884 -0.02277,0.1749421 0.0024,0.097436 0.03211,0.1961135 0.03211,0.2915699 0,0.047226 -0.02443,0.089138 -0.02563,0.136066 -0.0013,0.049711 0.02141,0.1002397 0.01443,0.1490246 -0.0067,0.046881 -0.04169,0.094099 -0.03139,0.1425454 0.0079,0.03731 0.03911,0.064322 0.05626,0.09719 0.01387,0.026584 0.01144,0.056539 0.02194,0.084231 0.01345,0.035456 0.03902,0.065942 0.04699,0.1034129 0.02138,0.1004487 -0.014,0.2152512 0.01288,0.3177437 0.01581,0.060269 0.089,0.092334 0.09493,0.155504 0.0066,0.070011 -0.03325,0.204099 -0.07616,0.2591668 -0.02586,0.03319 -0.06647,0.053866 -0.08758,0.090723 -0.02768,0.048324 -0.03692,0.1397046 -0.0311,0.194374 0.0056,0.052879 0.0109,0.1143999 0.03646,0.1619829 0.0193,0.03593 0.0569,0.06429 0.06924,0.10367 0.01427,0.04555 -0.03081,0.09135 -0.0074,0.135461 0.03872,0.07293 0.122216,0.0805 0.119767,0.182025 -0.0017,0.07115 -0.05974,0.105827 -0.05786,0.181422 0.0018,0.0713 0.06424,0.131833 0.05834,0.20086 -0.0047,0.05456 -0.0579,0.09293 -0.05788,0.149024 2.6e-5,0.06812 0.07784,0.104877 0.07684,0.174942 -7.45e-4,0.05191 -0.01194,0.125764 -0.02789,0.174942 -0.01406,0.04335 -0.04067,0.08211 -0.03584,0.129586 0.0053,0.05193 0.05597,0.08471 0.0776,0.129587 0.04559,0.09459 0.0789,0.192352 0.083,0.298049 0.0021,0.05484 -0.04393,0.09571 -0.04993,0.149025 -0.0079,0.07033 0.0394,0.139868 0.03756,0.213818 -0.002,0.07998 -0.0558,0.159092 -0.04223,0.239735 0.01099,0.06527 0.05705,0.112677 0.08848,0.168463 0.05381,0.09552 0.108135,0.200056 0.155859,0.298049 0.04234,0.08693 0.04994,0.227586 0.06178,0.323967 0.0048,0.03927 0.01222,0.09812 0.0014,0.136066 -0.01154,0.04048 -0.04361,0.07415 -0.04899,0.116627 -0.0074,0.05825 0.04656,0.104173 0.04457,0.161984 -0.0018,0.05118 -0.0061,0.11944 -0.01965,0.168463 -0.01098,0.03988 -0.04007,0.08031 -0.03701,0.123107 0.0045,0.06313 0.07722,0.09505 0.08924,0.155504 0.01546,0.07774 -0.01617,0.171124 -0.0064,0.252694 0.01478,0.123575 0.06983,0.235094 0.08691,0.356363 0.01033,0.0733 -0.06091,0.126939 -0.04756,0.200859 0.01412,0.07823 0.112224,0.110215 0.113944,0.20086 0.0011,0.0577 -0.05522,0.103122 -0.04242,0.161983 0.01152,0.05298 0.07347,0.0767 0.08532,0.129586 0.01184,0.05281 -0.04519,0.111703 -0.01182,0.16138 0.02584,0.03847 0.07853,0.04262 0.111138,0.07325 0.04969,0.04668 0.09552,0.158927 0.107825,0.225397 0.02037,0.110032 -0.02957,0.192986 -0.04598,0.29805 -0.0087,0.05595 0.0098,0.113935 5.99e-4,0.168463 -0.009,0.05355 -0.04898,0.106485 -0.04091,0.161982 0.0084,0.05777 0.07277,0.08814 0.09222,0.142546 0.01419,0.03968 0.0082,0.08371 0.02104,0.123107 0.01018,0.03119 0.03618,0.05689 0.03886,0.09071 0.003,0.03744 -0.02317,0.07253 -0.01324,0.110149 0.0142,0.05384 0.06688,0.08873 0.08235,0.142545 0.01816,0.06318 -0.01063,0.136063 -0.0087,0.200859 0.0017,0.05675 0.04257,0.09582 0.05478,0.149025 0.01105,0.04814 -0.0077,0.102049 0.008,0.149025 0.01786,0.05359 0.07297,0.133936 0.112758,0.173841 0.02761,0.02769 0.07923,0.05659 0.08654,0.09829 0.0104,0.05932 -0.06584,0.112954 -0.06768,0.174942 -0.0028,0.09519 0.01986,0.185936 0.0311,0.278611 0.01368,0.112835 0.01653,0.229782 0.02599,0.343404 0.0046,0.05523 -0.03058,0.107409 -0.02331,0.161983 0.0071,0.05329 0.06374,0.07804 0.08627,0.123108 0.02895,0.05791 -0.02919,0.118536 -0.0015,0.174917 0.02327,0.04732 0.08607,0.06387 0.119594,0.10372 0.03645,0.04332 0.04086,0.108279 0.05054,0.161957 0.0091,0.05074 0.02567,0.110384 0.02022,0.161984 -0.0051,0.04819 -0.03041,0.0931 -0.02182,0.142545 0.0093,0.05352 0.04995,0.09474 0.05965,0.149024 0.0055,0.03082 -0.0045,0.06009 -0.0015,0.09071 0.01071,0.108893 0.02674,0.216444 0.04741,0.323967 0.01109,0.05773 0.0536,0.108779 0.05379,0.168463 1.62e-4,0.04381 -0.01995,0.08606 -0.0243,0.129586 -0.0052,0.05169 0.01845,0.09955 0.01508,0.149025 -0.0031,0.04488 -0.03747,0.08467 -0.04557,0.129586 -0.01248,0.06924 1.21e-4,0.143906 -0.0011,0.213819 -8.3e-4,0.04577 -0.02499,0.09757 -0.01815,0.142544 0.0048,0.03176 0.03635,0.05084 0.04097,0.08423 0.01378,0.09947 2.43e-4,0.203718 0.0402,0.29805 0.02494,0.05891 0.07981,0.08379 0.110973,0.136065 0.0211,0.0354 0.007,0.07817 0.01349,0.116628 0.0062,0.03664 0.03176,0.06592 0.03742,0.103669 -0.05097,-0.0042 -0.09802,-0.02807 -0.149025,-0.03181 -0.05506,-0.004 -0.107484,0.01615 -0.161983,0.01177 -0.02662,-0.0021 -0.05098,-0.01751 -0.07775,-0.01621 -0.08025,0.0039 -0.187825,0.07083 -0.265653,0.04901 -0.04846,-0.01358 -0.07859,-0.06234 -0.123108,-0.0837 -0.08889,-0.04265 -0.206897,-0.05915 -0.284836,-0.121377 -0.05043,-0.04027 -0.06841,-0.104611 -0.111603,-0.150496 -0.03162,-0.03359 -0.07816,-0.05514 -0.09951,-0.09777 -0.02937,-0.05866 0.02178,-0.122864 -0.0048,-0.181326 -0.02277,-0.05016 -0.0927,-0.07453 -0.105279,-0.129682 -0.0084,-0.0368 0.01853,-0.07521 0.02598,-0.110149 0.01208,-0.05665 0.0098,-0.136964 0.0021,-0.194379 -0.0076,-0.05683 -0.07234,-0.0915 -0.07395,-0.149025 -10e-4,-0.03602 0.02664,-0.07014 0.03692,-0.10367 0.01377,-0.04491 0.01816,-0.128877 0.0093,-0.174942 -0.01221,-0.06348 -0.07535,-0.0765 -0.110289,-0.123363 -0.02567,-0.03443 -0.02738,-0.08354 -0.04263,-0.122851 -0.01547,-0.03987 -0.04519,-0.07424 -0.05441,-0.116628 -0.01158,-0.05321 0.01998,-0.108114 0.01483,-0.161983 -0.0055,-0.05791 -0.04669,-0.109848 -0.0435,-0.168463 0.0026,-0.0487 0.03221,-0.09246 0.02376,-0.142545 -0.01039,-0.06162 -0.08519,-0.09716 -0.08735,-0.161983 -0.0017,-0.04982 0.05261,-0.08254 0.0627,-0.129587 0.0092,-0.04294 -0.01777,-0.09377 -0.02518,-0.136066 -0.01002,-0.05721 0.01629,-0.127309 -0.0076,-0.181327 -0.01638,-0.03703 -0.05623,-0.05483 -0.0811,-0.0849 -0.04353,-0.05265 0.03064,-0.135971 -0.01757,-0.176938 -0.0144,-0.01223 -0.03851,-0.01258 -0.05625,-0.01686 0.01613,-0.04727 0.04616,-0.111518 0.03666,-0.161983 -0.0087,-0.04649 -0.05026,-0.0767 -0.07193,-0.116628 -0.02685,-0.04945 -0.04879,-0.144558 -0.04729,-0.200859 0.0011,-0.04121 0.01751,-0.08155 0.0144,-0.123108 -0.0051,-0.0685 -0.02823,-0.130956 -0.02146,-0.200859 0.0072,-0.0739 0.05226,-0.168115 0.04277,-0.239735 -0.0071,-0.05392 -0.06638,-0.08297 -0.07479,-0.136066 -0.0092,-0.05815 0.03203,-0.116909 0.01242,-0.174942 -0.02294,-0.0679 -0.103365,-0.08796 -0.134052,-0.149031 -0.02403,-0.04783 0.0096,-0.111392 -0.02521,-0.15482 -0.03324,-0.04143 -0.09198,-0.04978 -0.112108,-0.104347 -0.03016,-0.08176 -0.01166,-0.186575 -0.02235,-0.272132 -0.0078,-0.06275 -0.06082,-0.105318 -0.08349,-0.161983 -0.01983,-0.04958 -0.0073,-0.106786 -0.03142,-0.155245 -0.03024,-0.06071 -0.116979,-0.06536 -0.155325,-0.123373 -0.06574,-0.09947 -0.09008,-0.232687 -0.130892,-0.343398 -0.01691,-0.04587 -0.05025,-0.08374 -0.06764,-0.129587 -0.01584,-0.04176 -0.0046,-0.08707 -0.01812,-0.129587 -0.02494,-0.07865 -0.0688,-0.132335 -0.07319,-0.220297 -0.0023,-0.04553 0.01505,-0.09066 0.01617,-0.136066 0.0026,-0.103416 -0.01268,-0.216962 -0.03739,-0.317487 -0.01774,-0.07217 -0.08969,-0.102312 -0.113303,-0.168463 -0.01801,-0.05045 0.0036,-0.103723 -0.0073,-0.155504 -0.016,-0.07547 -0.06079,-0.141798 -0.06672,-0.220297 -0.0039,-0.05114 0.01699,-0.104994 -0.001,-0.155504 -0.01266,-0.03554 -0.03983,-0.06343 -0.05591,-0.09719 -0.02623,-0.05509 -0.0347,-0.118712 -0.06005,-0.174942 -0.02188,-0.04854 -0.05986,-0.08778 -0.08175,-0.136067 -0.04332,-0.09555 -0.05211,-0.202532 -0.08852,-0.298049 -0.01711,-0.04489 -0.06294,-0.07515 -0.07327,-0.123107 -0.01201,-0.05576 0.04049,-0.10979 0.05321,-0.161983 0.01997,-0.08191 0.01363,-0.193896 0.01156,-0.278611 -0.0014,-0.0579 -0.01254,-0.135889 -0.03837,-0.187901 -0.02786,-0.05609 -0.07067,-0.102068 -0.0919,-0.161983 -0.03213,-0.0907 -0.02236,-0.196737 -0.0472,-0.29157 -0.01481,-0.05653 -0.01051,-0.120013 -0.03122,-0.174942 -0.02976,-0.07891 -0.08293,-0.147026 -0.08046,-0.237885 0.0016,-0.0594 0.08393,-0.08908 0.07578,-0.150874 -0.0063,-0.04801 -0.05468,-0.07731 -0.06607,-0.123108 -0.0092,-0.03715 -1.22e-4,-0.07867 -0.0038,-0.116628 -0.0094,-0.09715 -0.01553,-0.188344 -0.01862,-0.285091 -0.0016,-0.05028 -0.02111,-0.09844 -0.01889,-0.149025 0.0041,-0.09408 0.05993,-0.182199 0.08054,-0.272132 0.01609,-0.07021 -0.003,-0.160607 -0.003,-0.233255 0,-0.0568 0.01147,-0.130641 -0.02091,-0.181042 -0.04449,-0.06925 -0.114861,0.01987 -0.169738,0.0048 -0.04206,-0.01151 -0.05936,-0.06606 -0.100919,-0.07878 -0.03787,-0.01159 -0.07485,0.03837 -0.110149,0.0481 -0.07858,0.02167 -0.183383,0.02936 -0.265652,0.03731 -0.05626,0.0054 -0.114013,-0.02604 -0.168463,-0.01481 -0.05775,0.01191 -0.09481,0.07294 -0.155504,0.07369 -0.103157,0.0013 -0.205717,-0.03988 -0.311008,-0.0114 -0.05055,0.01367 -0.09301,0.04635 -0.142545,0.06236 -0.0486,0.01571 -0.10146,0.01431 -0.149025,0.03334 -0.04066,0.01628 -0.07367,0.0489 -0.116628,0.06004 -0.04982,0.01292 -0.09767,-0.02427 -0.149025,-0.0095 -0.05443,0.01564 -0.08786,0.08166 -0.142545,0.08707 -0.05398,0.0053 -0.10012,-0.04625 -0.155504,-0.02924 -0.09252,0.02841 -0.157113,0.124464 -0.265652,0.127441 -0.05611,0.0015 -0.08847,-0.06373 -0.142546,-0.07197 -0.06633,-0.01011 -0.117704,0.0454 -0.181421,0.04867 -0.06433,0.0033 -0.1217831,-0.03621 -0.1879007,-0.02573 -0.055332,0.0088 -0.1237912,0.01689 -0.174942,0.03985 -0.036627,0.01644 -0.064583,0.04806 -0.1036692,0.05932 -0.046731,0.01347 -0.096194,-0.0013 -0.1425454,0.01507 -0.043797,0.01544 -0.078006,0.04881 -0.1231074,0.06125 -0.050961,0.01405 -0.1042625,0.0134 -0.1555039,0.02627 -0.1401483,0.0352 -0.2836061,0.08352 -0.427636,0.102382 -0.042421,0.0056 -0.081036,-0.01675 -0.1231073,-0.01735 -0.059266,-8.38e-4 -0.123839,0.02162 -0.1814213,0.03505 -0.1039751,0.02425 -0.1924309,0.110344 -0.2980494,0.138743 -0.057665,0.01551 -0.1159465,-0.01007 -0.174942,0.0024 -0.051932,0.01098 -0.1149409,0.01819 -0.1619833,0.04345 -0.040704,0.02186 -0.071085,0.06004 -0.116628,0.07318 -0.048302,0.01394 -0.1006602,-0.0035 -0.1490246,0.01022 -0.061366,0.01742 -0.1115347,0.0612 -0.1749419,0.07389 -0.041908,0.0084 -0.089607,-0.0035 -0.1295868,0.01168 -0.05018,0.01909 -0.08548,0.0674 -0.1295866,0.09655 -0.05619,0.03714 -0.1217704,0.05698 -0.1814213,0.08733 -0.042588,0.02167 -0.078529,0.0549 -0.1231074,0.07305 -0.056378,0.02294 -0.1186102,1.62e-4 -0.1749419,0.02169 -0.054206,0.0207 -0.083265,0.07728 -0.136066,0.100249 -0.058363,0.02538 -0.1237579,0.0026 -0.1814213,0.02376 -0.05213,0.01912 -0.086924,0.06748 -0.136066,0.09205 -0.056848,0.02842 -0.1235605,0.01606 -0.1814213,0.0398 -0.047509,0.01949 -0.078364,0.06607 -0.1231074,0.09105 -0.073962,0.04129 -0.1539524,0.0019 -0.2332559,-10e-4 -0.034804,-0.0013 -0.088519,0.02033 -0.1231073,0.03019 -0.1344527,0.03833 -0.2614196,0.102112 -0.3952392,0.142011 -0.059327,0.01769 -0.1244936,0.0058 -0.1814214,0.03213 -0.052488,0.0243 -0.083995,0.07716 -0.136066,0.101534 -0.051357,0.02404 -0.1135552,0.0078 -0.1618883,0.04061 -0.046891,0.03188 -0.061692,0.09191 -0.1043493,0.128001 -0.065107,0.05509 -0.1565164,0.06714 -0.2175825,0.133244 -0.053347,0.05774 -0.058641,0.137515 -0.087226,0.206213 -0.027801,0.06681 -0.1174652,0.09005 -0.1219625,0.168463 -0.00868,0.151409 0.1087728,0.284185 0.1545441,0.421156 0.01726,0.05165 -0.01685,0.114186 0.00832,0.161702 0.022684,0.04282 0.086181,0.04481 0.1041743,0.09109 0.015124,0.0389 -0.010434,0.09061 -0.017113,0.129485 -0.006,0.03492 0.0041,0.08915 0.012624,0.123203 0.013806,0.05515 0.075614,0.0854 0.090201,0.14245 0.040578,0.158719 0.056128,0.323847 0.073482,0.48595 0.00535,0.04993 -0.011903,0.09949 -0.00232,0.149024 0.012951,0.06693 0.077917,0.09193 0.1149581,0.142641 0.037175,0.05089 0.049552,0.127549 0.064988,0.187806 0.02663,0.103954 0.030787,0.224018 0.030787,0.330446 0,0.05565 -0.011518,0.106362 0.00158,0.161982 0.017866,0.07587 0.061999,0.143113 0.078367,0.220298 0.017435,0.08222 0.00749,0.171813 0.035856,0.252695 0.022923,0.06535 0.097429,0.128823 0.1076339,0.194379 0.00403,0.02591 -0.01111,0.05087 -0.0076,0.07775 0.010058,0.07702 0.037827,0.14722 0.036881,0.226776 -5.366e-4,0.04509 -0.028813,0.09123 -0.016603,0.136066 0.011624,0.04268 0.058774,0.05985 0.085371,0.0913 0.03033,0.03586 0.051529,0.08792 0.074607,0.129001 0.061305,0.109124 0.065298,0.241995 0.1044791,0.356363 0.017109,0.04994 0.063825,0.08441 0.077407,0.136067 0.013218,0.05027 -0.00899,0.103419 0.00824,0.155503 0.00973,0.02942 0.03473,0.0493 0.044915,0.07775 0.0108,0.03017 0.00714,0.0605 0.022087,0.09071 0.015104,0.03053 0.042129,0.06205 0.044606,0.09719 0.00413,0.05855 -0.062926,0.101106 -0.047016,0.161983 0.014527,0.05558 0.088824,0.06881 0.1038893,0.123132 0.014824,0.05345 -0.044567,0.101291 -0.031486,0.15548 0.01279,0.05299 0.078613,0.075 0.092171,0.128486 0.00933,0.03681 -0.011111,0.07453 -0.010719,0.111249 2.875e-4,0.02702 0.015065,0.05098 0.016478,0.07775 0.00385,0.07299 -0.0034,0.146952 0.00973,0.220297 0.00802,0.0448 0.057774,0.07155 0.063464,0.116628 0.00767,0.06073 -0.069454,0.10421 -0.05302,0.168463 0.02073,0.08104 0.097344,0.162711 0.1405555,0.233256 0.027154,0.04433 0.031004,0.0966 0.05432,0.142285 0.011346,0.02223 0.039539,0.03506 0.045721,0.05918 0.010127,0.03951 -0.00308,0.08804 0.0013,0.128983 0.00704,0.0657 0.038361,0.128622 0.043625,0.19438 0.00794,0.09917 -0.014974,0.197971 0.00154,0.298049 0.00921,0.05579 0.029256,0.130444 0.0535,0.181422 0.016821,0.03537 0.052422,0.06904 0.05381,0.110148 0.00197,0.05823 -0.064115,0.09478 -0.062514,0.155504 0.00135,0.05134 0.040622,0.09255 0.049324,0.142545 0.01635,0.09393 -0.013953,0.192365 -0.00315,0.28509 0.0061,0.05238 0.048227,0.09125 0.054725,0.142546 0.00749,0.05912 -0.050305,0.107608 -0.033676,0.168458 0.012993,0.04755 0.074677,0.06974 0.106144,0.103929 0.054529,0.05924 0.098958,0.148726 0.1185027,0.226522 0.011609,0.04621 0.026845,0.108445 0.014809,0.155503 -0.010426,0.04076 -0.044309,0.07938 -0.039766,0.123108 0.00501,0.04823 0.050178,0.07918 0.065664,0.123107 0.019196,0.05446 0.017109,0.118314 0.028637,0.174942 0.00791,0.03884 0.028634,0.07693 0.031097,0.116628 0.00448,0.07221 -0.070203,0.125498 -0.068623,0.200859 0.00227,0.108334 0.098697,0.194332 0.114303,0.29805 0.0083,0.05517 -0.031151,0.105194 -0.022307,0.161983 0.00808,0.05189 0.067582,0.08908 0.066378,0.142545 -0.00127,0.0565 -0.061854,0.09583 -0.053255,0.155505 0.00796,0.05524 0.067631,0.08794 0.080177,0.142544 0.026419,0.114994 0.04205,0.238871 0.05324,0.356364 0.00416,0.04373 -0.00772,0.09356 0.00391,0.136066 0.011359,0.04151 0.068285,0.05371 0.077112,0.09131 0.010823,0.04611 -0.055929,0.08429 -0.04471,0.135461 0.00719,0.03278 0.036361,0.05562 0.05189,0.08423 0.01444,0.0266 0.017144,0.05751 0.031806,0.08423 0.023555,0.04293 0.058013,0.07601 0.074888,0.123108 0.015394,0.04296 -0.00341,0.07478 0.00231,0.116373 0.00472,0.0343 0.032208,0.05275 0.030062,0.09097 -0.0027,0.04812 -0.024527,0.09384 -0.015823,0.142544 0.018194,0.101823 0.095251,0.1914 0.1114634,0.291571 0.00945,0.05841 -0.043027,0.104297 -0.04151,0.161983 0.00124,0.04709 0.02658,0.08971 0.030097,0.136066 0.0032,0.04213 -0.017202,0.08092 -0.010239,0.123107 0.00735,0.04451 0.040129,0.09017 0.035121,0.136066 -0.00551,0.05046 -0.074308,0.0551 -0.068048,0.103695 0.00755,0.05862 0.07284,0.09109 0.09503,0.142519 0.026806,0.06212 -0.022167,0.130617 -0.00167,0.194286 0.012425,0.03859 0.054764,0.04679 0.076117,0.07813 0.020715,0.0304 0.025793,0.08675 0.030811,0.122828 0.00857,0.06166 -0.057499,0.102277 -0.050434,0.161984 0.00625,0.05283 0.054758,0.08908 0.061179,0.142545 0.00475,0.03956 -0.012416,0.07736 -0.010399,0.116627 0.00602,0.117148 0.024926,0.256295 0.053815,0.369323 0.017124,0.067 0.093277,0.106283 0.1022793,0.174941 0.0072,0.0549 -0.033551,0.106587 -0.025657,0.161984 0.00932,0.06543 0.067628,0.112654 0.063074,0.181421 -0.00473,0.07139 -0.049027,0.141182 -0.037981,0.213819 0.00983,0.06465 0.043773,0.127928 0.055315,0.19438 0.020536,0.118241 0.016599,0.244011 0.065609,0.356363 0.035393,0.08114 0.072304,0.171702 0.1202774,0.246213 0.030789,0.04782 0.081551,0.08742 0.09937,0.142546 0.016603,0.05137 -0.00559,0.10329 -0.00167,0.155504 0.00396,0.05276 0.032436,0.09843 0.04538,0.149024 0.012539,0.04901 0.00849,0.09977 0.020443,0.149025 0.013562,0.05589 0.069164,0.09315 0.078387,0.149025 0.00966,0.05854 -0.035477,0.110108 -0.029642,0.168462 0.00517,0.05168 0.046558,0.09172 0.054865,0.142546 0.00814,0.04977 -0.020279,0.09898 -0.016063,0.149025 0.00482,0.05717 0.049683,0.100088 0.058584,0.155503 0.00759,0.04726 -0.01708,0.09549 -0.019573,0.142546 -0.00253,0.04768 0.016287,0.09499 0.017803,0.142546 0.00229,0.07176 -0.068866,0.139552 -0.054165,0.207338 0.00916,0.04224 0.064987,0.101853 0.1016497,0.12293 0.014479,0.0083 0.033623,0.005 0.046169,0.01705 0.014719,0.01419 0.017068,0.04261 0.025282,0.06088 0.019865,0.04418 0.053824,0.08162 0.064834,0.129586 0.018348,0.07993 -0.00837,0.166002 0.00874,0.246215 0.011403,0.05344 0.049167,0.09201 0.066233,0.142546 0.013178,0.03902 -0.00247,0.08229 0.00469,0.123107 0.013904,0.07924 0.05616,0.174724 0.057664,0.252694 7.16e-4,0.03711 -0.026512,0.07024 -0.039181,0.103669 -0.026289,0.06938 -0.055687,0.165571 -0.038666,0.239736 0.0081,0.03529 0.019105,0.08735 0.044831,0.114097 0.036279,0.03772 0.084482,0.03632 0.1127785,0.08677 0.027572,0.04915 -0.00927,0.107978 0.00625,0.161977 0.023494,0.08174 0.099659,0.147651 0.1224419,0.232676 0.015565,0.05809 -0.038271,0.110811 -0.033606,0.169042 0.00544,0.06785 0.09444,0.09607 0.098365,0.161983 0.00239,0.04008 -0.033577,0.0735 -0.044586,0.110149 -0.01686,0.05614 -0.023259,0.13613 -0.017019,0.19438 0.00972,0.0907 0.015943,0.196164 0.033726,0.28509 0.00716,0.03579 0.042281,0.07926 0.031007,0.116629 -0.027459,0.091 -0.1784586,0.118314 -0.2401206,0.176321 -0.029791,0.02802 -0.036344,0.06769 -0.05517,0.10229 -0.024385,0.04482 -0.059755,0.09619 -0.092461,0.135487 -0.061915,0.07438 -0.1787258,0.137822 -0.2612479,0.188039 -0.058612,0.03567 -0.1528327,0.06354 -0.2202973,0.07608 -0.048398,0.009 -0.1016967,0.0048 -0.1419405,0.03796 -0.041962,0.03463 -0.059335,0.09133 -0.093445,0.132611 -0.044722,0.05413 -0.1078496,0.09216 -0.1419403,0.155504 -0.017435,0.0324 -0.014774,0.07015 -0.028367,0.10367 -0.018935,0.0467 -0.066796,0.102675 -0.106429,0.133281 -0.038584,0.02979 -0.086491,0.01462 -0.1293317,0.03041 -0.045594,0.01681 -0.068405,0.0654 -0.1101486,0.0881 -0.041923,0.0228 -0.0955,0.0098 -0.135806,0.03786 -0.030939,0.02154 -0.04126,0.05705 -0.062704,0.08605 -0.024219,0.03275 -0.065196,0.04477 -0.088836,0.07795 -0.023445,0.03291 -0.019782,0.07451 -0.036521,0.110047 -0.019089,0.04053 -0.055599,0.08135 -0.04264,0.129588 0.00987,0.03676 0.047909,0.06178 0.073813,0.08698 0.043273,0.0421 0.097479,0.09294 0.1344762,0.140049 0.031022,0.0395 0.015388,0.09584 0.04582,0.134614 0.055962,0.0713 0.1741275,0.09262 0.241985,0.151444 0.03862,0.03347 0.083091,0.07343 0.1124235,0.115408 0.020566,0.02943 0.023218,0.06703 0.043045,0.0966 0.024719,0.03687 0.077414,0.06935 0.1166629,0.08885 0.088291,0.04386 0.1907583,0.0318 0.2786113,0.06538 0.05159,0.01972 0.078973,0.07598 0.1231074,0.106823 0.03898,0.02724 0.087419,0.03035 0.1228272,0.06418 0.038197,0.03649 0.049501,0.09033 0.085711,0.128302 0.043045,0.04513 0.1089291,0.05481 0.1542793,0.09807 0.1062581,0.101376 0.189628,0.230285 0.2983293,0.328946 0.034317,0.03115 0.076203,0.03379 0.1163729,0.05251 0.044309,0.02065 0.090949,0.05496 0.1294914,0.08504 0.079149,0.06177 0.1156173,0.166732 0.1828759,0.238871 0.042638,0.04573 0.1098069,0.05475 0.1534646,0.09847 0.051462,0.05153 0.04328,0.133006 0.09259,0.186967 0.1093092,0.119612 0.2547273,0.181922 0.3680269,0.298303 0.048053,0.04936 0.057106,0.119671 0.104444,0.167858 0.037247,0.03791 0.089977,0.05532 0.128812,0.09192 0.045098,0.0425 0.073925,0.100353 0.1232073,0.138511 0.04199,0.03251 0.091869,0.04712 0.1283819,0.08775 0.065569,0.07297 0.1001883,0.161946 0.1763971,0.231289 0.046608,0.04241 0.1095043,0.102467 0.1682074,0.126021 0.04528,0.01817 0.102352,0.0075 0.14116,0.04145 0.03991,0.03489 0.03303,0.09502 0.05608,0.138932 0.02656,0.05061 0.08995,0.09804 0.133202,0.134687 0.04779,0.04049 0.1145,0.04567 0.161983,0.08683 0.08016,0.06947 0.153753,0.18386 0.246215,0.234309 0.08048,0.04391 0.191232,0.03307 0.265652,0.08609 0.04975,0.03545 0.121753,0.118562 0.153219,0.170833 0.02337,0.03882 0.03291,0.08106 0.0682,0.112268 0.06893,0.06093 0.149874,0.08481 0.225652,0.130546 0.04161,0.02511 0.0724,0.06509 0.110149,0.09533 0.04093,0.0328 0.09012,0.05656 0.128386,0.09247 0.03995,0.03749 0.0381,0.100663 0.08017,0.135407 0.03343,0.02761 0.07937,0.03273 0.115409,0.05576 0.04837,0.03091 0.08326,0.07855 0.129587,0.111726 0.08626,0.06177 0.18705,0.105892 0.253348,0.193011 0.0259,0.03403 0.06025,0.07529 0.0729,0.116628 0.01176,0.03844 7.21e-4,0.08757 0.0237,0.121978 0.03291,0.04928 0.105342,0.05201 0.128567,0.111282 0.02173,0.05546 -0.01418,0.11259 0.01887,0.168455 0.06791,0.114773 0.172639,0.157865 0.267178,0.240934 0.108437,0.09528 0.200083,0.228918 0.317487,0.311105 0.07359,0.05151 0.15685,0.06781 0.23323,0.106827 0.04438,0.02267 0.06481,0.08181 0.116654,0.09126 0.05995,0.01093 0.161236,0.0416 0.220297,0.02317 0.04583,-0.0143 0.07074,-0.06107 0.110149,-0.08554 0.05023,-0.03119 0.142225,-0.04167 0.200859,-0.04572 0.08374,-0.0058 0.163619,0.0095 0.246214,0.0121 0.09983,0.0032 0.210945,-0.0124 0.311008,-0.01975 0.08964,-0.0066 0.173365,-0.04242 0.265653,-0.04467 0.111514,-0.0027 0.210119,0.03936 0.323966,0.02305 0.08638,-0.01237 0.119562,-0.07079 0.19438,-0.09993 0.05244,-0.02043 0.11292,0.01404 0.168463,0.0033 0.04916,-0.0095 0.07967,-0.05867 0.128487,-0.06834 0.06446,-0.01277 0.112307,0.06555 0.182521,0.05564 0.188012,-0.02654 0.369811,-0.09231 0.557222,-0.121654 0.06439,-0.01008 0.123609,0.03184 0.187901,0.01738 0.05176,-0.01164 0.08263,-0.06671 0.136065,-0.07372 0.06321,-0.0083 0.121269,0.03036 0.187901,0.01955 0.0454,-0.0074 0.100011,-0.0097 0.142546,-0.02745 0.03336,-0.01392 0.06004,-0.05078 0.09719,-0.05462 0.05275,-0.0054 0.09747,0.04076 0.155504,0.03324 0.0647,-0.0084 0.146485,-0.01478 0.207338,-0.03784 0.08475,-0.03211 0.163069,-0.0851 0.252695,-0.110679 0.06146,-0.01754 0.125595,-0.0058 0.1879,-0.01344 0.05688,-0.007 0.111333,-0.03254 0.168463,-0.03566 0.04075,-0.0022 0.07775,0.01944 0.116628,0.02768 0.0514,0.0109 0.115702,0.01231 0.168462,0.01573 0.0558,0.0036 0.09534,-0.03879 0.149025,-0.04078 0.111568,-0.0041 0.23041,0.03367 0.343404,0.02122 0.05419,-0.006 0.06634,-0.0628 0.104275,-0.09235 0.05203,-0.04054 0.123199,-0.05872 0.180817,-0.09038 0.05503,-0.03024 0.102934,-0.07631 0.168462,-0.08161 0.05615,-0.0045 0.113224,0.01071 0.168462,0.004 0.145103,-0.01759 0.3008,-0.06261 0.447074,-0.05621 0.285846,0.01252 0.573283,0.08474 0.861752,0.04316 0.16027,-0.0231 0.275497,-0.158881 0.434115,-0.181037 0.05448,-0.0076 0.100191,0.03809 0.155504,0.03325 0.05937,-0.0052 0.09031,-0.07169 0.149025,-0.07625 0.0524,-0.0041 0.09642,0.03828 0.149024,0.03724 0.143734,-0.0028 0.28092,-0.052 0.421157,-0.07407 0.04982,-0.0078 0.09912,0.01004 0.149025,0.0023 0.03463,-0.0054 0.06312,-0.03025 0.09719,-0.03904 0.04711,-0.01215 0.09664,-0.0082 0.142545,-0.02747 0.03738,-0.01572 0.0621,-0.05423 0.10367,-0.06028 0.0642,-0.0093 0.12264,0.04251 0.1879,0.02756 0.05228,-0.01198 0.08885,-0.05565 0.136066,-0.0782 0.06343,-0.03029 0.137201,-0.03791 0.200859,-0.0677 0.04152,-0.01943 0.07615,-0.05597 0.123108,-0.06312 0.09455,-0.01438 0.188317,0.0075 0.28509,-0.01744 0.05796,-0.01492 0.100655,-0.05685 0.155505,-0.0781 0.07245,-0.02807 0.200904,-0.04172 0.278611,-0.04172 0.06904,0 0.175345,0.02949 0.239734,0.05465 0.04422,0.01728 0.08626,0.04673 0.136067,0.04113 0.05874,-0.0066 0.09265,-0.05814 0.142545,-0.08301 0.06411,-0.03195 0.161246,0.0062 0.20086,-0.07127 0.09476,0.03585 0.196406,0.03336 0.29157,-0.01538 0.03311,-0.01696 0.05793,-0.04562 0.09071,-0.06289 0.0307,-0.01617 0.06621,-0.01434 0.09719,-0.03126 0.05377,-0.02936 0.0995,-0.06711 0.161984,-0.07743 0.03922,-0.0065 0.09767,-0.02208 0.136065,-0.0093 0.03938,0.01307 0.07169,0.06263 0.116603,0.05775 0.05635,-0.0061 0.07117,-0.08695 0.129612,-0.09715 0.07694,-0.01343 0.157376,0.02493 0.233255,0.01404 0.05724,-0.0082 0.110497,-0.03858 0.168463,-0.04763 0.122888,-0.01919 0.247183,-0.0082 0.369322,-0.017 0.131212,-0.0095 0.263635,-0.0444 0.39524,-0.04453 0.02558,-2.5e-5 0.04671,0.01879 0.07127,0.02431 0.04324,0.0097 0.08672,-0.0063 0.129586,4.82e-4 0.04043,0.0064 0.07477,0.03307 0.116628,0.03351 0.06932,7.28e-4 0.08697,-0.08433 0.149025,-0.09282 0.04764,-0.0065 0.08753,0.04538 0.136065,0.04698 0.04278,0.0014 0.07834,-0.02689 0.116629,-0.04146 0.04473,-0.01702 0.10145,-0.02332 0.149024,-0.02785 0.06199,-0.0059 0.114185,0.0389 0.174942,0.02991 0.05712,-0.0085 0.09544,-0.06135 0.142546,-0.08945 0.04338,-0.02588 0.09955,-0.03292 0.149024,-0.03764 0.08269,-0.0079 0.157609,0.03095 0.239736,0.02421 0.05236,-0.0043 0.09647,-0.05313 0.149025,-0.04924 0.05196,0.0039 0.08745,0.06776 0.142544,0.05797 0.05348,-0.0095 0.07223,-0.07823 0.123113,-0.09418 0.04262,-0.01337 0.08618,0.02298 0.129581,0.01855 0.0467,-0.0048 0.08792,-0.04127 0.129588,-0.06005 0.03957,-0.01784 0.08378,-0.02278 0.123081,-0.04128 0.04916,-0.02314 0.06608,-0.103935 0.123133,-0.109459 0.113192,-0.01097 0.21824,0.09006 0.317487,0.121336 0.06768,0.02133 0.1063,-0.04276 0.168463,-0.04712 0.05238,-0.0037 0.09579,0.04332 0.149024,0.03956 0.05443,-0.0038 0.09617,-0.04768 0.149025,-0.05307 0.05733,-0.0059 0.110188,0.04025 0.168463,0.01666 0.04882,-0.01976 0.07549,-0.08917 0.129586,-0.09507 0.04435,-0.0048 0.08552,0.02791 0.129587,0.03007 0.05653,0.0028 0.118634,0.01495 0.174943,0.0086 0.04235,-0.0047 0.07996,-0.02803 0.123106,-0.02961 0.05213,-0.0019 0.103331,0.02023 0.155505,0.0128 0.245119,-0.03494 0.480432,-0.171383 0.732164,-0.177796 0.05133,-0.0013 0.09618,0.02748 0.142545,0.04487 0.0608,0.02281 0.174882,0.05363 0.239736,0.04852 0.06603,-0.0052 0.128343,-0.03349 0.194379,-0.04139 0.09435,-0.01129 0.215391,-0.003 0.304529,-0.03596 0.04858,-0.01794 0.06603,-0.08082 0.116628,-0.09342 0.05533,-0.01378 0.118023,0.01959 0.174943,0.01713 0.116206,-0.005 0.233663,-0.02945 0.349883,-0.03862 0.0016,-0.07924 0.0047,-0.160933 -0.0095,-0.239735 -0.0088,-0.04885 -0.03333,-0.09361 -0.04141,-0.142545 -0.01063,-0.06439 -0.0073,-0.129704 -0.01667,-0.194381 -0.01434,-0.09905 -0.04577,-0.188935 -0.07005,-0.285091 -0.02472,-0.09787 -0.01772,-0.199112 -0.07207,-0.291544 -0.03055,-0.05196 -0.09519,-0.06768 -0.129488,-0.116678 -0.03236,-0.04623 -0.02224,-0.1105 -0.05951,-0.154353 -0.05415,-0.06372 -0.140397,-0.115466 -0.203884,-0.17144 -0.05332,-0.04701 -0.09755,-0.108221 -0.155504,-0.149517 -0.04624,-0.03295 -0.103818,-0.03643 -0.149025,-0.07294 -0.04163,-0.03362 -0.0938,-0.07076 -0.127055,-0.112639 -0.0262,-0.033 -0.03734,-0.08126 -0.07408,-0.105314 -0.0542,-0.03548 -0.126816,0.01856 -0.18046,-0.01685 -0.06067,-0.04004 -0.0448,-0.127795 -0.117334,-0.161746 -0.04419,-0.02068 -0.105719,-0.05259 -0.155478,-0.05126 -0.04973,0.0013 -0.09894,0.04278 -0.149024,0.02611 -0.102307,-0.03406 -0.174275,-0.149095 -0.278612,-0.181912 -0.138822,-0.04367 -0.308439,-0.06218 -0.453553,-0.07212 -0.04476,-0.0031 -0.09244,0.01027 -0.136066,0.0029 -0.06117,-0.01038 -0.09699,-0.06539 -0.155505,-0.07925 -0.09829,-0.02328 -0.204576,-0.0051 -0.304528,-0.02352 -0.0541,-0.0099 -0.08897,-0.05983 -0.142546,-0.07219 -0.100211,-0.02313 -0.209406,-0.003 -0.311007,-0.01049 -0.05309,-0.0039 -0.102537,-0.02953 -0.155504,-0.03642 -0.0526,-0.0068 -0.13092,-0.01201 -0.181422,0.0053 -0.03993,0.01369 -0.07333,0.05257 -0.116627,0.05563 -0.05851,0.0041 -0.09758,-0.05834 -0.155505,-0.05966 -0.05931,-0.0014 -0.09316,0.0643 -0.149024,0.07137 -0.05493,0.007 -0.09597,-0.05857 -0.149025,-0.06565 -0.05116,-0.0068 -0.100198,0.02932 -0.149025,0.03854 -0.03824,0.0072 -0.07827,-0.0066 -0.116627,-0.0083 -0.09936,-0.0044 -0.177959,0.04312 -0.278612,0.03182 -0.02658,-0.003 -0.06812,-7.05e-4 -0.0879,-0.02117 -0.02346,-0.02426 -0.01301,-0.05865 0.01675,-0.07091 0.04952,-0.02039 0.109982,-0.0094 0.161858,-0.02422 0.06052,-0.01727 0.125127,-0.03797 0.187901,-0.04425 0.04523,-0.0045 0.09198,0.0048 0.136066,-0.0098 0.05081,-0.01677 0.07698,-0.06844 0.123107,-0.09205 0.05094,-0.02608 0.131415,-0.02602 0.187901,-0.03093 0.06934,-0.006 0.129842,0.02641 0.200859,0.01212 0.147547,-0.02969 0.303664,-0.114895 0.453553,-0.119919 0.05697,-0.0019 0.139374,0.0035 0.19438,0.01761 0.04371,0.01118 0.08951,0.04248 0.136066,0.03771 0.06848,-0.007 0.104767,-0.08532 0.174942,-0.08762 0.05274,-0.0017 0.102219,0.02514 0.155504,0.02551 0.05655,4.05e-4 0.119435,-0.02803 0.174942,-0.01595 0.05567,0.01212 0.09729,0.06499 0.155504,0.06695 0.06101,0.0021 0.109313,-0.057 0.168463,-0.05207 0.06247,0.0052 0.09919,0.07573 0.161983,0.08411 0.15781,0.02108 0.320727,-0.01515 0.479471,0.01949 0.07224,0.01577 0.103887,0.09347 0.174942,0.113623 0.05369,0.01523 0.112733,0.03838 0.168462,0.04247 0.107517,0.0079 0.235075,-0.0043 0.336926,0.0359 0.09478,0.03745 0.208487,0.07768 0.29157,0.137281 0.03739,0.02682 0.05727,0.06814 0.09097,0.09816 0.0431,0.03839 0.115103,0.07034 0.168203,0.09287 0.09982,0.04236 0.226058,0.02209 0.323707,0.08043 0.06545,0.0391 0.04693,0.129795 0.104608,0.172436 0.04358,0.03222 0.103822,0.02962 0.148339,0.0615 0.05065,0.03627 0.07434,0.09752 0.123119,0.135879 0.03703,0.02912 0.086,0.03434 0.123102,0.06338 0.08441,0.06605 0.140409,0.157234 0.209281,0.237197 0.03202,0.03718 0.07542,0.06349 0.104071,0.103676 0.03506,0.04918 0.0393,0.113022 0.05949,0.168462 0.0231,0.06342 0.05879,0.129648 0.09287,0.187901 0.03876,0.06626 0.133924,0.0841 0.161819,0.155504 0.0208,0.05325 -0.016,0.112414 -0.0016,0.168463 0.01361,0.05285 0.05238,0.09425 0.06199,0.149025 0.01654,0.09423 -0.01164,0.20712 -0.0074,0.304528 0.0092,0.211208 0.04309,0.423831 0.0032,0.634975 -0.01271,0.06726 -0.075,0.100895 -0.09843,0.161983 -0.01874,0.04887 0.01055,0.100506 -0.008,0.149024 -0.02178,0.05698 -0.09001,0.07472 -0.128146,0.117233 -0.03882,0.04328 -0.04821,0.107681 -0.09344,0.14587 -0.04265,0.03601 -0.105743,0.02683 -0.14814,0.06266 -0.03902,0.03298 -0.05143,0.08609 -0.09109,0.118853 -0.07752,0.06405 -0.182636,0.112351 -0.251394,0.18448 -0.04441,0.04659 -0.05431,0.120849 -0.111373,0.15657 -0.04605,0.02883 -0.108383,0.0036 -0.155479,0.02721 -0.08123,0.04061 -0.141409,0.12834 -0.220297,0.175335 -0.05915,0.03523 -0.134775,0.02097 -0.194379,0.05641 -0.04532,0.02695 -0.06783,0.07572 -0.100199,0.11517 -0.03531,0.04305 -0.08066,0.0788 -0.126579,0.109962 -0.05231,0.03549 -0.114672,0.04104 -0.168456,0.07185 -0.04549,0.02606 -0.07312,0.07362 -0.116634,0.1026 -0.123594,0.08229 -0.259791,0.148256 -0.375801,0.243421 -0.08932,0.07327 -0.147627,0.176522 -0.222241,0.26262 -0.03947,0.04555 -0.09592,0.06578 -0.138659,0.106702 -0.03607,0.03454 -0.05432,0.08297 -0.08737,0.120074 -0.04616,0.05183 -0.122784,0.06709 -0.163062,0.123229 -0.0234,0.0326 -0.02815,0.07507 -0.04728,0.110052 -0.03807,0.06959 -0.09406,0.128748 -0.130116,0.200859 -0.03969,0.07939 -0.05752,0.167819 -0.100964,0.246215 -0.03523,0.06358 -0.106823,0.128663 -0.160544,0.177598 -0.03147,0.02866 -0.07297,0.0532 -0.08916,0.09453 -0.0242,0.06177 0.01016,0.130096 -0.01195,0.19438 -0.05134,0.149243 -0.115212,0.294963 -0.156956,0.447074 -0.0136,0.04955 -0.04348,0.0965 -0.04503,0.149025 -0.0019,0.06296 0.0024,0.152377 0.01547,0.213817 0.01169,0.05483 0.03779,0.09742 0.03527,0.155504 -0.0064,0.148603 -0.07798,0.312425 -0.0475,0.460033 0.01133,0.05487 0.05805,0.07625 0.09058,0.116725 0.04021,0.05004 0.07681,0.132442 0.09375,0.194283 0.01456,0.05315 0.02905,0.11973 0.02479,0.174942 -0.0028,0.03645 -0.02372,0.06789 -0.02968,0.103669 -0.0084,0.05036 0.01313,0.09752 0.03313,0.142545 0.03786,0.08525 0.121602,0.117685 0.166416,0.19438 0.03043,0.05208 0.05114,0.109379 0.08029,0.161984 0.02456,0.04433 0.06231,0.08238 0.08135,0.129586 0.02154,0.05342 0.01294,0.112246 0.0456,0.161984 0.02767,0.04214 0.06708,0.07602 0.09698,0.116627 0.08846,0.120144 0.165754,0.241773 0.271737,0.34988 0.0468,0.04774 0.110594,0.07334 0.154541,0.123141 0.0436,0.0494 0.0265,0.126695 0.07353,0.172786 0.110854,0.108647 0.276466,0.153508 0.393853,0.250471 0.09614,0.07941 0.152141,0.205905 0.227432,0.302497 0.02433,0.03122 0.04278,0.07041 0.07712,0.09231 0.0469,0.02991 0.09899,0.0028 0.148999,0.01471 0.05176,0.01231 0.09746,0.04942 0.149025,0.06557 0.05908,0.01852 0.125464,0.01551 0.181422,0.04357 0.05071,0.02543 0.08182,0.07518 0.129586,0.104666 0.05232,0.03231 0.119941,0.03879 0.168437,0.07686 0.07414,0.05819 0.104166,0.120499 0.200886,0.150134 0.122907,0.03766 0.251747,0.0094 0.375801,0.03772 0.06264,0.01429 0.106051,0.06955 0.168463,0.0872 0.150884,0.04267 0.292196,0.03486 0.447074,0.03914 0.05694,0.0016 0.111331,0.02263 0.168461,0.01992 0.06181,-0.0029 0.104009,-0.05173 0.161984,-0.06565 0.04875,-0.0117 0.111221,0.0031 0.161984,8.5e-4 0.05222,-0.0023 0.103014,-0.01853 0.155504,-0.01915 0.110009,-0.0013 0.234625,-8.1e-4 0.343404,0.01488 0.05131,0.0074 0.09682,0.04126 0.149025,0.04256 0.0475,0.0012 0.08643,-0.0294 0.129587,-0.04383 0.04525,-0.01514 0.101752,-0.01631 0.149024,-0.01306 0.07439,0.0051 0.134978,0.06746 0.207338,0.06352 0.06716,-0.0037 0.126338,-0.04897 0.194381,-0.05566 0.09428,-0.0093 0.205478,0.0143 0.298049,-0.01362 0.05071,-0.01529 0.08365,-0.0651 0.136066,-0.07652 0.108409,-0.02361 0.229241,0 0.336925,-0.03848 0.0529,-0.01883 0.09369,-0.06123 0.142546,-0.0878 0.07764,-0.04222 0.186606,-0.0828 0.272132,-0.104572 0.05757,-0.01466 0.116153,0.01986 0.174942,0.0053 0.05845,-0.01446 0.09847,-0.08317 0.161982,-0.08286 0.05516,4.05e-4 0.105831,0.05892 0.161889,0.04237 0.06712,-0.01981 0.06528,-0.118231 0.129707,-0.144639 0.04934,-0.02022 0.104419,0.01008 0.155478,-0.0052 0.105296,-0.03159 0.184405,-0.120523 0.272132,-0.179684 0.04568,-0.03081 0.105368,-0.03862 0.147826,-0.07384 0.03927,-0.03257 0.04323,-0.08353 0.07052,-0.123544 0.03539,-0.05189 0.101167,-0.120791 0.150973,-0.159461 0.03921,-0.03045 0.09283,-0.0323 0.128907,-0.06804 0.03919,-0.03883 0.04751,-0.09737 0.09149,-0.132838 0.03849,-0.03104 0.09018,-0.03036 0.129384,-0.05857 0.03785,-0.02724 0.05462,-0.07315 0.07653,-0.112424 0.02603,-0.04665 0.07281,-0.07596 0.110889,-0.111999 0.05039,-0.04769 0.09984,-0.104649 0.141381,-0.160133 0.016,-0.02137 0.07482,-0.07625 0.05328,-0.106261 -0.01775,-0.02474 -0.09497,-0.02021 -0.122806,-0.02284 -0.05407,-0.0051 -0.101692,-0.03489 -0.155504,-0.03877 -0.0472,-0.0034 -0.08989,0.01985 -0.136066,0.01799 -0.04463,-0.0018 -0.07959,-0.0374 -0.116628,-0.05825 -0.05567,-0.03135 -0.127081,-0.06346 -0.1879,-0.08282 -0.0571,-0.01818 -0.120273,0.0063 -0.174942,-0.02366 -0.08252,-0.04516 -0.144786,-0.156715 -0.233257,-0.186208 -0.05963,-0.01987 -0.110167,0.04165 -0.168462,0.03274 -0.05771,-0.0088 -0.08473,-0.08151 -0.136072,-0.105212 -0.09517,-0.04394 -0.215338,-0.02735 -0.304523,-0.07689 -0.08181,-0.04545 -0.207918,-0.11649 -0.270003,-0.186228 -0.06145,-0.06903 -0.09508,-0.152625 -0.164112,-0.219613 -0.05067,-0.04917 -0.126923,-0.05844 -0.173556,-0.110525 -0.03815,-0.04262 -0.0378,-0.106484 -0.08034,-0.146619 -0.07135,-0.06733 -0.184876,-0.08251 -0.264454,-0.136245 -0.05015,-0.03386 -0.07185,-0.08966 -0.104248,-0.138017 -0.03905,-0.05827 -0.08938,-0.108299 -0.126002,-0.168463 -0.02811,-0.04617 -0.05154,-0.101705 -0.05938,-0.155504 -0.0077,-0.05286 -2.43e-4,-0.113186 -0.02474,-0.161984 -0.02663,-0.05304 -0.07193,-0.11225 -0.114394,-0.153624 -0.03361,-0.03276 -0.07653,-0.0562 -0.09909,-0.09907 -0.107658,-0.204593 -0.05531,-0.435167 -0.03697,-0.654412 0.0056,-0.06658 -0.02666,-0.127979 -0.0048,-0.19438 0.03126,-0.09483 0.09662,-0.164725 0.1361,-0.252694 0.01851,-0.04123 0.01284,-0.08657 0.02219,-0.129586 0.01163,-0.05353 0.04223,-0.119827 0.06782,-0.168463 0.03148,-0.05983 0.09435,-0.08683 0.14154,-0.13153 0.04885,-0.04627 0.104771,-0.09583 0.148015,-0.147106 0.02949,-0.03496 0.04923,-0.07835 0.08644,-0.106508 0.04943,-0.03741 0.116988,-0.02278 0.168272,-0.05541 0.05441,-0.03462 0.06901,-0.107756 0.129682,-0.136621 0.04768,-0.02268 0.106144,-0.0128 0.148765,-0.04739 0.0397,-0.03221 0.05405,-0.08472 0.09125,-0.119353 0.0854,-0.0795 0.186021,-0.12544 0.284809,-0.181834 0.04109,-0.02345 0.07417,-0.05854 0.116629,-0.07976 0.05043,-0.02521 0.102492,-0.01771 0.155503,-0.02902 0.05673,-0.0121 0.118512,-0.04344 0.168463,-0.07262 0.05658,-0.03304 0.08196,-0.09569 0.136066,-0.130587 0.09352,-0.06031 0.219253,-0.07009 0.317487,-0.121775 0.04561,-0.02399 0.07271,-0.07072 0.116628,-0.09686 0.09698,-0.05773 0.21993,-0.07816 0.323967,-0.121018 0.05349,-0.02204 0.09394,-0.06844 0.149025,-0.08633 0.05596,-0.01818 0.135587,-0.02735 0.19438,-0.02569 0.0502,0.0014 0.09823,0.01951 0.149024,0.0079 0.06674,-0.01532 0.118631,-0.06378 0.1879,-0.07684 0.05031,-0.0095 0.104531,-0.02566 0.155504,-0.02852 0.04582,-0.0026 0.09061,0.01373 0.136066,-0.0021 0.05713,-0.01984 0.09021,-0.07769 0.149024,-0.09453 0.05306,-0.01519 0.108005,-0.0038 0.161984,-0.0096 0.05718,-0.0061 0.106833,-0.03798 0.161984,-0.05136 0.04277,-0.01037 0.08699,-0.0026 0.129586,-0.01567 0.07389,-0.02263 0.08853,-0.120225 0.161983,-0.141339 0.0521,-0.01498 0.110266,0.03428 0.161984,0.0399 0.130273,0.01417 0.241485,-0.0026 0.362842,-0.05372 0.129916,-0.05473 0.212167,-0.166258 0.336926,-0.225189 0.133677,-0.06314 0.272882,-0.109962 0.408197,-0.167865 0.04171,-0.01785 0.09026,-0.02459 0.129332,-0.04798 0.04881,-0.02922 0.06742,-0.09056 0.116883,-0.120605 0.04898,-0.02974 0.115261,-0.0045 0.160785,-0.04125 0.0427,-0.03443 0.04039,-0.09802 0.075,-0.138615 0.0371,-0.04352 0.09822,-0.05956 0.13941,-0.09899 0.03593,-0.03439 0.04991,-0.08371 0.08081,-0.121886 0.03859,-0.04766 0.09384,-0.08817 0.140089,-0.128416 0.04113,-0.0358 0.09538,-0.05021 0.135972,-0.08662 0.04579,-0.04108 0.07286,-0.100015 0.123208,-0.136237 0.08299,-0.0597 0.189326,-0.09797 0.256454,-0.180637 0.03438,-0.04234 0.03299,-0.103818 0.06559,-0.148439 0.0818,-0.111965 0.194579,-0.195962 0.261989,-0.317488 0.03674,-0.06623 0.042,-0.152489 0.08314,-0.213558 0.03472,-0.05155 0.107893,-0.04939 0.142775,-0.09865 0.03615,-0.05105 0.0067,-0.120115 0.0389,-0.173743 0.03069,-0.05115 0.08661,-0.08233 0.122021,-0.129682 0.06037,-0.08073 0.0946,-0.18921 0.142161,-0.278517 0.02407,-0.0452 0.06489,-0.08208 0.08419,-0.129586 0.02415,-0.05945 -0.02256,-0.11628 -0.0079,-0.174942 0.01314,-0.05245 0.06808,-0.08129 0.08994,-0.129587 0.02,-0.04418 0.008,-0.09689 0.02175,-0.142545 0.01802,-0.05976 0.05609,-0.11329 0.07438,-0.174942 0.02916,-0.09826 -9.27e-4,-0.196967 0.02206,-0.291569 0.01488,-0.06122 0.08284,-0.08613 0.105653,-0.142546 0.02465,-0.06094 -0.02359,-0.129833 -0.01012,-0.19438 0.02168,-0.103951 0.101774,-0.179795 0.12158,-0.278611 0.01947,-0.09714 0.0081,-0.195943 0.02007,-0.29157 0.01363,-0.108669 0.05147,-0.212471 0.05618,-0.323967 0.0021,-0.05064 -0.01818,-0.09882 -0.01689,-0.149025 0.0016,-0.06254 0.05972,-0.111034 0.05456,-0.174941 -0.0051,-0.06321 -0.07196,-0.104274 -0.07536,-0.168463 -0.0022,-0.04167 0.01998,-0.08167 0.02253,-0.123108 0.004,-0.06544 -0.0046,-0.148176 -0.01163,-0.213817 -0.01082,-0.100702 -0.0639,-0.18947 -0.0901,-0.285091 -0.02538,-0.09265 -0.01788,-0.193393 -0.04511,-0.28509 -0.04687,-0.157821 -0.108071,-0.323271 -0.176667,-0.472992 -0.04426,-0.09659 -0.10111,-0.184323 -0.13772,-0.285091 -0.01843,-0.05073 -0.03795,-0.114002 -0.03461,-0.168463 0.0032,-0.05211 0.02808,-0.09748 0.0067,-0.149024 -0.05901,-0.142004 -0.187281,-0.218874 -0.253614,-0.356363 -0.0344,-0.0713 0.02153,-0.156251 -0.0184,-0.220038 -0.02993,-0.04782 -0.128748,-0.05334 -0.144933,-0.105128 -0.02132,-0.06822 0.03477,-0.12727 0.03108,-0.186702 -0.0048,-0.07707 -0.03107,-0.155145 -0.02877,-0.233255 0.0018,-0.05982 0.03466,-0.113402 0.02287,-0.174942 -0.01108,-0.05782 -0.06387,-0.09718 -0.07535,-0.155504 -0.01004,-0.05104 0.0095,-0.104695 -0.0061,-0.155505 -0.05202,-0.169598 -0.169836,-0.30561 -0.258123,-0.453553 -0.03946,-0.06613 -0.02619,-0.146252 -0.05997,-0.213818 -0.03708,-0.07417 -0.08195,-0.165431 -0.129876,-0.233256 -0.05195,-0.07352 -0.116042,-0.133281 -0.159705,-0.213818 -0.02444,-0.04508 -0.06401,-0.10308 -0.06593,-0.155504 -0.0017,-0.04496 0.03164,-0.09109 0.01467,-0.13597 -0.02211,-0.05847 -0.107994,-0.05942 -0.127926,-0.123203 -0.01873,-0.05993 0.0229,-0.12068 -0.0045,-0.181422 -0.0942,-0.209116 -0.316696,-0.292531 -0.449899,-0.466511 -0.0419,-0.05472 -0.04811,-0.122702 -0.08056,-0.181422 -0.0225,-0.04071 -0.06836,-0.06717 -0.08576,-0.110148 -0.01912,-0.04725 0.01162,-0.105473 -0.02133,-0.148772 -0.0593,-0.07792 -0.156199,-0.08637 -0.223866,-0.144253 -0.0482,-0.04124 -0.0566,-0.10969 -0.104374,-0.150695 -0.05416,-0.04649 -0.124959,-0.0574 -0.180722,-0.0982 -0.03955,-0.02894 -0.0509,-0.07774 -0.08553,-0.110364 -0.03371,-0.03177 -0.08105,-0.04273 -0.115403,-0.07408 -0.05098,-0.04653 -0.110517,-0.110234 -0.148352,-0.167783 -0.02632,-0.04003 -0.03568,-0.0883 -0.07258,-0.121652 -0.0503,-0.04546 -0.129323,-0.0247 -0.180535,-0.06805 -0.04434,-0.03753 -0.0439,-0.100524 -0.08519,-0.139365 -0.03879,-0.03649 -0.09621,-0.04197 -0.134781,-0.07981 -0.0416,-0.04082 -0.05679,-0.102748 -0.104369,-0.137737 -0.03829,-0.02816 -0.08795,-0.03579 -0.122408,-0.0696 -0.03715,-0.03646 -0.04351,-0.09145 -0.07973,-0.12752 -0.03435,-0.03421 -0.08634,-0.03538 -0.128207,-0.05535 -0.0492,-0.02346 -0.09799,-0.06937 -0.135965,-0.108048 -0.05755,-0.05861 -0.04929,-0.147986 -0.1059,-0.204301 -0.04106,-0.04085 -0.09846,-0.06052 -0.140156,-0.100806 -0.03804,-0.03676 -0.0572,-0.09068 -0.09858,-0.123874 -0.0378,-0.03033 -0.09456,-0.03849 -0.125651,-0.07706 -0.02298,-0.02851 -0.01745,-0.071 -0.03589,-0.10299 -0.04474,-0.07765 -0.110246,-0.140928 -0.142182,-0.226776 -0.0191,-0.05134 -0.0048,-0.10347 -0.01485,-0.155504 -0.0073,-0.03809 -0.0372,-0.06739 -0.04985,-0.10367 -0.0109,-0.03124 -0.0037,-0.06523 -0.01227,-0.09719 -0.02488,-0.09241 -0.125547,-0.215293 -0.11669,-0.311008 0.0028,-0.03 0.02085,-0.0605 0.02678,-0.09071 0.01462,-0.07438 0.0218,-0.165235 0.05581,-0.233256 0.04176,-0.08353 0.108554,-0.155499 0.137842,-0.246215 0.01703,-0.05274 -0.01343,-0.102873 -0.0056,-0.155503 0.0069,-0.04667 0.04684,-0.07976 0.06255,-0.123108 0.01433,-0.03957 0.005,-0.08395 0.023,-0.123107 0.04332,-0.09398 0.124358,-0.151849 0.180969,-0.233282 0.03938,-0.05664 0.07106,-0.141645 0.09526,-0.207313 0.01694,-0.04599 0.0096,-0.09554 0.02229,-0.142546 0.01499,-0.05557 0.04832,-0.104866 0.05861,-0.161982 0.0077,-0.04266 -0.0011,-0.08815 0.01525,-0.129587 0.02242,-0.05682 0.09775,-0.06908 0.11373,-0.129592 0.01107,-0.04192 0.0034,-0.08803 0.01725,-0.129582 0.01558,-0.04661 0.05314,-0.08596 0.05702,-0.136065 0.0041,-0.05262 -0.04079,-0.104998 -0.026,-0.155505 0.02353,-0.08033 0.117367,-0.158672 0.159636,-0.233255 0.02985,-0.05267 0.0083,-0.106016 0.01813,-0.161984 0.0066,-0.03771 0.03599,-0.06616 0.04184,-0.103669 0.0072,-0.04624 0.01299,-0.131686 -0.0057,-0.174942 -0.02198,-0.05094 -0.07226,-0.0748 -0.07041,-0.136066 0.0014,-0.04643 0.01278,-0.111811 0.04205,-0.14877 0.02244,-0.02834 0.06437,-0.04792 0.07487,-0.08449 0.0095,-0.03295 -0.0026,-0.07534 0.0022,-0.110149 0.01103,-0.08101 0.04056,-0.154174 0.05771,-0.233256 0.01068,-0.04923 0.0084,-0.101569 0.0268,-0.149025 0.02695,-0.06957 0.09169,-0.168155 0.14625,-0.21917 0.03369,-0.0315 0.07728,-0.05177 0.108513,-0.08594 0.03492,-0.0382 0.03972,-0.09139 0.06389,-0.135481 0.02087,-0.03806 0.05651,-0.06563 0.07767,-0.103669 0.03445,-0.0619 -0.0073,-0.11256 -0.0089,-0.174943 -0.0011,-0.04232 0.03305,-0.10364 0.05979,-0.135198 0.02904,-0.03426 0.08068,-0.03163 0.110889,-0.06634 0.04723,-0.05427 0.05271,-0.122167 0.11268,-0.169946 0.07196,-0.05733 0.178413,-0.104584 0.226716,-0.185737 0.03239,-0.05442 -0.0035,-0.124651 0.01956,-0.181415 0.02417,-0.05942 0.106934,-0.07042 0.128591,-0.129687 0.01748,-0.04785 -0.05765,-0.06758 -0.04791,-0.110029 0.01142,-0.04975 0.0921,-0.05919 0.115138,-0.10428 0.0216,-0.04228 6e-6,-0.08528 0.0071,-0.129001 0.0096,-0.05928 0.04786,-0.122209 0.07553,-0.174942 0.04629,-0.08821 0.139977,-0.148902 0.184294,-0.233263 0.02197,-0.04182 0.0014,-0.09219 0.0157,-0.136059 0.01766,-0.05412 0.06705,-0.08822 0.09473,-0.136066 0.03046,-0.05266 0.03712,-0.113822 0.07683,-0.161983 0.09371,-0.113642 0.248016,-0.167988 0.328536,-0.291571 0.02237,-0.03433 0.02938,-0.07585 0.05142,-0.110148 0.02067,-0.03218 0.05927,-0.05787 0.0672,-0.09719 0.0082,-0.04052 -0.0254,-0.07634 -0.02174,-0.116628 0.0041,-0.04469 0.04802,-0.06436 0.06073,-0.103669 0.01242,-0.03842 -0.0106,-0.08256 0.004,-0.123108 0.01944,-0.05409 0.0693,-0.09159 0.09494,-0.142545 0.01704,-0.03386 0.01658,-0.08609 0.04336,-0.113199 0.03151,-0.03189 0.08429,-0.03693 0.110684,-0.07531 0.0286,-0.04159 -0.004,-0.09747 0.0077,-0.141942 0.01268,-0.0483 0.06724,-0.07328 0.09643,-0.110243 0.05852,-0.07409 0.08832,-0.169169 0.142343,-0.24612 0.02998,-0.04271 0.08677,-0.0789 0.10265,-0.129587 0.0162,-0.05171 -0.03572,-0.103761 -0.01646,-0.155504 0.013,-0.03492 0.0476,-0.05905 0.06645,-0.09071 0.01995,-0.0335 0.02973,-0.07906 0.03964,-0.116628 0.01639,-0.06213 -0.01748,-0.130195 0.0058,-0.187901 0.04147,-0.102856 0.141453,-0.12343 0.219041,-0.182101 0.04014,-0.03035 0.06532,-0.08695 0.09158,-0.128907 0.03286,-0.0525 0.07243,-0.110215 0.09389,-0.168463 0.01481,-0.04019 0.0051,-0.08221 0.01451,-0.123107 0.01289,-0.05614 0.04617,-0.11565 0.06971,-0.168463 0.02082,-0.04672 0.06056,-0.07919 0.08554,-0.123107 0.03583,-0.063 0.04676,-0.139306 0.06942,-0.207339 0.01402,-0.04209 0.03939,-0.08445 0.04165,-0.129586 0.0023,-0.0466 -0.03687,-0.08303 -0.05465,-0.123107 -0.01929,-0.04349 -0.01994,-0.101914 -0.02086,-0.149025 -0.0012,-0.06249 0.05781,-0.102787 0.0683,-0.161984 0.01842,-0.10391 -0.07024,-0.191577 -0.117896,-0.272132 -0.01866,-0.03154 -0.02301,-0.07576 -0.05559,-0.09712 -0.05703,-0.03738 -0.112192,0.03648 -0.167782,0.04047 -0.06014,0.0043 -0.09693,-0.08041 -0.161984,-0.08531 -0.04289,-0.0032 -0.109503,-0.01084 -0.149024,0.0077 -0.03872,0.01816 -0.07597,0.07262 -0.123108,0.06518 -0.04817,-0.0076 -0.08078,-0.05499 -0.129586,-0.06378 -0.05203,-0.0094 -0.102265,0.02336 -0.155504,0.01411 -0.09036,-0.01569 -0.17176,-0.07732 -0.265653,-0.08184 -0.05582,-0.0027 -0.107874,0.02969 -0.161983,0.02436 -0.04656,-0.0046 -0.0862,-0.03536 -0.129587,-0.04986 -0.05665,-0.01894 -0.134575,-0.02803 -0.19438,-0.03331 -0.126767,-0.01118 -0.248746,0.05759 -0.375801,0.04491 -0.05503,-0.0055 -0.08077,-0.06728 -0.136066,-0.06963 -0.06682,-0.0028 -0.142735,0.05513 -0.213818,0.0627 -0.127447,0.01359 -0.260603,-0.01831 -0.38876,-0.01831 -0.07315,0 -0.136664,0.03232 -0.207339,0.03235 -0.04641,1.6e-5 -0.106583,-0.0057 -0.149024,-0.02532 -0.03875,-0.01789 -0.06735,-0.05202 -0.110148,-0.06191 -0.04914,-0.01136 -0.09916,0.0094 -0.149025,1.9e-5 -0.05394,-0.0101 -0.101575,-0.04133 -0.155505,-0.05237 -0.05336,-0.01093 -0.110173,-0.0028 -0.161983,-0.01975 -0.0458,-0.015 -0.0832,-0.0491 -0.129586,-0.06229 -0.04597,-0.01306 -0.09575,1.62e-4 -0.142546,-0.0081 -0.06504,-0.01149 -0.128564,-0.04296 -0.19438,-0.04822 -0.04712,-0.0038 -0.09622,0.01511 -0.142544,0.0017 -0.05203,-0.01502 -0.08616,-0.06354 -0.136067,-0.08296 -0.05206,-0.02026 -0.109032,-0.02465 -0.161983,-0.04252 -0.131352,-0.04433 -0.262571,-0.09685 -0.395239,-0.135763 -0.06599,-0.01936 -0.111889,0.02264 -0.174942,0.02341 -0.110522,0.0014 -0.204296,-0.02913 -0.311008,-0.04194 -0.06233,-0.0075 -0.125797,0.0053 -0.187901,-0.0064 -0.04778,-0.009 -0.117907,-0.01822 -0.153299,-0.05456 -0.04981,-0.05114 -0.03946,-0.116526 -0.112353,-0.150878 -0.08199,-0.03864 -0.18065,-0.08592 -0.272132,-0.09328 -0.05004,-0.004 -0.108767,0.02793 -0.155504,0.01451 -0.04124,-0.01184 -0.06647,-0.05246 -0.10367,-0.07137 -0.0426,-0.02166 -0.153666,-0.03971 -0.200859,-0.03145 -0.05309,0.0093 -0.107372,0.03995 -0.161983,0.02428 -0.03196,-0.0092 -0.05843,-0.03036 -0.09071,-0.03921 -0.09234,-0.02531 -0.175594,-0.03044 -0.265653,-0.07144 -0.08381,-0.03816 -0.145595,-0.104475 -0.239735,-0.126048 -0.06018,-0.01379 -0.121503,0.0017 -0.181422,0.0074 -0.112407,0.01074 -0.183041,0.01073 -0.28509,0.06377 -0.06487,0.03372 -0.145115,0.01899 -0.187319,0.09284 -0.02169,0.03795 -0.0082,0.08237 -0.01798,0.123101 -0.0058,0.02425 -0.02379,0.04555 -0.0212,0.07127 0.0057,0.05691 0.04086,0.102043 0.03833,0.161983 -0.0024,0.05705 0.01734,0.142206 0.0026,0.19438 -0.01461,0.05171 -0.06686,0.09249 -0.06585,0.149025 0.0014,0.07969 0.109282,0.103072 0.127245,0.173841 0.01373,0.05406 -0.02674,0.107928 -0.01618,0.163084 0.0087,0.04558 0.05852,0.07609 0.06,0.123108 0.0014,0.04464 -0.04345,0.08427 -0.03322,0.12958 0.0094,0.04174 0.05846,0.05513 0.08754,0.07989 0.04077,0.03471 0.05026,0.08251 0.04358,0.133937 -0.01052,0.08096 -0.06099,0.138467 -0.07891,0.213818 -0.01305,0.05488 0.01628,0.102113 0.01428,0.155504 -0.0019,0.05215 -0.03623,0.09757 -0.04245,0.149024 -0.01222,0.101154 0.03493,0.19941 0.01166,0.30453 -0.0097,0.04361 -0.03903,0.07611 -0.05595,0.116627 -0.03723,0.08912 -0.08365,0.208848 -0.09618,0.304529 -0.008,0.06122 0.06512,0.103384 0.05404,0.161983 -0.0105,0.05552 -0.08173,0.07792 -0.08806,0.136067 -0.005,0.04579 0.03224,0.0849 0.03577,0.129586 0.0043,0.05484 -0.02876,0.105238 -0.02336,0.161983 0.01027,0.107874 0.06647,0.235663 0.04081,0.343405 -0.01352,0.05677 -0.06775,0.08867 -0.09719,0.136066 -0.07436,0.11974 -0.162546,0.264333 -0.197894,0.401719 -0.01097,0.04266 0.0079,0.0811 0.01232,0.123107 0.0055,0.05194 -0.0024,0.124727 -0.01694,0.174942 -0.03052,0.10558 -0.128782,0.188131 -0.142716,0.304528 -0.01323,0.110493 0.05155,0.231501 0.0011,0.343405 -0.01864,0.04131 -0.06404,0.06232 -0.09073,0.09777 -0.08215,0.109123 -0.197029,0.255747 -0.234484,0.388181 -0.02526,0.0893 -0.0263,0.18522 -0.0522,0.272132 -0.01801,0.06046 -0.03484,0.12311 -0.05903,0.181421 -0.01489,0.03588 -0.04071,0.07133 -0.04676,0.110149 -0.0068,0.04373 0.02656,0.0801 0.02686,0.123107 3.24e-4,0.04583 -0.03544,0.07444 -0.04292,0.116628 -0.0083,0.04695 0.01284,0.09443 -0.0015,0.142546 -0.03245,0.108664 -0.184573,0.164144 -0.211474,0.272132 -0.0118,0.04738 0.0033,0.09528 -0.0152,0.142544 -0.03474,0.08879 -0.111459,0.189422 -0.120153,0.285091 -0.0086,0.09488 0.07902,0.176109 0.04485,0.272131 -0.03599,0.101143 -0.118833,0.139762 -0.197303,0.200962 -0.164625,0.12839 -0.331405,0.281035 -0.544264,0.320834 -0.158076,0.02955 -0.179504,-0.178004 -0.311008,-0.178391 0.0016,-0.07647 0.02628,-0.164789 0.01707,-0.239734 -0.0062,-0.0503 -0.04477,-0.09041 -0.04231,-0.142546 0.0025,-0.05335 0.0069,-0.123192 0.01589,-0.174942 0.0051,-0.02919 0.03049,-0.05473 0.03011,-0.08423 -5.18e-4,-0.04004 -0.03193,-0.07827 -0.04175,-0.116627 -0.01323,-0.05165 -0.003,-0.109917 0.0026,-0.161983 0.0058,-0.05377 0.0088,-0.126983 0.03493,-0.174942 0.02162,-0.03963 0.06021,-0.06772 0.07749,-0.110149 0.02119,-0.05205 0.02269,-0.125489 0.02794,-0.181421 0.0057,-0.06063 -0.03381,-0.109845 -0.03389,-0.168463 -4.1e-5,-0.04375 0.02273,-0.08617 0.02738,-0.129586 0.0099,-0.09271 0.01078,-0.179751 0.03096,-0.272132 0.01481,-0.06782 0.08797,-0.08215 0.111746,-0.142552 0.01465,-0.03722 -0.0024,-0.07276 0.0032,-0.110142 0.0079,-0.05265 0.03619,-0.13969 0.05978,-0.187901 0.02452,-0.05013 0.09153,-0.07745 0.09911,-0.136066 0.01106,-0.08542 -0.05332,-0.180751 -0.06759,-0.265653 -0.02465,-0.146683 -0.0071,-0.301529 0.01134,-0.447074 0.01354,-0.10702 0.169118,-0.10677 0.16018,-0.220297 -0.0034,-0.04373 -0.02825,-0.08154 -0.03992,-0.123107 -0.01844,-0.0657 -0.02109,-0.134886 -0.04,-0.20086 -0.01445,-0.05044 -0.04475,-0.09702 -0.05343,-0.149024 -0.01158,-0.06938 0.03173,-0.128585 0.02703,-0.19438 -0.003,-0.04181 -0.04671,-0.07346 -0.04126,-0.116629 0.0053,-0.04184 0.05236,-0.06341 0.05868,-0.103669 0.008,-0.05122 -0.03406,-0.102764 -0.0248,-0.155503 0.01154,-0.0657 0.08721,-0.08848 0.117175,-0.142571 0.02786,-0.05029 0.0063,-0.110968 0.03247,-0.161958 0.0263,-0.05129 0.09143,-0.06882 0.11273,-0.123107 0.01769,-0.04511 -1.22e-4,-0.09617 0.01,-0.142546 0.0096,-0.04404 0.04837,-0.0762 0.04876,-0.123107 3.25e-4,-0.03775 -0.04131,-0.07586 -0.03402,-0.110148 0.0061,-0.02857 0.04001,-0.04562 0.05284,-0.07127 0.01686,-0.03372 -0.0032,-0.06981 0.0064,-0.103669 0.0098,-0.03466 0.03893,-0.05986 0.04432,-0.09719 0.0091,-0.06302 -0.07455,-0.08213 -0.07091,-0.136041 0.0028,-0.0407 0.06093,-0.05749 0.07846,-0.09099 0.02707,-0.05176 -0.0026,-0.126647 -0.0039,-0.181165 -4.38e-4,-0.01935 0.0137,-0.03955 0.0086,-0.05831 -0.007,-0.02588 -0.03644,-0.04162 -0.04905,-0.06479 -0.02811,-0.05167 -0.04628,-0.155684 -0.03742,-0.213818 0.0054,-0.03563 0.03224,-0.06266 0.04027,-0.09719 0.0074,-0.03191 -0.0042,-0.06423 0.004,-0.09719 0.0079,-0.03178 0.02785,-0.05883 0.03517,-0.09071 0.0074,-0.03217 1.6e-5,-0.06555 0.01162,-0.09719 0.0077,-0.02094 0.02682,-0.03676 0.03216,-0.05831 0.01105,-0.04463 -0.02359,-0.10137 -0.02032,-0.149025 0.0044,-0.06421 0.04516,-0.118659 0.05561,-0.181422 0.01,-0.0599 -0.0059,-0.121796 0.0089,-0.181421 0.0133,-0.05362 0.05667,-0.08851 0.08134,-0.136066 0.02531,-0.04879 0.03231,-0.120804 0.04275,-0.174942 0.01067,-0.05533 0.02987,-0.125347 0.02178,-0.181422 -0.01062,-0.0736 -0.0529,-0.179358 -0.03077,-0.252693 0.01394,-0.04619 0.05965,-0.07016 0.08983,-0.104248 0.03374,-0.03811 0.06589,-0.09164 0.092,-0.135488 0.03159,-0.05305 -4.25e-4,-0.107639 0.02024,-0.161983 0.03241,-0.08523 0.107453,-0.153988 0.129994,-0.246214 0.011,-0.045 -0.0185,-0.08242 -0.03209,-0.123108 -0.01438,-0.04305 -0.01804,-0.117058 -0.0117,-0.161983 0.01169,-0.08275 0.03046,-0.210205 0.06655,-0.285091 0.02017,-0.04183 0.07011,-0.06473 0.08367,-0.110148 0.01601,-0.05362 -0.03161,-0.09767 -0.02538,-0.149025 0.0061,-0.05017 0.06559,-0.07605 0.0815,-0.123107 0.01603,-0.04743 -0.0149,-0.09551 -0.0037,-0.142546 0.01052,-0.04421 0.05066,-0.06651 0.07914,-0.09777 0.03125,-0.03429 0.05852,-0.08273 0.0826,-0.122528 0.05041,-0.08329 0.06782,-0.204538 0.09553,-0.298049 0.02112,-0.07128 -0.02991,-0.127575 -0.01607,-0.194379 0.03109,-0.150048 0.131171,-0.272617 0.166503,-0.421157 0.01523,-0.06403 0.0307,-0.134957 0.02908,-0.2008595 -9.48e-4,-0.03867 -0.01972,-0.077977 -0.01015,-0.116628 0.01492,-0.060285 0.08959,-0.0865 0.09947,-0.1490246 0.0085,-0.053844 -0.04026,-0.102872 -0.02669,-0.155504 0.01119,-0.043406 0.04271,-0.079584 0.05456,-0.1231074 0.01496,-0.054993 0.01009,-0.1154414 0.03331,-0.1684626 0.01841,-0.042042 0.05561,-0.071653 0.06879,-0.116628 0.02598,-0.088648 0.01972,-0.1862051 0.04411,-0.2721319 0.02733,-0.096269 0.09331,-0.1784603 0.119725,-0.2786114 0.014,-0.053082 0.002,-0.110756 0.01864,-0.1619833 0.01828,-0.05627 0.08608,-0.079372 0.100932,-0.136066 0.01199,-0.045747 -0.0037,-0.096118 0.0061,-0.1425453 0.01196,-0.056391 0.04992,-0.11 0.05116,-0.1684626 9.03e-4,-0.042606 -0.02775,-0.087863 -0.01818,-0.1295867 0.01311,-0.057119 0.0793,-0.083463 0.09005,-0.1425453 0.0066,-0.036139 -0.008,-0.07394 -0.0089,-0.1101486 -9.51e-4,-0.03917 0.0146,-0.077635 0.01741,-0.116628 0.0019,-0.026563 -0.01064,-0.051623 -0.0084,-0.077752 0.0044,-0.052031 0.0588,-0.084722 0.06655,-0.136066 0.0095,-0.062949 -0.04708,-0.1031408 -0.05453,-0.1619834 -0.0065,-0.051043 0.03346,-0.096263 0.02939,-0.1490246 -0.007,-0.091438 -0.08638,-0.1832687 -0.07259,-0.2786113 0.007,-0.048513 0.05658,-0.080495 0.07706,-0.1231074 0.01951,-0.040593 0.01441,-0.087066 0.02714,-0.1295866 0.0122,-0.040787 0.03856,-0.075145 0.05045,-0.116628 0.01742,-0.060769 0.04364,-0.1313267 0.04751,-0.1943799 0.0028,-0.04496 -0.02025,-0.09196 -0.0072,-0.136066 0.01646,-0.05547 0.07581,-0.082504 0.09392,-0.136066 0.01559,-0.046071 -0.0045,-0.096117 2.84e-4,-0.1425453 0.0062,-0.059741 0.05957,-0.09831 0.07209,-0.155504 0.01047,-0.047867 -0.02113,-0.095206 -0.0123,-0.1425453 0.0089,-0.04762 0.05443,-0.081052 0.05947,-0.1295867 0.0039,-0.037471 -0.02196,-0.069463 -0.03245,-0.1036693 -0.01191,-0.038803 -0.0232,-0.1147137 -0.02301,-0.155504 2.84e-4,-0.054733 0.05412,-0.090258 0.06219,-0.1425453 0.01409,-0.091195 -0.03997,-0.2001757 -0.04932,-0.29157 -0.0054,-0.05278 0.02033,-0.1028274 0.0058,-0.155504 -0.02438,-0.088449 -0.13289,-0.1013088 -0.201325,-0.1429437 -0.03105,-0.018893 -0.07115,-0.049073 -0.110123,-0.040661 -0.05571,0.012025 -0.0642,0.090834 -0.110433,0.1182255 -0.04684,0.027755 -0.110149,-0.00633 -0.161724,0.00271 -0.05064,0.00888 -0.09043,0.051661 -0.142545,0.054411 -0.03894,0.00206 -0.07784,-0.014256 -0.116629,-0.016309 -0.0667,-0.00353 -0.127742,0.00502 -0.194379,-0.013819 -0.05524,-0.015619 -0.101493,-0.068068 -0.161984,-0.063152 -0.1077,0.00876 -0.20066,0.081254 -0.304528,0.093858 -0.127537,0.015474 -0.250898,-0.011693 -0.375801,-0.011247 -0.03741,1.215e-4 -0.06738,0.023911 -0.10367,0.028271 -0.09507,0.011421 -0.196165,0.00275 -0.29157,0.018679 -0.04307,0.00719 -0.07995,0.034418 -0.123107,0.041109 -0.04526,0.00702 -0.08997,-0.010497 -0.136066,5.103e-4 -0.06653,0.015885 -0.144362,0.055789 -0.213818,0.050902 -0.04833,-0.0034 -0.07595,-0.057998 -0.123107,-0.066888 -0.06307,-0.011889 -0.110813,0.056894 -0.174942,0.054053 -0.04718,-0.00209 -0.104846,0.00179 -0.149025,-0.016961 -0.04114,-0.017467 -0.07001,-0.061051 -0.116628,-0.066758 -0.06229,-0.00763 -0.10491,0.065718 -0.168463,0.048624 -0.09093,-0.024456 -0.169554,-0.087718 -0.259173,-0.1119616 -0.08706,-0.02355 -0.186585,-0.015021 -0.272132,-0.046596 -0.04792,-0.017688 -0.0714,-0.079356 -0.123107,-0.087427 -0.0656,-0.010241 -0.120466,0.059466 -0.187901,0.062541 -0.151449,0.00691 -0.301943,-0.00758 -0.453553,-0.00578 -0.063,7.493e-4 -0.125848,0.016103 -0.187901,0.016337 -0.05576,2.025e-4 -0.08898,-0.058707 -0.142545,-0.066806 -0.05978,-0.00904 -0.104543,0.04566 -0.161984,0.036848 -0.04824,-0.0074 -0.08751,-0.042077 -0.136065,-0.04925 -0.100506,-0.014844 -0.204409,-0.003 -0.304529,-0.028151 -0.04577,-0.011497 -0.08146,-0.051179 -0.129587,-0.055315 -0.06586,-0.00566 -0.1034,0.079296 -0.168463,0.071073 -0.04779,-0.00604 -0.118178,-0.025604 -0.161983,-0.045586 -0.03722,-0.01698 -0.06681,-0.048401 -0.110149,-0.04726 -0.05393,0.00142 -0.09771,0.044929 -0.149024,0.057656 -0.09342,0.023174 -0.193539,0.00979 -0.285091,0.032023 -0.05764,0.013996 -0.09938,0.063234 -0.155503,0.075854 -0.07307,0.016429 -0.164811,0.041397 -0.239736,0.045469 -0.05185,0.00282 -0.103915,-0.018378 -0.155504,-0.00609 -0.05826,0.013873 -0.09605,0.072909 -0.155504,0.082267 -0.0615,0.00968 -0.119253,-0.042037 -0.181421,-0.039635 -0.04986,0.00193 -0.09231,0.040913 -0.142546,0.038676 -0.05195,-0.00231 -0.09445,-0.050389 -0.149025,-0.036743 -0.04749,0.01187 -0.0791,0.071124 -0.129586,0.071349 -0.04537,2.024e-4 -0.08014,-0.046193 -0.123107,-0.05666 -0.08126,-0.019792 -0.195708,-0.00785 -0.278611,0.00298 -0.0636,0.00831 -0.09884,0.05348 -0.155504,0.076329 -0.04517,0.018213 -0.09624,0.015144 -0.142546,0.030321 -0.06075,0.019912 -0.114572,0.058147 -0.174942,0.079628 -0.06978,0.024832 -0.148738,0.02891 -0.220297,0.051769 -0.05577,0.017811 -0.104402,0.055454 -0.161984,0.067736 -0.05133,0.01095 -0.104178,-0.00109 -0.155504,0.014993 -0.05799,0.018166 -0.09542,0.076436 -0.155503,0.089499 -0.0571,0.012415 -0.111874,-0.019646 -0.168463,-0.014778 -0.0643,0.00553 -0.153669,0.01821 -0.213819,0.040372 -0.03606,0.013287 -0.06628,0.038965 -0.103669,0.049579 -0.0877,0.024899 -0.170467,0.020935 -0.246119,0.084991 -0.08643,0.073184 -0.133638,0.1986417 -0.199566,0.2894407 -0.03359,0.04627 -0.102304,0.061466 -0.128015,0.1104082 -0.02527,0.048105 0.01353,0.093957 0.01242,0.1422858 -10e-4,0.045641 -0.03952,0.082611 -0.03334,0.1295866 0.007,0.053132 0.0646,0.075775 0.0826,0.1231073 0.01596,0.041974 -0.01259,0.090888 -7.2e-4,0.136066 0.01816,0.069103 0.07439,0.1180486 0.08757,0.1879007 0.01124,0.059583 0.02554,0.1340287 0.02319,0.1943799 -0.0016,0.040259 -0.02295,0.090518 -0.0079,0.1295616 0.02242,0.058124 0.113572,0.060997 0.123044,0.1296118 0.0071,0.051589 -0.02048,0.1092472 -0.02048,0.1619833 0,0.048608 0.01633,0.094656 0.02111,0.1425453 0.0074,0.073605 9.23e-4,0.165764 -0.0065,0.2397353 -0.01177,0.1175963 -0.06464,0.2296935 -0.06991,0.3498839 -0.0029,0.065696 -0.02222,0.15782 6.08e-4,0.2202974 0.01672,0.045757 0.08323,0.097076 0.07347,0.1490246 -0.0065,0.034465 -0.04484,0.05845 -0.06565,0.084231 -0.03207,0.039737 -0.08075,0.1239428 -0.08576,0.1749421 -0.01401,0.142713 0.0057,0.2849926 0.01202,0.4276359 0.0037,0.083959 -0.0063,0.1692094 8.67e-4,0.252694 0.0024,0.027939 0.02065,0.050429 0.02328,0.077752 0.0033,0.033845 -0.01066,0.069412 -0.0109,0.1036694 -2.43e-4,0.034358 0.01283,0.069814 0.0096,0.1036693 -0.0036,0.038312 -0.03571,0.071738 -0.05441,0.1036694 -0.02427,0.041451 -0.04223,0.095972 -0.05399,0.1425452 -0.01081,0.042783 0.01896,0.097883 0.0011,0.1359708 -0.0149,0.031805 -0.06201,0.041376 -0.06767,0.077942 -0.0073,0.047376 0.01179,0.1508693 0.03191,0.1942853 0.01732,0.037389 0.0515,0.068606 0.05949,0.1101486 0.0089,0.046185 -0.02359,0.092156 -0.0329,0.136066 -0.01235,0.058235 -0.0048,0.1284934 -0.0033,0.1879014 0.0016,0.06106 0.05266,0.115429 0.04848,0.174942 -0.0032,0.04594 -0.04663,0.078 -0.05367,0.123108 -0.0078,0.04986 0.01108,0.09914 0.0021,0.149024 -0.0093,0.0514 -0.04513,0.09665 -0.04812,0.149025 -0.0025,0.04373 0.02563,0.08609 0.01616,0.129586 -0.01142,0.05245 -0.06972,0.07723 -0.08353,0.129587 -0.02197,0.08322 -0.03795,0.199274 -0.03697,0.285091 4.98e-4,0.04354 0.01533,0.08597 0.01234,0.129586 -0.0045,0.0664 -0.03484,0.12661 -0.03155,0.194381 0.0068,0.1397 0.160826,0.244913 0.154984,0.395239 -0.003,0.07636 -0.0072,0.158775 -0.025,0.233256 -0.01376,0.0575 -0.04543,0.108921 -0.05138,0.168461 -0.0047,0.04648 -0.01193,0.102722 -0.0064,0.149025 0.0041,0.03449 0.02508,0.07017 0.01754,0.105521 -0.01078,0.05048 -0.06692,0.07636 -0.07559,0.127736 -0.0073,0.04334 0.01399,0.08165 0.02145,0.123107 0.0095,0.05295 0.0052,0.114789 0.0028,0.168462 -0.0028,0.06093 -0.04303,0.109418 -0.05038,0.168463 -0.01757,0.141071 -0.002,0.28101 -0.01101,0.421156 -0.0028,0.04419 -0.01879,0.08584 -0.022,0.129587 -0.0033,0.04499 0.005,0.09173 -0.005,0.136066 -0.01732,0.07671 -0.05275,0.150234 -0.06992,0.226777 -0.0058,0.02599 0.0029,0.05208 -0.0026,0.07775 -0.0064,0.02954 -0.02825,0.05383 -0.03155,0.08423 -0.0035,0.03213 0.007,0.06435 0.003,0.09719 -0.01091,0.0889 -0.03701,0.182838 -0.03701,0.272131 0,0.0591 0.02458,0.118223 0.01992,0.176793 -0.0038,0.04715 -0.03368,0.08715 -0.03822,0.134215 -0.0041,0.04241 0.0224,0.08103 0.01681,0.123107 -0.0038,0.02896 -0.03071,0.04911 -0.03235,0.07775 -0.0027,0.04696 0.02784,0.09393 0.02723,0.142546 -0.0014,0.115606 -0.02774,0.234733 -0.02411,0.349884 0.0016,0.05104 0.03371,0.09756 0.02994,0.149024 -0.0032,0.04313 -0.03549,0.0781 -0.05184,0.116629 -0.01151,0.02713 -0.0077,0.05854 -0.02147,0.08423 -0.04513,0.08418 -0.08993,0.12828 -0.10861,0.226776 -0.01354,0.07137 0.01983,0.139452 0.0061,0.207339 -0.01196,0.05933 -0.05911,0.103897 -0.07512,0.161983 -0.01612,0.05849 -0.03814,0.133634 -0.03694,0.19438 9.92e-4,0.05063 0.02796,0.09949 0.02712,0.149025 -7.37e-4,0.04299 -0.0347,0.0791 -0.03254,0.123107 0.0027,0.05458 0.07957,0.08304 0.07603,0.136066 -0.0029,0.04405 -0.05382,0.07361 -0.06321,0.116628 -0.01201,0.05506 0.02491,0.111898 0.01214,0.168463 -0.01523,0.0675 -0.05889,0.125353 -0.07132,0.19438 -0.01033,0.05738 0.0067,0.118247 -0.0079,0.174942 -0.01352,0.05251 -0.05748,0.09458 -0.06397,0.149025 -0.0092,0.07695 0.08407,0.124518 0.07841,0.200859 -0.007,0.09374 -0.08646,0.161474 -0.09867,0.246215 -0.0068,0.04728 0.03032,0.08579 0.04037,0.129586 0.02009,0.08753 0.0037,0.231618 -0.02111,0.317488 -0.0123,0.04261 -0.04325,0.07826 -0.04862,0.123107 -0.01104,0.09213 0.03671,0.190874 0.01206,0.28509 -0.01283,0.04903 -0.07591,0.07704 -0.07786,0.129587 -0.0015,0.04008 0.04002,0.07257 0.0595,0.10367 0.01631,0.02603 0.01529,0.05451 0.01457,0.08423 -0.006,0.2466 -0.03775,0.491065 -0.09142,0.732165 -0.01143,0.05137 -0.05273,0.09047 -0.06186,0.142544 -0.01792,0.102204 0.0051,0.211601 -0.01164,0.311008 -0.01048,0.06224 -0.05763,0.112168 -0.06465,0.174943 -0.0058,0.05164 0.02843,0.104798 0.0113,0.155503 -0.01866,0.05525 -0.07567,0.09418 -0.100011,0.149025 -0.03778,0.08514 -0.06281,0.178989 -0.110917,0.259173 -0.04198,0.06996 -0.09697,0.123915 -0.150411,0.184171 -0.03114,0.03511 -0.03931,0.08926 -0.08128,0.114793 -0.04434,0.02698 -0.100746,-0.01071 -0.148924,-0.0024 -0.06443,0.01114 -0.09747,0.08135 -0.161984,0.0971 -0.04755,0.01161 -0.107083,0.01384 -0.155504,0.0059 -0.02717,-0.0044 -0.05621,-0.02067 -0.08423,-0.01427 -0.0442,0.0101 -0.06427,0.06339 -0.0919,0.09403 -0.0433,0.04799 -0.10361,0.08338 -0.15431,0.123202 -0.02715,0.02132 -0.07164,0.0661 -0.110149,0.05412 -0.03359,-0.01045 -0.05758,-0.04975 -0.08423,-0.07111 -0.04586,-0.03675 -0.09791,-0.06324 -0.14245,-0.10242 -0.0257,-0.0226 -0.04041,-0.05474 -0.06625,-0.07635 -0.03694,-0.0309 -0.0978,-0.04011 -0.107284,-0.09582 -0.0083,-0.04861 0.02581,-0.07965 0.03541,-0.123107 0.01007,-0.04557 -0.0016,-0.09614 0.0031,-0.142546 0.0046,-0.04604 0.02305,-0.08902 0.01713,-0.136065 -0.0065,-0.05191 -0.05486,-0.08525 -0.06218,-0.136067 -0.0068,-0.04747 0.02886,-0.09614 0.01224,-0.142545 -0.01947,-0.05436 -0.07223,-0.08882 -0.08279,-0.149025 -0.01177,-0.06713 0.03083,-0.08801 0.04007,-0.143646 0.01,-0.06003 -0.01382,-0.144143 -0.01654,-0.206238 -0.0023,-0.05373 -0.02358,-0.108158 -0.01805,-0.161983 0.0069,-0.06708 0.04606,-0.125116 0.03117,-0.19438 -0.02004,-0.09325 -0.08255,-0.169216 -0.111704,-0.259173 -0.02885,-0.08902 -0.02397,-0.184601 -0.04881,-0.272132 -0.01288,-0.04539 -0.04888,-0.08226 -0.05575,-0.129586 -0.02301,-0.158555 0.08231,-0.30923 0.05963,-0.472991 -0.01049,-0.07577 -0.133001,-0.0856 -0.133432,-0.155505 -4.05e-4,-0.06548 0.08722,-0.09011 0.08752,-0.155504 2.03e-4,-0.04273 -0.0017,-0.109668 -0.01821,-0.149024 -0.01442,-0.03438 -0.05275,-0.06442 -0.05342,-0.103669 -8.79e-4,-0.05152 0.05189,-0.08968 0.0536,-0.142546 0.0012,-0.03791 -0.01772,-0.07263 -0.0179,-0.110148 -2.43e-4,-0.05212 0.01661,-0.09643 0.0038,-0.149025 -0.01158,-0.04741 -0.05,-0.08596 -0.05181,-0.136066 -0.0019,-0.05255 0.03944,-0.09698 0.03918,-0.149025 -2.43e-4,-0.05312 -0.06181,-0.08352 -0.05779,-0.136066 0.003,-0.0395 0.03347,-0.07425 0.04759,-0.110149 0.01479,-0.03758 0.01287,-0.07832 0.02397,-0.116627 0.0075,-0.02601 0.02833,-0.04563 0.03537,-0.07127 0.01415,-0.0516 -0.02771,-0.120918 -0.02837,-0.174942 -9.35e-4,-0.07627 0.04964,-0.141669 0.03737,-0.220297 -0.0072,-0.04587 -0.04364,-0.08425 -0.0559,-0.129588 -0.01401,-0.05181 0.0075,-0.103428 -0.0045,-0.155503 -0.02824,-0.123016 -0.09171,-0.246408 -0.101629,-0.375801 -0.0033,-0.04286 0.01829,-0.08239 0.02796,-0.123108 0.0075,-0.0314 -0.002,-0.05949 5.67e-4,-0.09071 0.0037,-0.04436 0.02238,-0.08393 0.01752,-0.129586 -0.0066,-0.06213 -0.08255,-0.09812 -0.07933,-0.161983 0.0053,-0.104334 0.06038,-0.198072 0.07235,-0.298049 0.0095,-0.07914 -0.01927,-0.160288 0.0022,-0.239736 0.01244,-0.04598 0.04071,-0.08505 0.0567,-0.129586 0.03116,-0.08677 0.0458,-0.186766 0.04594,-0.278612 1.62e-4,-0.116625 -0.01649,-0.233246 -0.01934,-0.349884 -0.0016,-0.06409 0.01564,-0.130732 0.0042,-0.19438 -0.01062,-0.05937 -0.07418,-0.09533 -0.08046,-0.155504 -0.0059,-0.05673 0.04384,-0.104665 0.04128,-0.161983 -0.0045,-0.100635 -0.04647,-0.218993 -0.03522,-0.317488 0.0084,-0.07362 0.08086,-0.143573 0.122357,-0.200859 0.03589,-0.04955 0.06126,-0.120332 0.06549,-0.181421 0.0041,-0.05922 -0.04449,-0.09542 -0.05988,-0.149024 -0.01331,-0.04635 -0.0092,-0.09524 -0.01366,-0.142546 -0.0063,-0.06617 -0.02492,-0.134249 -0.02314,-0.200859 0.0019,-0.07047 0.03164,-0.127575 0.04673,-0.19438 0.0077,-0.0341 0.0015,-0.06936 0.01019,-0.103669 0.0075,-0.02965 0.0352,-0.05372 0.03651,-0.08423 0.0021,-0.04865 -0.0324,-0.09277 -0.02961,-0.142545 0.0029,-0.05175 0.04111,-0.09542 0.02915,-0.149025 -0.0094,-0.04233 -0.05519,-0.07319 -0.05831,-0.116628 -0.0035,-0.04915 0.05177,-0.08564 0.05408,-0.136065 0.0046,-0.101659 -0.04102,-0.207754 -0.03687,-0.311009 0.0024,-0.05885 0.05315,-0.09946 0.06171,-0.155504 0.0077,-0.0507 -0.01623,-0.09886 -0.01038,-0.149024 0.0084,-0.07248 0.04857,-0.139464 0.05601,-0.213819 0.0058,-0.05806 -0.01815,-0.11801 -0.0096,-0.174941 0.0054,-0.03603 0.02882,-0.06653 0.02979,-0.10367 0.0016,-0.06047 -0.06611,-0.09711 -0.0616,-0.155503 0.0032,-0.04102 0.03509,-0.07533 0.04018,-0.116629 0.0071,-0.05765 -0.0083,-0.110427 0.0124,-0.168462 0.01692,-0.04749 0.05796,-0.0838 0.06096,-0.136066 0.0066,-0.115812 0.01252,-0.234206 0.0074,-0.349884 -0.0018,-0.04053 0.01405,-0.082685 0.003,-0.1231081 -0.01168,-0.042708 -0.05916,-0.061763 -0.0822,-0.097215 -0.02511,-0.038622 -0.02961,-0.1037737 -0.03135,-0.1489991 -0.0047,-0.1211081 0.138103,-0.2183105 0.148161,-0.3434046 0.005,-0.062022 -0.03447,-0.1144797 -0.03109,-0.174942 0.002,-0.036104 0.02093,-0.068704 0.02834,-0.1036693 0.01498,-0.070646 0.02379,-0.1746318 0.01354,-0.2462147 -0.0084,-0.058371 -0.01591,-0.1259104 -0.03586,-0.1814213 -0.01376,-0.038296 -0.04531,-0.073971 -0.04215,-0.116628 0.0076,-0.1021284 0.03926,-0.200296 0.04181,-0.3045286 0.0019,-0.076307 -0.0245,-0.1878059 -0.0022,-0.2591733 0.01271,-0.040584 0.05186,-0.061146 0.07878,-0.090967 0.0291,-0.032238 0.07164,-0.1237905 0.07281,-0.16795 6.72e-4,-0.025557 -0.03023,-0.041033 -0.03738,-0.065075 -0.02338,-0.078565 -0.03495,-0.1660583 -0.05519,-0.2461895 -0.02551,-0.1009864 0.01825,-0.2186839 -0.0015,-0.3239665 -0.0077,-0.041373 -0.03187,-0.076487 -0.04279,-0.116628 -0.01259,-0.046279 -0.01037,-0.097481 -0.02765,-0.1425454 -0.01846,-0.048148 -0.05389,-0.087752 -0.0543,-0.1425453 -5.02e-4,-0.065822 0.09119,-0.1693863 0.124847,-0.2267767 0.03322,-0.05665 0.01122,-0.1153212 0.0303,-0.1749419 0.01541,-0.048149 0.06106,-0.084076 0.06569,-0.136066 0.004,-0.044498 -0.02471,-0.085313 -0.02049,-0.1295866 0.0051,-0.0533 0.04541,-0.1006922 0.04153,-0.1555041 -0.003,-0.042868 -0.03154,-0.079369 -0.02916,-0.1231073 0.0044,-0.081906 0.04336,-0.1617112 0.03698,-0.2462146 -0.0052,-0.069378 -0.01471,-0.1599427 -0.03221,-0.2267766 -0.01489,-0.056881 -0.04411,-0.1146158 -0.03667,-0.1749421 0.0076,-0.062003 0.0633,-0.094558 0.08554,-0.1490246 0.03938,-0.096472 0.04323,-0.2104325 0.06811,-0.3110079 0.01363,-0.055109 0.04797,-0.1041914 0.05113,-0.1619833 0.0029,-0.053502 -0.03264,-0.1019135 -0.03036,-0.155504 0.0022,-0.050832 0.0063,-0.1127016 0.01811,-0.1619833 0.0091,-0.038189 0.02932,-0.076445 0.02453,-0.116628 -0.01295,-0.1079942 -0.0869,-0.2068103 -0.100221,-0.3110079 -0.0083,-0.065268 0.03431,-0.1326239 0.04883,-0.19438 0.01308,-0.055622 0.0033,-0.1129327 0.01784,-0.1684627 0.01426,-0.054284 0.06007,-0.091524 0.09097,-0.136066 0.03014,-0.043447 0.04634,-0.098414 0.0602,-0.1490246 0.01131,-0.041327 0.02463,-0.086433 0.01848,-0.1295866 -0.0059,-0.041091 -0.02874,-0.08072 -0.02182,-0.1231074 0.0071,-0.0434 0.0348,-0.081979 0.04903,-0.1231072 0.03134,-0.090613 0.05715,-0.1773528 0.09697,-0.2656527 0.04655,-0.1032454 0.143263,-0.1781215 0.190939,-0.2850906 0.03717,-0.083396 0.02074,-0.1779159 0.05053,-0.2591733 0.01532,-0.041783 0.05469,-0.071213 0.0617,-0.116628 0.0071,-0.045786 -0.01942,-0.090518 -0.01996,-0.136066 -0.0018,-0.1477686 -0.0053,-0.2931328 -0.01549,-0.4405945 -0.0028,-0.040097 0.01989,-0.068543 0.03467,-0.1036694 0.02951,-0.0701148 0.0423,-0.16628286 0.08995,-0.22651724 0.02981,-0.0376833 0.07812,-0.0507748 0.09785,-0.0974557 0.05864,-0.13874884 -0.02899,-0.29513234 -0.08559,-0.42115027 -0.01586,-0.03532 -0.01994,-0.0773059 -0.04086,-0.11004741 -0.06411,-0.10056622 -0.225894,-0.0676033 -0.323717,-0.0884681 -0.09841,-0.02099139 -0.178607,-0.08435787 -0.285091,-0.08602199 -0.05205,-8.1307e-4 -0.09109,0.04539646 -0.142545,0.04319449 -0.04467,-0.0019109 -0.07451,-0.04613993 -0.116628,-0.04794642 -0.04121,-0.0017685 -0.08288,0.02445568 -0.123108,0.03146336 -0.05375,0.0093647 -0.127867,5.1252e-4 -0.181421,-0.0098329 -0.07055,-0.01362937 -0.110446,-0.07459457 -0.187901,-0.07552155 -0.0522,-6.2326e-4 -0.113834,-0.0083649 -0.161983,0.01570479 -0.04062,0.02030803 -0.07508,0.07013055 -0.123107,0.07291464 -0.04282,0.0024835 -0.08017,-0.03658862 -0.123107,-0.04059391 -0.05245,-0.00489114 -0.09613,0.03888232 -0.149025,0.03498143 -0.08726,-0.0064382 -0.169779,-0.05848483 -0.252695,-0.06310704 -0.04887,-0.0027239 -0.09226,0.05391006 -0.136065,0.06992174 -0.05143,0.01880208 -0.120798,0.007343 -0.174942,0.007343 z"
         id="path1" />
    </g>
  </g>
</svg>
