<?xml version="1.0" encoding="UTF-8" standalone="no"?>
<!-- Created with Inkscape (http://www.inkscape.org/) -->

<svg
   width="214.18021mm"
   height="37.134846mm"
   viewBox="0 0 214.18021 37.134846"
   version="1.1"
   id="svg1"
   inkscape:version="1.4.2 (2aeb623e1d, 2025-05-12)"
   sodipodi:docname="b12_word_logo_b.svg"
   xml:space="preserve"
   xmlns:inkscape="http://www.inkscape.org/namespaces/inkscape"
   xmlns:sodipodi="http://sodipodi.sourceforge.net/DTD/sodipodi-0.dtd"
   xmlns="http://www.w3.org/2000/svg"
   xmlns:svg="http://www.w3.org/2000/svg"><sodipodi:namedview
     id="namedview1"
     pagecolor="#ffffff"
     bordercolor="#000000"
     borderopacity="0.25"
     inkscape:showpageshadow="2"
     inkscape:pageopacity="0.0"
     inkscape:pagecheckerboard="0"
     inkscape:deskcolor="#d1d1d1"
     inkscape:document-units="mm"
     inkscape:zoom="1.2674155"
     inkscape:cx="91.919343"
     inkscape:cy="85.607285"
     inkscape:window-width="2494"
     inkscape:window-height="1371"
     inkscape:window-x="66"
     inkscape:window-y="32"
     inkscape:window-maximized="1"
     inkscape:current-layer="layer1" /><defs
     id="defs1" /><g
     inkscape:label="Layer 1"
     inkscape:groupmode="layer"
     id="layer1"
     transform="translate(17.835228,-9.0320553)"><text
       xml:space="preserve"
       style="font-size:50.8px;text-align:start;writing-mode:lr-tb;direction:ltr;text-anchor:start;white-space:pre;inline-size:187.843;display:inline;fill:#000000;stroke-width:0.264583"
       x="30.999006"
       y="50.77932"
       id="text1"
       transform="translate(-18.599404,-5.0188867)"
       inkscape:label="text1"><tspan
         x="30.999006"
         y="50.77932"
         id="tspan3"><tspan
           style="font-weight:600;font-family:barlow;-inkscape-font-specification:'barlow Semi-Bold'"
           id="tspan2">bioWork</tspan></tspan></text><path
       style="fill:#94d5e6;fill-opacity:1;stroke:none"
       d="m 3.4775789,11.298839 c -0.0079,0.0419 -0.053596,0.07955 -0.1003719,0.05596 -0.025199,-0.01271 -0.034997,-0.04265 -0.065488,-0.04665 -0.069324,-0.0091 -0.1110962,0.05025 -0.1789542,0.04725 -0.062645,-0.0028 -0.112733,-0.06975 -0.1789543,-0.04736 -0.06884,0.02327 -0.1142227,0.09818 -0.1484522,0.156655 -0.011261,0.01924 -0.030334,0.03908 -0.035319,0.06111 -0.00745,0.03293 0.029146,0.05427 0.00633,0.08728 -0.036634,0.053 -0.1285125,0.05829 -0.1796618,0.08743 -0.014929,0.0085 -0.022331,0.02676 -0.035898,0.03729 -0.023808,0.01848 -0.067888,0.03884 -0.095849,0.05128 -0.061554,0.02739 -0.1338236,0.0077 -0.1964132,-6.05e-4 -0.028582,-0.0038 -0.059674,6.01e-4 -0.087295,-0.0079 -0.025579,-0.0078 -0.047584,-0.02536 -0.074201,-0.03055 -0.030118,-0.0059 -0.050486,0.01495 -0.078565,0.01924 -0.0879,0.01341 -0.1979519,0.01802 -0.2652686,0.08903 -0.02836,0.02992 -0.011839,0.07365 -0.029157,0.108311 -0.0099,0.01982 -0.029509,0.06216 -0.046655,0.0755 -0.030713,0.02389 -0.081353,0.02249 -0.1172171,0.03552 -0.023311,0.0085 -0.052967,0.03042 -0.078292,0.02937 -0.022278,-9.25e-4 -0.00646,-0.05956 -0.026717,-0.07702 -0.02742,-0.02363 -0.065058,-0.03473 -0.090739,-0.06042 -0.01614,-0.01615 -0.00683,-0.03744 -0.020016,-0.05493 -0.029809,-0.03953 -0.082619,-0.07403 -0.1229138,-0.100674 -0.020782,-0.01374 -0.085419,-0.02115 -0.1065248,-0.0088 -0.021193,0.01241 -0.038562,0.03925 -0.064224,0.04303 -0.024317,0.0036 -0.041968,-0.02467 -0.0667178,-0.02381 -0.0604286,0.0021 -0.12263036,0.02909 -0.18331897,0.03982 -0.0540136,0.0095 -0.11963387,0.0108 -0.17004999,0.03593 -0.0375052,0.0187 -0.0299181,0.06784 -0.0430634,0.101399 -0.0122886,0.03138 -0.0408555,0.06481 -0.0377993,0.100389 0.003097,0.03607 0.0465139,0.04384 0.0554906,0.07459 0.016875,0.0578 -0.0796458,0.145479 -0.12320366,0.168402 -0.0260478,0.01371 -0.0895176,0.0254 -0.11784791,0.02027 -0.0295621,-0.0054 -0.056667,-0.02333 -0.0872947,-0.02284 -0.0533402,8.63e-4 -0.0944109,0.02464 -0.14403633,0.0393 -0.0291466,0.0086 -0.05418199,6.62e-4 -0.08293001,0.0049 -0.02213804,0.0033 -0.03925919,0.01959 -0.06110632,0.02377 -0.03495733,0.0067 -0.06951079,-0.02231 -0.10038896,-0.01284 -0.0361093,0.01108 -0.0847074,0.05406 -0.10633719,0.08416 -0.013967,0.01944 -0.0214134,0.04867 -0.0425189,0.06206 -0.0176294,0.01118 -0.0415471,5.42e-4 -0.0606513,-5.45e-4 -0.0320972,-0.0018 -0.0837367,-0.0012 -0.11330841,0.01205 -0.0262907,0.01177 -0.0293938,0.04242 -0.0491161,0.06058 -0.0279829,0.02577 -0.0795659,0.03523 -0.11255396,0.05659 -0.0223757,0.01449 -0.043187,0.04301 -0.0685901,0.05134 -0.0124271,0.0041 -0.0273435,-0.0026 -0.0405283,-5.74e-4 -0.0287214,0.0044 -0.0528681,0.02239 -0.08293,0.01991 -0.0241925,-0.002 -0.0452042,-0.01593 -0.0698358,-0.01679 -0.0248234,-8.71e-4 -0.0460461,0.01729 -0.0698358,0.01455 -0.0260297,-0.003 -0.0475827,-0.02222 -0.0742005,-0.02287 -0.0428343,-0.0011 -0.0829012,0.03636 -0.12657729,0.03804 -0.028941,0.0011 -0.053129,-0.02022 -0.08293,-0.01536 -0.039923,0.0065 -0.069563,0.04318 -0.1091185,0.04883 -0.031829,0.0045 -0.062971,-0.01765 -0.096024,-0.01462 -0.060733,0.0056 -0.105246,0.02993 -0.1614953,0.04836 -0.028415,0.0093 -0.05883,0.01028 -0.087295,0.01963 -0.044785,0.01471 -0.059454,0.08497 -0.1003922,0.08993 -0.031684,0.0038 -0.053947,-0.03408 -0.087292,-0.03156 -0.020781,0.0016 -0.036078,0.01838 -0.056742,0.01961 -0.062218,0.0037 -0.1302154,-0.01421 -0.1920485,-0.0023 -0.024539,0.0047 -0.041909,0.02379 -0.065471,0.02879 -0.025531,0.0054 -0.052046,-0.003 -0.078565,0.0036 -0.016589,0.0041 -0.030819,0.01737 -0.048012,0.0184 -0.032168,0.0019 -0.073057,0.01123 -0.1047537,0.0089 -0.038529,-0.0029 -0.073489,-0.02277 -0.1134832,-0.01548 -0.044977,0.0082 -0.057451,0.06638 -0.096024,0.08551 -0.035615,0.01766 -0.073068,-0.02504 -0.1091184,-0.0072 -0.038417,0.01905 -0.053156,0.06771 -0.087312,0.09246 -0.029484,0.02136 -0.067698,0.03048 -0.1003719,0.04595 -0.06153,0.02912 -0.1262716,0.06532 -0.1920485,0.08159 -0.06451,0.01595 -0.076924,-0.04768 -0.1265773,-0.06736 -0.030412,-0.01206 -0.068284,-0.01255 -0.100389,-0.01897 -0.063477,-0.0127 -0.1308483,-0.03696 -0.1964132,-0.02306 -0.042077,0.0089 -0.079376,0.03304 -0.1178479,0.05107 -0.061493,0.02882 -0.1090982,0.04521 -0.1614313,0.09197 -0.026221,0.02343 -0.037735,0.05763 -0.065552,0.07936 -0.031401,0.02453 -0.083628,0.05414 -0.1221956,0.06384 -0.023689,0.006 -0.051672,-0.0018 -0.074029,0.0077 -0.030833,0.01307 -0.039533,0.05323 -0.070024,0.06795 -0.033908,0.01638 -0.070823,-0.0012 -0.1047367,-0.0077 -0.02023,-0.0039 -0.036919,0.005 -0.056742,0.0047 -0.025599,-4.2e-4 -0.048485,-0.01081 -0.0742,-0.0035 -0.041679,0.01188 -0.074085,0.0449 -0.1134832,0.06081 -0.036912,0.0149 -0.078217,0.01019 -0.1134661,0.0306 -0.027564,0.01596 -0.04056,0.04666 -0.069856,0.06009 -0.061342,0.02811 -0.1227167,0.0047 -0.1833158,0.02056 -0.039208,0.01026 -0.058175,0.05476 -0.096024,0.06806 -0.032906,0.01156 -0.070855,-0.02171 -0.1047537,-0.02124 -0.022624,3.13e-4 -0.036104,0.01755 -0.056742,0.02333 -0.028848,0.0081 -0.061663,-0.0045 -0.091659,-6.07e-4 -0.027011,0.0035 -0.053548,0.02193 -0.080417,0.02092 -0.034012,-0.0013 -0.063358,-0.02592 -0.094172,-0.0376 -0.038174,-0.01447 -0.1254148,-0.02336 -0.16586,-0.01601 -0.02142,0.0039 -0.04035,0.02615 -0.056742,0.03929 -0.032953,0.0264 -0.078041,0.04434 -0.107748,0.07337 -0.015511,0.01516 -0.01108,0.04765 -0.03648,0.05311 -0.033744,0.0072 -0.054322,-0.0404 -0.087103,-0.04201 -0.034504,-0.0017 -0.050542,0.03838 -0.08293,0.04158 -0.027747,0.0027 -0.052463,-0.0209 -0.078565,-0.02684 -0.025459,-0.0058 -0.069867,0.0034 -0.096024,0.0079 -0.052817,0.0089 -0.097681,0.04687 -0.148401,0.06125 -0.034953,0.0099 -0.06912,-0.01158 -0.1047537,-0.0026 -0.044063,0.01107 -0.069832,0.0428 -0.1091216,0.05629 -0.058627,0.02013 -0.1253552,0.01839 -0.1833158,0.04281 -0.028791,0.01213 -0.048898,0.04314 -0.078565,0.05146 -0.030049,0.0084 -0.049133,-0.02827 -0.078565,-0.02584 -0.030182,0.0025 -0.042402,0.039 -0.069836,0.04727 -0.013488,0.0041 -0.025888,-0.0046 -0.039283,-0.0029 -0.013363,0.0017 -0.02257,0.0127 -0.034918,0.01702 -0.015454,0.0054 -0.032458,3.26e-4 -0.048012,0.0058 -0.03583,0.01258 -0.079383,0.02619 -0.1134832,0.04313 -0.021228,0.01055 -0.039167,0.03031 -0.061106,0.03839 -0.024157,0.0089 -0.050517,0.0052 -0.0742,0.01745 -0.061662,0.03202 -0.116452,0.09329 -0.1745895,0.133437 -0.030366,0.02097 -0.059727,0.04507 -0.091659,0.06355 -0.038509,0.02228 -0.065151,0.01739 -0.08293,0.06314 -0.029184,-0.01556 -0.066561,-0.03413 -0.100389,-0.03413 -0.026783,-2e-6 -0.051347,0.01374 -0.078565,0.01188 -0.045809,-0.0031 -0.093906,-0.01893 -0.1338214,0.0163 -0.02039,0.018 -0.021348,0.04862 -0.033857,0.07142 -0.016992,0.03097 -0.050436,0.05842 -0.081112,0.07511 -0.057644,0.03135 -0.09321,-0.0172 -0.148384,-0.0039 -0.029836,0.0072 -0.033807,0.04684 -0.061518,0.05607 -0.015299,0.0051 -0.032087,-0.0045 -0.047618,-0.0045 -0.030184,-6e-6 -0.074301,0.0044 -0.1047537,0.01014 -0.025786,0.0049 -0.049537,0.03364 -0.0742,0.03321 -0.048056,-8.52e-4 -0.085907,-0.0532 -0.1353068,-0.05665 -0.038187,-0.0027 -0.092055,0.04421 -0.1261054,0.02925 -0.014942,-0.0066 -0.015885,-0.02523 -0.028486,-0.03398 -0.012682,-0.0088 -0.032054,-0.0096 -0.046187,-0.01669 -0.038893,-0.01938 -0.071279,-0.0499 -0.1178479,-0.04389 -0.041673,0.0054 -0.065092,0.04654 -0.092286,0.0727 -0.014872,0.01431 -0.035192,0.01835 -0.05175,0.02994 -0.023944,0.01675 -0.040948,0.04172 -0.069836,0.05114 -0.1053328,0.03435 -0.2073666,-0.02779 -0.3142611,-0.0037 -0.033973,0.0077 -0.087239,0.02614 -0.1120483,0.05112 -0.020434,0.02057 -0.028661,0.05528 -0.05818,0.06622 -0.027126,0.01005 -0.059304,-0.0023 -0.087292,0.0061 -0.030052,0.0091 -0.052182,0.03328 -0.08293,0.04172 -0.045014,0.01236 -0.0903,0.0097 -0.1353068,0.01792 -0.022744,0.0041 -0.039641,0.01819 -0.061106,0.02504 -0.036137,0.01152 -0.072928,0.01492 -0.1091184,0.02835 -0.03044,0.01129 -0.08578,0.03806 -0.106795,0.06289 -0.01975,0.02334 -0.02195,0.05563 -0.0504,0.07194 -0.08512,0.04878 -0.185014,0.02412 -0.274911,0.05722 -0.04163,0.01533 -0.04697,0.04824 -0.07863,0.07382 -0.03691,0.02983 -0.08959,0.04481 -0.13524,0.05483 -0.01396,0.0031 -0.02561,-0.0036 -0.03928,-0.0031 -0.0261,9.97e-4 -0.04645,0.01389 -0.0742,0.01038 -0.02632,-0.0033 -0.05156,-0.01514 -0.07856,-0.01186 -0.03331,0.004 -0.05743,0.04518 -0.09166,0.04089 -0.03288,-0.0041 -0.05841,-0.03699 -0.09166,-0.04527 -0.04425,-0.01102 -0.06716,0.0046 -0.109118,0.007 -0.02902,0.0016 -0.05769,-0.0092 -0.08729,-0.0073 -0.01989,0.0012 -0.03341,0.01681 -0.05238,0.01835 -0.03266,0.0026 -0.06455,-0.0155 -0.09602,0.0033 -0.02665,0.01594 -0.03994,0.05804 -0.06986,0.06675 -0.03409,0.0099 -0.06854,-0.02958 -0.104733,-0.01503 -0.04372,0.01757 -0.05882,0.06317 -0.109122,0.07731 -0.03381,0.0095 -0.07431,0.01576 -0.109119,0.0083 -0.03212,-0.0068 -0.06183,-0.02624 -0.09602,-0.01774 -0.04908,0.01221 -0.06411,0.07187 -0.100453,0.100615 -0.02909,0.02301 -0.05611,0.01594 -0.08723,0.02854 -0.027,0.01093 -0.04434,0.03814 -0.06984,0.05201 -0.01631,0.0089 -0.03683,0.0056 -0.05197,0.01606 -0.03753,0.02584 -0.04329,0.08196 -0.0834,0.106444 -0.0327,0.01996 -0.07486,-2.47e-4 -0.109055,0.01684 -0.02254,0.01126 -0.03958,0.03155 -0.06111,0.04463 -0.02045,0.01242 -0.04658,0.01694 -0.06506,0.03206 -0.02278,0.01864 -0.0334,0.04781 -0.06151,0.06081 -0.07319,0.03385 -0.124243,-0.0095 -0.196413,-7.26e-4 -0.04176,0.0051 -0.07853,0.04234 -0.119701,0.0432 -0.02519,5.22e-4 -0.04773,-0.01402 -0.07235,-0.01701 -0.02084,-0.0025 -0.04553,0.004 -0.06545,-0.0034 -0.01417,-0.0053 -0.02442,-0.02684 -0.03969,-0.02703 -0.01372,-1.75e-4 -0.02788,0.01645 -0.03889,0.02326 -0.02286,0.01414 -0.04885,0.0236 -0.0742,0.03225 -0.03818,0.01303 -0.07912,0.007 -0.117848,0.01749 -0.04047,0.01098 -0.09422,0.04198 -0.130942,0.06302 -0.06273,0.03595 -0.1208,0.07981 -0.187683,0.110536 -0.03841,0.01764 -0.07897,0.02211 -0.117848,0.03683 -0.02908,0.01101 -0.05409,0.04547 -0.0873,0.0437 -0.01671,-8.93e-4 -0.0312,-0.01161 -0.04801,-0.01326 -0.03182,-0.0031 -0.06992,0.0074 -0.100389,-0.003 -0.02123,-0.0072 -0.03555,-0.02656 -0.05674,-0.03371 -0.017,-0.0057 -0.03737,0.0024 -0.05294,-0.0072 -0.03293,-0.02026 -0.04412,-0.06274 -0.07925,-0.08493 -0.02234,-0.01411 -0.05099,-0.0089 -0.07287,-0.02328 -0.04734,-0.03099 -0.10049,-0.137129 -0.174653,-0.09954 -0.0304,0.01541 -0.03501,0.04645 -0.04104,0.07657 -0.0072,0.03588 -0.01617,0.07216 -0.01042,0.109118 0.0057,0.03641 0.01979,0.06591 0.0189,0.104754 -0.0012,0.0509 -0.01597,0.103496 0.002,0.152766 -0.05943,0.03034 -0.09238,0.07407 -0.16586,0.06753 -0.0862,-0.0077 -0.194011,-0.09458 -0.278346,-0.02109 -0.02344,0.02042 -0.01209,0.06134 -0.01534,0.08887 -0.0068,0.05721 -0.02126,0.105994 -0.03315,0.161495 -0.0074,0.0347 -0.01391,0.07799 -0.04855,0.09735 -0.01332,0.0074 -0.02543,-5.67e-4 -0.03927,0.0014 -0.02853,0.004 -0.05516,0.03289 -0.08638,0.01466 -0.0324,-0.01891 -0.03969,-0.05501 -0.08378,-0.06095 -0.03039,-0.0041 -0.03644,0.03728 -0.06554,0.04261 -0.04164,0.0076 -0.09292,-0.0062 -0.113436,0.04466 -0.0197,0.04888 0.05203,0.0465 0.07852,0.06415 0.01952,0.01301 0.03398,0.03256 0.05238,0.04705 0.02988,0.02355 0.06502,0.03912 0.09085,0.06779 0.05779,0.06414 0.09852,0.19357 0.103841,0.279279 0.0022,0.03539 -0.02666,0.06791 -0.0277,0.104754 -0.0011,0.03911 -0.0016,0.08801 0.0053,0.126577 0.0052,0.02948 0.01848,0.05676 0.01412,0.08729 -0.0096,0.06728 -0.0419,0.128611 -0.06259,0.192048 -0.01515,0.04644 -0.0178,0.09696 -0.03102,0.144037 -0.007,0.02508 -0.02278,0.04828 -0.02638,0.0742 -0.0063,0.04568 0.03609,0.06667 0.05082,0.104754 0.01148,0.02969 3.29e-4,0.06126 7.24e-4,0.09166 2.47e-4,0.01902 0.0084,0.03784 0.0062,0.05674 -0.0078,0.06776 -0.08827,0.0994 -0.08921,0.170225 -7.24e-4,0.05493 0.01231,0.111096 0.0083,0.16586 -0.004,0.05432 -0.02082,0.125667 -0.0085,0.178954 0.0093,0.03997 0.05918,0.05683 0.06699,0.09527 0.0044,0.02152 -0.0269,0.03054 -0.01974,0.0575 0.0096,0.03622 0.04056,0.05983 0.05806,0.09166 0.01803,0.0328 0.01967,0.07371 0.03099,0.109119 0.01145,0.03581 0.0353,0.07474 0.03364,0.113415 -8.79e-4,0.02051 -0.01923,0.02739 -0.02815,0.0439 -0.0151,0.02797 -0.0081,0.06814 -0.03735,0.08823 -0.02018,0.01385 -0.04886,-5.35e-4 -0.06749,0.01521 -0.03097,0.02618 -0.0035,0.08255 -0.02309,0.11454 -0.02281,0.03718 -0.07807,0.03446 -0.100618,0.07036 -0.01894,0.03016 -0.0019,0.0682 0.0027,0.09993 0.0059,0.04172 0.0017,0.09399 -0.0057,0.135307 -0.005,0.02793 -0.0139,0.05963 -0.03065,0.08291 -0.0099,0.01376 -0.02673,0.02376 -0.03326,0.03969 -0.01503,0.03667 0.0022,0.07349 -0.01741,0.113093 -0.01029,0.02074 -0.01829,0.04648 -0.03191,0.06508 -0.01129,0.01542 -0.02686,0.02403 -0.03097,0.04404 -0.01073,0.05216 0.0448,0.0821 0.0403,0.130937 -0.0039,0.04265 -0.03198,0.08252 -0.03668,0.126578 -0.0028,0.0265 0.0106,0.0449 0.01235,0.06984 0.0022,0.03193 -0.0059,0.06863 -0.01,0.100389 -0.004,0.03124 -0.02831,0.06562 -0.02656,0.09602 0.0022,0.03817 0.04939,0.06819 0.06508,0.100389 0.0105,0.02155 6.98e-4,0.07192 -0.003,0.09602 -0.0023,0.01512 -0.01431,0.02491 -0.01781,0.03928 -0.0043,0.01777 0.0069,0.03409 -5e-5,0.05238 -0.0076,0.02005 -0.02363,0.03518 -0.02804,0.05674 -0.01347,0.06582 -0.0071,0.141995 -0.03121,0.205143 -0.01439,0.03768 -0.05375,0.06108 -0.06691,0.100389 -0.01251,0.03734 0.01312,0.07519 -0.0014,0.113483 -0.01553,0.04093 -0.05924,0.06534 -0.07219,0.104771 -0.01229,0.03741 0.01804,0.07815 0.006,0.113276 -0.0095,0.02761 -0.04465,0.03887 -0.05503,0.07003 -0.03436,0.103129 -0.01813,0.210121 -0.0436,0.314261 -0.0082,0.03345 -0.03475,0.04939 -0.04934,0.07857 -0.01413,0.02826 -6.1e-4,0.06213 -0.0099,0.09166 -0.0074,0.02373 -0.03058,0.0374 -0.03766,0.06111 -0.02192,0.07337 -0.04233,0.150246 -0.04975,0.226966 -0.0028,0.02921 0.0053,0.05862 0.0023,0.0873 -0.0043,0.04077 -0.0285,0.0769 -0.03093,0.117848 -0.0018,0.03006 0.01362,0.05755 0.01461,0.0873 0.0021,0.06117 -0.0099,0.151263 -0.02883,0.209507 -0.0118,0.03626 -0.05402,0.05202 -0.06686,0.0873 -0.01313,0.0361 0.01498,0.07427 -0.0083,0.108946 -0.03263,0.04851 -0.08543,0.06866 -0.111197,0.12675 -0.01608,0.03625 0.01545,0.0702 0.0027,0.104753 -0.011,0.02974 -0.05521,0.0435 -0.06057,0.07418 -0.0032,0.01842 0.01576,0.02186 0.02192,0.03591 0.0098,0.0223 0.01626,0.06625 0.01547,0.09068 -0.0013,0.04045 -0.03823,0.06687 -0.04756,0.104754 -0.008,0.03242 0.0077,0.06395 0.0035,0.09601 -0.0028,0.02075 -0.02304,0.03007 -0.03136,0.04809 -0.01197,0.02594 -0.0045,0.05642 -0.01592,0.08287 -0.02526,0.05874 -0.108168,0.06775 -0.135004,0.126578 -0.01616,0.03541 -0.003,0.07918 -0.02254,0.113483 -0.02337,0.04111 -0.07142,0.06414 -0.09559,0.104754 -0.01883,0.03164 6.53e-4,0.06808 -0.03932,0.08729 0.02062,0.03282 0.0064,0.04391 0.0056,0.07857 -3.62e-4,0.01541 0.0095,0.02838 0.0096,0.04365 1.76e-4,0.022 -0.01106,0.04355 -0.01311,0.06547 -0.0024,0.02592 0.03004,0.04221 0.02548,0.06528 -0.0048,0.0241 -0.04539,0.03391 -0.05675,0.05695 -0.0088,0.01782 -0.0037,0.03853 -0.01194,0.05672 -0.03181,0.07048 -0.0757,0.141931 -0.09525,0.218237 -0.0087,0.03404 0.0078,0.06273 0.0072,0.09602 -7.25e-4,0.04163 -0.03787,0.07519 -0.03452,0.117848 0.0043,0.05473 0.03699,0.111391 0.0476,0.16586 0.005,0.02586 -0.01269,0.05263 -0.01447,0.07857 -0.0018,0.02638 0.01041,0.05265 0.0075,0.07857 -0.0048,0.04288 -0.06689,0.04517 -0.07933,0.0873 -0.0124,0.04201 0.0022,0.08799 -0.0041,0.130939 -0.0064,0.04314 -0.03624,0.07911 -0.04401,0.122212 -0.0077,0.0426 0.006,0.08782 0.006,0.130942 l -0.04801,-0.0087 0.0087,0.03928 c -0.03586,0.01065 -0.04987,0.04013 -0.07459,0.06528 -0.0264,0.02685 -0.06678,0.03647 -0.08686,0.07003 -0.03447,0.05761 0.01431,0.156202 0.01281,0.218233 -0.0016,0.06636 -0.05748,0.130434 -0.06817,0.196414 -0.0055,0.03404 0.01577,0.06304 0.01891,0.09602 0.0036,0.03737 -0.02301,0.119359 -0.04074,0.152749 -0.01015,0.01911 -0.02935,0.02749 -0.04139,0.04447 -0.01808,0.02549 -0.03247,0.0656 -0.04251,0.09522 -0.01644,0.04854 0.0087,0.08531 0.0029,0.130942 -0.0044,0.03512 -0.03595,0.05593 -0.0475,0.0873 -0.0088,0.0239 0.0029,0.04946 -0.0032,0.0742 -0.01001,0.04044 -0.06059,0.05451 -0.06554,0.09602 -0.0041,0.0341 0.01592,0.06652 0.01662,0.100389 0.0012,0.0563 -0.02213,0.113579 -0.02504,0.170225 -0.003,0.05856 0.01841,0.106573 0.0016,0.16586 -0.01047,0.0369 -0.03854,0.04955 -0.05436,0.07998 -0.0091,0.01756 -0.0047,0.0442 -0.01306,0.06405 -0.01458,0.03454 -0.04246,0.06508 -0.05422,0.100389 -0.0066,0.01979 -3.4e-4,0.0412 -0.0073,0.06111 -0.01077,0.03088 -0.03151,0.05413 -0.03685,0.0873 -0.0062,0.03878 -0.0017,0.08571 -0.01792,0.122196 -0.01077,0.02428 -0.03475,0.02795 -0.05357,0.04301 -0.01835,0.01469 -0.06117,0.08311 -0.06473,0.105407 -0.005,0.03121 0.02548,0.106913 0.04061,0.134917 0.01338,0.02477 0.03266,0.03473 0.03173,0.06586 -7.81e-4,0.02612 -0.0049,0.06109 -0.02012,0.08291 -0.02312,0.03319 -0.05698,0.04241 -0.06187,0.08731 -0.0039,0.03572 -0.0071,0.07768 -0.0049,0.113484 7.92e-4,0.01293 0.01018,0.02678 0.0088,0.03927 -0.0029,0.02528 -0.03774,0.03244 -0.03863,0.06112 -9.48e-4,0.03054 0.02401,0.05627 0.01994,0.08729 -0.0048,0.03625 -0.043,0.05846 -0.04604,0.09603 -0.005,0.06192 0.03002,0.123284 0.01078,0.187683 -0.0066,0.02208 -0.02562,0.03285 -0.03545,0.05255 -0.0129,0.02585 -0.0059,0.0587 -0.02676,0.08126 -0.01545,0.01668 -0.04098,0.01145 -0.05605,0.0265 -0.01129,0.01127 -0.01197,0.0349 -0.01929,0.0492 -0.01418,0.02767 -0.04088,0.04812 -0.04879,0.07857 0.0738,0.04614 -0.03934,0.127259 -0.04801,0.170225 0.03528,0.0106 0.04073,0.05054 0.06071,0.07857 0.02663,0.03734 0.05808,0.07147 0.06797,0.117848 0.0097,0.04539 -0.0091,0.102646 -0.01452,0.148401 -0.0039,0.03303 0.0125,0.04845 0.01541,0.07856 0.0027,0.02776 -0.01414,0.05452 -0.0109,0.08293 0.0044,0.0385 0.03622,0.06384 0.0593,0.09166 0.02296,0.02768 0.04712,0.06554 0.06658,0.09602 0.03406,0.05334 0.04135,0.152101 0.05081,0.213872 0.008,0.05242 -0.04076,0.108763 -0.03744,0.16586 0.0017,0.02984 0.02387,0.05468 0.02475,0.08293 7.24e-4,0.02323 -0.01717,0.04266 -0.0189,0.06547 -0.0017,0.02199 0.01656,0.03646 0.02033,0.05674 0.0037,0.02009 -0.0073,0.03991 -0.0025,0.06111 0.0046,0.01994 0.01736,0.03668 0.02252,0.05635 0.0073,0.02783 0.0055,0.05571 0.01641,0.08332 0.0099,0.02485 0.0279,0.04836 0.03447,0.0742 0.0127,0.04994 -0.04854,0.08873 -0.0074,0.14363 0.02476,0.03303 0.07273,0.03959 0.100591,0.07043 0.03329,0.03686 0.04461,0.08905 0.07722,0.125584 0.01634,0.01831 0.04043,0.0274 0.059,0.04305 0.01937,0.01633 0.03016,0.04016 0.04849,0.05775 0.02802,0.0269 0.06467,0.04775 0.09066,0.07507 0.02113,0.02221 0.02551,0.05636 0.0494,0.07626 0.03919,0.03264 0.103478,0.01304 0.147943,0.03831 0.04756,0.02704 0.103835,0.06658 0.143865,0.103944 0.02115,0.01974 0.03687,0.04537 0.06128,0.06165 0.04191,0.02795 0.09311,0.03019 0.135307,0.05136 0.03022,0.01516 0.07172,0.04197 0.09602,0.06527 0.02648,0.02538 0.04797,0.06021 0.08293,0.07442 0.07084,0.02879 0.140089,5.3e-4 0.209507,0.02057 0.06489,0.01873 0.110562,0.07391 0.178955,0.08622 0.05596,0.01007 0.09254,-0.01464 0.144036,-0.02621 0.02168,-0.0049 0.03989,0.0055 0.06111,0.0056 0.02089,1.47e-4 0.04028,-0.01099 0.06111,-0.01073 0.0206,2.58e-4 0.04033,0.01013 0.06111,0.01107 0.03375,0.0015 0.06239,-0.0073 0.09602,0.0037 0.02956,0.0097 0.06373,0.04256 0.09602,0.0382 0.03994,-0.0054 0.06099,-0.07374 0.100389,-0.06999 0.03579,0.0034 0.04842,0.05589 0.08293,0.06476 0.04964,0.01276 0.06955,-0.06406 0.11348,-0.06436 0.04592,-3.17e-4 0.07816,0.04965 0.126577,0.04509 0.01908,-0.0018 0.0336,-0.01624 0.05238,-0.0181 0.02238,-0.0022 0.04236,0.0096 0.06547,0.0027 0.02389,-0.0072 0.04395,-0.02966 0.06984,-0.03035 0.03617,-9.55e-4 0.06209,0.03647 0.100389,0.03253 0.04341,-0.0045 0.08111,-0.04341 0.122212,-0.05323 0.0218,-0.0052 0.04383,0.01232 0.06547,0.0136 0.03584,0.0021 0.06499,-0.06079 0.09958,-0.04609 0.01544,0.0066 0.02586,0.02989 0.03572,0.04272 h 0.0044 c 0.04499,-0.0434 0.0399,0.0069 0.08299,0.0117 0.03415,0.0038 0.0665,-0.02175 0.100325,-0.02223 0.0348,-4.92e-4 0.07018,0.02347 0.104754,0.01055 0.07121,-0.0266 0.119131,-0.07246 0.178954,-0.11509 0.02388,-0.01701 0.05387,-0.02088 0.07856,-0.03644 0.04013,-0.02529 0.06986,-0.05765 0.113483,-0.0787 0.03223,-0.01556 0.0677,-0.02122 0.100389,-0.03551 0.06913,-0.0302 0.126983,-0.06324 0.200778,-0.08442 0.05502,-0.0158 0.128779,-0.02275 0.178954,-0.04784 0.03935,-0.01968 0.06228,-0.06544 0.104754,-0.08213 0.03158,-0.01241 0.06815,0.0023 0.100389,-0.0069 0.0214,-0.0061 0.03735,-0.02496 0.05674,-0.03537 0.0236,-0.01267 0.05056,-0.01566 0.0742,-0.0276 0.03542,-0.01789 0.05539,-0.06333 0.09166,-0.0772 0.05434,-0.02078 0.118569,-0.01233 0.174589,-0.03609 0.0285,-0.01209 0.05027,-0.03592 0.07857,-0.04862 0.05038,-0.02261 0.10705,-0.03565 0.157131,-0.05756 0.02083,-0.0091 0.03496,-0.0308 0.05674,-0.03756 0.01584,-0.0049 0.03168,0.0048 0.04801,0.0015 0.02559,-0.0052 0.04698,-0.02935 0.0742,-0.02677 0.02255,0.0021 0.03677,0.02334 0.06111,0.01863 0.04219,-0.0082 0.06907,-0.05379 0.113484,-0.05823 0.04883,-0.0049 0.08892,0.02824 0.139496,0.0074 0.02566,-0.01057 0.0355,-0.04247 0.05698,-0.05903 0.0217,-0.01673 0.05067,-0.01471 0.07414,-0.02842 0.03242,-0.01894 0.05591,-0.04968 0.08736,-0.06843 0.02136,-0.01274 0.04772,-0.01057 0.0696,-0.02212 0.02576,-0.01359 0.04003,-0.03673 0.07001,-0.04416 0.03278,-0.0081 0.0679,-0.0034 0.100389,-0.01352 0.03561,-0.01109 0.05967,-0.04244 0.09602,-0.05246 0.02022,-0.0056 0.05344,-0.01594 0.0742,-0.01255 0.03517,0.0058 0.0478,0.02582 0.0873,0.01619 0.04372,-0.01066 0.08012,-0.06335 0.126514,-0.06034 0.02701,0.0018 0.02961,0.04337 0.05698,0.04062 0.04738,-0.0048 0.129145,-0.01688 0.168736,-0.04475 0.02376,-0.01672 0.0312,-0.05863 0.06242,-0.06512 0.01837,-0.0038 0.0395,0.01211 0.05674,0.01694 0.02015,0.0056 0.0541,0.0029 0.0742,-0.0033 0.03589,-0.01105 0.109219,-0.05811 0.131862,-0.08833 0.02055,-0.02743 0.02435,-0.06423 0.05584,-0.08338 0.02647,-0.0161 0.06013,-0.0085 0.08728,-0.02351 0.03131,-0.01737 0.0547,-0.04794 0.08655,-0.06394 0.01801,-0.009 0.03892,-0.0052 0.05748,-0.01576 0.02369,-0.01348 0.04289,-0.03313 0.06984,-0.04052 0.0369,-0.01012 0.07725,0.0037 0.113483,-0.0089 0.03678,-0.01279 0.0578,-0.05456 0.09602,-0.06327 0.033808,-0.0077 0.066814,0.01374 0.1003895,0.0089 0.049979,-0.0072 0.058124,-0.0745 0.1047537,-0.08727 0.070353,-0.01927 0.138216,-0.01404 0.2095074,-0.03045 0.030323,-0.007 0.052303,-0.03578 0.08293,-0.04024 0.037396,-0.0054 0.086534,0.01734 0.1222126,0.0062 0.018403,-0.0057 0.035,-0.02332 0.052377,-0.03231 0.034226,-0.01772 0.078906,-0.02744 0.1091184,-0.05086 0.026164,-0.02028 0.044514,-0.05648 0.074218,-0.07109 0.032871,-0.01618 0.070738,0.0093 0.1047366,-0.0014 0.058138,-0.0182 0.075542,-0.07369 0.1440364,-0.07726 0.032925,-0.0017 0.058904,0.0317 0.09166,0.02761 0.01925,-0.0024 0.031723,-0.01968 0.048012,-0.02834 0.023482,-0.01248 0.050021,-0.0082 0.0742,-2.01e-4 0.098179,0.03239 0.1178181,0.110521 0.1179758,0.204751 4.05e-5,0.02414 0.013203,0.04585 0.01205,0.06984 -0.00307,0.06382 -0.024956,0.128363 -0.032753,0.192048 -0.00433,0.03532 0.024426,0.06516 0.019756,0.09602 -0.00744,0.04921 -0.052431,0.09102 -0.040515,0.144037 0.00856,0.0381 0.056401,0.06731 0.0569,0.104753 6.479e-4,0.04851 -0.036613,0.06191 -0.060746,0.09604 -0.016174,0.02288 -0.013461,0.0494 -0.02345,0.07412 -0.00598,0.0148 -0.020356,0.02416 -0.025152,0.03952 -0.010836,0.03471 0.010185,0.07013 0.00499,0.104584 -0.00929,0.06156 -0.056459,0.122487 -0.073625,0.183318 -0.00694,0.02459 0.010804,0.0467 0.0056,0.06892 -0.00309,0.01318 -0.020242,0.02092 -0.027799,0.03165 -0.015446,0.02193 -0.032047,0.04803 -0.046102,0.07089 -0.018266,0.02972 0.00226,0.06372 -0.00999,0.09476 -0.018379,0.04659 -0.066854,0.08144 -0.08419,0.126599 -0.013435,0.035 -0.012765,0.0767 -0.016294,0.113479 -0.0053,0.05525 -0.018406,0.109847 -0.016529,0.16586 0.00105,0.03137 0.019271,0.06006 0.014522,0.09166 -0.0052,0.03461 -0.00831,0.07662 -0.021167,0.109118 -0.010016,0.02532 -0.030623,0.04698 -0.035703,0.0742 -0.00504,0.02702 0.016704,0.05343 0.00567,0.07856 -0.022028,0.05018 -0.076303,0.06007 -0.092586,0.117848 -0.020446,0.07255 -0.00594,0.155023 -0.029054,0.226949 -0.01226,0.03815 -0.054268,0.05598 -0.059284,0.100406 -0.0039,0.03451 0.020226,0.0626 0.020183,0.09602 -4.48e-5,0.03473 -0.027099,0.04771 -0.042223,0.07437 -0.019274,0.03398 -0.00866,0.07026 -0.048622,0.09149 0.00713,0.03287 -0.011588,0.05033 -0.02437,0.07857 -0.00722,0.01594 -0.00598,0.03345 -0.016806,0.04795 -0.017429,0.02335 -0.04618,0.03341 -0.065615,0.05447 -0.024568,0.02661 -0.043074,0.107447 -0.03288,0.142007 -0.038845,0.02132 -0.040187,0.09338 -0.060154,0.130942 -0.045552,0.08569 -0.1244376,0.132033 -0.1355018,0.235696 -0.00297,0.02781 -0.00125,0.07015 0.00956,0.09602 0.00929,0.02222 0.030348,0.04405 0.026855,0.06984 -0.00796,0.05877 -0.074188,0.113496 -0.075171,0.174589 -3.048e-4,0.01896 0.014766,0.03493 0.020541,0.05238 -0.1158009,0.03886 -0.1506325,0.155628 -0.2135184,0.248332 -0.019464,0.02869 -0.066359,0.02735 -0.083163,0.05766 -0.00857,0.01546 -0.00262,0.03538 -0.00882,0.05192 -0.013468,0.0359 -0.036136,0.06462 -0.038393,0.104753 -0.00147,0.02614 0.011432,0.05259 0.00547,0.07857 -0.00864,0.03763 -0.045904,0.06359 -0.056267,0.100389 -0.012745,0.04525 -0.00512,0.101192 -0.012424,0.148401 -0.011585,0.07485 -0.050445,0.145771 -0.055132,0.222601 -0.0022,0.03602 0.01849,0.06904 0.02141,0.104754 -0.07751,0.01822 -0.135807,0.127545 -0.165005,0.192044 -0.0069,0.01521 -0.02182,0.0249 -0.02817,0.04003 -0.009,0.02154 0.0012,0.04703 -0.0071,0.06908 -0.02031,0.05351 -0.07597,0.07529 -0.09949,0.122234 -0.01353,0.02701 -0.007,0.05895 -0.01521,0.08729 -0.01155,0.04006 -0.0389,0.0706 -0.04956,0.113484 -0.01203,0.04842 -0.0041,0.102226 -0.01527,0.148401 -0.0095,0.0392 -0.0578,0.05258 -0.07469,0.08736 -0.0097,0.01989 0.0067,0.03782 -4.42e-4,0.05594 -0.01184,0.03019 -0.0529,0.04369 -0.06802,0.07103 -0.0073,0.01325 -0.004,0.02947 -0.0109,0.04302 -0.01697,0.03342 -0.03882,0.05945 -0.05269,0.09619 -0.0067,0.01786 0.0014,0.03384 -0.0084,0.05238 -0.0223,0.04201 -0.06603,0.06389 -0.08388,0.109119 -0.04445,0.112667 0.01163,0.238477 -0.02081,0.35348 -0.0048,0.01713 -0.02081,0.02554 -0.03053,0.03952 -0.01782,0.02562 -0.03453,0.05321 -0.0522,0.07914 -0.0122,0.0179 -0.0056,0.0417 -0.0194,0.05944 -0.02044,0.02622 -0.05708,0.03064 -0.06828,0.0664 -0.01564,0.04992 0.0374,0.09256 0.02575,0.139671 -0.0081,0.03272 -0.0463,0.04629 -0.06616,0.07023 -0.01625,0.01959 -0.0069,0.03988 -0.01687,0.06071 -0.01037,0.0217 -0.03323,0.03316 -0.04681,0.05244 -0.01227,0.01743 -0.01184,0.03919 -0.02382,0.05668 -0.03603,0.05258 -0.09813,0.08114 -0.123186,0.139672 -0.0066,0.01531 -0.004,0.03269 -0.01115,0.04784 -0.0083,0.01771 -0.02448,0.02766 -0.02774,0.04819 -0.0044,0.02778 0.0039,0.07044 -0.02323,0.08896 -0.01507,0.0103 -0.03901,0.0028 -0.05627,0.0027 -0.0058,0.04625 -0.0033,0.0938 -0.0096,0.139672 -0.003,0.02174 -0.01773,0.03901 -0.02024,0.06111 -0.0036,0.03152 0.0079,0.07038 -0.0018,0.100389 -0.0073,0.02274 -0.02982,0.0368 -0.04196,0.05674 -0.0158,0.02595 -0.01114,0.05986 -0.02491,0.08729 -0.01069,0.0213 -0.03389,0.03436 -0.04233,0.05674 -0.01054,0.02793 0.01162,0.05957 -4.18e-4,0.08723 -0.0088,0.02016 -0.02836,0.0491 -0.04654,0.06132 -0.02113,0.0142 -0.05688,0.01963 -0.06401,0.04793 -0.0087,0.03451 0.02202,0.06085 0.03075,0.0916 0.0088,0.03096 0.0043,0.08514 0.0045,0.117848 1.35e-4,0.02301 -0.02478,0.0418 -0.03489,0.06111 -0.01602,0.03056 -0.02515,0.07045 -0.02755,0.104754 -0.003,0.04304 0.01416,0.08048 0.02012,0.122212 0.0042,0.02943 -0.0048,0.05797 -0.0027,0.08729 0.0015,0.02069 0.01226,0.04274 0.008,0.06362 -0.01319,0.0646 -0.09668,0.03514 -0.126197,0.07699 -0.02048,0.02904 -0.0054,0.0791 -0.0096,0.11255 -0.0049,0.03917 -0.03306,0.09045 -0.04944,0.126513 -0.01397,0.03075 -0.05624,0.04843 -0.078,0.07433 -0.06016,0.07157 -0.108398,0.151747 -0.182204,0.212043 -0.02198,0.01796 -0.05509,0.01316 -0.07489,0.03404 -0.03176,0.03349 -0.0092,0.07629 -0.03476,0.111766 -0.02315,0.03217 -0.03707,0.06715 -0.0577,0.10038 -0.01222,0.01969 -0.03449,0.02986 -0.04617,0.04882 -0.01181,0.01917 -0.0042,0.09452 0.0021,0.116978 0.0075,0.02676 0.03943,0.03481 0.05915,0.05039 0.02604,0.02058 0.04799,0.05206 0.06452,0.08062 0.02387,0.04121 0.0083,0.08041 0.02298,0.122213 0.01212,0.03449 0.04922,0.05054 0.05846,0.08295 0.01419,0.04973 -0.0045,0.07584 0.0418,0.117025 0.06691,0.0595 0.168339,0.04573 0.23125,0.109929 0.01756,0.01792 0.03898,0.0395 0.04276,0.06547 0.0042,0.02911 -0.01268,0.05973 0.0084,0.08586 0.02058,0.02553 0.0601,0.02597 0.08342,0.04991 0.03981,0.04086 0.06464,0.09665 0.104114,0.137774 0.02514,0.0262 0.0641,0.02445 0.0931,0.04379 0.02689,0.01793 0.03997,0.05001 0.06586,0.06796 0.0256,0.01775 0.05572,0.0046 0.08247,0.01514 0.03475,0.01363 0.03322,0.06178 0.06572,0.07663 0.06824,0.03117 0.147007,0.01778 0.21368,0.05457 0.03345,0.01845 0.04627,0.05401 0.06739,0.0838 0.0197,0.02779 0.04718,0.05276 0.07051,0.07758 0.02205,0.02345 0.05427,0.02121 0.07597,0.04901 0.01737,-0.0049 0.0433,-0.01833 0.06109,-0.01151 0.02813,0.01078 0.03565,0.0472 0.0655,0.05667 0.04159,0.0132 0.07404,-0.0061 0.106842,0.03358 0.02946,0.03562 0.03703,0.112626 0.08521,0.127918 0.02903,0.0092 0.06351,-8.99e-4 0.09158,0.01357 0.01902,0.0098 0.02318,0.03494 0.04105,0.04338 0.03436,0.01622 0.07101,0.0044 0.102592,0.03412 0.02395,0.0225 0.02678,0.05441 0.04154,0.082 0.02731,0.05104 0.06644,0.09783 0.116046,0.128483 0.052102,0.0322 0.1139937,-0.0021 0.1702249,0.03012 0.088439,0.0507 0.1453092,0.152225 0.2313481,0.205991 0.025077,0.01567 0.062586,0.03429 0.091642,0.03984 0.020759,0.004 0.041397,-9.99e-4 0.061106,0.0089 0.025771,0.01289 0.041796,0.03859 0.065471,0.05438 0.048279,0.0322 0.1132216,0.06371 0.16586,0.08939 0.030426,0.01484 0.057625,-3.8e-5 0.087295,0.0089 0.025405,0.0076 0.041808,0.03166 0.065471,0.04266 0.053693,0.02498 0.089897,-0.02821 0.1353069,-0.04498 0.030199,-0.01115 0.059528,0.01958 0.09166,0.01015 0.042434,-0.01246 0.071327,-0.04769 0.1091184,-0.0678 0.052105,-0.02773 0.1420543,-0.02133 0.1876837,0.01346 h 0.00436 c 0.02774,-0.02113 0.047925,-0.0074 0.078565,-0.01446 0.05047,-0.01162 0.1251314,-0.02776 0.1789542,-0.01903 0.032542,0.0053 0.059073,0.02862 0.09166,0.03269 0.042506,0.0053 0.07734,-0.01606 0.1178479,-0.02335 0.032979,-0.0059 0.067707,-0.0025 0.100389,-0.01032 0.07431,-0.01778 0.1264655,-0.07526 0.1876837,-0.116245 0.021715,-0.01454 0.047939,-0.01852 0.069836,-0.03305 0.019375,-0.01286 0.034936,-0.03515 0.056742,-0.04389 0.035586,-0.01427 0.082916,0.02414 0.1166022,0.0095 0.049431,-0.02144 0.08131,-0.07751 0.1278231,-0.10303 0.05176,-0.0284 0.1154066,-0.03349 0.1702247,-0.05448 0.041879,-0.01603 0.066539,-0.05092 0.1047537,-0.07098 0.030104,-0.0158 0.065962,-0.0148 0.096024,-0.03093 0.033406,-0.01793 0.055372,-0.05054 0.087295,-0.07036 0.049242,-0.03058 0.1059546,-0.052 0.1527626,-0.08624 0.029158,-0.02133 0.046238,-0.0534 0.074221,-0.07559 0.018565,-0.01473 0.042008,-0.02128 0.059173,-0.03806 0.073491,-0.07182 0.122755,-0.15999 0.2070586,-0.221484 0.028291,-0.02064 0.069893,-0.04554 0.1047537,-0.05149 0.030177,-0.0052 0.06281,0.0062 0.091659,-0.0074 0.06255,-0.02955 0.089111,-0.09881 0.1440533,-0.131831 0.038724,-0.02327 0.096299,-0.02463 0.1396546,-0.03781 0.050845,-0.01546 0.1157199,-0.05306 0.1614953,-0.0813 0.039817,-0.02456 0.092935,-0.04879 0.1242533,-0.08396 0.021253,-0.02387 0.023406,-0.0581 0.04643,-0.08116 0.025592,-0.02563 0.061975,-0.02957 0.091026,-0.04905 0.022476,-0.01507 0.031177,-0.04304 0.052946,-0.0584 0.028693,-0.02024 0.083061,0.005 0.1174537,-0.0049 0.040577,-0.01166 0.061456,-0.04991 0.096024,-0.07043 0.024247,-0.01439 0.054419,-0.01291 0.078391,-0.02754 0.021121,-0.01289 0.029777,-0.03781 0.045864,-0.05562 0.030789,-0.0341 0.072856,-0.07323 0.1114415,-0.09808 0.030993,-0.01996 0.057822,-0.01573 0.09166,-0.02348 0.041274,-0.0095 0.078088,-0.03297 0.1178479,-0.04569 0.013964,-0.0045 0.030139,0.0012 0.043236,-0.0046 0.019484,-0.0086 0.024603,-0.03511 0.035195,-0.05152 0.016571,-0.02566 0.047463,-0.05356 0.074335,-0.06828 0.026469,-0.0145 0.04765,0.0154 0.073267,0.0075 0.01617,-0.005 0.018446,-0.02714 0.026435,-0.03953 0.011569,-0.01795 0.033502,-0.03119 0.053064,-0.03903 0.03419,-0.0137 0.066201,0.01552 0.1003719,0.007 0.037843,-0.0094 0.03971,-0.06361 0.078585,-0.07415 0.02268,-0.0061 0.046844,0.0068 0.069833,-0.0019 0.038173,-0.0144 0.073344,-0.04856 0.1091185,-0.06864 0.022509,-0.01264 0.043432,-0.0033 0.065471,-0.01117 0.02032,-0.0073 0.036276,-0.02467 0.056742,-0.03277 0.063553,-0.02517 0.1448579,-0.03962 0.2007779,-0.07967 0.056091,-0.04017 0.094835,-0.09937 0.1571306,-0.133919 0.028582,-0.01585 0.063106,-0.0071 0.091659,-0.0226 0.029568,-0.01603 0.052907,-0.04243 0.081684,-0.05878 0.014162,-0.008 0.033651,-0.0035 0.049258,-0.0087 0.070372,-0.02351 0.099608,-0.03812 0.1745894,-0.017 0.014645,-0.03281 0.033159,-0.05651 0.069836,-0.06705 0.016052,-0.0046 0.033288,-2.96e-4 0.047948,-0.0098 0.022369,-0.01448 0.03452,-0.04094 0.056806,-0.05601 0.022529,-0.01523 0.050235,-0.0072 0.074201,-0.01799 0.05477,-0.0247 0.1022964,-0.06676 0.1571305,-0.09217 0.03739,-0.01733 0.081228,-0.01529 0.1178479,-0.03362 0.038331,-0.01918 0.083998,-0.06421 0.1086475,-0.09913 0.014331,-0.02031 0.018453,-0.04639 0.036318,-0.06445 0.02988,-0.03021 0.076184,-0.0054 0.1067677,-0.03301 0.056698,-0.05112 0.090206,-0.133039 0.1541873,-0.178704 0.032874,-0.02346 0.071306,-0.01424 0.1047537,-0.03097 0.044974,-0.02249 0.075724,-0.06722 0.1265774,-0.08247 0.031392,-0.0094 0.066828,0.01206 0.096021,-0.0061 0.035968,-0.02233 0.050143,-0.07248 0.08747,-0.092 0.038464,-0.02011 0.091643,0.0068 0.128309,-0.02695 0.028617,-0.02632 0.01189,-0.07815 0.046297,-0.106883 0.086668,-0.07236 0.1939953,-0.116292 0.2834554,-0.184534 0.03206,-0.02446 0.041268,-0.0706 0.074345,-0.09117 0.029086,-0.01809 0.067932,-0.03994 0.1003079,-0.05048 0.029988,-0.0098 0.059886,-0.0078 0.087295,-0.02572 0.023864,-0.01564 0.054096,-0.03874 0.071025,-0.06188 0.010787,-0.01474 0.00985,-0.03599 0.02598,-0.04703 0.032454,-0.02224 0.078886,0.0039 0.1124996,-0.01295 0.028438,-0.01429 0.0380008,-0.04981 0.0647977,-0.06573 0.0168356,-0.01 0.038915,-5.15e-4 0.0570282,-0.0084 0.0352983,-0.01534 0.0805601,-0.05152 0.11387319,-0.07368 0.0845114,-0.05623 0.13637672,-0.163758 0.22696633,-0.209202 0.0152968,-0.0077 0.0328613,-0.0049 0.0480121,-0.01392 0.024557,-0.01458 0.0415545,-0.04076 0.0698358,-0.04949 0.0368179,-0.01137 0.0982663,-0.0032 0.12996176,-0.0273 0.0258858,-0.0197 0.0186205,-0.06083 0.0450859,-0.08188 0.0192588,-0.01532 0.0446895,-0.01965 0.0649319,-0.0332 0.0208923,-0.01399 0.0279041,-0.03919 0.0481602,-0.05409 0.0540563,-0.03975 0.1224002,-0.0659 0.1788871,-0.10469 0.04452117,-0.03057 0.08125913,-0.07516 0.12657738,-0.103262 0.0256322,-0.01589 0.0578882,-0.01586 0.08293,-0.03336 0.0270196,-0.01888 0.0474239,-0.04616 0.0742005,-0.06574 0.0215765,-0.01578 0.0476605,-0.02184 0.0692561,-0.03651 0.0138359,-0.0094 0.0194175,-0.02628 0.0316038,-0.03752 0.0180727,-0.01667 0.041725,-0.02636 0.0606353,-0.04214 0.0356361,-0.02973 0.0599299,-0.06727 0.10038896,-0.09192 0.0633356,-0.03858 0.12750872,-0.07391 0.19204844,-0.109686 0.0195646,-0.01085 0.0358173,-0.0282 0.0567416,-0.0364 0.0562024,-0.022 0.12773889,-0.01844 0.17893717,-0.05109 0.0688746,-0.04393 0.12458247,-0.116138 0.18333597,-0.172317 0.021276,-0.02034 0.042612,-0.05057 0.069836,-0.06317 0.02605,-0.01205 0.049619,0.02063 0.078393,0.0052 0.025611,-0.01373 0.037586,-0.04526 0.061283,-0.06213 0.017143,-0.0122 0.038844,-0.01301 0.056737,-0.02565 0.069725,-0.04927 0.1282397,-0.108115 0.1922381,-0.162331 0.026078,-0.02209 0.093774,-0.03564 0.1062477,-0.06754 0.016444,-0.04205 -0.00779,-0.135823 -0.034547,-0.16975 -0.016626,-0.02108 -0.040082,-0.03533 -0.056473,-0.0568 -0.041593,-0.05449 -0.056138,-0.128453 -0.1006533,-0.183145 -0.023571,-0.02896 -0.0613,-0.03931 -0.089336,-0.06272 -0.030114,-0.02514 -0.044992,-0.06352 -0.074612,-0.08852 -0.027631,-0.02332 -0.067165,-0.02129 -0.095626,-0.04282 -0.028714,-0.02172 -0.041949,-0.05668 -0.069904,-0.07879 -0.031431,-0.02487 -0.072199,-0.03486 -0.1046897,-0.05813 -0.029549,-0.02116 -0.050028,-0.05415 -0.08293,-0.07076 -0.0314675,-0.01588 -0.0685507,-0.01518 -0.10038894,-0.03107 -0.0617947,-0.03084 -0.12334219,-0.07863 -0.1876837,-0.101838 -0.0645184,-0.02327 -0.14154494,-0.04375 -0.20950739,-0.05346 -0.0324457,-0.0046 -0.0637362,-3.82e-4 -0.0960242,-0.0089 -0.0381552,-0.01004 -0.0821819,-0.01631 -0.11784791,-0.03314 -0.0267276,-0.01262 -0.0482231,-0.03739 -0.0785653,-0.0414 -0.0382746,-0.0051 -0.0769605,0.02734 -0.11348317,0.0156 -0.03059791,-0.0098 -0.04348753,-0.04402 -0.06985284,-0.06003 -0.0292041,-0.01773 -0.07573821,-0.01794 -0.10910139,-0.02112 -0.11270953,-0.01074 -0.22839851,0.01099 -0.3404495,-0.0063 -0.0678516,-0.01048 -0.13423273,-0.02366 -0.20077792,-0.04033 -0.0283964,-0.0071 -0.0530024,-0.02243 -0.08293,-0.02378 -0.10267895,-0.0046 -0.20530356,0.03925 -0.30553161,0.0514 -0.0365153,0.0044 -0.0869591,0.0065 -0.12221273,-0.0045 -0.028315,-0.0088 -0.05293,-0.03055 -0.08293,-0.0335 -0.1023315,-0.01005 -0.1959901,0.02127 -0.2968021,-0.0048 v -0.0044 c 0.026197,-0.01305 0.047082,-0.03443 0.074201,-0.04599 0.077673,-0.0331 0.1456667,-0.03637 0.2269664,-0.04693 0.036937,-0.0048 0.072146,-0.02038 0.1091184,-0.02417 0.038698,-0.004 0.075131,0.02057 0.11348322,0.01461 0.11344267,-0.01763 0.20470042,-0.100875 0.31862582,-0.118033 0.0412327,-0.0062 0.0772077,0.02933 0.11784791,0.03242 0.0394361,0.003 0.0786367,-0.01115 0.1178479,-0.01212 0.0658856,-0.0016 0.13427215,0.01172 0.20077792,0.01251 0.0447929,5.33e-4 0.10561897,0.01026 0.14840107,-0.0037 0.03219952,-0.01051 0.05684601,-0.04363 0.09165948,-0.04649 0.07759343,-0.0064 0.14548982,0.05017 0.21823686,0.05811 0.0437454,0.0048 0.0789766,-0.03346 0.12221265,-0.02836 0.0398687,0.0047 0.0949735,0.0215 0.13094212,0.0391 0.0244557,0.01197 0.0465948,0.03295 0.0742005,0.03716 0.041919,0.0064 0.0736059,-0.02379 0.11348317,-0.02365 0.0331341,1.19e-4 0.065503,0.02818 0.0960242,0.03898 0.0409215,0.01448 0.0862441,0.0096 0.12657738,0.0254 0.0386561,0.01514 0.0532869,0.06184 0.0916765,0.07498 0.043995,0.01506 0.08394,-0.02698 0.1265604,-0.0152 0.063853,0.01765 0.1220997,0.08107 0.1789542,0.113833 0.040167,0.02314 0.087367,3.04e-4 0.1265774,0.01991 0.031048,0.01552 0.045727,0.04866 0.07023,0.07129 0.025492,0.02354 0.061447,0.03924 0.091265,0.05677 0.044764,0.02631 0.1036156,0.0013 0.1436292,0.03015 0.032226,0.0232 0.037951,0.06814 0.066686,0.09442 0.051505,0.04709 0.1096938,0.08698 0.1606875,0.134239 0.05165,0.04786 0.09596,0.101949 0.1447801,0.152133 0.025445,0.02615 0.063206,0.02392 0.090741,0.04571 0.027222,0.02154 0.039969,0.05805 0.060233,0.08547 0.027546,0.03726 0.065494,0.0663 0.091124,0.104754 0.028343,0.04252 0.018433,0.09745 0.045813,0.139608 0.027604,0.0425 0.082885,0.05406 0.1011157,0.104817 0.024045,0.06695 0.00792,0.129425 0.017459,0.196414 0.00458,0.03219 0.00746,0.07448 0.018763,0.104753 0.00523,0.014 0.019087,0.0237 0.020159,0.03928 0.00337,0.04896 -0.022629,0.105875 -0.022772,0.157131 0.012536,0.0023 0.045235,4.64e-4 0.050552,0.01448 0.011183,0.02949 -0.031732,0.09181 -0.039163,0.120825 -0.00986,0.03847 0.00941,0.07545 0.00525,0.113484 -0.00612,0.05594 -0.045022,0.122675 -0.067174,0.174589 -0.017787,0.04169 -0.0072,0.105054 -0.034268,0.13948 -0.026457,0.03365 -0.079976,0.02496 -0.1035133,0.06149 -0.015641,0.02427 -0.010852,0.0565 -0.02177,0.08274 -0.016138,0.03878 -0.065541,0.07888 -0.099807,0.101985 -0.057225,0.03859 -0.1429068,0.03312 -0.1962384,0.07846 -0.043713,0.03716 -0.063035,0.103362 -0.1013693,0.146915 -0.030155,0.03426 -0.067709,0.04884 -0.1039481,0.07439 -0.033377,0.02353 -0.061509,0.05381 -0.096024,0.07599 -0.065009,0.04177 -0.1565509,0.01842 -0.2174164,0.06011 -0.040472,0.02772 -0.027529,0.09124 -0.07072,0.120774 -0.049805,0.03406 -0.1184575,0.07521 -0.1745256,0.09724 -0.033848,0.0133 -0.074228,0.01106 -0.1047366,0.03263 -0.035118,0.02482 -0.053387,0.06763 -0.087312,0.09465 -0.050653,0.04035 -0.12593159,0.06858 -0.16791448,0.117149 -0.0185246,0.02143 -0.026474,0.05004 -0.0420511,0.07344 -0.0220837,0.03317 -0.054621,0.06748 -0.0826444,0.09596 -0.0543525,0.05524 -0.13410484,0.07689 -0.18653071,0.139744 -0.0298626,0.0358 -0.0304999,0.08533 -0.0620909,0.122208 -0.0646804,0.07551 -0.15600525,0.113818 -0.20742945,0.200778 -0.0194516,0.03289 -0.0172671,0.06872 -0.025159,0.104754 -0.008261,0.03771 -0.025272,0.08245 -0.0409919,0.117848 -0.0169304,0.03813 -0.0531825,0.06058 -0.0732671,0.09602 -0.0225355,0.03977 -0.005803,0.08608 -0.021877,0.126577 -0.0303422,0.07646 -0.09283165,0.14 -0.11410762,0.222602 -0.01415875,0.05497 -0.03321718,0.122272 -0.0345801,0.178954 -9.1749e-4,0.03815 0.01450082,0.07535 0.01523609,0.113483 7.8429e-4,0.04067 -0.0075083,0.08115 -0.0033854,0.122213 0.0039438,0.03928 0.02651663,0.074 0.02941509,0.113483 0.0026491,0.03608 0.01066888,0.07824 2.0246e-4,0.113483 -0.01045789,0.03521 -0.04204576,0.06598 -0.03821915,0.104754 0.0034931,0.03539 0.02959411,0.06831 0.04332982,0.100389 0.02725616,0.06365 0.05145403,0.131735 0.07596944,0.196413 0.0134864,0.03558 0.008199,0.0767 0.0183882,0.113483 0.0139744,0.05045 0.0408363,0.09206 0.0602389,0.139672 0.0262907,0.06452 0.0416249,0.134712 0.0755922,0.196413 0.0170071,0.03089 0.0392592,0.07091 0.0664663,0.09371 0.0312479,0.02619 0.0664919,0.03604 0.0901911,0.07215 0.0188357,0.0287 0.0418529,0.06021 0.055482,0.09166 0.0274352,0.06331 0.0369575,0.12857 0.0866852,0.18286 0.0293405,0.03203 0.0779813,0.03134 0.10597915,0.066 0.0212248,0.02627 0.02839,0.06144 0.0511514,0.08682 0.0250738,0.02796 0.0608804,0.04298 0.0830281,0.07461 0.0228126,0.03257 0.0297156,0.07113 0.0597487,0.09965 0.0643628,0.06113 0.14921306,0.09189 0.21330736,0.154249 0.038511,0.03747 0.048637,0.0922 0.084249,0.12973 0.028533,0.03007 0.074143,0.02473 0.1081892,0.04449 0.043603,0.02531 0.06763,0.07182 0.1134832,0.09613 0.053278,0.02825 0.1325831,0.05507 0.1920484,0.06406 0.033714,0.0051 0.068421,-0.0094 0.1003889,0.0049 0.03541,0.01582 0.0865,0.04609 0.1125668,0.0748 0.020803,0.02291 0.028776,0.06057 0.057833,0.07502 0.039131,0.01946 0.08482,-0.0093 0.1264026,0.0053 0.034193,0.01201 0.07809,0.02361 0.1091184,0.04169 0.025928,0.01511 0.04548,0.03935 0.074201,0.04997 0.031099,0.01151 0.067741,0.0068 0.1003889,0.01176 0.040922,0.0062 0.080905,0.01952 0.1222127,0.02356 0.040504,0.004 0.073857,-0.03192 0.1134831,-0.0269 0.046365,0.0059 0.081511,0.04027 0.1309421,0.04185 0.1017764,0.0033 0.2022037,-0.0293 0.3011669,-0.0422 0.039509,-0.0051 0.07838,0.0063 0.1178479,0.0024 0.030391,-0.003 0.060947,-0.01774 0.09166,-0.01608 0.038999,0.0021 0.065757,0.04022 0.1047537,0.04254 0.0408,0.0024 0.069987,-0.03283 0.1091184,-0.03601 0.073442,-0.006 0.1502361,0.04923 0.2226016,0.04923 0.032005,0 0.058191,-0.01969 0.087295,-0.02976 0.0396,-0.0137 0.093433,-0.02427 0.1353068,-0.02618 0.032186,-0.0015 0.063512,0.01011 0.096024,0.0079 0.039587,-0.0027 0.077973,-0.01749 0.1178479,-0.01699 0.072037,9.12e-4 0.1277389,0.01281 0.2007779,-0.0055 0.044101,-0.01105 0.059608,-0.05596 0.096024,-0.07865 0.024865,-0.01549 0.05987,-0.01122 0.087295,-0.02109 0.041429,-0.01491 0.074861,-0.04691 0.1178479,-0.05897 0.03907,-0.01096 0.074286,0.02042 0.1134832,0.01477 0.044472,-0.0064 0.062796,-0.05754 0.1047537,-0.06716 0.030116,-0.0069 0.061317,0.007 0.091659,0.007 0.06006,0 0.1185064,-0.01738 0.1702247,-0.04678 0.074612,-0.04241 0.1427299,-0.09428 0.2182369,-0.135185 0.038138,-0.02066 0.086481,-0.02543 0.1218056,-0.04994 0.033456,-0.02321 0.040146,-0.06927 0.074625,-0.09237 0.032736,-0.02193 0.077875,-0.008 0.1086944,-0.03484 0.027727,-0.0241 0.034822,-0.06306 0.058583,-0.09026 0.026902,-0.03079 0.070106,-0.03723 0.098149,-0.06611 0.047047,-0.04846 0.079982,-0.121288 0.132142,-0.163578 0.029816,-0.02417 0.072998,-0.01101 0.1035389,-0.03241 0.033735,-0.02364 0.018797,-0.07247 0.036348,-0.10473 0.027388,-0.05035 0.088923,-0.06467 0.1176689,-0.117848 0.00734,-0.01357 0.020969,-0.03959 0.014219,-0.05535 -0.00848,-0.01981 -0.047869,-0.0028 -0.062662,-3.18e-4 -0.055866,0.0093 -0.1215392,-0.01289 -0.1745895,-0.03018 -0.091902,-0.02995 -0.1951536,-0.03368 -0.2837079,-0.06955 -0.1195764,-0.04843 -0.2240573,-0.129941 -0.349179,-0.166676 -0.040097,-0.01177 -0.078798,0.01798 -0.1178479,0.0063 -0.033776,-0.01013 -0.052059,-0.04911 -0.08293,-0.06535 -0.064715,-0.03405 -0.1337042,-0.07331 -0.200778,-0.102569 -0.029575,-0.0129 -0.065733,-0.01111 -0.091201,-0.03303 -0.032806,-0.02823 -0.024673,-0.08069 -0.058129,-0.108272 -0.028569,-0.02356 -0.070298,-0.02043 -0.09927,-0.04448 -0.029711,-0.02466 -0.032009,-0.06639 -0.05786,-0.09386 -0.025579,-0.02718 -0.066368,-0.02765 -0.095078,-0.05019 -0.030879,-0.02424 -0.041211,-0.06333 -0.070028,-0.08901 -0.037181,-0.03313 -0.086613,-0.03556 -0.1207294,-0.07513 -0.022382,-0.02596 -0.055674,-0.05911 -0.067308,-0.09166 -0.00869,-0.02431 -0.0028,-0.05314 -0.00793,-0.07856 -0.00752,-0.03727 -0.0294,-0.09674 -0.046904,-0.130942 -0.015624,-0.03052 -0.047081,-0.04926 -0.064757,-0.07857 -0.019413,-0.03219 -0.017186,-0.07185 -0.034905,-0.104754 -0.069346,-0.128779 -0.1613845,-0.247373 -0.1546967,-0.401556 0.00176,-0.04056 0.00346,-0.09792 0.019614,-0.135307 0.013593,-0.03147 0.042946,-0.05299 0.050828,-0.0873 0.0087,-0.03788 0.023804,-0.08379 0.025219,-0.122212 0.00181,-0.04921 -0.019484,-0.08516 0.010488,-0.130942 0.034475,-0.05267 0.070859,-0.113219 0.1162985,-0.156956 0.028458,-0.02739 0.06672,-0.0411 0.093431,-0.07041 0.070972,-0.07787 0.1251943,-0.16846 0.2120841,-0.230193 0.035849,-0.02547 0.082295,-0.01694 0.1174408,-0.04066 0.034794,-0.02348 0.039195,-0.07224 0.074672,-0.09553 0.039502,-0.02593 0.089763,-0.01922 0.1308781,-0.04643 0.084953,-0.05622 0.12126,-0.145258 0.2095074,-0.198172 0.033177,-0.01989 0.073602,-0.0243 0.1091185,-0.03903 0.078444,-0.03252 0.1548991,-0.06885 0.231331,-0.105832 0.035263,-0.01706 0.07302,-0.03316 0.1047537,-0.05631 0.024134,-0.0176 0.043249,-0.04203 0.069836,-0.05611 0.035858,-0.01899 0.077969,-0.04154 0.1178479,-0.05005 0.038172,-0.0081 0.075405,-6.14e-4 0.1134832,-0.01404 0.066688,-0.02352 0.1290112,-0.07101 0.1964132,-0.08892 0.027599,-0.0073 0.055162,0.0036 0.08293,0.0045 0.044447,0.0014 0.1014247,-0.0079 0.1440363,-0.02064 0.1050009,-0.0315 0.2123909,-0.0774 0.3142611,-0.11851 0.031457,-0.0127 0.058866,-0.0356 0.091659,-0.04491 0.074258,-0.02108 0.1601377,0.02913 0.2313311,0.0068 0.033778,-0.01059 0.04811,-0.04702 0.071144,-0.07054 0.025398,-0.02594 0.064964,-0.04084 0.09908,-0.05129 0.053654,-0.01643 0.083663,0.01792 0.1353069,0.01973 0.047705,0.0017 0.07773,-0.04073 0.1222126,-0.04904 0.036158,-0.0068 0.073587,0.01896 0.1091014,0.0049 0.041674,-0.01644 0.050465,-0.07137 0.091677,-0.09138 0.066096,-0.03209 0.1437209,-0.0421 0.2095074,-0.07546 0.092416,-0.04686 0.172388,-0.120507 0.266249,-0.165169 0.039487,-0.01879 0.091054,0.0022 0.1265774,-0.01976 0.05103,-0.03159 0.085074,-0.102081 0.12675,-0.145144 0.037531,-0.03878 0.08757,-0.02835 0.1254755,-0.05959 0.025155,-0.02073 0.027162,-0.05749 0.042032,-0.08446 0.014339,-0.02601 0.043266,-0.04838 0.063824,-0.06984 0.016694,-0.01742 0.033543,-0.03466 0.056569,-0.04324 0.025632,-0.0095 0.060588,-0.0098 0.079202,-0.03245 0.024741,-0.03011 0.010034,-0.0774 0.036109,-0.1067 0.024174,-0.02716 0.063717,-0.02126 0.094196,-0.035 0.035785,-0.01613 0.086417,-0.06202 0.1108106,-0.09291 0.017421,-0.02206 0.024569,-0.05055 0.040201,-0.07381 0.038266,-0.05694 0.083252,-0.110596 0.1240306,-0.16586 0.027482,-0.03725 0.066078,-0.06429 0.089567,-0.104754 0.054052,-0.09313 0.094183,-0.196202 0.1501103,-0.288073 0.031977,-0.05253 0.082561,-0.08886 0.1124559,-0.144036 0.02388,-0.04407 0.022067,-0.09768 0.0471,-0.139672 0.022482,-0.03771 0.05841,-0.05767 0.074603,-0.100389 0.013003,-0.0343 0.02495,-0.07204 0.023505,-0.109118 -0.00112,-0.0288 -0.013177,-0.05876 -0.00511,-0.08729 0.019614,-0.0694 0.091135,-0.114184 0.1142312,-0.183319 0.034227,-0.102454 0.014138,-0.223482 0.042884,-0.327355 0.00773,-0.02793 0.02573,-0.05145 0.035461,-0.07856 0.011943,-0.03328 0.016244,-0.06797 0.03147,-0.100389 0.01582,-0.03369 0.03917,-0.06383 0.048534,-0.100389 0.01111,-0.04338 -0.019458,-0.08038 -0.012687,-0.122213 0.00527,-0.0326 0.028262,-0.05952 0.035525,-0.09166 0.00967,-0.04279 -0.00412,-0.08813 6.905e-4,-0.130943 0.00782,-0.06956 0.035683,-0.139428 0.036516,-0.209507 7.906e-4,-0.06655 -0.00248,-0.136641 -0.021427,-0.200778 -0.010145,-0.03434 -0.040578,-0.06405 -0.043029,-0.100389 -0.00248,-0.03681 0.032993,-0.06472 0.037477,-0.100389 0.00549,-0.04366 -0.021229,-0.07643 -0.026885,-0.117848 -0.00396,-0.02899 0.00762,-0.05837 0.00312,-0.0873 -0.013075,-0.08394 -0.061511,-0.156124 -0.085762,-0.235695 -0.018876,-0.06194 -0.040229,-0.124969 -0.055981,-0.187684 -0.00882,-0.0351 -0.00781,-0.07633 -0.023848,-0.109119 -0.013648,-0.0279 -0.042098,-0.04312 -0.062059,-0.06564 -0.019417,-0.02191 -0.029549,-0.05183 -0.040864,-0.0784 -0.034464,-0.08092 -0.012653,-0.168328 -0.041022,-0.24879 -0.02703,-0.07666 -0.1028761,-0.125753 -0.1275876,-0.205143 -0.020355,-0.06539 -0.00495,-0.131954 -0.039815,-0.196413 -0.041433,-0.0766 -0.122023,-0.09217 -0.1740908,-0.152783 -0.027105,-0.03155 -0.037226,-0.07481 -0.060282,-0.109101 -0.019614,-0.02917 -0.052933,-0.05077 -0.067357,-0.08293 -0.013297,-0.02964 -0.00308,-0.06786 -0.021732,-0.09522 -0.025965,-0.03807 -0.084558,-0.03674 -0.1148876,-0.07501 -0.039845,-0.05028 -0.091623,-0.118234 -0.1132274,-0.17895 -0.013239,-0.03721 0.010905,-0.08418 -0.018098,-0.116919 -0.018567,-0.02095 -0.050015,-0.02698 -0.072372,-0.04299 -0.029848,-0.02138 -0.047837,-0.0549 -0.078565,-0.07533 -0.054073,-0.03595 -0.1054165,-0.04171 -0.1523757,-0.09212 -0.039715,-0.04264 -0.059461,-0.09106 -0.09436,-0.135243 -0.025112,-0.03179 -0.063267,-0.05236 -0.085008,-0.08736 -0.019575,-0.03151 -0.017985,-0.07163 -0.044553,-0.09963 -0.026926,-0.02838 -0.063208,-0.04657 -0.090556,-0.07498 -0.023554,-0.02446 -0.037352,-0.05978 -0.06571,-0.07919 -0.030035,-0.02056 -0.072783,-0.01709 -0.098607,-0.04445 -0.029522,-0.03127 -0.01017,-0.08641 -0.041994,-0.114517 -0.030807,-0.02721 -0.085515,-9.54e-4 -0.1210469,-0.02656 -0.024918,-0.01796 -0.037797,-0.04868 -0.05772,-0.07135 -0.048119,-0.05476 -0.1098878,-0.125789 -0.1694192,-0.167393 -0.05606,-0.03918 -0.1354177,-0.04431 -0.1920484,-0.08061 -0.033496,-0.02146 -0.046706,-0.06799 -0.082947,-0.08374 -0.031163,-0.01355 -0.064209,-0.0033 -0.096007,-0.01042 -0.023239,-0.0052 -0.045527,-0.0226 -0.065471,-0.03506 C 6.922799,30.631425 6.912798,30.591655 6.878754,30.54772 6.859449,30.52281 6.825354,30.50035 6.799268,30.48282 6.765053,30.45983 6.687136,30.4366 6.6465022,30.4304 c -0.03249,-0.005 -0.065844,2.5e-5 -0.096024,-0.01629 -0.087563,-0.04733 -0.1468048,-0.123692 -0.2313311,-0.174053 -0.069608,-0.04147 -0.1538122,-0.05033 -0.2225846,-0.09735 -0.033511,-0.02291 -0.039338,-0.07376 -0.074392,-0.09219 -0.034029,-0.01789 -0.0737,0.008 -0.1089437,0.0026 -0.041275,-0.0063 -0.061251,-0.05384 -0.1003889,-0.06605 -0.044244,-0.0138 -0.088488,0.01798 -0.1309421,-0.0043 -0.035178,-0.01844 -0.063259,-0.049 -0.096024,-0.07127 -0.060134,-0.04087 -0.1238409,-0.07559 -0.1833189,-0.117245 -0.023914,-0.01675 -0.043513,-0.03963 -0.069836,-0.05283 -0.034151,-0.01713 -0.088505,-0.03315 -0.1265774,-0.03616 -0.029355,-0.0023 -0.059045,0.01018 -0.087295,-0.002 -0.036923,-0.01593 -0.054453,-0.05586 -0.087295,-0.0776 -0.031186,-0.02064 -0.071914,-0.01173 -0.1047537,-0.02854 -0.024211,-0.01239 -0.040052,-0.03555 -0.061106,-0.05205 -0.030519,-0.02392 -0.077319,-0.04782 -0.1134832,-0.06188 -0.030747,-0.01196 -0.064476,-0.0021 -0.096024,-0.0011 -0.037239,0.0012 -0.082361,-0.0081 -0.1178479,-0.01921 -0.05194,-0.01627 -0.05565,-0.08235 -0.1047537,-0.102187 -0.058114,-0.02348 -0.1306523,-0.02657 -0.1920485,-0.03907 -0.039606,-0.0081 -0.075247,-0.02704 -0.1134831,-0.03928 -0.035702,-0.01142 -0.074292,-0.01545 -0.1091185,-0.02906 -0.05873,-0.02296 -0.1277729,-0.04839 -0.1833189,-0.07795 -0.031951,-0.017 -0.057792,-0.04426 -0.09166,-0.05767 -0.069233,-0.0274 -0.1473141,-0.02383 -0.2182369,-0.04579 -0.040913,-0.01266 -0.077691,-0.03431 -0.1178479,-0.04773 -0.030005,-0.01002 -0.062662,-0.01112 -0.09166,-0.02426 -0.03044,-0.01379 -0.054393,-0.04058 -0.087295,-0.04902 -0.029584,-0.0076 -0.057682,0.0026 -0.087295,0.0025 -0.057415,-2.77e-4 -0.1162112,-0.0079 -0.1745895,-0.0079 0.028053,-0.02451 0.059001,-0.04899 0.068024,-0.0873 0.00727,-0.03087 -0.00599,-0.06166 0.011127,-0.09042 0.021813,-0.03664 0.059821,-0.03843 0.083469,-0.06842 0.020662,-0.02621 0.011826,-0.08003 0.029485,-0.111389 0.016962,-0.03012 0.051616,-0.05167 0.069674,-0.0812 0.011703,-0.01913 0.00739,-0.04665 0.019147,-0.06759 0.012365,-0.02203 0.034485,-0.03977 0.039566,-0.06547 0.00511,-0.02584 -0.00375,-0.05653 -0.00374,-0.08293 1.07e-5,-0.02806 0.011338,-0.05512 0.010347,-0.08293 -5.925e-4,-0.01661 -0.011681,-0.03151 -0.00995,-0.04801 0.00338,-0.03217 0.028921,-0.05871 0.031621,-0.09166 0.00242,-0.02956 -0.014347,-0.06845 -0.00491,-0.09601 0.010443,-0.03049 0.049956,-0.03704 0.063924,-0.06555 0.010999,-0.02245 0.0022,-0.0464 0.00825,-0.06938 0.00577,-0.02189 0.035059,-0.07907 0.051925,-0.09471 0.024111,-0.02236 0.062664,-0.03028 0.090726,-0.04738 0.051394,-0.03131 0.091112,-0.08302 0.114016,-0.137819 0.010119,-0.02421 0.026821,-0.05881 0.033015,-0.08315 0.00574,-0.02256 -0.00322,-0.04679 0.00314,-0.06945 0.0085,-0.03028 0.034749,-0.05103 0.04181,-0.08293 0.00902,-0.04074 -0.00402,-0.09327 0.018137,-0.130531 0.023096,-0.03883 0.077638,-0.02708 0.1115522,-0.0469 0.011509,-0.0067 0.01439,-0.02166 0.021625,-0.03208 0.018473,-0.02658 0.045265,-0.05278 0.057613,-0.0831 0.00852,-0.02091 0.00178,-0.04403 0.00852,-0.06528 0.00535,-0.01684 0.024128,-0.02682 0.026227,-0.04412 0.0035,-0.02884 -0.014799,-0.0579 -0.00844,-0.08684 0.010916,-0.04967 0.052,-0.09062 0.060196,-0.144037 0.00387,-0.02523 -0.018789,-0.05074 -0.01081,-0.0742 0.013885,-0.04081 0.041067,-0.07463 0.058721,-0.113483 0.00761,-0.01675 0.00614,-0.04065 0.01787,-0.05492 0.010196,-0.01241 0.027757,-0.01622 0.038756,-0.02849 0.040813,-0.04552 0.085703,-0.102359 0.1204863,-0.15231 0.02355,-0.03382 0.019324,-0.07362 0.036429,-0.109102 0.014435,-0.02995 0.050574,-0.05655 0.07607,-0.07708 0.03749,-0.03019 0.086398,-0.0016 0.1213921,-0.02655 0.030374,-0.02166 0.029494,-0.0695 0.040342,-0.101497 0.012129,-0.03577 0.064972,-0.09551 0.1001502,-0.109136 4.902e-4,-0.05889 0.029709,-0.103471 0.048603,-0.15713 0.012186,-0.03461 0.01475,-0.07137 0.039621,-0.100372 0.025383,-0.0296 0.063229,-0.04213 0.089422,-0.07026 0.024209,-0.026 0.037688,-0.06416 0.066844,-0.08533 0.017274,-0.01254 0.041557,-0.0063 0.061042,-0.01497 0.032363,-0.01436 0.063562,-0.04221 0.09166,-0.06365 0.0343,-0.02617 0.073721,-0.05344 0.1024307,-0.08575 0.017284,-0.01945 0.022723,-0.04502 0.041795,-0.06377 0.022751,-0.02236 0.064305,-0.03143 0.082796,-0.05555 0.011766,-0.01535 0.015937,-0.04078 0.025176,-0.05832 0.021009,-0.03989 0.057453,-0.08801 0.068902,-0.130943 0.00652,-0.02443 -0.0086,-0.05031 1.598e-4,-0.0742 0.013356,-0.03643 0.059881,-0.05688 0.073297,-0.09183 0.014528,-0.03786 -0.010837,-0.08418 0.00213,-0.126405 0.010436,-0.03397 0.018301,-0.08426 0.038488,-0.113311 0.016155,-0.02325 0.044366,-0.03268 0.053705,-0.06128 0.012212,-0.0374 -0.019737,-0.09051 -0.0041,-0.12175 0.015149,-0.03026 0.072926,-0.03593 0.1000884,-0.05252 0.038624,-0.02358 0.057358,-0.06648 0.091668,-0.09491 0.025528,-0.02115 0.063312,-0.02859 0.084505,-0.05462 0.043803,-0.0538 -0.012668,-0.110778 0.012314,-0.160623 0.016172,-0.03227 0.059423,-0.0371 0.078891,-0.06594 0.012099,-0.01792 0.011361,-0.04491 0.020157,-0.06506 0.01549,-0.03548 0.042676,-0.06475 0.057807,-0.100388 0.0085,-0.02002 0.00394,-0.04155 0.011445,-0.0611 0.011805,-0.03075 0.05016,-0.03696 0.063747,-0.06565 0.016093,-0.03399 9.249e-4,-0.07347 0.00721,-0.108943 -0.011807,-0.007 -0.02439,-0.01326 -0.03446,-0.02275 -0.05477,-0.05165 -0.00667,-0.103914 -0.00235,-0.160566 0.0014,-0.0184 -0.00909,-0.04298 -0.013495,-0.06111 -0.0093,-0.03827 -0.034978,-0.06823 -0.036817,-0.109118 -0.00247,-0.05489 0.00572,-0.121104 0.018318,-0.17459 0.00769,-0.03266 0.023637,-0.0618 0.024982,-0.09602 0.00174,-0.04421 -0.01868,-0.08357 -0.021238,-0.126577 -0.00145,-0.02438 0.023495,-0.04818 0.018196,-0.06977 -0.00632,-0.02576 -0.044677,-0.03952 -0.059186,-0.06119 -0.019767,-0.02951 -0.012203,-0.06938 -0.030221,-0.100372 -0.019403,-0.03337 -0.045928,-0.08544 -0.074659,-0.111052 -0.033298,-0.02968 -0.090632,-0.04916 -0.1295205,-0.07368 -0.018056,-0.01138 -0.029937,-0.03154 -0.048402,-0.04145 -0.023759,-0.01275 -0.054357,0.0033 -0.077719,-0.0096 -0.032045,-0.01767 -0.039605,-0.05612 -0.079021,-0.06874 -0.033567,-0.01074 -0.069335,0.01124 -0.1003847,8.5e-5 -0.035383,-0.01271 -0.037912,-0.05658 -0.066283,-0.07588 -0.021562,-0.01467 -0.050408,-0.0036 -0.073003,-0.01723 -0.033658,-0.02037 -0.047976,-0.06192 -0.079362,-0.08301 -0.019799,-0.0133 -0.043522,-0.0044 -0.065047,-0.01111 -0.037136,-0.01159 -0.072415,-0.03686 -0.1091355,-0.05069 -0.060522,-0.0228 -0.1242757,-0.03113 -0.1876837,-0.04641 -0.031998,-0.0077 -0.062619,-0.02519 -0.096024,-0.02607 -0.024707,-6.5e-4 -0.049451,0.008 -0.074201,0.0065 -0.022263,-0.0014 -0.042944,-0.01216 -0.065471,-0.01114 -0.050114,0.0023 -0.1016144,0.01416 -0.1525932,-0.0015 -0.017889,-0.0055 -0.028021,-0.02338 -0.043837,-0.03271 -0.02894,-0.01707 -0.07299,-0.03687 -0.1047366,-0.04843 -0.037303,-0.01357 -0.073608,0.0191 -0.1089437,0.0091 -0.023548,-0.0066 -0.036288,-0.03717 -0.061281,-0.04656 -0.042514,-0.01597 -0.088718,-0.0071 -0.1305521,-0.02088 -0.016455,-0.0054 -0.027441,-0.02013 -0.044042,-0.02585 -0.026796,-0.0092 -0.055578,-0.005 -0.082926,-0.0095 -0.02894,-0.0048 -0.052705,-0.01714 -0.08293,-0.01586 -0.021059,8.89e-4 -0.052571,5.73e-4 -0.069429,0.01431 -0.020436,0.01665 -0.028919,0.04635 -0.052957,0.05894 -0.0485,0.0254 -0.1199621,0.01151 -0.1700351,0.03087 -0.039342,0.01521 -0.058276,0.06541 -0.100406,0.07967 -0.022043,0.0075 -0.069902,0.02535 -0.09166,0.02449 -0.043649,-0.0017 -0.08014,-0.02293 -0.1265774,-0.02059 -0.032267,0.0016 -0.054416,0.02686 -0.087295,0.02583 -0.039176,-0.0012 -0.083171,-0.02642 -0.1222127,-0.01443 -0.026772,0.0082 -0.04557,0.0325 -0.069836,0.04553 -0.035813,0.01923 -0.084038,0.0346 -0.1222126,0.04992 -0.035167,0.01411 -0.076865,0.0049 -0.1090502,0.02698 -0.035476,0.02436 -0.036484,0.0726 -0.066974,0.100302 -0.015733,0.01429 -0.037814,0.0069 -0.055307,0.01772 -0.017836,0.01102 -0.029664,0.02958 -0.048012,0.04002 -0.028277,0.01609 -0.081768,0.02806 -0.1134832,0.03678 -0.032098,0.0088 -0.067553,-0.0151 -0.1003889,-0.01432 -0.029656,7.05e-4 -0.054406,0.01829 -0.08293,0.02363 -0.023957,0.0045 -0.046088,-0.0093 -0.069836,-0.01031 -0.018337,-7.78e-4 -0.034426,0.0111 -0.052377,0.0087 -0.056616,-0.0075 -0.096361,-0.04692 -0.1571305,-0.03413 -0.053549,0.01127 -0.085281,0.04316 -0.1310061,0.0666 -0.019027,0.0098 -0.042102,0.0062 -0.061042,0.01585 -0.031964,0.01631 -0.066848,0.04622 -0.096024,0.06802 -0.031548,0.02358 -0.076168,0.08077 -0.1135471,0.0908 -0.020272,0.0054 -0.04087,-0.0051 -0.061042,-0.0059 -0.019245,-7.29e-4 -0.03346,0.01385 -0.052377,0.01321 -0.037243,-0.0013 -0.072082,-0.02139 -0.1091185,-0.02268 -0.036429,-0.0013 -0.058018,0.02706 -0.091659,0.03285 -0.0177,0.003 -0.034549,-0.0063 -0.052377,-0.0035 -0.021483,0.0034 -0.038895,0.01747 -0.061106,0.0182 -0.018974,6.24e-4 -0.037865,-0.0068 -0.0567416,-0.0023 -0.0387349,0.0093 -0.064382,0.05354 -0.10039322,0.0604 -0.0385857,0.0074 -0.0751766,-0.02303 -0.11347891,-0.002 -0.0400904,0.02203 -0.0730475,0.08901 -0.12221264,0.09078 -0.036527,0.0013 -0.0682289,-0.03027 -0.1047537,-0.03276 -0.0450007,-0.0031 -0.0880939,0.02556 -0.13530685,0.01472 -0.0349072,-0.008 -0.0633356,-0.04112 -0.10038896,-0.04047 -0.0421491,7.35e-4 -0.0640964,0.04758 -0.10038896,0.06191 -0.0382937,0.01512 -0.086276,-0.0044 -0.12657738,0.0044 -0.03825112,0.0083 -0.06278998,0.04515 -0.10038896,0.05596 -0.04696994,0.0135 -0.09058215,-0.01223 -0.13530685,0.01701 -0.0587918,0.03844 -0.0969588,0.112433 -0.16461432,0.140269 -0.027708,0.0114 -0.0676406,-9.04e-4 -0.0970984,0.0109 -0.0256045,0.01026 -0.0326684,0.04565 -0.0612811,0.0512 -0.0304253,0.0059 -0.0606705,-0.02337 -0.0916563,-0.0119 -0.0334314,0.01237 -0.0479354,0.05512 -0.08293,0.06469 -0.0317253,0.0087 -0.0650608,-0.01104 -0.0960242,0.0032 -0.0901271,0.04151 -0.15890905,0.115299 -0.26624905,0.114911 -0.025067,-9.2e-5 -0.046412,-0.01885 -0.069836,-0.0255 -0.024298,-0.0069 -0.05336,-0.0047 -0.078565,-0.0071 -0.037281,-0.0035 -0.1014045,0.02088 -0.1338555,-0.0015 -0.044733,-0.03088 0.05154,-0.10385 0.067994,-0.121426 0.0406,-0.04337 0.093392,-0.03892 0.1343094,-0.07407 0.021315,-0.01831 0.00474,-0.05147 0.032179,-0.07 0.02004,-0.01353 0.046262,-0.01583 0.0646495,-0.03224 0.0138881,-0.01239 0.0136963,-0.0303 0.0249726,-0.0437 0.0108649,-0.01291 0.0248724,-0.01903 0.0272764,-0.03752 0.008981,-0.06907 -0.0479748,-0.114282 -0.0908678,-0.153567 -0.014704,-0.01347 -0.029717,-0.03304 -0.00838,-0.04833 0.017852,-0.0128 0.041545,-0.0058 0.059931,-0.01984 0.0270292,-0.02061 0.0391484,-0.05762 0.0705828,-0.07305 0.0226357,-0.0111 0.047085,9.12e-4 0.0694383,-0.01458 0.0243662,-0.01689 0.0370971,-0.0476 0.0550313,-0.07036 0.0223288,-0.02834 0.0504865,-0.05337 0.0763051,-0.0785 0.0237364,-0.02311 0.052981,-0.03392 0.0785653,-0.05408 0.0348678,-0.02746 0.0521733,-0.05707 0.0798717,-0.088 0.023615,-0.02637 0.0574587,-0.04932 0.0773089,-0.07847 0.019409,-0.0285 0.017086,-0.07201 0.0348145,-0.10177 0.007799,-0.01309 0.0205886,-0.02144 0.0270974,-0.03568 0.00977,-0.02137 0.009155,-0.04576 0.0231941,-0.06545 0.0197894,-0.02776 0.0544708,-0.0432 0.0699807,-0.0742 0.007628,-0.01525 0.004472,-0.03256 0.0111132,-0.04801 0.007346,-0.01709 0.0228776,-0.02966 0.0276036,-0.04801 0.004444,-0.01725 -0.002292,-0.03477 0.00226,-0.05238 0.0102458,-0.03962 0.0366868,-0.08636 0.0566233,-0.122213 0.0124538,-0.0224 0.0363224,-0.03586 0.0483084,-0.05748 0.0226485,-0.04086 0.0238228,-0.0821 0.0588909,-0.12073 0.03548907,-0.03909 0.09396973,-0.07252 0.11481945,-0.122954 0.00798567,-0.01932 -8.9299e-4,-0.03718 0.00205769,-0.05674 0.00360496,-0.0239 0.01815372,-0.05556 0.027156,-0.07857 0.0118581,-0.0303 0.03838752,-0.047 0.05187174,-0.07459 0.01515724,-0.03101 0.01102906,-0.06876 0.02403376,-0.1 0.00881,-0.02116 0.0294599,-0.03436 0.0364055,-0.05674 0.006223,-0.02005 -8.52e-6,-0.04122 0.007807,-0.06111 0.0205023,-0.05217 0.0570421,-0.09932 0.0760185,-0.152766 0.009254,-0.02606 -0.002519,-0.05632 0.005115,-0.08293 0.006311,-0.022 0.0287054,-0.03448 0.0341144,-0.05674 0.004947,-0.02035 -0.006973,-0.04108 0.003453,-0.06093 0.0107925,-0.02055 0.0368339,-0.03488 0.0521616,-0.05257 0.0259732,-0.02997 0.0412561,-0.06784 0.0694436,-0.09582 0.0268299,-0.02663 0.063423,-0.04079 0.090726,-0.06697 0.0311307,-0.02985 0.0487197,-0.06986 0.0836887,-0.09677 0.0356425,-0.02743 0.10115833,-0.0279 0.12830793,-0.06435 0.0163038,-0.02189 0.0117601,-0.07225 0.0186993,-0.09946 0.007988,-0.03132 0.0393317,-0.0473 0.0470829,-0.07857 0.0113253,-0.04568 -0.00962,-0.09307 -1.4918e-4,-0.135306 0.010232,-0.04563 0.0689897,-0.05747 0.0921539,-0.09603 0.0286969,-0.04777 0.0663108,-0.09204 0.0872947,-0.144032 0.0140149,-0.03473 0.009497,-0.06984 0.0191234,-0.104754 0.0129067,-0.04681 0.0557697,-0.08301 0.0963375,-0.104753 -0.0053,-0.01657 -0.018829,-0.04324 -0.014021,-0.06065 0.013433,-0.04863 0.1120424,-0.01458 0.1293714,-0.07466 0.010944,-0.03794 -0.0073,-0.08116 0.011945,-0.117843 0.02043,-0.03893 0.080059,-0.0604 0.08429,-0.109119 0.00237,-0.02732 -0.030165,-0.04547 -0.038287,-0.06984 -0.011174,-0.03352 0.00814,-0.121987 0.024937,-0.152766 0.026135,-0.0479 0.078553,-0.0508 0.1158531,-0.08386 0.034076,-0.0302 0.049406,-0.06746 0.074226,-0.10365 0.027429,-0.03999 0.05967,-0.06826 0.082875,-0.113658 0.010718,-0.02097 0.00647,-0.04356 0.013047,-0.06547 0.00716,-0.02384 0.02946,-0.03768 0.037205,-0.06111 0.00898,-0.02716 0.00131,-0.0563 0.00954,-0.08293 0.00884,-0.02865 0.040069,-0.04773 0.042938,-0.07857 0.00211,-0.02268 -0.010635,-0.04359 -0.013744,-0.06547 -0.00425,-0.02992 9.079e-4,-0.07586 0.00997,-0.104754 0.011717,-0.03739 0.045516,-0.05276 0.071021,-0.07896 0.015215,-0.01563 0.023659,-0.03587 0.039931,-0.05067 0.015208,-0.01384 0.037141,-0.02449 0.044519,-0.04497 0.013162,-0.03654 -0.030726,-0.07139 -0.027331,-0.109102 0.00423,-0.04699 0.032017,-0.09059 0.044651,-0.135306 0.011133,-0.0394 0.0064,-0.08554 0.014795,-0.126578 0.013813,-0.06753 0.065972,-0.08923 0.095266,-0.144778 0.014808,-0.02808 -0.00567,-0.05829 0.00513,-0.08638 0.015439,-0.04012 0.056727,-0.07471 0.07384,-0.118021 0.02306,-0.05836 -0.00851,-0.130479 0.013497,-0.192048 0.025954,-0.07262 0.1347805,-0.07425 0.1842631,-0.12675 0.030822,-0.0327 0.032719,-0.06719 0.052405,-0.104513 0.010334,-0.01959 0.032224,-0.02815 0.041514,-0.04815 0.012078,-0.026 0.00735,-0.05695 0.020308,-0.08286 0.010782,-0.02156 0.031203,-0.03696 0.036953,-0.06111 0.00798,-0.03349 -0.0045,-0.07422 -0.00204,-0.109118 0.060637,0.01604 0.050593,-0.01934 0.074593,-0.06109 0.00836,-0.01454 0.023778,-0.02392 0.03002,-0.03969 0.019288,-0.04873 0.021282,-0.100133 0.048002,-0.148011 0.011615,-0.02081 0.026286,-0.03716 0.031493,-0.06111 0.011166,-0.05135 -0.00105,-0.106203 0.017318,-0.157049 0.013211,-0.03658 0.068743,-0.03 0.08341,-0.06574 0.012819,-0.03124 0.00301,-0.06829 0.014362,-0.100199 0.00842,-0.02366 0.025662,-0.04248 0.035302,-0.06547 0.0061,-0.01456 0.00291,-0.03378 0.012949,-0.04631 0.01484,-0.01853 0.039796,-0.02447 0.053477,-0.04552 0.012947,-0.01992 0.011784,-0.04484 0.023064,-0.06528 0.019869,-0.036 0.069966,-0.08592 0.1041442,-0.108677 0.029019,-0.01932 0.070759,-0.04466 0.1047537,-0.05229 0.043519,-0.0098 0.085038,0.0024 0.1222126,-0.02817 0.044888,-0.03692 0.05018,-0.08712 0.078866,-0.13387 0.02218,-0.03614 0.059244,-0.06233 0.078265,-0.100389 0.02268,-0.04539 0.029562,-0.101244 0.060232,-0.143973 0.018047,-0.02514 0.050917,-0.03567 0.067466,-0.06134 0.010513,-0.01631 -1.641e-4,-0.03602 0.010413,-0.05127 0.024543,-0.0354 0.088947,-0.057 0.1237557,-0.08228 0.052485,-0.03811 0.087612,-0.08882 0.1295142,-0.136127 0.013371,-0.01509 0.032863,-0.02222 0.046015,-0.03716 0.019181,-0.02178 0.030566,-0.05268 0.029456,-0.08145 -0.00109,-0.02816 -0.012442,-0.05885 0.0099,-0.082 0.021071,-0.02184 0.054014,-0.02396 0.076639,-0.043 0.024157,-0.02032 0.022906,-0.0574 0.046062,-0.07825 0.017764,-0.016 0.047571,-0.01353 0.06835,-0.02582 0.032573,-0.01926 0.055081,-0.05145 0.087295,-0.07056 0.047833,-0.02839 0.1013864,-0.03281 0.1454174,-0.07102 0.051697,-0.04486 0.1137091,-0.106147 0.1531153,-0.16259 0.012743,-0.01825 0.00638,-0.04156 0.021815,-0.05996 0.023441,-0.02794 0.066447,-0.03475 0.086195,-0.06605 0.013719,-0.02174 0.035336,-0.08389 0.037663,-0.108944 0.00204,-0.02191 -0.00815,-0.04374 -1.449e-4,-0.06547 0.018032,-0.04894 0.079324,-0.07003 0.094317,-0.117848 0.0092,-0.02934 0.00249,-0.06531 0.00756,-0.09602 0.01176,-0.07117 0.033326,-0.139256 0.046524,-0.209507 0.00561,-0.02984 -2.834e-4,-0.06263 0.00687,-0.09149 0.024094,-0.09716 0.1151605,-0.174984 0.1073538,-0.283881 -0.00731,-0.10201 -0.055527,-0.217874 -0.119278,-0.296412 -0.030958,-0.03814 -0.06975,-0.06652 -0.096109,-0.109508 -0.018523,-0.03021 -0.00299,-0.06523 -0.018049,-0.09596 -0.014141,-0.02886 -0.050365,-0.04045 -0.069979,-0.06555 -0.019175,-0.02454 -0.015897,-0.05726 -0.032299,-0.08272 -0.018152,-0.02818 -0.056354,-0.03132 -0.073789,-0.06131 -0.014914,-0.02566 -0.017996,-0.0596 -0.029215,-0.08728 -0.015161,-0.0374 -0.038471,-0.07036 -0.050847,-0.109118 -0.00897,-0.02809 -0.0061,-0.06078 -0.019356,-0.0873 -0.013653,-0.0273 -0.038882,-0.04771 -0.054274,-0.0742 -0.015251,-0.02625 -0.022399,-0.05861 -0.041529,-0.08246 -0.029513,-0.0368 -0.084575,-0.01163 -0.1186237,-0.04148 -0.036708,-0.03218 -0.062065,-0.07864 -0.1019384,-0.108714 -0.026855,-0.02025 -0.063078,-0.02109 -0.089215,-0.03807 -0.022146,-0.01438 -0.027855,-0.04303 -0.054095,-0.05549 -0.055005,-0.02611 -0.117899,-0.01561 -0.1745724,-0.03449 -0.03394,-0.01131 -0.055243,-0.04302 -0.09166,-0.04959 z"
       id="path2" /></g></svg>
