<?xml version="1.0" encoding="UTF-8" standalone="no"?>
<!-- Created with Inkscape (http://www.inkscape.org/) -->

<svg
   width="229.06781mm"
   height="37.134846mm"
   viewBox="0 0 229.06781 37.134846"
   version="1.1"
   id="svg1"
   inkscape:version="1.4.2 (2aeb623e1d, 2025-05-12)"
   sodipodi:docname="logo.svg"
   xml:space="preserve"
   xmlns:inkscape="http://www.inkscape.org/namespaces/inkscape"
   xmlns:sodipodi="http://sodipodi.sourceforge.net/DTD/sodipodi-0.dtd"
   xmlns="http://www.w3.org/2000/svg"
   xmlns:svg="http://www.w3.org/2000/svg"><sodipodi:namedview
     id="namedview1"
     pagecolor="#ffffff"
     bordercolor="#000000"
     borderopacity="0.25"
     inkscape:showpageshadow="2"
     inkscape:pageopacity="0.0"
     inkscape:pagecheckerboard="0"
     inkscape:deskcolor="#d1d1d1"
     inkscape:document-units="mm"
     inkscape:zoom="1.2674155"
     inkscape:cx="148.33336"
     inkscape:cy="338.0896"
     inkscape:window-width="2494"
     inkscape:window-height="1371"
     inkscape:window-x="66"
     inkscape:window-y="32"
     inkscape:window-maximized="1"
     inkscape:current-layer="layer1" /><defs
     id="defs1" /><g
     inkscape:label="Layer 1"
     inkscape:groupmode="layer"
     id="layer1"
     transform="translate(32.722832,-9.0320553)"><text
       xml:space="preserve"
       style="font-size:50.8px;text-align:start;writing-mode:lr-tb;direction:ltr;text-anchor:start;white-space:pre;inline-size:187.843;display:inline;fill:#000000;stroke-width:0.264583"
       x="30.999006"
       y="50.77932"
       id="text1"
       transform="translate(-18.599404,-5.0188867)"
       inkscape:label="text1"><tspan
         x="30.999006"
         y="50.77932"
         id="tspan3"><tspan
           style="font-weight:600;font-family:barlow;-inkscape-font-specification:'barlow Semi-Bold'"
           id="tspan2">bioWork</tspan></tspan></text><path
       style="fill:#94d5e6;stroke:none;fill-opacity:1"
       d="m -22.806352,28.098156 c 0.05816,0.02558 0.135457,0.125987 0.15221,0.187278 0.01209,0.04422 0.0059,0.0888 0.02697,0.131095 0.01715,0.03441 0.03881,0.07001 0.07365,0.08874 0.0335,0.01802 0.08183,0.02099 0.09828,0.0611 0.01213,0.02959 -0.0045,0.06271 0.0025,0.09362 0.0087,0.03861 0.02037,0.09068 0.03691,0.126413 0.01135,0.02451 0.03544,0.04693 0.0378,0.07491 0.0029,0.03409 -0.01781,0.06798 -0.01478,0.103003 0.0035,0.04064 0.02999,0.07661 0.03098,0.117049 7.92e-4,0.03241 -0.01372,0.06122 -0.0042,0.09364 0.02651,0.09048 0.08457,0.182646 0.09676,0.276236 0.0058,0.04444 0.02028,0.09603 0.0197,0.140458 -4.8e-4,0.03662 -0.02376,0.06525 -0.0073,0.102985 0.01246,0.02848 0.04307,0.04087 0.06084,0.06557 0.02644,0.03674 0.04757,0.08551 0.06732,0.12641 0.02682,0.05554 0.02177,0.125261 0.05311,0.177845 0.02086,0.035 0.06665,0.04232 0.0902,0.07505 0.02293,0.03187 0.02237,0.07578 0.03319,0.112294 0.0118,0.03987 0.03611,0.07633 0.04493,0.117049 0.0083,0.03843 -0.02235,0.07397 -0.01717,0.112367 0.0068,0.05056 0.0657,0.07252 0.07562,0.121731 0.0061,0.03006 -0.0043,0.06279 -0.002,0.09364 0.0054,0.07426 0.01528,0.167145 0.03399,0.23878 0.0097,0.0371 0.04081,0.06317 0.05487,0.09832 0.01601,0.04002 0.0094,0.08542 0.02202,0.126413 0.01143,0.03702 0.03933,0.06573 0.0505,0.103003 0.01199,0.04002 0.02523,0.08949 0.02833,0.131095 0.0023,0.03111 -0.0076,0.06235 -3.8e-4,0.09364 0.0086,0.0374 0.04121,0.06479 0.04747,0.103003 0.0074,0.04538 -0.02082,0.129266 -0.03538,0.173232 -0.0075,0.02267 -0.02774,0.05002 -0.02133,0.07484 0.009,0.03473 0.0583,0.04633 0.08636,0.05993 0.03613,0.0175 0.06155,0.05326 0.09832,0.06801 0.04981,0.01999 0.09402,-0.0029 0.128529,0.05005 0.03863,0.05932 0.04358,0.127423 0.07468,0.187273 0.01763,0.03394 0.05307,0.05845 0.05811,0.09832 0.01186,0.09377 -0.02216,0.178133 0.01709,0.271553 0.02265,0.05393 0.06728,0.09417 0.09293,0.145141 0.01971,0.03916 0.01146,0.08024 0.03981,0.117049 0.02684,0.03484 0.05124,0.07538 0.08132,0.107266 0.02041,0.02164 0.05685,0.04093 0.06635,0.07065 0.01412,0.04416 -0.0486,0.110877 -0.08126,0.13112 -0.02971,0.01841 -0.06249,0.0074 -0.09315,0.01994 -0.03619,0.0148 -0.04304,0.08245 -0.03688,0.115796 0.0072,0.03894 0.05323,0.03719 0.08321,0.04655 0.02525,0.0079 0.04363,0.0279 0.05399,0.05179 0.02288,0.05276 0.05521,0.124383 0.04815,0.182596 -0.0051,0.0422 -0.03331,0.07803 -0.0317,0.121731 0.0013,0.03618 0.02947,0.06316 0.03201,0.09832 0.0026,0.03565 -0.02448,0.07178 -0.01001,0.107484 0.01455,0.03588 0.07237,0.03284 0.09927,0.05739 0.03583,0.0327 0.02058,0.08192 0.04281,0.120725 0.0232,0.0405 0.07628,0.05431 0.08791,0.103008 0.0078,0.03265 0.002,0.06554 0.0067,0.09832 0.01037,0.07254 0.02797,0.136977 0.03156,0.210688 0.0013,0.02687 0.01742,0.05239 0.01277,0.07959 -0.0077,0.04509 -0.07098,0.04617 -0.0817,0.08897 -0.0097,0.03884 0.01704,0.082 0.01724,0.121726 3.29e-4,0.0681 8.6e-5,0.138747 -0.0021,0.206006 -0.001,0.03106 -0.02051,0.06252 -0.0149,0.09364 0.009,0.04989 0.07878,0.06556 0.09913,0.112367 0.02804,0.0645 0.06438,0.131095 0.08853,0.196643 0.01164,0.03158 0.0043,0.06838 0.02177,0.09825 0.02255,0.03852 0.07478,0.0446 0.09748,0.08435 0.02394,0.04191 0.0072,0.0873 0.043,0.126409 0.08843,0.09671 0.240008,0.186739 0.279426,0.318373 0.01353,0.04518 -0.02195,0.0761 -0.03114,0.117049 -0.01562,0.06959 -0.01347,0.153434 -0.01523,0.224734 -7.21e-4,0.02918 -0.0121,0.05996 -0.0055,0.08896 0.01081,0.04777 0.06479,0.06342 0.08018,0.107685 0.01142,0.03283 -0.01157,0.06909 -0.0076,0.103003 0.008,0.06882 0.04601,0.152287 0.07423,0.21537 0.02761,0.06171 0.08094,0.112106 0.117009,0.16855 0.02342,0.03665 0.02475,0.08169 0.03935,0.121731 0.01344,0.03687 0.03875,0.06886 0.04704,0.107685 0.0061,0.02848 -0.003,0.05585 -0.0021,0.08428 0.0037,0.115393 -0.01531,0.22672 -0.02319,0.341783 -0.0024,0.03551 -0.0076,0.08751 0.0026,0.12173 0.01924,0.06414 0.05287,0.111796 0.0574,0.182597 0.0047,0.07362 -0.04391,0.147122 -0.03654,0.224734 0.0049,0.05161 0.06316,0.07622 0.06894,0.131095 0.0031,0.02909 0.01161,0.06472 0.0062,0.09364 -0.0059,0.03124 -0.02984,0.05701 -0.03242,0.08896 -0.0049,0.06078 0.02652,0.157497 0.04596,0.21537 0.01676,0.0499 0.07806,0.06611 0.09082,0.117049 0.0087,0.03476 -0.0127,0.0722 -0.0099,0.107685 0.0039,0.04976 0.0082,0.106197 0.02032,0.154504 0.0077,0.03069 0.02634,0.0611 0.02274,0.09364 -0.0084,0.07573 -0.01557,0.153816 -0.02568,0.229415 -0.0044,0.03294 -0.02371,0.06425 -0.0173,0.09832 0.007,0.03701 0.04121,0.06239 0.0516,0.09832 0.01008,0.03486 0.0036,0.07243 0.0098,0.107685 0.01186,0.06712 0.03727,0.135644 0.05601,0.201324 0.03207,0.112376 0.06791,0.226602 0.104513,0.337101 0.0098,0.02968 0.03163,0.05416 0.04033,0.08427 0.04495,0.155716 0.02396,0.320328 0.04613,0.47756 0.0043,0.03081 0.03071,0.05354 0.03471,0.08428 0.0044,0.03341 -0.0205,0.06356 -0.03055,0.09364 -0.0097,0.02895 4.8e-4,0.06028 -0.0092,0.08896 -0.02304,0.06843 -0.07287,0.111329 -0.06055,0.191961 0.01181,0.07724 0.0892,0.141958 0.131795,0.201324 0.03638,0.05071 0.04806,0.105469 0.07498,0.159186 0.01366,0.02725 0.03762,0.0477 0.05123,0.07491 0.02623,0.05245 0.03303,0.147486 0.03817,0.206006 0.0023,0.02607 -0.0038,0.04951 0.0071,0.07491 0.0084,0.01948 0.02535,0.03312 0.03554,0.0515 0.01884,0.03398 0.02553,0.07769 0.05498,0.105206 0.02522,0.02356 0.06249,0.029 0.08642,0.05447 0.02659,0.02831 0.02805,0.07965 0.06273,0.10044 0.03451,0.02068 0.07727,0.0012 0.1115,0.02077 0.06239,0.0356 0.109767,0.09808 0.177914,0.125997 0.03738,0.01531 0.07911,0.01588 0.117049,0.02901 0.03296,0.01141 0.06303,0.03776 0.09832,0.04117 0.04046,0.0039 0.07814,-0.02636 0.117049,-0.01892 0.03422,0.0065 0.05959,0.03471 0.09364,0.04224 0.03875,0.0086 0.07857,1.82e-4 0.117049,0.0084 0.03729,0.008 0.0689,0.03124 0.107685,0.0339 0.03301,0.0023 0.06553,-0.01174 0.09832,-0.0069 0.03798,0.0056 0.07346,0.03017 0.112367,0.02984 0.03199,-2.79e-4 0.05799,-0.02413 0.08854,-0.03075 0.04095,-0.0089 0.0943,-0.0028 0.136195,-9.78e-4 0.03322,0.0015 0.07727,-2.2e-4 0.107685,0.01409 0.02798,0.01317 0.05123,0.04556 0.08428,0.04561 0.04131,6.4e-5 0.06678,-0.0487 0.107685,-0.0465 0.03902,0.0021 0.06644,0.04334 0.107685,0.03646 0.03437,-0.0057 0.05681,-0.03842 0.08896,-0.04998 0.03556,-0.01278 0.07588,-3.11e-4 0.112366,-0.01374 0.03308,-0.01218 0.05778,-0.03903 0.08896,-0.05458 0.0317,-0.01581 0.07283,-0.01956 0.107685,-0.02384 0.04063,-0.005 0.0813,0.0095 0.121731,9.19e-4 0.09766,-0.02083 0.197411,-0.06625 0.299645,-0.06718 0.0509,-4.64e-4 0.08464,0.05836 0.135777,0.06404 0.06133,0.0068 0.07624,-0.07244 0.126412,-0.09206 0.03946,-0.01543 0.08278,0.0121 0.121663,-0.01113 0.02495,-0.01491 0.03804,-0.0434 0.05706,-0.06446 0.03236,-0.03583 0.07428,-0.07075 0.111555,-0.101482 0.03161,-0.02605 0.0754,-0.03344 0.09637,-0.07177 0.03628,-0.06632 0.03806,-0.148933 0.08139,-0.215365 0.02244,-0.0344 0.06136,-0.04975 0.08825,-0.07966 0.02474,-0.02752 0.03637,-0.06248 0.0711,-0.08029 0.06887,-0.03534 0.148165,-0.03043 0.220052,-0.05092 0.11034,-0.03145 0.197544,-0.09798 0.299645,-0.143321 0.03927,-0.01744 0.08309,-0.0027 0.121731,-0.02058 0.02981,-0.01382 0.05168,-0.03954 0.07959,-0.0563 0.03502,-0.02102 0.07614,-0.02749 0.112367,-0.0456 0.03355,-0.01678 0.05992,-0.04566 0.09364,-0.06152 0.03514,-0.01653 0.07161,0.0022 0.107685,-0.0087 0.04073,-0.01228 0.06642,-0.05132 0.103003,-0.07095 0.03656,-0.01962 0.07942,-0.01581 0.117049,-0.03118 0.04213,-0.01721 0.05895,-0.07077 0.103003,-0.08341 0.06908,-0.01981 0.154232,0.0042 0.224734,0.0018 0.04367,-0.0015 0.08295,-0.02573 0.126413,-0.02771 0.03967,-0.0018 0.08841,0.0086 0.126413,-0.0042 0.03376,-0.01137 0.05525,-0.0441 0.08896,-0.0557 0.0705,-0.02426 0.13649,-0.01426 0.196151,-0.07226 0.03314,-0.03222 0.01977,-0.100854 0.05395,-0.125601 0.0271,-0.01961 0.08264,-0.01812 0.115088,-0.02816 0.07789,-0.02411 0.151716,-0.07005 0.229416,-0.08996 0.0319,-0.0082 0.06642,-0.0036 0.09832,-0.01181 0.037,-0.0095 0.06825,-0.0337 0.107685,-0.03376 0.03776,-6e-5 0.07105,0.01796 0.107685,0.02241 0.07157,0.0087 0.132234,9.26e-4 0.201324,-0.01859 0.08932,-0.02523 0.1362,-0.10848 0.210688,-0.152726 0.06659,-0.03955 0.157518,-0.0317 0.224716,-0.0679 0.03615,-0.01947 0.05069,-0.0652 0.08429,-0.08935 0.09561,-0.06871 0.2086,-0.100887 0.323055,-0.115351 0.0185,-0.03874 0.05909,-0.03287 0.08847,-0.05803 0.02641,-0.02261 0.03442,-0.05997 0.06604,-0.07804 0.02578,-0.01474 0.05901,-9.87e-4 0.08329,-0.01777 0.03683,-0.02546 0.05076,-0.06078 0.0993,-0.07195 0.03979,-0.0092 0.07768,0.0305 0.117049,0.01503 0.06422,-0.02523 0.09872,-0.09536 0.173232,-0.111054 0.04224,-0.0089 0.07924,0.03348 0.121731,0.01642 0.06582,-0.02642 0.116546,-0.08529 0.177915,-0.119214 0.08784,-0.04856 0.177214,-0.05767 0.257507,-0.120935 0.06635,-0.05228 0.116272,-0.138977 0.191961,-0.178287 0.04976,-0.02584 0.119108,-0.028 0.1732319,-0.04727 0.049487,-0.01761 0.083755,-0.05843 0.1310948,-0.07573 0.035604,-0.01301 0.075501,0.007 0.112367,-0.0036 0.035696,-0.01031 0.059499,-0.04341 0.093639,-0.05744 0.065154,-0.02677 0.1357173,-0.0358 0.2013241,-0.06536 0.034236,-0.01542 0.063712,-0.04011 0.098321,-0.05464 0.033273,-0.01397 0.070396,-0.01434 0.1030031,-0.03018 0.067262,-0.03268 0.128428,-0.07682 0.1966422,-0.108794 0.042473,-0.01991 0.089459,-0.02488 0.1310948,-0.04725 0.031132,-0.01673 0.071604,-0.03268 0.098137,-0.05579 0.031365,-0.02731 0.046689,-0.06772 0.089141,-0.08115 0.109858,-0.03476 0.222625,-0.02006 0.332419,-0.04671 0.043148,-0.01047 0.06358,-0.05643 0.1030031,-0.07237 0.037631,-0.01522 0.082117,0.0097 0.1217308,0.0036 0.036496,-0.0056 0.061613,-0.03884 0.098321,-0.04421 0.037767,-0.0055 0.070252,0.02719 0.107685,0.02896 0.037172,0.0018 0.072385,-0.01786 0.1076851,-0.02636 0.0276,-0.0066 0.057192,-0.0054 0.084275,-0.01383 0.048299,-0.01505 0.066098,-0.06416 0.107685,-0.0883 0.029484,-0.01712 0.066688,-0.01926 0.098321,-0.03136 0.061627,-0.02358 0.1210313,-0.05643 0.1825963,-0.07814 0.042014,-0.01482 0.089158,-0.0043 0.1310948,-0.01939 0.037897,-0.01363 0.081047,-0.02846 0.117049,-0.04603 0.022331,-0.0109 0.045036,-0.0305 0.070229,-0.03391 0.040368,-0.0055 0.07514,0.03457 0.1170489,0.02381 0.054821,-0.01407 0.082771,-0.06389 0.1451407,-0.07156 0.059059,-0.0073 0.1235346,0.02579 0.1779144,0.01495 0.1344851,-0.02683 0.2489873,-0.107019 0.3839205,-0.131348 0.051161,-0.0092 0.086255,0.0082 0.1357767,0.01163 0.040606,0.0028 0.086406,-0.0081 0.1264129,-0.01496 0.040448,-0.007 0.072323,-0.03692 0.1123669,-0.04394 0.038375,-0.0067 0.078507,0.0027 0.117049,-0.0029 0.073919,-0.0109 0.1440982,-0.04723 0.2200519,-0.05805 0.091339,-0.01302 0.1854769,-0.005 0.2762355,-0.01632 0.059544,-0.0074 0.1175816,-0.03857 0.1779144,-0.04507 0.047885,-0.0052 0.078638,0.04917 0.1264128,0.03993 0.040288,-0.0078 0.053954,-0.05706 0.093639,-0.06695 0.037291,-0.0093 0.075382,0.01093 0.1123669,-0.0026 0.064283,-0.02349 0.1187132,-0.08361 0.1872783,-0.09827 0.038219,-0.0082 0.073983,0.0245 0.112367,0.01 0.032618,-0.01235 0.053072,-0.04353 0.084275,-0.05858 0.067722,-0.03267 0.1424842,-0.04793 0.2106881,-0.07868 0.061158,-0.02757 0.1187201,-0.06966 0.1825963,-0.0905 0.065031,-0.02122 0.1616373,-0.04918 0.2294159,-0.05298 0.060653,-0.0034 0.1235621,0.01017 0.1825963,0.0073 0.068663,-0.0034 0.1372399,-0.03087 0.2060061,-0.03084 0.055482,2.3e-5 0.096273,0.03818 0.1545046,0.03192 0.027058,-0.0029 0.052391,-0.01439 0.079593,-0.01712 0.043509,-0.0044 0.088306,0.0032 0.1310948,-0.0092 0.037065,-0.01071 0.064541,-0.04332 0.1030031,-0.05069 0.031267,-0.006 0.062262,0.01148 0.093639,0.0032 0.043045,-0.01135 0.063266,-0.06437 0.107685,-0.06936 0.03631,-0.0041 0.075293,0.01678 0.112367,0.01754 -0.0058,-0.06598 -0.063645,-0.119764 -0.077751,-0.182596 -0.01627,-0.07248 0.013934,-0.161829 -0.010523,-0.234098 -0.01336,-0.03948 -0.057624,-0.05853 -0.078629,-0.09364 -0.039737,-0.06642 -0.057699,-0.14624 -0.09753,-0.210619 -0.028864,-0.04666 -0.083633,-0.081 -0.1177393,-0.126482 -0.059933,-0.07991 -0.1088327,-0.16812 -0.161148,-0.252825 -0.017272,-0.02797 -0.020006,-0.06376 -0.043466,-0.08796 -0.021156,-0.02183 -0.05181,-0.02544 -0.078052,-0.03806 -0.041143,-0.01978 -0.095105,-0.04941 -0.1310262,-0.07779 -0.051246,-0.04048 -0.087439,-0.08452 -0.1452093,-0.119253 -0.041655,-0.02504 -0.097304,-0.03503 -0.1349629,-0.06461 -0.032646,-0.02564 -0.033981,-0.07954 -0.071231,-0.09913 -0.032748,-0.01722 -0.073992,0.0058 -0.1074975,0.0074 -0.030344,0.0015 -0.065673,-0.01773 -0.093639,-0.02829 -0.047574,-0.01796 -0.073921,-0.05477 -0.1170489,-0.078 -0.041376,-0.02229 -0.092332,-0.01274 -0.1357767,-0.02987 -0.06474,-0.02553 -0.1213812,-0.07869 -0.1872783,-0.09978 -0.033242,-0.01064 -0.068855,-0.0032 -0.1030031,-0.0065 -0.047963,-0.0046 -0.096954,-0.02331 -0.1451407,-0.02236 -0.02854,5.6e-4 -0.055831,0.01421 -0.084275,0.01317 -0.041269,-0.0015 -0.076004,-0.03406 -0.1170489,-0.04011 -0.072138,-0.01063 -0.1469901,0.0089 -0.220052,-0.0086 -0.031205,-0.0074 -0.051501,-0.03359 -0.079593,-0.04694 -0.036072,-0.01714 -0.076395,-5.16e-4 -0.1123669,0.0072 -0.041941,0.009 -0.092878,0.0104 -0.1357768,0.0094 -0.072861,-0.0018 -0.1483275,-0.02834 -0.220052,-0.02587 -0.034381,0.0012 -0.064745,0.0197 -0.098321,0.02454 -0.042506,0.0061 -0.097498,3.4e-5 -0.1404587,-0.0041 -0.035929,-0.0034 -0.078121,-0.0046 -0.112367,-0.01569 -0.029203,-0.0095 -0.061661,-0.0327 -0.093639,-0.02742 -0.036169,0.006 -0.056698,0.04193 -0.088957,0.05569 -0.040478,0.01727 -0.076258,-0.03544 -0.112367,-0.04543 -0.03356,-0.0093 -0.07113,0.01125 -0.103003,0.01933 -0.011918,0.003 -0.03554,0.0042 -0.035837,-0.01409 -5.007e-4,-0.03094 0.059622,-0.02308 0.077975,-0.02311 0.063241,-1e-4 0.098515,-0.03744 0.1545046,-0.05868 0.026597,-0.01009 0.056339,-0.0069 0.084275,-0.0069 0.056245,-5e-6 0.124209,-0.0046 0.1779144,-0.02224 0.034027,-0.01115 0.063325,-0.03366 0.098321,-0.04219 0.047505,-0.01158 0.09903,0.0037 0.1451407,-0.01254 0.066837,-0.02348 0.1330311,-0.07308 0.2013241,-0.08774 0.053616,-0.01151 0.1175725,0.0078 0.1732324,0.0053 0.068154,-0.003 0.1536999,-0.0215 0.220052,6.74e-4 0.037892,0.01266 0.06539,0.03668 0.107685,0.03142 0.041415,-0.0052 0.073704,-0.0371 0.1170489,-0.03634 0.1154327,0.002 0.2306253,0.03008 0.3464649,0.03227 0.043363,8.21e-4 0.083054,-0.0307 0.1264128,-0.02199 0.033905,0.0068 0.060763,0.0319 0.093639,0.04203 0.04371,0.01348 0.091252,0.01005 0.1357767,0.02007 0.037588,0.0085 0.070314,0.03129 0.107685,0.04085 0.050541,0.01293 0.099062,-0.0077 0.1498227,0.0099 0.036317,0.01255 0.079657,0.02486 0.1123669,0.045 0.02774,0.01708 0.051675,0.04565 0.084275,0.05376 0.043006,0.0107 0.083919,-0.02947 0.1264129,-0.01777 0.036834,0.01013 0.064761,0.04182 0.098321,0.05875 0.070296,0.03546 0.1480692,0.06329 0.220052,0.09597 0.034495,0.01566 0.072621,0.01801 0.107685,0.03173 0.044129,0.01726 0.079483,0.05018 0.1217309,0.07099 0.069768,0.03437 0.1331546,0.0559 0.1966422,0.104279 0.070478,0.0537 0.1065899,0.126808 0.1607251,0.192434 0.032554,0.03946 0.077213,0.06731 0.1090041,0.107685 0.016945,0.02152 0.02589,0.04919 0.0455,0.06869 0.025662,0.02551 0.065447,0.02719 0.09056,0.05391 0.03081,0.03279 0.031804,0.08197 0.067902,0.111855 0.035931,0.02974 0.084952,0.04004 0.1132471,0.07926 0.01892,0.02622 0.023046,0.05888 0.032689,0.08894 0.018088,0.05638 0.036724,0.111969 0.054707,0.16855 0.03311,0.104174 0.078526,0.207415 0.1051474,0.313692 0.011076,0.04421 0.00648,0.09085 0.013177,0.135776 0.00501,0.03362 0.030872,0.06429 0.030442,0.09832 -5.646e-4,0.04473 -0.039282,0.08229 -0.045896,0.126413 l 0.037456,-0.0047 c -0.011716,0.04517 -0.04024,0.0899 -0.045953,0.135777 -0.00481,0.03862 0.013223,0.07995 0.00409,0.117049 -0.00849,0.03445 -0.033535,0.06307 -0.050313,0.09364 -0.019068,0.03474 -0.029557,0.07368 -0.049926,0.107685 -0.025643,0.04282 -0.078768,0.05239 -0.1054149,0.09366 -0.041262,0.0639 -0.063963,0.143014 -0.122371,0.19581 -0.057391,0.05188 -0.1235483,0.06213 -0.18726,0.09892 -0.04235,0.02446 -0.069692,0.06697 -0.107685,0.0967 -0.025033,0.01959 -0.058042,0.02487 -0.083409,0.04381 -0.040823,0.03048 -0.030591,0.09215 -0.075796,0.122051 -0.056135,0.03713 -0.1261683,0.06611 -0.191942,0.07941 -0.057976,0.01173 -0.108444,0.0031 -0.1591865,0.03948 -0.028659,0.02057 -0.061451,0.04506 -0.077049,0.07759 -0.015178,0.03165 -0.015758,0.07138 -0.045173,0.09463 -0.058154,0.04595 -0.143673,0.04943 -0.2054963,0.09621 -0.033544,0.02538 -0.048936,0.06578 -0.07968,0.09395 -0.064633,0.05923 -0.1410599,0.104667 -0.2059375,0.165101 -0.049007,0.04565 -0.08663,0.10463 -0.1359619,0.148407 -0.031023,0.02753 -0.075069,0.02632 -0.106686,0.05151 -0.032753,0.0261 -0.045617,0.06999 -0.075913,0.09882 -0.02715,0.02584 -0.064731,0.03502 -0.092638,0.05915 -0.026962,0.02331 -0.040574,0.05933 -0.063204,0.08648 -0.030606,0.03672 -0.072559,0.06317 -0.099286,0.103003 -0.043585,0.06496 -0.038649,0.156092 -0.078805,0.22473 -0.026574,0.04542 -0.091456,0.05156 -0.1095025,0.103012 -0.013472,0.03841 -0.027102,0.09536 -0.029068,0.135772 -0.00142,0.02921 0.00683,0.06655 -0.00636,0.09364 -0.017745,0.03645 -0.061343,0.05169 -0.078249,0.08896 -0.034989,0.07713 -0.066309,0.177085 -0.0699,0.26219 -0.00192,0.04559 0.012816,0.08996 0.00838,0.135777 -0.014142,0.146162 -0.042179,0.302672 -0.016394,0.449468 0.0057,0.03243 0.030643,0.05704 0.038126,0.08896 0.00833,0.03554 0.00272,0.0723 0.00935,0.107685 0.012738,0.06799 0.046879,0.134007 0.064599,0.201324 0.020925,0.0795 0.02431,0.160643 0.053584,0.23878 0.029212,0.07797 0.087345,0.14688 0.1262573,0.220052 0.02247,0.04225 0.01553,0.09615 0.042257,0.135758 0.022363,0.03314 0.063732,0.0442 0.088523,0.075 0.028574,0.0355 0.035563,0.08742 0.068915,0.119239 0.028919,0.02759 0.069347,0.03576 0.094954,0.06799 0.069116,0.08699 0.1000562,0.199083 0.1805571,0.280407 0.029799,0.03011 0.077495,0.03068 0.1058012,0.06185 0.03647,0.04015 -0.00465,0.104708 0.039035,0.142806 0.034353,0.02996 0.088356,0.02946 0.125903,0.05757 0.063915,0.04786 0.105136,0.127264 0.1687357,0.170414 0.099457,0.06748 0.2077344,0.139485 0.3181879,0.188497 0.054359,0.02412 0.1158693,0.02672 0.1685504,0.05507 0.062985,0.0339 0.1092853,0.095 0.1685505,0.133749 0.035252,0.02305 0.079829,0.02096 0.1170489,0.03973 0.032641,0.01647 0.057551,0.0448 0.088957,0.06334 0.034408,0.02032 0.078846,0.03108 0.1170489,0.04241 0.047512,0.01409 0.1095665,0.03202 0.1591866,0.0321 0.071862,1.16e-4 0.1483252,-0.01649 0.2200519,-0.0072 0.1148657,0.01492 0.2196611,0.06774 0.3371009,0.05909 0.034998,-0.0026 0.064542,-0.02272 0.098321,-0.02993 0.070897,-0.01512 0.1566284,-0.02398 0.2294159,-0.02576 0.077529,-0.0019 0.1561895,0.0046 0.2340979,0.0046 0.04355,-3e-6 0.087519,-0.0092 0.1310948,-0.0038 0.033606,0.0042 0.061163,0.02666 0.0936391,0.03411 0.0441037,0.01012 0.1091184,0.01092 0.15450458,0.0091 0.11286763,-0.0046 0.21886321,-0.06228 0.33241896,-0.06726 0.11528862,-0.0051 0.23164943,0.02367 0.34646482,-0.0026 0.0384547,-0.0088 0.066503,-0.03816 0.10300306,-0.0512 0.0403453,-0.01443 0.08321904,-0.01372 0.12173088,-0.03439 0.03599941,-0.01932 0.06387854,-0.04925 0.10300306,-0.06324 0.0371265,-0.01327 0.0820874,-0.02654 0.12173088,-0.02654 0.036859,-2e-6 0.0762258,0.01437 0.11236697,0.0013 0.0276368,-0.01 0.0463875,-0.03578 0.0702294,-0.05191 0.0348335,-0.02357 0.0872403,-0.04864 0.12641284,-0.06436 0.0370899,-0.01488 0.0755034,-0.0041 0.11236697,-0.01459 0.0419022,-0.01189 0.0776318,-0.04321 0.11704893,-0.0611 0.0346277,-0.01572 0.0740906,-0.01803 0.10768501,-0.03577 0.0720353,-0.03803 0.11956594,-0.111039 0.18727824,-0.152998 0.03252,-0.02015 0.076471,-0.0088 0.1071935,-0.03136 0.028407,-0.02088 0.027916,-0.06036 0.040172,-0.09035 0.017096,-0.04183 0.056154,-0.09135 0.091483,-0.119253 0.058755,-0.04641 0.140964,-0.05795 0.200819,-0.10129 0.035785,-0.02591 0.032897,-0.07414 0.058463,-0.107194 0.029447,-0.03807 0.065019,-0.0797 0.101165,-0.1115 0.041225,-0.03627 0.076477,-0.05177 0.1017846,-0.10387 0.00785,-0.01615 0.028128,-0.05992 0.00775,-0.0746 -0.016389,-0.01181 -0.062038,0.0081 -0.08145,0.0096 -0.058289,0.0044 -0.1252675,0.0021 -0.1779144,-0.02545 -0.05034,-0.02635 -0.1044639,-0.06833 -0.1591865,-0.08312 -0.035675,-0.0096 -0.072257,0.0081 -0.107685,-0.0042 -0.071087,-0.02471 -0.1326128,-0.07843 -0.2060061,-0.09947 -0.0388,-0.01112 -0.079189,0.01665 -0.11704897,0.0022 -0.0351307,-0.01342 -0.0522285,-0.05347 -0.0889572,-0.06625 -0.0283638,-0.0099 -0.0554954,3.43e-4 -0.0842752,-7.15e-4 -0.0391131,-0.0014 -0.1224693,-0.01704 -0.15450458,-0.03965 -0.0298818,-0.02109 -0.0452879,-0.06308 -0.0796116,-0.07715 -0.0267498,-0.01096 -0.0605042,-0.0037 -0.0889389,-0.01 -0.0370259,-0.0082 -0.0866322,-0.03634 -0.11684546,-0.0593 -0.0399132,-0.03032 -0.0325634,-0.08428 -0.0594252,-0.122721 -0.0435779,-0.06237 -0.1175313,-0.117778 -0.17098974,-0.172814 -0.0283226,-0.02916 -0.06619894,-0.06732 -0.10220749,-0.08622 -0.04397793,-0.02308 -0.08450384,-0.02113 -0.12154571,-0.05936 -0.07780782,-0.08029 -0.12760162,-0.173695 -0.18496702,-0.266854 -0.0180923,-0.02938 -0.0442751,-0.05302 -0.0595166,-0.08427 -0.0138744,-0.02845 -0.0192994,-0.06028 -0.0331463,-0.08896 -0.0258125,-0.05345 -0.0658514,-0.107728 -0.0840695,-0.163869 -0.0199738,-0.06155 -0.0204881,-0.132891 -0.0359743,-0.196642 -0.0112751,-0.04641 -0.0200675,-0.101087 -0.0378397,-0.14514 -0.0277831,-0.06888 -0.0536596,-0.103682 -0.0461177,-0.182597 0.005093,-0.05329 0.0219604,-0.121415 0.0476746,-0.16855 0.0143248,-0.02626 0.0387953,-0.04649 0.0492268,-0.07491 0.0159068,-0.04333 -6.8126e-4,-0.09136 0.0168441,-0.135776 0.0290542,-0.07364 0.0889709,-0.142558 0.13528524,-0.206006 0.0365641,-0.05009 0.0672643,-0.104981 0.10417354,-0.154505 0.0357959,-0.04803 0.0787954,-0.03895 0.12824173,-0.05906 0.03485635,-0.01417 0.07040996,-0.03989 0.10293448,-0.05933 0.04817981,-0.02879 0.04188157,-0.09043 0.08454727,-0.122042 0.0284187,-0.02105 0.0661921,-0.01699 0.0981176,-0.02908 0.0399315,-0.01512 0.0775243,-0.04948 0.11234868,-0.07391 0.0489982,-0.03437 0.076651,-0.0917 0.12643113,-0.12746 0.0268618,-0.01929 0.0564578,-0.03977 0.0889572,-0.0477 0.0380523,-0.0093 0.0773186,-0.0044 0.11236697,-0.02497 0.0643152,-0.03779 0.10598872,-0.09449 0.1638685,-0.138056 0.0339716,-0.02557 0.0800048,-0.02011 0.11704893,-0.03863 0.037858,-0.01893 0.0605934,-0.05823 0.0983211,-0.07607 0.038418,-0.01817 0.081946,0.0055 0.1217309,-0.0088 0.036452,-0.01316 0.059597,-0.04828 0.093639,-0.06571 0.067957,-0.03479 0.1523762,-0.05788 0.224734,-0.08312 0.03925,-0.01369 0.077716,7.36e-4 0.1170489,-0.0083 0.042547,-0.0098 0.071258,-0.04692 0.112367,-0.05932 0.041068,-0.01239 0.085677,-0.0026 0.1264128,-0.01591 0.07535,-0.02471 0.1389499,-0.08973 0.21537,-0.110538 0.029717,-0.0081 0.059409,0.0078 0.088957,0.0099 0.043813,0.0031 0.102084,-0.0055 0.1451407,-0.01498 0.035716,-0.0078 0.063828,-0.03282 0.098321,-0.04339 0.075021,-0.02299 0.1554373,-0.02905 0.2294159,-0.05132 0.072237,-0.02174 0.1425139,-0.05737 0.21537,-0.07816 0.081936,-0.02338 0.1744738,-0.0086 0.2575076,-0.02461 0.049901,-0.0096 0.06956,-0.05891 0.112367,-0.0794 0.038349,-0.01836 0.083736,-0.0036 0.1217309,-0.02164 0.043589,-0.02072 0.067644,-0.06686 0.112367,-0.08726 0.063828,-0.02911 0.1341947,-0.04744 0.1966422,-0.07812 0.074829,-0.03677 0.1400129,-0.0831 0.210688,-0.125784 0.031606,-0.01909 0.073288,-0.02173 0.1021367,-0.04476 0.035695,-0.0285 0.038018,-0.08102 0.071169,-0.112883 0.056574,-0.05438 0.1124218,-0.113423 0.1778412,-0.157415 0.031183,-0.02097 0.075186,-0.0232 0.1020018,-0.05001 0.026322,-0.02632 0.025337,-0.06763 0.046177,-0.09732 0.025456,-0.03626 0.068844,-0.0531 0.09844,-0.08508 0.031928,-0.03449 0.044627,-0.08145 0.076859,-0.116251 0.094391,-0.101901 0.2293633,-0.14868 0.3112815,-0.26219 0.036429,-0.05048 0.027527,-0.09073 0.046689,-0.14514 0.025335,-0.07194 0.067946,-0.141481 0.1080188,-0.206006 0.044936,-0.07236 0.1259716,-0.117063 0.1778686,-0.182615 0.020587,-0.026 0.023481,-0.05883 0.034909,-0.08894 0.01585,-0.04175 0.039552,-0.08192 0.059668,-0.121731 0.01782,-0.03527 0.052103,-0.06093 0.065815,-0.09832 0.017368,-0.04736 -0.00882,-0.09794 0.00965,-0.145141 0.038667,-0.09883 0.124193,-0.189164 0.1393979,-0.294963 0.00589,-0.04101 -0.020721,-0.07765 -0.0156,-0.117049 0.00436,-0.03354 0.030469,-0.05893 0.043413,-0.08896 0.012768,-0.02961 0.013131,-0.06652 0.01531,-0.09832 0.00327,-0.04775 -0.0182,-0.104535 -0.00633,-0.149823 0.016222,-0.06192 0.087992,-0.109002 0.1111645,-0.173232 0.018641,-0.05168 0.039237,-0.110127 0.050496,-0.163869 0.00406,-0.01938 -0.014044,-0.04372 -0.00566,-0.05986 0.014949,-0.02878 0.068833,-0.02761 0.091732,-0.05031 0.032803,-0.03252 0.019935,-0.08762 0.058865,-0.116187 0.032305,-0.0237 0.081658,-0.01392 0.1058333,-0.05036 0.060996,-0.09194 0.069932,-0.207855 0.1224396,-0.303836 0.016878,-0.03085 0.044664,-0.05392 0.062381,-0.08428 0.020964,-0.03592 0.030517,-0.07783 0.053726,-0.112367 0.03853,-0.05733 0.087222,-0.108272 0.1144611,-0.173232 0.027717,-0.0661 0.012276,-0.153316 0.044047,-0.21537 0.01771,-0.03459 0.054908,-0.05468 0.073729,-0.08896 0.035185,-0.06409 0.052235,-0.142178 0.096392,-0.201142 0.016417,-0.02192 0.040926,-0.03605 0.058294,-0.05716 0.049542,-0.06021 0.09996,-0.141126 0.1267192,-0.214574 0.041328,-0.113432 0.00756,-0.215674 0.022845,-0.332419 0.00637,-0.04866 0.044522,-0.07846 0.040857,-0.131095 -0.00456,-0.06547 -0.018792,-0.155492 -0.045953,-0.21537 -0.015237,-0.03359 -0.04794,-0.05766 -0.058326,-0.09364 -0.011892,-0.0412 0.011977,-0.08518 -0.00285,-0.126413 -0.015321,-0.04262 -0.056858,-0.07009 -0.06333,-0.117049 -0.010946,-0.07942 0.032296,-0.161088 0.034895,-0.23878 0.00126,-0.03754 -0.016554,-0.07122 -0.021805,-0.107685 -0.010672,-0.07409 -0.010063,-0.150152 -0.022191,-0.224734 -0.0082,-0.05041 -0.049412,-0.077 -0.06838,-0.121731 -0.017413,-0.04106 -0.00744,-0.08859 -0.023506,-0.131094 -0.024983,-0.06608 -0.071512,-0.116382 -0.1027173,-0.177915 -0.028592,-0.05637 -0.039287,-0.120354 -0.069198,-0.177914 -0.025053,-0.04821 -0.066533,-0.08572 -0.087958,-0.135777 -0.030428,-0.07109 -0.04893,-0.154911 -0.09144,-0.220052 -0.05983,-0.09168 -0.1589808,-0.164703 -0.2391707,-0.236356 -0.021197,-0.01894 -0.049156,-0.02799 -0.068364,-0.04944 -0.025456,-0.02844 -0.022399,-0.06477 -0.036029,-0.09812 -0.013198,-0.03229 -0.039342,-0.06143 -0.060363,-0.08894 -0.050507,-0.06609 -0.1295837,-0.09546 -0.173125,-0.173251 -0.01993,-0.0356 0.00135,-0.08535 -0.023796,-0.116557 -0.024089,-0.0299 -0.068593,-0.03381 -0.095868,-0.06156 -0.027614,-0.02809 -0.044625,-0.06455 -0.071466,-0.09325 -0.025186,-0.02693 -0.058922,-0.04434 -0.080423,-0.0751 -0.019795,-0.02832 -0.019798,-0.06651 -0.042337,-0.0932 -0.035252,-0.04175 -0.085254,-0.05493 -0.1182789,-0.10344 -0.03276,-0.04812 -0.060383,-0.0985 -0.077579,-0.154505 -0.00895,-0.02916 -0.00705,-0.06038 -0.018227,-0.08896 -0.024029,-0.06143 -0.062351,-0.106041 -0.078425,-0.173232 -0.011223,-0.04692 0.024326,-0.108256 0.00193,-0.149386 -0.025922,-0.04761 -0.099796,-0.03509 -0.1295311,-0.08478 -0.037177,-0.06213 -0.085587,-0.145109 -0.1035471,-0.215301 -0.016542,-0.06465 -0.01317,-0.13242 -0.03851,-0.196642 -0.028343,-0.07184 -0.090032,-0.129186 -0.1201329,-0.201324 -0.015232,-0.0365 -0.00438,-0.07644 -0.023712,-0.112367 -0.03335,-0.06199 -0.08527,-0.11072 -0.1238364,-0.168551 -0.021021,-0.03152 -0.027045,-0.07283 -0.051504,-0.10202 -0.024578,-0.02933 -0.068755,-0.03084 -0.092348,-0.06205 -0.019832,-0.02623 -0.021947,-0.05985 -0.035686,-0.08876 -0.029962,-0.06304 -0.06336,-0.124237 -0.093203,-0.187278 -0.017363,-0.03668 -0.047583,-0.06409 -0.068551,-0.09832 -0.021341,-0.03484 -0.028133,-0.07539 -0.044513,-0.112367 -0.013001,-0.02935 -0.034077,-0.05454 -0.046196,-0.08427 -0.028165,-0.06912 -0.02702,-0.149266 -0.050955,-0.220052 -0.011984,-0.03544 -0.048573,-0.05245 -0.065879,-0.08428 -0.019146,-0.03521 -0.017466,-0.09625 -0.019197,-0.135777 -0.00467,-0.106725 0.040336,-0.208326 0.03105,-0.313691 -0.00418,-0.04746 -0.051797,-0.07257 -0.058207,-0.117049 -0.00577,-0.04004 0.036267,-0.07714 0.022603,-0.117031 -0.011895,-0.03473 -0.058465,-0.04236 -0.084401,-0.06336 -0.031377,-0.02541 -0.060061,-0.07356 -0.077287,-0.109889 -0.017992,-0.03795 0.00393,-0.08353 -0.011902,-0.121662 -0.015424,-0.03715 -0.063472,-0.04969 -0.084188,-0.08434 -0.0191,-0.03195 -0.010498,-0.07302 -0.020829,-0.107685 -0.011652,-0.03909 -0.040206,-0.06966 -0.054355,-0.107685 -0.01443,-0.03878 0.00117,-0.08561 -0.019802,-0.121547 -0.017436,-0.02987 -0.054656,-0.04282 -0.075798,-0.07042 -0.040407,-0.05274 -0.069621,-0.121159 -0.1057487,-0.17791 -0.039362,-0.06183 -0.091929,-0.12021 -0.1224122,-0.187279 -0.020628,-0.04538 0.012345,-0.08568 0.014489,-0.131095 0.0021,-0.0444 -0.034047,-0.07861 -0.036459,-0.12173 -0.00182,-0.03261 0.018122,-0.05847 0.025108,-0.08896 0.00676,-0.02947 0.00105,-0.0643 -0.00438,-0.09364 -0.014611,-0.07895 -0.077936,-0.06389 -0.1227024,-0.112858 -0.023917,-0.02616 -0.031302,-0.06266 -0.047892,-0.09315 -0.031958,-0.05873 -0.070744,-0.113377 -0.091671,-0.177914 -0.012036,-0.03712 0.00206,-0.07443 0.00224,-0.112367 3.36e-4,-0.06926 -0.012889,-0.142231 -0.00688,-0.210688 0.00523,-0.0596 0.028135,-0.09804 0.00951,-0.159187 -0.026521,-0.0871 -0.137089,-0.12765 -0.1992004,-0.183463 -0.055045,-0.04946 -0.091433,-0.149991 -0.114701,-0.219185 -0.013628,-0.04052 -0.030348,-0.09261 -0.028309,-0.135777 0.0015,-0.03166 0.018202,-0.06241 0.023721,-0.09364 0.00682,-0.03861 0.00217,-0.08256 0.00217,-0.121731 -4.6e-6,-0.04173 -0.035298,-0.07783 -0.031567,-0.117049 0.00262,-0.02757 0.024736,-0.049 0.032511,-0.07491 0.011789,-0.03929 -8.458e-4,-0.09245 -0.011024,-0.131095 -0.019535,-0.07417 -0.040679,-0.136291 -0.090409,-0.196638 -0.024772,-0.03006 -0.059123,-0.0481 -0.086714,-0.0751 -0.045398,-0.04443 -0.082314,-0.09792 -0.1112216,-0.154319 -0.032097,-0.06262 -0.00315,-0.08888 0.011712,-0.149823 0.00972,-0.03988 0.00577,-0.08152 2.72e-4,-0.121731 -0.00632,-0.0462 -0.047197,-0.06983 -0.068983,-0.107685 -0.020957,-0.03641 -0.025856,-0.08994 -0.031043,-0.131095 -0.00481,-0.03813 0.028131,-0.06865 0.025508,-0.107685 -0.0023,-0.03421 -0.023702,-0.06404 -0.025863,-0.09832 -0.00227,-0.03604 0.011412,-0.0714 0.00619,-0.107685 -0.00456,-0.03162 -0.025268,-0.06122 -0.023794,-0.09364 0.00217,-0.04767 0.060973,-0.08033 0.045551,-0.131095 -0.00788,-0.02592 -0.03022,-0.04455 -0.045971,-0.06555 -0.016526,-0.02203 -0.023803,-0.04877 -0.042119,-0.06981 -0.035965,-0.04131 -0.074843,-0.0714 -0.09953,-0.122149 -0.023067,-0.04742 0.015545,-0.10881 -0.025202,-0.148957 -0.065952,-0.06498 -0.2169018,-0.106649 -0.2445774,-0.20219 -0.00913,-0.03152 0.012743,-0.06264 0.015235,-0.09364 0.00335,-0.0417 -0.028282,-0.08181 -0.019112,-0.121731 0.00801,-0.03486 0.02034,-0.08632 0.038233,-0.117049 0.013895,-0.02386 0.039435,-0.04273 0.046477,-0.07023 0.00803,-0.03135 -0.00476,-0.07239 -0.012041,-0.103004 -0.01953,-0.0821 -0.1020224,-0.139434 -0.1202175,-0.224733 -0.026617,-0.124795 -0.036891,-0.253011 -0.05328,-0.379239 -0.00542,-0.04171 0.011956,-0.08663 -0.00422,-0.126413 -0.013294,-0.03269 -0.044405,-0.0526 -0.065529,-0.07959 -0.022886,-0.02924 -0.026553,-0.06809 -0.047711,-0.09832 -0.025127,-0.0359 -0.066741,-0.05967 -0.087942,-0.09832 -0.034534,-0.06295 -0.02469,-0.131861 -0.0431,-0.196643 -0.010139,-0.03568 -0.037924,-0.06288 -0.048868,-0.09832 -0.012043,-0.03901 -0.00883,-0.08439 -0.024845,-0.121731 -0.011195,-0.0261 -0.033976,-0.047 -0.041269,-0.07491 -0.011588,-0.04435 0.036715,-0.08658 0.038894,-0.131095 0.00203,-0.04141 0.00572,-0.09047 -0.00294,-0.131094 -0.00723,-0.0339 -0.02709,-0.06412 -0.032799,-0.09832 -0.00677,-0.04056 0.00893,-0.08117 0.00162,-0.12173 -0.00758,-0.04206 -0.048431,-0.06601 -0.066144,-0.103004 -0.034465,-0.07199 -0.054325,-0.150908 -0.084259,-0.224734 -0.012699,-0.03132 -0.034186,-0.05793 -0.047204,-0.08896 -0.020539,-0.04895 0.00587,-0.09883 -0.0034,-0.149822 -0.00637,-0.03501 -0.015134,-0.07562 -0.030712,-0.107685 -0.011588,-0.02385 -0.03204,-0.04436 -0.039159,-0.07023 -0.00971,-0.0353 0.021382,-0.06821 0.023821,-0.103003 0.00255,-0.03645 -0.014615,-0.07119 -0.01339,-0.107685 0.0013,-0.03873 0.024843,-0.07047 0.031775,-0.107685 0.00695,-0.03731 -0.00289,-0.07479 0.00166,-0.112367 0.00542,-0.0447 0.034132,-0.08429 0.026176,-0.131095 -0.0061,-0.03587 -0.041422,-0.06012 -0.060504,-0.08896 -0.0267726,-0.04045 -0.0516958,-0.115878 -0.0587668,-0.163868 -0.010827,-0.07348 -0.001084,-0.150701 -0.006513,-0.224734 -0.002766,-0.03772 -0.0258765,-0.07413 -0.0220518,-0.112367 0.004401,-0.044 0.0460011,-0.07351 0.0500704,-0.117049 0.004435,-0.04745 -0.0253621,-0.08775 -0.0163434,-0.135777 0.006792,-0.03617 0.00876,-0.08499 0.0272687,-0.117049 0.0202481,-0.03507 0.0584102,-0.05907 0.0595441,-0.103003 0.00113,-0.04368 -0.0095,-0.100603 -0.027383,-0.140459 -0.012288,-0.02738 -0.04059,-0.05379 -0.043443,-0.08428 -0.0105801,-0.113094 0.0765504,-0.192653 0.0802448,-0.304327 0.00133,-0.0403 -0.024208,-0.06978 -0.031036,-0.107685 -0.00687,-0.03815 -0.019366,-0.08307 -0.019425,-0.121731 -5.48e-5,-0.03602 0.014318,-0.07158 0.012718,-0.107685 -0.00167,-0.03767 -0.020218,-0.07463 -0.017372,-0.112367 0.00281,-0.03723 0.015136,-0.09287 0.031089,-0.126413 0.015516,-0.03263 0.039943,-0.05673 0.046298,-0.09364 0.00642,-0.03726 0.020317,-0.08421 0.013847,-0.121731 -0.00511,-0.02964 -0.028531,-0.05788 -0.023652,-0.08896 0.00656,-0.04175 0.04821,-0.06806 0.048226,-0.112367 1.6e-5,-0.04367 -0.029706,-0.08068 -0.049668,-0.117049 -0.02733,-0.04979 -0.064235,-0.126052 -0.070821,-0.182596 -0.00388,-0.03332 0.011175,-0.06572 0.015856,-0.09832 0.00597,-0.04159 0.00447,-0.08918 0.00159,-0.131095 -0.00455,-0.06604 -0.0354645,-0.132154 -0.0367836,-0.196642 -8.5272e-4,-0.04167 0.0259246,-0.07975 0.0215626,-0.121731 -0.00357,-0.0344 -0.0318021,-0.06382 -0.0321313,-0.09832 -4.6865e-4,-0.04923 0.0620382,-0.07427 0.0562497,-0.126413 -0.00772,-0.06953 -0.0608357,-0.13227 -0.0828852,-0.196643 -0.0140482,-0.04101 0.0111951,-0.08584 -0.005231,-0.126412 -0.0143385,-0.03542 -0.0530584,-0.05472 -0.0701859,-0.08896 -0.0147043,-0.02939 -0.008904,-0.0637 -0.0209865,-0.09364 -0.0165354,-0.04097 -0.0339099,-0.09248 -0.0548072,-0.131094 -0.0122284,-0.0226 -0.0321747,-0.04128 -0.041278,-0.06555 -0.0158588,-0.04228 0.03308,-0.08242 0.0201704,-0.120211 -0.0111265,-0.03256 -0.0608083,-0.07529 -0.0821514,-0.104523 -0.0290336,-0.03976 -0.0491994,-0.105431 -0.0542289,-0.154504 -0.008059,-0.07862 0.0626989,-0.148337 0.0640889,-0.224734 7.0412e-4,-0.03868 -0.0418336,-0.05932 -0.0602482,-0.08896 -0.0161377,-0.02598 -0.0187118,-0.05784 -0.0343991,-0.08427 -0.0210962,-0.03555 -0.0576512,-0.05271 -0.0859029,-0.081 -0.0199623,-0.01999 -0.0309151,-0.04837 -0.0533419,-0.06584 -0.0311163,-0.02424 -0.0873615,-0.05465 -0.12597619,-0.06238 -0.0274196,-0.0055 -0.0577289,-0.0015 -0.0842752,-0.0091 -0.0435916,-0.01253 -0.0722137,-0.05346 -0.11236697,-0.07275 -0.0389554,-0.01871 -0.08349338,-0.01158 -0.12173088,-0.03418 -0.0623217,-0.03683 -0.12002774,-0.08176 -0.18259633,-0.118553 -0.0344814,-0.02028 -0.0752451,-0.03167 -0.10761643,-0.05544 -0.0291434,-0.0214 -0.0439208,-0.05729 -0.0749845,-0.07663 -0.0339556,-0.02114 -0.0778261,-0.01483 -0.11217722,-0.03524 -0.0431892,-0.02567 -0.0549787,-0.07667 -0.10318823,-0.09906 -0.0672025,-0.0312 -0.13741819,-0.05351 -0.21068807,-0.06548 -0.0291936,-0.0048 -0.0603785,0.0035 -0.0889572,-0.0053 -0.048269,-0.0149 -0.0726686,-0.05851 -0.12641284,-0.06513 -0.0323782,-0.004 -0.0756109,-0.0086 -0.10768501,-0.0039 -0.027159,0.0039 -0.056691,0.01852 -0.084275,0.01493 -0.043923,-0.0057 -0.074317,-0.04203 -0.1217309,-0.03421 -0.030234,0.005 -0.058742,0.01881 -0.088957,0.0244 -0.044181,0.0082 -0.092677,0.0077 -0.1357768,0.01991 -0.032252,0.0092 -0.063387,0.03805 -0.098321,0.03604 -0.040375,-0.0023 -0.066882,-0.04601 -0.107685,-0.04779 -0.037597,-0.0016 -0.065428,0.03308 -0.098321,0.04554 -0.030847,0.01168 -0.07469,0.01008 -0.107685,0.01322 -0.082474,0.0079 -0.1701324,-0.0051 -0.2528257,-0.0088 -0.029646,-0.0013 -0.059217,-0.01436 -0.088957,-0.0066 -0.038247,0.01002 -0.057679,0.05011 -0.093639,0.06475 -0.03589,0.01461 -0.076784,0.0093 -0.112367,0.02588 -0.034324,0.016 -0.056753,0.04869 -0.093639,0.06023 -0.027762,0.0087 -0.056412,0.0018 -0.084275,0.0082 -0.032131,0.0074 -0.065044,0.02769 -0.093639,0.0437 -0.076411,0.04276 -0.129698,0.12149 -0.2060061,0.167076 -0.031372,0.01874 -0.066674,0.04457 -0.103003,0.05143 -0.02779,0.0053 -0.062715,-0.0055 -0.088091,0.009 -0.026709,0.01526 -0.032538,0.05271 -0.047124,0.07738 -0.013394,0.02266 -0.034296,0.03501 -0.056746,0.04753 -0.024861,0.01388 -0.055473,0.03572 -0.084275,0.0385 -0.033027,0.0032 -0.065426,-0.01335 -0.098321,-0.0024 -0.040373,0.01346 -0.065102,0.05515 -0.107685,0.06441 -0.035659,0.0078 -0.07872,-0.0085 -0.1123624,0.008 -0.035599,0.01741 -0.047803,0.06117 -0.08428,0.07848 -0.063012,0.0299 -0.1518276,0.02375 -0.2098217,0.0658 -0.02613,0.01894 -0.032296,0.05391 -0.050672,0.0789 -0.020621,0.02804 -0.056618,0.04861 -0.085972,0.0665 -0.044255,0.02697 -0.099403,0.0072 -0.1389385,0.03195 -0.031295,0.01958 -0.049311,0.05986 -0.081113,0.08092 -0.028092,0.0186 -0.066706,0.01099 -0.092773,0.03334 -0.026171,0.02245 -0.033146,0.06463 -0.066483,0.07945 -0.030888,0.01373 -0.074157,-0.0084 -0.1076164,-0.0061 -0.067036,0.0046 -0.1295242,0.02482 -0.1919602,0.04839 -0.1155035,0.0436 -0.2082145,0.135619 -0.332419,0.151155 -0.041783,0.0052 -0.080428,-0.02216 -0.1217309,-0.01635 -0.032657,0.0046 -0.05852,0.03032 -0.088957,0.0413 -0.038347,0.01383 -0.095011,0.02017 -0.1357768,0.02225 -0.04829,0.0025 -0.085793,-0.04142 -0.1357768,-0.02691 -0.03856,0.0112 -0.089394,0.029 -0.120917,0.05429 -0.022454,0.01801 -0.03332,0.04636 -0.053179,0.06675 -0.030382,0.03119 -0.085464,0.06363 -0.1255487,0.08065 -0.042684,0.01812 -0.088447,-0.0073 -0.1310765,0.01311 -0.043381,0.02078 -0.055877,0.07607 -0.1030214,0.09339 -0.037517,0.01378 -0.0808,-0.0045 -0.1170443,0.01532 -0.04203,0.02297 -0.052164,0.07658 -0.08903,0.105069 -0.028119,0.02173 -0.067353,0.02192 -0.098253,0.03879 -0.063122,0.03446 -0.120142,0.08393 -0.1825963,0.115926 -0.070666,0.0362 -0.1492854,0.06723 -0.2247339,0.09188 -0.033101,0.01082 -0.071388,0.0103 -0.1025665,0.02654 -0.048808,0.02542 -0.057539,0.0973 -0.1128036,0.125023 -0.094787,0.04755 -0.2211927,0.03928 -0.3136225,0.09033 -0.067856,0.03748 -0.097146,0.129995 -0.1686191,0.169387 -0.036185,0.01994 -0.07851,0.01354 -0.1170489,0.02502 -0.040563,0.01209 -0.071932,0.04433 -0.112367,0.05582 -0.031022,0.0088 -0.066453,8.49e-4 -0.098321,0.0034 -0.03476,0.0028 -0.074429,0.01709 -0.107685,0.02779 -0.043153,0.01389 -0.06437,0.05179 -0.103003,0.07157 -0.037501,0.01919 -0.082773,0.01265 -0.1217309,0.02722 -0.034872,0.01304 -0.062189,0.04234 -0.098321,0.0526 -0.038664,0.01097 -0.079234,-0.0167 -0.1170455,-0.0022 -0.039978,0.01534 -0.04976,0.06723 -0.088979,0.08435 -0.031716,0.01385 -0.065833,-0.0048 -0.098303,-0.0036 -0.037849,0.0014 -0.081708,0.0224 -0.1170489,0.03541 -0.07465,0.02749 -0.1290076,0.09882 -0.2013242,0.130021 -0.04092,0.01766 -0.085577,-0.01578 -0.1264128,0.0046 -0.035353,0.01768 -0.054555,0.05723 -0.088957,0.07639 -0.034536,0.01923 -0.079797,0.012 -0.1121795,0.03623 -0.029083,0.02176 -0.039245,0.06059 -0.070601,0.08024 -0.032348,0.02027 -0.078662,0.04751 -0.1168649,0.05228 -0.031059,0.0039 -0.063618,-0.0077 -0.093639,0.0019 -0.037977,0.01216 -0.056307,0.05326 -0.093639,0.06588 -0.038561,0.01304 -0.07808,-0.01367 -0.1170489,-0.0035 -0.039906,0.01045 -0.062193,0.05165 -0.103003,0.06181 -0.093911,0.02338 -0.1986137,0.02865 -0.2949637,0.04614 -0.04329,0.0079 -0.08314,0.03365 -0.126412,0.03838 -0.03341,0.0037 -0.06489,-0.01454 -0.09832,-0.01266 -0.04127,0.0023 -0.07769,0.03029 -0.117049,0.04089 -0.03537,0.0095 -0.07211,0.0027 -0.107685,0.0124 -0.05744,0.0157 -0.114365,0.05105 -0.16855,0.07586 -0.04766,0.02182 -0.09987,0.03726 -0.145141,0.06396 -0.03133,0.01848 -0.05451,0.04699 -0.08896,0.06064 -0.03347,0.01327 -0.07181,0.03157 -0.107685,0.03592 -0.03162,0.0038 -0.06807,-0.0074 -0.09832,0.0048 -0.03957,0.01602 -0.05444,0.06943 -0.09832,0.07752 -0.02863,0.0053 -0.0596,-0.01234 -0.08896,-0.01193 -0.04416,6.26e-4 -0.09502,0.0233 -0.135777,0.03947 -0.03325,0.01319 -0.07842,0.02605 -0.10633,0.04846 -0.02611,0.02096 -0.04178,0.05972 -0.07627,0.06914 -0.0372,0.01016 -0.07479,-0.01404 -0.112367,-0.0055 -0.03616,0.0082 -0.05897,0.04396 -0.09364,0.05638 -0.03631,0.01301 -0.07518,-0.0059 -0.112367,-6.4e-4 -0.03753,0.0053 -0.07016,0.03246 -0.107685,0.03498 -0.04362,0.0029 -0.07998,-0.05905 -0.121728,-0.04717 -0.03832,0.0109 -0.05082,0.06574 -0.08435,0.08527 -0.03648,0.02125 -0.0825,-0.0049 -0.121662,0.0084 -0.0387,0.01309 -0.05815,0.05622 -0.09832,0.06786 -0.0374,0.01084 -0.07771,-0.01081 -0.117048,-0.0014 -0.06627,0.01586 -0.130291,0.04145 -0.196643,0.0572 -0.07657,0.01817 -0.153847,0.02697 -0.229416,0.05061 -0.03528,0.01103 -0.06184,0.04102 -0.09832,0.04938 -0.03536,0.0081 -0.07182,-0.0092 -0.107685,-0.0015 -0.04271,0.0092 -0.06101,0.05901 -0.103003,0.06761 -0.02761,0.0057 -0.05657,-0.01082 -0.08427,-0.01194 -0.03748,-0.0015 -0.07696,0.01207 -0.112367,0.02335 -0.05197,0.01656 -0.06403,0.07698 -0.112367,0.09239 -0.02958,0.0094 -0.06345,-0.01243 -0.09364,-0.01284 -0.04004,-5.54e-4 -0.08056,0.01943 -0.117046,0.03432 -0.0409,0.01669 -0.05281,0.06039 -0.08898,0.08262 -0.03303,0.02029 -0.07641,0.01783 -0.112349,0.03068 -0.03473,0.01241 -0.06297,0.04053 -0.09832,0.05063 -0.04072,0.01164 -0.08201,-0.02109 -0.121713,-0.0039 -0.03785,0.01642 -0.05552,0.0598 -0.09366,0.07659 -0.06716,0.02957 -0.141303,0.05335 -0.210688,0.07755 -0.03053,0.01065 -0.0653,0.01103 -0.09357,0.02767 -0.03547,0.02088 -0.0465,0.06747 -0.08434,0.0864 -0.03126,0.01564 -0.07374,0.0018 -0.107685,0.013 -0.03328,0.01102 -0.06214,0.03458 -0.09364,0.04971 -0.0378,0.01816 -0.07873,0.02848 -0.117049,0.04523 -0.06566,0.02869 -0.124096,0.09415 -0.19196,0.114591 -0.04383,0.0132 -0.08671,-0.02077 -0.131095,-0.008 -0.02872,0.0083 -0.05271,0.02977 -0.07959,0.04232 -0.071,0.03314 -0.153945,0.07254 -0.229416,0.09286 -0.0345,0.0093 -0.06824,-0.0018 -0.103003,0.0045 -0.04792,0.0086 -0.08775,0.03916 -0.135777,0.04729 -0.107886,0.01827 -0.215295,0.01472 -0.323055,0.02626 -0.07088,0.0076 -0.150636,0.03253 -0.220052,0.0502 -0.04961,0.01262 -0.105082,0.03386 -0.149822,0.05873 -0.0326,0.01812 -0.07094,0.05018 -0.107685,0.05797 -0.04527,0.0096 -0.09144,-0.03586 -0.140459,-0.01928 -0.0325,0.01099 -0.04948,0.04486 -0.07959,0.05959 -0.05511,0.02696 -0.127804,0.03558 -0.187279,0.0501 -0.03033,0.0074 -0.05838,0.02395 -0.08896,0.02967 -0.04627,0.0087 -0.07478,-0.03846 -0.117049,-0.04635 -0.03799,-0.0071 -0.0765,0.01883 -0.112367,0.02693 -0.03196,0.0072 -0.06687,0.0012 -0.09832,0.01186 -0.03953,0.01343 -0.05983,0.05592 -0.09832,0.07203 -0.06272,0.02626 -0.136019,0.01797 -0.196642,0.04171 -0.03729,0.0146 -0.0539,0.05615 -0.08896,0.07423 -0.06529,0.03368 -0.138263,0.04108 -0.206002,0.06597 -0.03042,0.01118 -0.05445,0.03439 -0.08421,0.04652 -0.03672,0.01498 -0.07106,-0.01269 -0.107754,-0.01398 -0.04036,-0.0014 -0.08671,0.02479 -0.121731,0.04316 -0.0316,0.01658 -0.05383,0.04491 -0.08428,0.06262 -0.03522,0.02049 -0.07942,0.02619 -0.11193,0.05151 -0.0263,0.02048 -0.03799,0.05392 -0.06599,0.07357 -0.03205,0.0225 -0.07416,0.0195 -0.107681,0.03939 -0.09159,0.05434 -0.177684,0.127149 -0.280918,0.161473 -0.03115,0.01036 -0.07957,0.03097 -0.112367,0.02304 -0.02994,-0.0072 -0.05291,-0.033 -0.08427,-0.0363 -0.03488,-0.0037 -0.06855,0.01755 -0.103003,0.01968 -0.03607,0.0022 -0.07198,-0.01144 -0.107685,-0.01061 -0.115106,0.0027 -0.196708,0.0832 -0.304327,0.113387 -0.05239,0.01469 -0.102073,-0.01855 -0.154505,-0.0037 -0.0688,0.01953 -0.155659,0.05537 -0.21537,0.09512 -0.02864,0.01907 -0.04817,0.05055 -0.07959,0.06543 -0.02787,0.0132 -0.06035,0.01062 -0.08896,0.02191 -0.03504,0.01383 -0.06401,0.03974 -0.09832,0.05526 -0.09136,0.04135 -0.192469,0.07784 -0.276236,0.133628 -0.03518,0.02343 -0.06954,0.06409 -0.09476,0.09783 -0.01467,0.01963 -0.02712,0.04966 -0.05045,0.06055 -0.0294,0.01373 -0.06228,-0.01783 -0.09357,-0.0037 -0.02991,0.0135 -0.04879,0.04319 -0.07491,0.0619 -0.05955,0.04265 -0.148861,0.09781 -0.220052,0.116273 -0.03998,0.01037 -0.08023,-0.01854 -0.121731,-0.0077 -0.04223,0.01106 -0.06741,0.05455 -0.112367,0.06133 -0.03507,0.0053 -0.07369,-0.01367 -0.107616,0.0037 -0.02986,0.01533 -0.04107,0.05203 -0.06058,0.07727 -0.02647,0.03424 -0.07154,0.07132 -0.108039,0.09458 -0.03657,0.02331 -0.08285,0.0069 -0.121731,0.0227 -0.03976,0.01611 -0.05834,0.06301 -0.09832,0.07886 -0.07341,0.0291 -0.156404,0.01311 -0.229416,0.03313 -0.04589,0.01258 -0.07414,0.06555 -0.121731,0.07069 -0.03309,0.0036 -0.06163,-0.01884 -0.09364,-0.02267 -0.04457,-0.0053 -0.07898,0.02605 -0.121731,0.02637 -0.0445,3.29e-4 -0.08561,-0.02643 -0.131095,-0.01537 -0.0462,0.01123 -0.06612,0.06654 -0.103003,0.09284 -0.05615,0.04003 -0.130858,0.06526 -0.19196,0.09814 -0.02941,0.01583 -0.05042,0.04311 -0.07959,0.05899 -0.06309,0.03434 -0.130907,0.02684 -0.196643,0.02395 -0.02987,-0.0013 -0.05895,0.0074 -0.08896,0.0044 -0.03121,-0.0031 -0.06173,-0.01869 -0.09364,-0.01293 -0.03714,0.0067 -0.05417,0.04996 -0.07966,0.07334 -0.0262,0.02402 -0.06382,0.03239 -0.09825,0.03662 -0.06414,0.0079 -0.127163,-0.01814 -0.19196,-0.01737 -0.135454,0.0016 -0.268217,0.0275 -0.402649,0.04071 -0.03117,0.0031 -0.06256,-0.01018 -0.09364,-0.007 -0.04915,0.005 -0.07612,0.05721 -0.126413,0.05974 -0.03604,0.0018 -0.08229,0.0017 -0.117049,-0.0082 -0.03178,-0.009 -0.05866,-0.03309 -0.09364,-0.02806 -0.04114,0.0059 -0.0651,0.05251 -0.107685,0.05231 -0.107913,-5.1e-4 -0.207074,-0.04347 -0.313691,-0.05252 -0.0437,-0.0037 -0.0837,0.02479 -0.126413,0.02155 -0.03781,-0.0029 -0.06906,-0.03189 -0.107685,-0.03112 -0.07307,0.0014 -0.169062,0.01598 -0.23878,0.03788 -0.03748,0.01178 -0.06724,0.04203 -0.107685,0.04535 -0.171958,0.01411 -0.379208,0.0041 -0.538407,0.08029 -0.04076,0.01949 -0.04692,0.07046 -0.08436,0.09334 -0.04279,0.02615 -0.09573,-0.0013 -0.14039,0.02916 -0.06186,0.04219 -0.09051,0.09797 -0.140895,0.148357 -0.03949,0.03949 -0.09141,0.06094 -0.129863,0.10344 -0.0403,0.04453 -0.05475,0.09373 -0.08806,0.140458 -0.02708,0.03799 -0.07292,0.05309 -0.101139,0.08914 -0.04552,0.05814 -0.06793,0.128788 -0.109549,0.187093 -0.02356,0.03301 -0.06152,0.04726 -0.08823,0.07632 -0.02815,0.03063 -0.03838,0.07288 -0.0623,0.106281 -0.0225,0.03142 -0.05542,0.0544 -0.07397,0.08896 -0.03307,0.06162 -0.03436,0.140343 -0.05624,0.206007 -0.01108,0.03325 -0.04187,0.05268 -0.05557,0.08428 -0.03062,0.07064 -0.01472,0.177498 0.02052,0.243462 0.04907,0.09186 0.153303,0.145934 0.19972,0.238779 0.02952,0.05904 -0.01194,0.120938 0.02798,0.182597 0.03474,0.05366 0.115727,0.05123 0.141734,0.103021 0.01815,0.03613 -0.01534,0.08254 -3.65e-4,0.121713 0.01553,0.04064 0.06572,0.05792 0.08434,0.09832 0.01652,0.03585 0.04253,0.07872 0.05082,0.117049 0.0072,0.03343 -0.0064,0.07111 0.0092,0.102934 0.02295,0.04684 0.08902,0.04903 0.112837,0.0984 0.01956,0.04054 0.03619,0.09624 0.04403,0.140454 0.0049,0.02741 7.41e-4,0.06578 0.0204,0.08789 0.02435,0.02739 0.07163,0.01996 0.100774,0.04156 0.03395,0.02515 0.03181,0.07633 0.06624,0.09999 0.03151,0.02165 0.07407,0.01208 0.107194,0.03087 0.03585,0.02033 0.07865,0.0418 0.106821,0.0723 0.02471,0.02676 0.03747,0.06205 0.06222,0.0887 0.02507,0.02701 0.05934,0.04438 0.08075,0.07498 0.022,0.03145 0.0192,0.07287 0.03325,0.107685 0.02413,0.05982 0.05807,0.116471 0.08835,0.173233 0.04322,0.08103 0.140898,0.125006 0.194926,0.201324 0.06565,0.09273 0.10989,0.201687 0.166578,0.299645 0.01323,0.02286 0.02002,0.04899 0.03743,0.06943 0.02465,0.02895 0.0578,0.04828 0.08646,0.07255 0.02166,0.01834 0.03515,0.04404 0.05662,0.0622 0.02809,0.02376 0.06982,0.0427 0.10258,0.05968 0.0353,0.0183 0.08044,0.01184 0.111554,0.03829 0.02482,0.02109 0.03639,0.05311 0.05786,0.07703 0.04494,0.05006 0.09047,0.08105 0.119397,0.145209 0.02035,0.04515 0.01027,0.09964 0.04011,0.140459 0.04964,0.06789 0.11806,0.113771 0.181592,0.166127 0.02603,0.02145 0.05446,0.03502 0.07453,0.06329 0.02146,0.03024 0.04358,0.07472 0.04602,0.112363 0.0019,0.02948 -0.0107,0.06001 0.001,0.08896 0.01786,0.04403 0.07588,0.05626 0.09054,0.103003 0.01125,0.03589 -0.0063,0.07412 0.01642,0.107617 0.01919,0.02828 0.05258,0.04336 0.07377,0.0703 0.02409,0.03063 0.02388,0.0707 0.04394,0.102999 0.02095,0.03372 0.05844,0.05222 0.08131,0.08428 0.02553,0.03577 0.02614,0.08319 0.05549,0.11698 0.04307,0.0496 0.108971,0.06921 0.14616,0.121803 0.02828,0.04 0.06324,0.08464 0.07969,0.131091 0.01214,0.03428 0.0071,0.07686 0.02997,0.106819 0.03069,0.04028 0.08981,0.04305 0.117692,0.08982 0.02084,0.03496 -4.49e-4,0.07517 6.51e-4,0.112367 0.0013,0.0445 0.02346,0.107638 0.04786,0.144649 0.02291,0.03474 0.07215,0.03521 0.09712,0.07074 0.0393,0.05592 0.04106,0.109333 0.065,0.168532 0.01558,0.03853 0.05049,0.06593 0.06903,0.103003 0.01557,0.03113 0.01481,0.068 0.03134,0.09832 0.02024,0.03714 0.06565,0.04873 0.08659,0.08434 0.01512,0.02572 0.01223,0.05612 0.0183,0.08421 0.0079,0.03631 0.02753,0.0903 0.04764,0.121659 0.02476,0.03862 0.07233,0.03022 0.107288,0.05262 0.03035,0.01945 0.0761,0.09224 0.08933,0.125361 0.01055,0.02639 -0.0039,0.05703 -0.0046,0.08428 -0.0016,0.06399 -0.0067,0.149819 0.01448,0.210688 0.0131,0.03768 0.04525,0.06331 0.06245,0.09832 0.01339,0.02726 0.01538,0.07102 0.04522,0.08675 0.03732,0.01968 0.07834,-0.02304 0.116558,-0.01431 0.04488,0.01026 0.04999,0.07172 0.08046,0.09896 0.02787,0.02492 0.07081,0.02418 0.09549,0.05382 0.02391,0.02871 0.01426,0.07269 0.02033,0.107193 0.0082,0.04653 0.0303,0.08972 0.04007,0.135777 0.0065,0.03071 2.39e-4,0.06316 0.01015,0.09364 0.01535,0.04722 0.0677,0.06734 0.0671,0.121731 -3.81e-4,0.03469 -0.006,0.07962 -0.01722,0.112367 -0.0091,0.02657 -0.02754,0.05519 -0.02376,0.08427 0.0044,0.03386 0.0352,0.0582 0.04756,0.08896 0.01162,0.02891 0.0032,0.05478 0.0032,0.08427 1.6e-5,0.03974 0.01021,0.06771 -3.68e-4,0.107685 z"
       id="path2" /></g></svg>
