<?xml version="1.0" encoding="UTF-8" standalone="no"?>
<!-- Created with Inkscape (http://www.inkscape.org/) -->

<svg
   width="220.82071mm"
   height="39.669834mm"
   viewBox="0 0 220.82071 39.669834"
   version="1.1"
   id="svg1"
   xml:space="preserve"
   xmlns="http://www.w3.org/2000/svg"
   xmlns:svg="http://www.w3.org/2000/svg"><defs
     id="defs1" /><g
     id="layer1"
     transform="translate(24.475729,-6.4970676)"><text
       xml:space="preserve"
       style="font-size:50.8px;text-align:start;writing-mode:lr-tb;direction:ltr;text-anchor:start;white-space:pre;inline-size:187.843;display:inline;fill:#175c42;fill-opacity:1;stroke-width:0.264583"
       x="30.999006"
       y="50.77932"
       id="text1"
       transform="translate(-18.599404,-5.0188867)"><tspan
         x="30.999006"
         y="50.77932"
         id="tspan4"><tspan
           style="font-weight:600;font-family:barlow;-inkscape-font-specification:'barlow Semi-Bold'"
           id="tspan1">bioWork</tspan></tspan></text><path
       style="fill:#175c42;fill-opacity:1;stroke:none;stroke-width:1.7233;stroke-linecap:round;stroke-linejoin:round;stroke-dasharray:none;stroke-opacity:1;paint-order:normal"
       d="m 1.7588503,6.4972932 c -0.00973,0.051576 -0.065972,0.09792 -0.1235504,0.068882 -0.031018,-0.015645 -0.043079,-0.052499 -0.080612,-0.057423 -0.085332,-0.011202 -0.1367512,0.061854 -0.2202792,0.058162 -0.077111,-0.00339 -0.1387659,-0.085857 -0.2202794,-0.058297 -0.084738,0.028644 -0.14059957,0.1208518 -0.18273347,0.1928303 -0.013861,0.023688 -0.037339,0.048099 -0.043475,0.075216 -0.00917,0.040539 0.035877,0.066802 0.00779,0.1074391 -0.045094,0.065235 -0.1581893,0.071754 -0.2211502,0.1076144 -0.018376,0.010522 -0.027487,0.032935 -0.044188,0.045897 -0.029306,0.022746 -0.083565,0.047814 -0.1179828,0.06312 -0.075768,0.033713 -0.16472687,0.00943 -0.24176997,-7.45e-4 -0.035183,-0.00471 -0.073454,7.407e-4 -0.1074534,-0.00975 -0.031486,-0.00964 -0.058572,-0.031215 -0.091336,-0.037603 -0.037073,-0.00723 -0.062144,0.018407 -0.096707,0.023688 -0.10819836,0.016511 -0.24366389,0.022187 -0.32652585,0.1095899 -0.0349099,0.036824 -0.0145732,0.090654 -0.0358902,0.1333226 -0.0121853,0.0244 -0.0363229,0.076509 -0.0574284,0.092933 -0.0378057,0.029408 -0.10013977,0.027691 -0.14428546,0.043731 -0.0286943,0.010415 -0.0651987,0.03745 -0.0963722,0.036162 -0.0274231,-0.00107 -0.007956,-0.073311 -0.0328871,-0.094807 -0.0337525,-0.029086 -0.0800822,-0.042754 -0.11169295,-0.074372 -0.0198675,-0.019875 -0.008407,-0.046083 -0.0246379,-0.067612 -0.0366923,-0.048657 -0.10169769,-0.091125 -0.1512977,-0.123922 -0.025581,-0.016917 -0.1051453,-0.026033 -0.1311241,-0.010847 -0.026087,0.015273 -0.047467,0.048318 -0.079056,0.052964 -0.029932,0.00438 -0.051659,-0.030372 -0.082124,-0.029308 -0.074383,0.00263 -0.1509489,0.035805 -0.2256519,0.049019 -0.066487,0.01169 -0.1472603,0.01329 -0.2093189,0.044232 -0.046166,0.02302 -0.036827,0.08351 -0.053007,0.1248152 -0.015127,0.038621 -0.05029,0.079775 -0.046528,0.1235709 0.00381,0.044397 0.057255,0.053964 0.068305,0.091811 0.020772,0.071153 -0.098038,0.1790731 -0.1516545,0.2072896 -0.032063,0.016878 -0.1101894,0.031266 -0.145062,0.024953 -0.036389,-0.00666 -0.069753,-0.028721 -0.1074534,-0.028109 -0.065658,0.00106 -0.1162127,0.030332 -0.1772979,0.04837 -0.035877,0.01063 -0.066694,8.149e-4 -0.1020804,0.00601 -0.02725,0.00408 -0.048325,0.024115 -0.075217,0.029258 -0.04303,0.00827 -0.085562,-0.027454 -0.1235713,-0.015805 -0.044448,0.013647 -0.1042683,0.066537 -0.1308932,0.1035895 -0.017192,0.023933 -0.026358,0.059912 -0.052338,0.076393 -0.0217,0.013765 -0.051142,6.667e-4 -0.074657,-6.711e-4 -0.039508,-0.00215 -0.1030742,-0.0015 -0.1394743,0.014838 -0.032362,0.014484 -0.036181,0.052224 -0.060458,0.074568 -0.034445,0.031717 -0.09794,0.043366 -0.1385455,0.069661 -0.027542,0.017834 -0.05316,0.052944 -0.08443,0.063197 -0.015297,0.00505 -0.033658,-0.00322 -0.049887,-7.065e-4 -0.035354,0.00537 -0.065077,0.027551 -0.1020799,0.024512 -0.029779,-0.00247 -0.055643,-0.019616 -0.085963,-0.020668 -0.030555,-0.00107 -0.056679,0.021291 -0.085962,0.01792 -0.032041,-0.00376 -0.058571,-0.027347 -0.091336,-0.028152 -0.052726,-0.00129 -0.1020456,0.044762 -0.1558072,0.046824 -0.035624,0.00129 -0.065398,-0.024888 -0.1020799,-0.018908 -0.049142,0.00805 -0.085627,0.053148 -0.1343167,0.060105 -0.039179,0.00558 -0.077513,-0.021721 -0.1181985,-0.017984 -0.074758,0.00687 -0.1295498,0.036849 -0.1987886,0.059525 -0.034976,0.011446 -0.072416,0.012659 -0.1074533,0.024158 -0.055128,0.018113 -0.073184,0.1045881 -0.1235753,0.1106974 -0.039001,0.00472 -0.066404,-0.041949 -0.1074501,-0.038846 -0.02558,0.00193 -0.044409,0.022623 -0.069846,0.024137 -0.076586,0.00462 -0.1602855,-0.017501 -0.2363974,-0.0029 -0.030206,0.0058 -0.051588,0.02929 -0.08059,0.035432 -0.031426,0.00666 -0.064065,-0.00376 -0.096707,0.0044 -0.020419,0.00505 -0.037936,0.021388 -0.059099,0.022644 -0.039597,0.00225 -0.089927,0.013829 -0.128944,0.010952 -0.047426,-0.00365 -0.090459,-0.028023 -0.1396893,-0.019058 -0.055363,0.010093 -0.070717,0.081718 -0.1181984,0.1052537 -0.043839,0.021742 -0.089942,-0.030826 -0.1343165,-0.00891 -0.047288,0.023449 -0.065431,0.08334 -0.1074742,0.1138111 -0.036292,0.026295 -0.083331,0.037515 -0.1235502,0.056562 -0.075739,0.03584 -0.155431,0.080409 -0.2363974,0.1004222 -0.079407,0.019638 -0.094688,-0.058688 -0.1558072,-0.082921 -0.037435,-0.014849 -0.084053,-0.01545 -0.1235713,-0.023342 -0.078136,-0.015633 -0.1610646,-0.045492 -0.2417699,-0.028388 -0.051794,0.010952 -0.097706,0.040671 -0.145062,0.062864 -0.075693,0.035475 -0.1342917,0.055649 -0.1987099,0.1132071 -0.032276,0.02884 -0.046449,0.07094 -0.08069,0.09768 -0.038652,0.03019 -0.1029399,0.06664 -0.1504136,0.07858 -0.029159,0.0073 -0.063604,-0.0022 -0.091124,0.0094 -0.037953,0.01608 -0.048662,0.06552 -0.086195,0.08364 -0.041739,0.02016 -0.087177,-0.0015 -0.1289229,-0.0095 -0.024902,-0.0048 -0.045444,0.0061 -0.069846,0.0058 -0.031511,-5.17e-4 -0.059681,-0.01331 -0.091335,-0.0043 -0.051304,0.01462 -0.091193,0.05526 -0.1396893,0.07486 -0.045435,0.01834 -0.096279,0.01254 -0.1396683,0.03767 -0.033929,0.01965 -0.049926,0.05743 -0.085987,0.07397 -0.075507,0.0346 -0.1510552,0.0058 -0.2256481,0.02531 -0.048262,0.01264 -0.07161,0.06741 -0.1181983,0.08377 -0.040505,0.01424 -0.087217,-0.02672 -0.128944,-0.02614 -0.027848,3.84e-4 -0.044442,0.0216 -0.069846,0.02872 -0.03551,0.01 -0.075902,-0.0056 -0.1128253,-7.48e-4 -0.033249,0.0043 -0.065913,0.02699 -0.098988,0.02575 -0.041866,-0.0016 -0.07799,-0.03191 -0.1159187,-0.04628 -0.046989,-0.01781 -0.1543762,-0.02875 -0.2041612,-0.01971 -0.026367,0.0048 -0.049668,0.03219 -0.069846,0.04836 -0.040563,0.0325 -0.096063,0.05459 -0.1326297,0.09031 -0.019092,0.01866 -0.013638,0.05866 -0.044904,0.06538 -0.041536,0.0089 -0.066866,-0.04973 -0.1072164,-0.05172 -0.042472,-0.002 -0.062213,0.04724 -0.1020799,0.05118 -0.034154,0.0033 -0.064578,-0.02573 -0.096707,-0.03304 -0.031338,-0.0071 -0.086,0.0042 -0.1181984,0.0098 -0.065013,0.01095 -0.120238,0.0577 -0.182671,0.07539 -0.04303,0.01219 -0.08508,-0.01426 -0.128943,-0.0032 -0.05424,0.01362 -0.08596,0.05269 -0.134321,0.06928 -0.07217,0.02478 -0.154302,0.02263 -0.225648,0.0527 -0.03544,0.01494 -0.06019,0.05311 -0.09671,0.06334 -0.03699,0.01031 -0.06048,-0.0348 -0.09671,-0.0318 -0.03715,0.0031 -0.05219,0.04801 -0.08596,0.05819 -0.0166,0.005 -0.03187,-0.0057 -0.04835,-0.0037 -0.01645,0.002 -0.02778,0.01563 -0.04298,0.02095 -0.01902,0.0067 -0.03995,4.02e-4 -0.0591,0.0071 -0.0441,0.01548 -0.09771,0.03223 -0.139689,0.05309 -0.02613,0.01298 -0.04821,0.03731 -0.07522,0.04725 -0.02974,0.01096 -0.06218,0.0063 -0.09133,0.02149 -0.0759,0.03941 -0.143343,0.114832 -0.214906,0.164251 -0.03738,0.02581 -0.07352,0.05547 -0.112826,0.07823 -0.0474,0.02742 -0.0802,0.02141 -0.10208,0.07772 -0.03592,-0.01915 -0.08193,-0.042 -0.123571,-0.042 -0.03297,-3e-6 -0.0632,0.01692 -0.09671,0.01462 -0.05639,-0.0039 -0.115591,-0.02331 -0.164724,0.02006 -0.0251,0.02215 -0.02628,0.05985 -0.04168,0.08791 -0.02092,0.03812 -0.06208,0.07191 -0.09984,0.09246 -0.07095,0.03859 -0.114734,-0.02117 -0.182649,-0.0048 -0.03673,0.0089 -0.04161,0.05766 -0.07572,0.06902 -0.01883,0.0062 -0.0395,-0.0056 -0.05861,-0.0056 -0.03715,-8e-6 -0.09146,0.0054 -0.128944,0.01248 -0.03174,0.006 -0.06097,0.0414 -0.09134,0.04087 -0.05915,-10e-4 -0.105747,-0.06548 -0.166552,-0.06973 -0.04701,-0.0033 -0.113314,0.05443 -0.155227,0.036 -0.01839,-0.0082 -0.01955,-0.03105 -0.03506,-0.04182 -0.01561,-0.01084 -0.03946,-0.01182 -0.05685,-0.02054 -0.04787,-0.02385 -0.08774,-0.06143 -0.145062,-0.05403 -0.0513,0.0067 -0.08013,0.05729 -0.113597,0.08949 -0.01831,0.01762 -0.04332,0.02259 -0.0637,0.03686 -0.02947,0.02061 -0.0504,0.05135 -0.08597,0.06294 -0.129657,0.04228 -0.255252,-0.03421 -0.386831,-0.0046 -0.04182,0.0096 -0.107385,0.03218 -0.137924,0.06292 -0.02516,0.02532 -0.03528,0.06805 -0.07161,0.08151 -0.03338,0.01237 -0.073,-0.0029 -0.10745,0.0075 -0.03699,0.0112 -0.06423,0.04096 -0.102076,0.05135 -0.0554,0.01521 -0.111153,0.01194 -0.166553,0.02205 -0.02799,0.005 -0.0488,0.0224 -0.07521,0.03083 -0.04448,0.01417 -0.08977,0.01836 -0.134316,0.0349 -0.03747,0.01389 -0.105587,0.04684 -0.131456,0.07741 -0.02431,0.02873 -0.02703,0.06848 -0.06204,0.08855 -0.104781,0.06004 -0.227739,0.02969 -0.338396,0.07042 -0.05125,0.01886 -0.05782,0.05939 -0.09679,0.09088 -0.04544,0.03672 -0.110279,0.05515 -0.16647,0.06749 -0.01718,0.0039 -0.03152,-0.0044 -0.04835,-0.0039 -0.03213,0.0012 -0.05717,0.0171 -0.09134,0.01278 -0.03239,-0.0041 -0.06347,-0.01864 -0.09671,-0.01459 -0.04099,0.0049 -0.07069,0.05562 -0.112826,0.05034 -0.04048,-0.005 -0.07189,-0.04554 -0.112827,-0.05573 -0.05447,-0.01356 -0.08266,0.0057 -0.134315,0.0087 -0.03572,0.0019 -0.07101,-0.01133 -0.107451,-0.009 -0.02449,0.0014 -0.04113,0.0207 -0.06447,0.02259 -0.0402,0.0032 -0.07945,-0.01908 -0.118195,0.0041 -0.0328,0.01963 -0.04916,0.07144 -0.086,0.08216 -0.04196,0.01219 -0.08436,-0.03641 -0.128919,-0.01851 -0.05381,0.02162 -0.0724,0.07776 -0.134321,0.09516 -0.04162,0.01169 -0.09147,0.0194 -0.134317,0.0102 -0.03954,-0.0084 -0.0761,-0.0323 -0.118193,-0.02184 -0.06042,0.01503 -0.07892,0.08846 -0.12365,0.12385 -0.03581,0.02832 -0.06907,0.01963 -0.107374,0.03512 -0.03323,0.01345 -0.05457,0.04695 -0.08596,0.06402 -0.02008,0.01095 -0.04534,0.0069 -0.06397,0.01977 -0.04619,0.0318 -0.05329,0.100884 -0.102666,0.131026 -0.04025,0.02457 -0.09214,-3.05e-4 -0.134238,0.02073 -0.02774,0.01386 -0.04872,0.03884 -0.07522,0.05494 -0.02517,0.01528 -0.05733,0.02085 -0.08009,0.03947 -0.02803,0.02294 -0.04111,0.05885 -0.07571,0.07486 -0.09009,0.04167 -0.152933,-0.01169 -0.241769,-8.95e-4 -0.05141,0.0062 -0.09667,0.05212 -0.147344,0.05317 -0.03101,6.43e-4 -0.05875,-0.01725 -0.08905,-0.02094 -0.02565,-0.0031 -0.05605,0.0049 -0.08056,-0.0042 -0.01744,-0.0066 -0.03006,-0.03304 -0.04885,-0.03327 -0.01689,-2.15e-4 -0.03431,0.02025 -0.04787,0.02864 -0.02813,0.01739 -0.06013,0.02904 -0.09133,0.03969 -0.04699,0.01604 -0.09739,0.0087 -0.145062,0.02153 -0.04982,0.01352 -0.115977,0.05167 -0.16118,0.07757 -0.07722,0.04426 -0.148695,0.09823 -0.231023,0.136063 -0.04728,0.02171 -0.0972,0.02722 -0.145062,0.04534 -0.0358,0.01355 -0.06658,0.05597 -0.107461,0.05379 -0.02056,-0.0011 -0.03841,-0.01429 -0.0591,-0.01632 -0.03917,-0.0039 -0.08607,0.0091 -0.123572,-0.0038 -0.02613,-0.0089 -0.04376,-0.03269 -0.06984,-0.0415 -0.02093,-0.007 -0.046,0.003 -0.06517,-0.0089 -0.04054,-0.02494 -0.05431,-0.07723 -0.09756,-0.104545 -0.0275,-0.01736 -0.06277,-0.01095 -0.0897,-0.02867 -0.05827,-0.03815 -0.123695,-0.168795 -0.214985,-0.122526 -0.03742,0.01896 -0.04309,0.05717 -0.05052,0.09425 -0.0089,0.04416 -0.01991,0.08883 -0.01283,0.134317 0.007,0.04483 0.02435,0.08113 0.02326,0.128943 -0.0014,0.06266 -0.01966,0.127397 0.0024,0.188044 -0.07316,0.03735 -0.113713,0.09118 -0.204162,0.08313 -0.106102,-0.0096 -0.238812,-0.116421 -0.342623,-0.02595 -0.02885,0.02514 -0.01488,0.0755 -0.01887,0.10939 -0.0084,0.07042 -0.02617,0.13047 -0.0408,0.198789 -0.0091,0.04272 -0.01713,0.096 -0.05976,0.11983 -0.01641,0.0091 -0.0313,-6.98e-4 -0.04834,0.0017 -0.03512,0.0049 -0.0679,0.04049 -0.106338,0.01805 -0.03988,-0.02328 -0.04885,-0.06771 -0.103128,-0.07503 -0.03741,-0.005 -0.04486,0.04589 -0.08068,0.05245 -0.05126,0.0093 -0.114376,-0.0076 -0.13963,0.05497 -0.02424,0.06017 0.06404,0.05724 0.09664,0.07896 0.02403,0.01602 0.04183,0.04008 0.06448,0.05791 0.03678,0.02899 0.08003,0.04815 0.11183,0.08345 0.07114,0.07895 0.12127,0.23827 0.127821,0.343771 0.0028,0.04356 -0.03281,0.08359 -0.0341,0.128945 -0.0013,0.04814 -0.0019,0.108338 0.0066,0.155806 0.0063,0.03629 0.02274,0.06987 0.01737,0.107451 -0.01182,0.08282 -0.05157,0.158311 -0.07705,0.236397 -0.01865,0.05716 -0.02191,0.11935 -0.03818,0.177299 -0.0087,0.03088 -0.02803,0.05943 -0.03248,0.09134 -0.0077,0.05623 0.04443,0.08206 0.06255,0.128945 0.01413,0.03655 4.05e-4,0.0754 8.91e-4,0.112826 3.04e-4,0.02342 0.01031,0.04658 0.0076,0.06984 -0.0097,0.08342 -0.108655,0.122353 -0.109811,0.209534 -8.91e-4,0.06761 0.01515,0.13675 0.0102,0.204161 -0.0049,0.06687 -0.02563,0.154687 -0.01041,0.220279 0.01145,0.0492 0.07285,0.06996 0.08246,0.11727 0.0054,0.02649 -0.03311,0.03759 -0.0243,0.07078 0.01182,0.04458 0.04993,0.07364 0.07146,0.112826 0.02219,0.04037 0.02421,0.09073 0.03815,0.134318 0.01409,0.04407 0.04345,0.092 0.0414,0.139605 -0.0011,0.02524 -0.02366,0.03371 -0.03466,0.05404 -0.01858,0.03442 -0.01,0.08388 -0.04597,0.1086 -0.02483,0.01705 -0.06014,-6.58e-4 -0.08307,0.01873 -0.03812,0.03222 -0.0043,0.101614 -0.02842,0.14099 -0.02808,0.04576 -0.0961,0.04241 -0.123852,0.08661 -0.02332,0.03712 -0.0023,0.08395 0.0033,0.123007 0.0072,0.05136 0.002,0.115694 -0.007,0.166553 -0.0061,0.03438 -0.01711,0.0734 -0.03772,0.102054 -0.01219,0.01694 -0.0329,0.02925 -0.04094,0.04885 -0.01851,0.04514 0.0028,0.09046 -0.02143,0.13921 -0.01267,0.02553 -0.02251,0.05722 -0.03927,0.0801 -0.01389,0.01897 -0.03307,0.02958 -0.03812,0.05421 -0.01322,0.06421 0.05514,0.101067 0.04961,0.161173 -0.0048,0.0525 -0.03936,0.101581 -0.04515,0.155808 -0.0034,0.03262 0.01305,0.05526 0.0152,0.08596 0.0028,0.0393 -0.0072,0.08448 -0.01232,0.123571 -0.0049,0.03846 -0.03484,0.08077 -0.03269,0.118192 0.0028,0.04698 0.0608,0.08394 0.0801,0.123573 0.01293,0.02653 8.6e-4,0.08853 -0.0038,0.118194 -0.0029,0.01862 -0.01762,0.03067 -0.02192,0.04835 -0.0053,0.02187 0.0086,0.04196 -6.1e-5,0.06448 -0.0093,0.02468 -0.02909,0.0433 -0.03451,0.06984 -0.01658,0.08102 -0.0088,0.174785 -0.03842,0.252516 -0.01772,0.04638 -0.06616,0.07518 -0.08236,0.123569 -0.0154,0.04596 0.01615,0.09255 -0.0017,0.139691 -0.01912,0.05038 -0.07291,0.08043 -0.08886,0.128965 -0.01513,0.04605 0.0222,0.09619 0.0073,0.139433 -0.01169,0.03399 -0.05496,0.04784 -0.06775,0.08621 -0.04229,0.126943 -0.02232,0.258642 -0.05366,0.386831 -0.01009,0.04118 -0.04278,0.0608 -0.06073,0.09671 -0.01738,0.03479 -7.5e-4,0.07648 -0.01219,0.112827 -0.0091,0.0292 -0.03764,0.04604 -0.04636,0.07521 -0.02698,0.09032 -0.05211,0.184941 -0.06123,0.279377 -0.0034,0.03596 0.0065,0.07216 0.0029,0.107462 -0.0053,0.05018 -0.03508,0.09466 -0.03807,0.145061 -0.0021,0.037 0.01676,0.07084 0.01798,0.107462 0.0026,0.0753 -0.01219,0.186194 -0.03549,0.257887 -0.01453,0.04463 -0.06649,0.06404 -0.08231,0.107461 -0.01616,0.04444 0.01844,0.09142 -0.0102,0.134104 -0.04017,0.05971 -0.105157,0.08452 -0.136875,0.15602 -0.0198,0.04462 0.01901,0.08641 0.0033,0.128944 -0.01354,0.0366 -0.06797,0.05354 -0.07456,0.09131 -0.004,0.02267 0.0194,0.02691 0.02698,0.0442 0.01207,0.02744 0.02001,0.08155 0.01905,0.111621 -0.0016,0.04979 -0.04706,0.08232 -0.05854,0.128943 -0.0099,0.0399 0.0096,0.07872 0.0043,0.118181 -0.0034,0.02554 -0.02836,0.03701 -0.0386,0.05919 -0.01474,0.03193 -0.0056,0.06946 -0.01959,0.102 -0.03109,0.0723 -0.133148,0.0834 -0.16618,0.155808 -0.0199,0.04358 -0.0038,0.09747 -0.02774,0.139691 -0.02877,0.05059 -0.08791,0.07895 -0.117665,0.128942 -0.02317,0.03895 8.04e-4,0.0838 -0.04839,0.107451 0.02538,0.04039 0.0078,0.05405 0.0069,0.09671 -4.46e-4,0.01896 0.01169,0.03493 0.01182,0.05373 2.17e-4,0.02709 -0.01361,0.05361 -0.01614,0.08058 -0.003,0.03191 0.03698,0.05195 0.03137,0.08036 -0.0059,0.02967 -0.05588,0.04174 -0.06986,0.0701 -0.01084,0.02193 -0.0046,0.04744 -0.01469,0.06981 -0.03916,0.08675 -0.09319,0.174706 -0.117245,0.268633 -0.01074,0.0419 0.0097,0.07722 0.0089,0.118195 -8.91e-4,0.05125 -0.04662,0.09255 -0.04249,0.145061 0.0053,0.06737 0.04554,0.137114 0.05859,0.204161 0.0061,0.03182 -0.01562,0.06479 -0.01781,0.09671 -0.0021,0.03248 0.01282,0.06481 0.0092,0.09671 -0.0059,0.05278 -0.08234,0.05561 -0.09764,0.107461 -0.01527,0.05172 0.0028,0.108305 -0.005,0.161176 -0.0078,0.0531 -0.0446,0.09738 -0.05417,0.150433 -0.0096,0.05244 0.0073,0.108097 0.0073,0.161181 l -0.0591,-0.01074 0.01074,0.04835 c -0.04414,0.01312 -0.06139,0.0494 -0.09181,0.08036 -0.0325,0.03306 -0.0822,0.04489 -0.106908,0.08621 -0.04243,0.07091 0.01762,0.192272 0.01576,0.268629 -0.0019,0.08167 -0.07076,0.160554 -0.08392,0.24177 -0.0068,0.0419 0.01941,0.07759 0.02327,0.118194 0.0044,0.046 -0.02832,0.146922 -0.05015,0.188022 -0.01249,0.02352 -0.03612,0.03383 -0.05095,0.05474 -0.02226,0.03138 -0.03997,0.08075 -0.05233,0.117208 -0.02024,0.05975 0.01074,0.105007 0.0037,0.16118 -0.0054,0.04324 -0.04426,0.06885 -0.05847,0.107461 -0.01084,0.02942 0.0037,0.06089 -0.004,0.09133 -0.01233,0.04978 -0.07458,0.0671 -0.08068,0.118194 -0.005,0.04197 0.01961,0.08188 0.02045,0.123572 0.0014,0.0693 -0.02724,0.139806 -0.03083,0.209533 -0.0038,0.07209 0.02266,0.131184 0.0019,0.204162 -0.01288,0.04543 -0.04745,0.061 -0.06691,0.09846 -0.0112,0.02161 -0.0058,0.05441 -0.01607,0.07884 -0.01795,0.04251 -0.05226,0.08012 -0.06675,0.123571 -0.0082,0.02436 -4.18e-4,0.05072 -0.009,0.07521 -0.01326,0.03801 -0.03878,0.06662 -0.04536,0.107461 -0.0076,0.04774 -0.002,0.105501 -0.02205,0.150415 -0.01326,0.02989 -0.04278,0.0344 -0.06595,0.05294 -0.02258,0.01808 -0.0753,0.102301 -0.07968,0.129748 -0.0061,0.03842 0.03137,0.131602 0.04998,0.166072 0.01647,0.03049 0.0402,0.04275 0.03906,0.08106 -9.62e-4,0.03215 -0.006,0.07519 -0.02476,0.102054 -0.02845,0.04085 -0.07014,0.05221 -0.07616,0.107472 -0.0048,0.04397 -0.0088,0.09562 -0.006,0.139691 9.74e-4,0.01592 0.01253,0.03297 0.01084,0.04834 -0.0037,0.03111 -0.04646,0.03994 -0.04755,0.07523 -0.0012,0.03759 0.02955,0.06926 0.02454,0.107451 -0.0059,0.04462 -0.05293,0.07196 -0.05667,0.118205 -0.0061,0.07622 0.03696,0.151753 0.01327,0.231024 -0.0082,0.02719 -0.03154,0.04045 -0.04364,0.06469 -0.01588,0.03181 -0.0072,0.07226 -0.03293,0.100025 -0.01901,0.02053 -0.05044,0.01409 -0.06899,0.03262 -0.01389,0.01387 -0.01474,0.04296 -0.02374,0.06057 -0.01746,0.03407 -0.05032,0.05924 -0.06005,0.09672 0.09085,0.0568 -0.04842,0.156646 -0.0591,0.209534 0.04343,0.01305 0.05014,0.06221 0.07473,0.09672 0.03278,0.04596 0.07149,0.08797 0.08366,0.145062 0.01194,0.05586 -0.0112,0.126349 -0.01787,0.18267 -0.0048,0.04066 0.01539,0.05963 0.01896,0.09671 0.0033,0.03418 -0.01741,0.06711 -0.01342,0.102086 0.0054,0.04738 0.04458,0.07858 0.07299,0.112826 0.02826,0.03408 0.058,0.08067 0.08196,0.118194 0.04193,0.06565 0.0509,0.187224 0.06254,0.26326 0.0099,0.06452 -0.05017,0.133879 -0.04608,0.204161 0.002,0.03673 0.02939,0.06731 0.03047,0.102087 8.91e-4,0.02859 -0.02113,0.05251 -0.02326,0.08058 -0.002,0.02707 0.02039,0.04488 0.02503,0.06984 0.0046,0.02473 -0.009,0.04913 -0.0031,0.07521 0.0057,0.02454 0.02137,0.04515 0.02772,0.06937 0.009,0.03426 0.0068,0.06858 0.02021,0.102559 0.01219,0.03059 0.03434,0.05953 0.04243,0.09134 0.01563,0.06148 -0.05975,0.109225 -0.0091,0.176798 0.03048,0.04066 0.08952,0.04873 0.12382,0.0867 0.04098,0.04537 0.05492,0.109614 0.09504,0.154585 0.02012,0.02254 0.04976,0.03372 0.07263,0.053 0.02384,0.0201 0.03712,0.04943 0.05969,0.07109 0.03449,0.03311 0.0796,0.05878 0.111596,0.0924 0.02602,0.02734 0.03141,0.06937 0.0608,0.09387 0.04824,0.04018 0.127373,0.01605 0.182107,0.04716 0.05854,0.03328 0.127814,0.08195 0.177086,0.127947 0.02604,0.0243 0.04538,0.05584 0.07544,0.07589 0.05158,0.0344 0.114613,0.03716 0.166554,0.06322 0.03719,0.01866 0.08828,0.05167 0.118192,0.08034 0.0326,0.03123 0.05904,0.07411 0.102087,0.09161 0.08721,0.03543 0.17244,6.53e-4 0.257888,0.02532 0.07987,0.02305 0.136093,0.09098 0.220281,0.106134 0.06888,0.01239 0.113909,-0.01803 0.177298,-0.03226 0.02669,-0.006 0.0491,0.0068 0.07521,0.0069 0.02571,1.82e-4 0.04957,-0.01353 0.07521,-0.01322 0.02535,3.18e-4 0.04965,0.01247 0.07522,0.01364 0.04154,0.0018 0.07679,-0.009 0.118194,0.0046 0.03639,0.01194 0.07844,0.05239 0.118193,0.04703 0.04916,-0.0067 0.07507,-0.09076 0.123572,-0.08615 0.04405,0.0042 0.0596,0.06879 0.102075,0.07972 0.0611,0.01571 0.08562,-0.07885 0.139686,-0.07923 0.05653,-3.91e-4 0.09621,0.06111 0.155807,0.05551 0.02349,-0.0021 0.04136,-0.01999 0.06448,-0.02229 0.02754,-0.0028 0.05214,0.01182 0.08058,0.0033 0.02941,-0.0089 0.0541,-0.03651 0.08596,-0.03736 0.04453,-0.0012 0.07644,0.04489 0.123572,0.04005 0.05344,-0.0056 0.09983,-0.05344 0.150434,-0.06552 0.02683,-0.0063 0.05395,0.01516 0.08058,0.01674 0.04411,0.0026 0.07999,-0.07484 0.122576,-0.05673 0.01901,0.0082 0.03182,0.0368 0.04397,0.05259 h 0.0054 c 0.05537,-0.05343 0.04912,0.0086 0.102161,0.0144 0.04204,0.0047 0.08186,-0.02678 0.123493,-0.02736 0.04284,-6.07e-4 0.08639,0.02889 0.128944,0.01298 0.08766,-0.03274 0.146641,-0.0892 0.22028,-0.141667 0.0294,-0.02094 0.06631,-0.0257 0.0967,-0.04486 0.0494,-0.03113 0.086,-0.07096 0.139689,-0.09688 0.03967,-0.01916 0.08334,-0.02612 0.123572,-0.04371 0.08509,-0.03717 0.156306,-0.07784 0.247143,-0.103912 0.06772,-0.01944 0.158516,-0.028 0.220278,-0.05889 0.04843,-0.02422 0.07666,-0.08055 0.128945,-0.101099 0.03888,-0.01527 0.08389,0.0029 0.123571,-0.0086 0.02634,-0.0075 0.04598,-0.03072 0.06984,-0.04354 0.02904,-0.01559 0.06223,-0.01927 0.09134,-0.03398 0.04359,-0.02202 0.06818,-0.07795 0.112826,-0.09502 0.06689,-0.02558 0.14595,-0.01517 0.214907,-0.04443 0.03509,-0.01488 0.06189,-0.04421 0.09672,-0.05985 0.06202,-0.02783 0.13177,-0.04388 0.193415,-0.07085 0.02564,-0.0112 0.04303,-0.03791 0.06984,-0.04623 0.0195,-0.006 0.039,0.0059 0.05909,0.0018 0.0315,-0.0063 0.05783,-0.03612 0.09134,-0.03296 0.02776,0.0026 0.04526,0.02873 0.07521,0.02293 0.05193,-0.01009 0.08503,-0.06621 0.13969,-0.07168 0.06011,-0.006 0.109455,0.03477 0.17171,0.0091 0.03159,-0.013 0.0437,-0.05227 0.07013,-0.07267 0.02671,-0.02059 0.06237,-0.01811 0.09125,-0.03498 0.0399,-0.02332 0.06882,-0.06115 0.107539,-0.08423 0.02629,-0.01568 0.05874,-0.013 0.08567,-0.02723 0.03171,-0.01673 0.04927,-0.0452 0.08618,-0.05436 0.04035,-0.01 0.08358,-0.0042 0.123572,-0.01664 0.04384,-0.01366 0.07345,-0.05224 0.118193,-0.06458 0.02489,-0.0069 0.06578,-0.01963 0.09133,-0.01545 0.04329,0.0071 0.05884,0.03178 0.107461,0.01993 0.05381,-0.01313 0.09862,-0.07798 0.15573,-0.07428 0.03325,0.0021 0.03645,0.05338 0.07014,0.04999 0.05832,-0.0059 0.158968,-0.02078 0.207702,-0.05508 0.02925,-0.02057 0.03841,-0.07217 0.07683,-0.08016 0.02261,-0.0047 0.04863,0.01491 0.06984,0.02085 0.0248,0.0069 0.06659,0.0037 0.09134,-0.0041 0.04417,-0.01359 0.13444,-0.07154 0.162312,-0.108732 0.0253,-0.03377 0.02998,-0.07906 0.06873,-0.102634 0.03259,-0.01982 0.07401,-0.01052 0.107439,-0.02894 0.03855,-0.02138 0.06733,-0.05901 0.106542,-0.0787 0.02216,-0.01108 0.04791,-0.0063 0.07076,-0.0194 0.02915,-0.0166 0.05279,-0.04078 0.08596,-0.04987 0.04543,-0.01245 0.09509,0.0046 0.139689,-0.01095 0.04528,-0.01574 0.07115,-0.06716 0.118194,-0.07787 0.04162,-0.0096 0.08225,0.01692 0.123571,0.01095 0.06152,-0.0089 0.07155,-0.0917 0.128945,-0.107418 0.0866,-0.02372 0.170132,-0.01727 0.257887,-0.03748 0.03733,-0.0087 0.06438,-0.04404 0.102086,-0.04953 0.04603,-0.0067 0.106521,0.02134 0.150435,0.0076 0.02264,-0.007 0.04308,-0.02871 0.06446,-0.03977 0.04213,-0.02182 0.09713,-0.03378 0.134317,-0.06261 0.0322,-0.02496 0.05479,-0.06952 0.09136,-0.08751 0.04046,-0.01992 0.08706,0.01145 0.128922,-0.0017 0.07157,-0.02241 0.09299,-0.0907 0.177299,-0.09511 0.04053,-0.002 0.07251,0.03902 0.112827,0.03398 0.0237,-0.003 0.03905,-0.02422 0.0591,-0.03488 0.0289,-0.01536 0.06158,-0.01009 0.09134,-2.48e-4 0.120851,0.03988 0.145025,0.136044 0.145219,0.252033 4.9e-5,0.02971 0.01625,0.05643 0.01484,0.08596 -0.0038,0.07856 -0.03072,0.158005 -0.04032,0.236397 -0.0054,0.04347 0.03006,0.08022 0.02431,0.118194 -0.0092,0.06058 -0.06453,0.112038 -0.04987,0.177298 0.01052,0.0469 0.06944,0.08286 0.07005,0.128944 7.97e-4,0.05971 -0.04506,0.0762 -0.07478,0.118217 -0.01991,0.02816 -0.01657,0.0608 -0.02887,0.09123 -0.0073,0.01822 -0.02506,0.02974 -0.03097,0.04865 -0.01333,0.04272 0.01253,0.08632 0.0061,0.128735 -0.01143,0.07577 -0.0695,0.150772 -0.09062,0.225651 -0.0086,0.03028 0.0133,0.05748 0.0069,0.08483 -0.0039,0.01622 -0.02491,0.02575 -0.03422,0.03896 -0.019,0.02699 -0.03945,0.05912 -0.05674,0.08726 -0.02248,0.03658 0.0028,0.07843 -0.01229,0.116642 -0.02262,0.05735 -0.0823,0.10025 -0.103633,0.155834 -0.01653,0.04308 -0.01571,0.09441 -0.02006,0.139684 -0.0064,0.06801 -0.02266,0.135214 -0.02035,0.204162 0.0013,0.03861 0.02372,0.07393 0.01787,0.112826 -0.0063,0.0426 -0.0102,0.09431 -0.02606,0.134317 -0.01233,0.03117 -0.03769,0.05783 -0.04395,0.09134 -0.0062,0.03326 0.02056,0.06577 0.007,0.09671 -0.02712,0.06176 -0.09392,0.07395 -0.113965,0.145061 -0.02517,0.08931 -0.0073,0.190822 -0.03576,0.279357 -0.01509,0.04696 -0.06681,0.06891 -0.07297,0.123593 -0.0048,0.04247 0.02489,0.07706 0.02485,0.118192 -5.6e-5,0.04276 -0.03336,0.05873 -0.05198,0.09154 -0.02372,0.04183 -0.01063,0.08649 -0.05985,0.112618 0.0088,0.04046 -0.01427,0.06195 -0.03,0.09671 -0.0089,0.01963 -0.0073,0.04118 -0.02069,0.05902 -0.02145,0.02874 -0.05684,0.04112 -0.08077,0.06704 -0.03023,0.03276 -0.05302,0.132261 -0.04047,0.174801 -0.04781,0.02624 -0.04946,0.114943 -0.07404,0.161179 -0.05608,0.105479 -0.153174,0.162524 -0.166792,0.290125 -0.0037,0.03423 -0.0015,0.08635 0.01177,0.118194 0.01144,0.02735 0.03735,0.05422 0.03306,0.08596 -0.0098,0.07235 -0.09132,0.139706 -0.09253,0.214907 -3.76e-4,0.02334 0.01818,0.04299 0.02529,0.06448 -0.142542,0.04783 -0.185417,0.191566 -0.262824,0.305678 -0.02396,0.03531 -0.08169,0.03367 -0.102365,0.07097 -0.01052,0.01904 -0.0032,0.04355 -0.01084,0.06391 -0.01658,0.04419 -0.04448,0.07955 -0.04725,0.128944 -0.0017,0.03218 0.01407,0.06473 0.0067,0.09671 -0.01063,0.04633 -0.0565,0.07827 -0.06925,0.123572 -0.01569,0.0557 -0.0062,0.12456 -0.0153,0.18267 -0.01427,0.09213 -0.06209,0.179433 -0.06787,0.274006 -0.0028,0.04434 0.02276,0.08498 0.02635,0.128944 -0.09541,0.02243 -0.167168,0.156999 -0.203109,0.236392 -0.0085,0.01872 -0.02685,0.03064 -0.03468,0.04927 -0.01108,0.02651 0.0015,0.05789 -0.0088,0.08504 -0.02501,0.06587 -0.09351,0.09268 -0.122465,0.150461 -0.01665,0.03325 -0.0087,0.07256 -0.01872,0.107449 -0.01423,0.04931 -0.04787,0.08691 -0.06101,0.139691 -0.01481,0.0596 -0.005,0.125832 -0.0188,0.18267 -0.01169,0.04825 -0.07115,0.06472 -0.09194,0.107537 -0.01194,0.02449 0.0083,0.04655 -5.44e-4,0.06887 -0.01457,0.03716 -0.06511,0.05377 -0.08373,0.08743 -0.009,0.01631 -0.0049,0.03628 -0.01342,0.05295 -0.02088,0.04114 -0.04778,0.07318 -0.06486,0.118404 -0.0083,0.02199 0.0017,0.04166 -0.01031,0.06448 -0.02744,0.05171 -0.08128,0.07865 -0.103256,0.134317 -0.05472,0.138684 0.01432,0.293547 -0.02562,0.435107 -0.0059,0.02108 -0.02562,0.03144 -0.03758,0.04865 -0.02194,0.03153 -0.0425,0.06549 -0.06426,0.09742 -0.01502,0.02203 -0.0069,0.05133 -0.02389,0.07317 -0.02516,0.03227 -0.07026,0.03771 -0.08405,0.08174 -0.01925,0.06145 0.04604,0.113933 0.03169,0.171924 -0.01,0.04027 -0.05699,0.05698 -0.08144,0.08644 -0.02,0.02412 -0.0086,0.04909 -0.02077,0.07474 -0.01277,0.02671 -0.0409,0.04081 -0.05762,0.06454 -0.01511,0.02145 -0.01457,0.04824 -0.02932,0.06977 -0.04435,0.06472 -0.12079,0.09987 -0.151632,0.171926 -0.0082,0.01884 -0.0049,0.04024 -0.01373,0.05889 -0.0102,0.02181 -0.03013,0.03406 -0.03415,0.05932 -0.0054,0.0342 0.0048,0.08671 -0.02859,0.109499 -0.01855,0.01268 -0.04803,0.0034 -0.06926,0.0033 -0.0071,0.05693 -0.0041,0.115462 -0.01182,0.171926 -0.0038,0.02677 -0.02183,0.04803 -0.02491,0.07522 -0.0044,0.03879 0.0098,0.08664 -0.0021,0.12357 -0.009,0.02799 -0.03671,0.0453 -0.05165,0.06983 -0.01944,0.03194 -0.01371,0.07369 -0.03065,0.10745 -0.01316,0.02622 -0.04171,0.04229 -0.05211,0.06984 -0.01297,0.03438 0.0143,0.07333 -5.13e-4,0.107373 -0.01084,0.02481 -0.03491,0.06044 -0.05729,0.07548 -0.026,0.01748 -0.07001,0.02416 -0.07879,0.059 -0.01074,0.04247 0.02711,0.0749 0.03786,0.112751 0.01084,0.03811 0.0053,0.104803 0.0056,0.145062 1.67e-4,0.02832 -0.0305,0.05145 -0.04295,0.07521 -0.01972,0.03761 -0.03096,0.08672 -0.03391,0.128945 -0.0038,0.05298 0.01744,0.09907 0.02476,0.150434 0.0052,0.03623 -0.0059,0.07136 -0.0033,0.107451 0.0018,0.02547 0.01509,0.05261 0.0099,0.0783 -0.01623,0.07952 -0.119005,0.04326 -0.155338,0.09477 -0.02521,0.03575 -0.0067,0.09737 -0.01182,0.138541 -0.006,0.04822 -0.04069,0.111336 -0.06086,0.155728 -0.01719,0.03786 -0.06922,0.05961 -0.09601,0.0915 -0.07405,0.0881 -0.13343,0.18679 -0.22428,0.261009 -0.02706,0.02211 -0.06781,0.01619 -0.09219,0.04189 -0.03909,0.04122 -0.01133,0.09391 -0.04279,0.137576 -0.0285,0.0396 -0.04563,0.08265 -0.07101,0.123561 -0.01504,0.02423 -0.04245,0.03676 -0.05683,0.06009 -0.01454,0.0236 -0.0052,0.116347 0.0026,0.143991 0.0092,0.03293 0.04854,0.04285 0.07281,0.06203 0.03206,0.02533 0.05906,0.06409 0.07942,0.09923 0.02939,0.05073 0.0102,0.09898 0.02829,0.150435 0.01492,0.04245 0.06059,0.06221 0.07196,0.102108 0.01747,0.06121 -0.0056,0.09335 0.05145,0.14405 0.08236,0.07325 0.207213,0.05629 0.284651,0.135314 0.02161,0.02205 0.04798,0.04863 0.05263,0.08058 0.0052,0.03583 -0.01561,0.07352 0.01031,0.105683 0.02533,0.03143 0.07398,0.03197 0.102688,0.06144 0.04899,0.05029 0.07957,0.11897 0.128157,0.16959 0.03094,0.03224 0.07889,0.03009 0.114599,0.05391 0.0331,0.02206 0.0492,0.06155 0.08106,0.08365 0.03151,0.02185 0.06859,0.0057 0.101507,0.01864 0.04278,0.01677 0.04089,0.07605 0.08089,0.09432 0.084,0.03837 0.180955,0.02189 0.263024,0.06717 0.04118,0.02271 0.05695,0.06648 0.08295,0.10316 0.02424,0.03421 0.05806,0.06494 0.0868,0.09549 0.02714,0.02886 0.06681,0.02611 0.09352,0.06033 0.02139,-0.006 0.0533,-0.02256 0.07519,-0.01416 0.03463,0.01327 0.04388,0.0581 0.08064,0.06976 0.0512,0.01625 0.09113,-0.0075 0.131515,0.04134 0.03627,0.04385 0.04558,0.138635 0.104888,0.157457 0.03573,0.01133 0.07818,-0.0011 0.112729,0.01671 0.02342,0.01206 0.02853,0.043 0.05053,0.0534 0.04229,0.01996 0.08741,0.0054 0.126283,0.04199 0.02948,0.0277 0.03296,0.06698 0.05113,0.100938 0.03362,0.06282 0.08178,0.120422 0.142844,0.158153 0.06413,0.03964 0.140318,-0.0026 0.209534,0.03708 0.108864,0.0624 0.178865,0.187377 0.284773,0.253559 0.03087,0.01929 0.07704,0.04221 0.112804,0.04905 0.02555,0.0049 0.05096,-0.0012 0.07521,0.01095 0.03172,0.01587 0.05145,0.04751 0.08059,0.06693 0.05943,0.03964 0.139368,0.07842 0.204161,0.110033 0.03745,0.01826 0.07093,-4.7e-5 0.10745,0.01095 0.03127,0.0093 0.05146,0.03898 0.08058,0.05251 0.06608,0.03074 0.110656,-0.03472 0.166552,-0.05536 0.03717,-0.01373 0.07328,0.0241 0.112827,0.01249 0.05222,-0.01534 0.08779,-0.05871 0.134316,-0.08346 0.06414,-0.03413 0.174858,-0.02625 0.231025,0.01657 h 0.0054 c 0.03414,-0.02602 0.05899,-0.0091 0.0967,-0.01779 0.06212,-0.01431 0.154027,-0.03418 0.220279,-0.02343 0.04006,0.0065 0.07271,0.03523 0.112826,0.04024 0.05232,0.0065 0.0952,-0.01977 0.145062,-0.02874 0.04059,-0.0072 0.08334,-0.0031 0.123572,-0.0127 0.09147,-0.02189 0.155669,-0.09264 0.231024,-0.143088 0.02673,-0.01789 0.05901,-0.0228 0.08596,-0.04068 0.02385,-0.01584 0.043,-0.04327 0.06985,-0.05403 0.0438,-0.01757 0.102064,0.02972 0.143528,0.01169 0.06085,-0.02639 0.100086,-0.09541 0.157341,-0.126822 0.06371,-0.03496 0.142057,-0.04122 0.209534,-0.06706 0.05155,-0.01973 0.08191,-0.06268 0.128944,-0.08737 0.03706,-0.01944 0.08119,-0.01822 0.118198,-0.03807 0.04112,-0.02206 0.06816,-0.06221 0.107453,-0.08661 0.06061,-0.03764 0.130423,-0.06401 0.18804,-0.106156 0.03589,-0.02625 0.05692,-0.06573 0.09136,-0.09305 0.02285,-0.01813 0.05171,-0.0262 0.07284,-0.04686 0.09046,-0.08841 0.151102,-0.196936 0.254873,-0.272629 0.03482,-0.02541 0.08603,-0.05606 0.128944,-0.06338 0.03715,-0.0063 0.07731,0.0076 0.112826,-0.0091 0.07699,-0.03638 0.109689,-0.121627 0.177319,-0.162275 0.04767,-0.02864 0.1185365,-0.03032 0.1719039,-0.04654 0.062586,-0.01903 0.1424425,-0.06531 0.1987887,-0.100079 0.049012,-0.03022 0.1143961,-0.06005 0.1529465,-0.103353 0.02616,-0.02939 0.028811,-0.07151 0.057152,-0.0999 0.031502,-0.03156 0.076287,-0.0364 0.1120461,-0.06039 0.027666,-0.01855 0.038376,-0.05297 0.065173,-0.07188 0.035319,-0.02492 0.102242,0.0061 0.1445766,-0.006 0.049947,-0.01436 0.075648,-0.06144 0.1181984,-0.0867 0.029846,-0.01772 0.066985,-0.01589 0.096494,-0.0339 0.025998,-0.01587 0.036654,-0.04655 0.056456,-0.06847 0.037899,-0.04197 0.08968,-0.09014 0.1371763,-0.120727 0.03815,-0.02457 0.071174,-0.01936 0.1128266,-0.0289 0.050805,-0.01169 0.09612,-0.04059 0.1450618,-0.05624 0.017189,-0.0056 0.037098,0.0014 0.05322,-0.0057 0.023984,-0.01063 0.030284,-0.04323 0.043322,-0.06341 0.020398,-0.03159 0.058423,-0.06592 0.091501,-0.08405 0.032581,-0.01785 0.058654,0.01895 0.090186,0.0092 0.019903,-0.0061 0.022706,-0.0334 0.032539,-0.04866 0.01424,-0.0221 0.041238,-0.03839 0.065318,-0.04805 0.042085,-0.01686 0.081489,0.01911 0.1235504,0.0087 0.046581,-0.01157 0.04888,-0.07829 0.096733,-0.09127 0.027917,-0.0075 0.057661,0.0084 0.085959,-0.0023 0.046988,-0.01773 0.090281,-0.05978 0.1343167,-0.08449 0.027706,-0.01556 0.053461,-0.0041 0.08059,-0.01375 0.025013,-0.009 0.044654,-0.03037 0.069846,-0.04034 0.078229,-0.03099 0.1783092,-0.04877 0.2471426,-0.09807 0.069045,-0.04944 0.1167347,-0.122318 0.1934159,-0.164844 0.035183,-0.01951 0.077679,-0.0088 0.1128254,-0.02782 0.036396,-0.01973 0.065125,-0.05222 0.1005478,-0.07236 0.017431,-0.0099 0.041422,-0.0043 0.060633,-0.01074 0.086623,-0.02894 0.1226099,-0.04693 0.2149064,-0.02093 0.018027,-0.04038 0.040816,-0.06956 0.085964,-0.08254 0.019759,-0.0057 0.040975,-3.64e-4 0.059021,-0.01207 0.027535,-0.01782 0.042491,-0.05039 0.069924,-0.06895 0.027732,-0.01875 0.061835,-0.0089 0.091337,-0.02214 0.067417,-0.03041 0.1259191,-0.08217 0.1934159,-0.113454 0.046025,-0.02134 0.099985,-0.01882 0.1450619,-0.04138 0.047183,-0.02361 0.1033952,-0.07905 0.1337369,-0.122023 0.01764,-0.02501 0.022714,-0.05711 0.044704,-0.07934 0.036779,-0.03719 0.093776,-0.0067 0.131423,-0.04064 0.069792,-0.06292 0.111037,-0.163761 0.189793,-0.219971 0.040465,-0.02888 0.087772,-0.01753 0.1289441,-0.03812 0.055359,-0.02769 0.093211,-0.08274 0.1558073,-0.101506 0.038641,-0.01158 0.08226,0.01485 0.1181946,-0.0075 0.044274,-0.02749 0.061722,-0.08922 0.1076692,-0.113246 0.047346,-0.02475 0.1128057,0.0084 0.1579387,-0.03318 0.035226,-0.03239 0.014635,-0.0962 0.056988,-0.131564 0.1066818,-0.08906 0.2387937,-0.143147 0.3489124,-0.227148 0.039463,-0.03011 0.050797,-0.0869 0.091513,-0.112223 0.035802,-0.02227 0.083619,-0.04916 0.1234715,-0.06213 0.036914,-0.01206 0.073715,-0.0097 0.1074535,-0.03166 0.029375,-0.01925 0.066588,-0.04768 0.087426,-0.07617 0.013278,-0.01815 0.012124,-0.0443 0.03198,-0.05789 0.039949,-0.02738 0.097102,0.0048 0.1384785,-0.01594 0.035004,-0.01759 0.046776,-0.06131 0.079761,-0.0809 0.020723,-0.0123 0.047902,-6.34e-4 0.070198,-0.01031 0.043449,-0.01888 0.099164,-0.06341 0.1401693,-0.0907 0.1040276,-0.06921 0.1678695,-0.201573 0.2793785,-0.257511 0.018829,-0.0096 0.04045,-0.006 0.059099,-0.01714 0.030228,-0.01795 0.051151,-0.05017 0.085962,-0.06092 0.04532,-0.01399 0.1209584,-0.004 0.1599731,-0.03361 0.031864,-0.02424 0.022921,-0.07488 0.055498,-0.100787 0.023706,-0.01885 0.055009,-0.02419 0.079926,-0.04087 0.025717,-0.01722 0.034347,-0.04824 0.059282,-0.06658 0.06654,-0.04893 0.1506655,-0.08112 0.2201967,-0.128866 0.054802,-0.03762 0.1000238,-0.09252 0.1558072,-0.127107 0.031551,-0.01955 0.071257,-0.01953 0.1020803,-0.04107 0.033259,-0.02323 0.058375,-0.05682 0.091335,-0.08092 0.026559,-0.01942 0.058666,-0.02689 0.085249,-0.04494 0.017031,-0.01157 0.023902,-0.03234 0.038902,-0.04618 0.022246,-0.02052 0.051361,-0.03244 0.074638,-0.05187 0.043865,-0.03659 0.073769,-0.08281 0.1235713,-0.113147 0.077962,-0.04749 0.1569537,-0.09097 0.2363973,-0.135015 0.024082,-0.01336 0.044089,-0.03471 0.069844,-0.0448 0.069181,-0.02709 0.157237,-0.0227 0.2202583,-0.06289 0.08478,-0.05407 0.1533515,-0.142958 0.2256728,-0.21211 0.026189,-0.02504 0.052452,-0.06224 0.0859628,-0.07776 0.0320647,-0.01484 0.0610768,0.02539 0.0964957,0.0063 0.0315246,-0.01691 0.0462663,-0.05571 0.0754353,-0.07648 0.0211023,-0.01502 0.0478135,-0.01602 0.0698381,-0.03158 0.0858264,-0.06064 0.15785344,-0.133081 0.23663066,-0.199816 0.0321001,-0.0272 0.11542878,-0.04387 0.13078296,-0.08314 0.0202412,-0.05176 -0.009588,-0.167187 -0.0425245,-0.208948 -0.0204656,-0.02594 -0.0493382,-0.04348 -0.0695149,-0.06991 -0.0511602,-0.06707 -0.0690629,-0.158113 -0.12385885,-0.225435 -0.0290143,-0.03566 -0.0754556,-0.04838 -0.10996595,-0.0772 -0.037068,-0.03094 -0.055382,-0.07819 -0.0918412,-0.108962 -0.0340125,-0.02871 -0.0826754,-0.02621 -0.11770863,-0.05271 -0.0353448,-0.02674 -0.0516358,-0.06977 -0.0860465,-0.09699 -0.038689,-0.03061 -0.088871,-0.0429 -0.1288652,-0.07156 -0.036372,-0.02605 -0.06158,-0.06665 -0.1020799,-0.08711 -0.038734,-0.01955 -0.084381,-0.01868 -0.1235713,-0.03824 -0.076057,-0.03797 -0.1518171,-0.09679 -0.2310167,-0.125355 -0.079417,-0.02864 -0.1742312,-0.05386 -0.2578879,-0.06581 -0.039939,-0.0057 -0.078455,-4.71e-4 -0.1181985,-0.01095 -0.046966,-0.01236 -0.1011601,-0.02007 -0.1450621,-0.04079 -0.0329,-0.01554 -0.059359,-0.04603 -0.096708,-0.05096 -0.047113,-0.0062 -0.094733,0.03366 -0.1396894,0.01921 -0.037664,-0.01206 -0.05353,-0.05419 -0.085983,-0.07389 -0.035948,-0.02183 -0.093229,-0.02209 -0.1342956,-0.02599 -0.138737,-0.01323 -0.2811415,0.01353 -0.4190679,-0.0077 -0.08352,-0.0129 -0.1652305,-0.02912 -0.2471426,-0.04965 -0.034953,-0.0088 -0.065242,-0.02761 -0.1020799,-0.02928 -0.1263902,-0.0057 -0.2527134,0.04832 -0.3760866,0.06327 -0.044948,0.0054 -0.1070404,0.0079 -0.1504348,-0.0056 -0.034854,-0.01084 -0.065152,-0.0376 -0.1020799,-0.04124 -0.1259625,-0.01237 -0.2412493,0.02619 -0.3653412,-0.0059 v -0.0054 c 0.032246,-0.01606 0.057955,-0.04238 0.091336,-0.05662 0.09561,-0.04075 0.1793048,-0.04477 0.2793786,-0.05777 0.045467,-0.0059 0.088807,-0.02509 0.1343166,-0.02974 0.047634,-0.0049 0.09248,0.02532 0.1396893,0.01799 0.1396394,-0.02171 0.2519709,-0.124169 0.3922046,-0.145291 0.050754,-0.0076 0.095037,0.0361 0.1450619,0.03991 0.048543,0.0038 0.096796,-0.01373 0.1450621,-0.01492 0.0811,-0.0019 0.1652789,0.01443 0.2471425,0.0154 0.055136,6.56e-4 0.130009,0.01264 0.1826706,-0.0046 0.039635,-0.01294 0.069974,-0.05371 0.112826,-0.05723 0.095512,-0.0078 0.179087,0.06175 0.2686332,0.07152 0.053848,0.0059 0.097214,-0.04119 0.1504347,-0.03491 0.049075,0.0058 0.1169053,0.02646 0.16118,0.04813 0.030103,0.01474 0.057355,0.04056 0.091335,0.04574 0.051599,0.0078 0.090603,-0.02929 0.1396892,-0.02911 0.040786,1.47e-4 0.08063,0.03469 0.1181986,0.04798 0.050371,0.01782 0.1061604,0.01182 0.1558072,0.03127 0.047583,0.01864 0.065592,0.07612 0.112847,0.09229 0.054155,0.01854 0.1033243,-0.03321 0.1557864,-0.01871 0.078598,0.02172 0.15029551,0.09979 0.22027911,0.140119 0.0494423,0.02849 0.1075421,3.75e-4 0.15580722,0.02451 0.038218,0.01911 0.0562871,0.0599 0.0864481,0.08775 0.0313786,0.02898 0.0756371,0.04831 0.11234041,0.06988 0.0551007,0.03238 0.127543,0.0016 0.17679677,0.03711 0.0396674,0.02855 0.0467151,0.08388 0.0820857,0.116223 0.0633981,0.05796 0.13502489,0.107069 0.19779437,0.165238 0.0635775,0.05891 0.11811951,0.125491 0.17821341,0.187264 0.031322,0.03219 0.077802,0.02944 0.1116954,0.05626 0.033508,0.02651 0.049199,0.07145 0.074143,0.1052 0.033907,0.04587 0.080618,0.08161 0.1121668,0.128944 0.034887,0.05234 0.022689,0.119954 0.056393,0.171849 0.033978,0.05232 0.10202517,0.06654 0.12446577,0.12902 0.029598,0.08242 0.00975,0.159312 0.021491,0.241771 0.00565,0.03963 0.00918,0.09168 0.023096,0.128943 0.00644,0.01723 0.023494,0.02917 0.024814,0.04835 0.00416,0.06028 -0.027855,0.130324 -0.028031,0.193417 0.015431,0.0029 0.055681,5.71e-4 0.062227,0.01782 0.013766,0.0363 -0.03906,0.11301 -0.048207,0.148726 -0.012136,0.04735 0.011583,0.09287 0.00646,0.139691 -0.00754,0.06887 -0.055418,0.151002 -0.082686,0.214905 -0.021895,0.05132 -0.00887,0.129314 -0.042181,0.171689 -0.032567,0.04141 -0.098446,0.03072 -0.12741707,0.07569 -0.019252,0.02988 -0.013358,0.06955 -0.026797,0.10185 -0.019865,0.04774 -0.080676,0.09709 -0.1228549,0.125536 -0.07044,0.0475 -0.1759077,0.04077 -0.2415548,0.09658 -0.0538069,0.04574 -0.0775913,0.127231 -0.12477802,0.180841 -0.0371185,0.04217 -0.0833451,0.06012 -0.12795239,0.09156 -0.0410847,0.02896 -0.0757123,0.06623 -0.11819825,0.09354 -0.080022,0.05142 -0.19270251,0.02267 -0.26762335,0.07399 -0.0498181,0.03412 -0.0338856,0.11231 -0.0870515,0.148664 -0.0613055,0.04193 -0.14581221,0.09258 -0.21482788,0.119695 -0.0416645,0.01637 -0.0913688,0.01361 -0.1289228,0.04017 -0.043228,0.03056 -0.065716,0.08324 -0.1074742,0.116507 -0.06235,0.04967 -0.1550124,0.08442 -0.2066901,0.144203 -0.022803,0.02638 -0.032588,0.0616 -0.051762,0.0904 -0.027183,0.04083 -0.067234,0.08306 -0.1017286,0.118119 -0.066904,0.068 -0.165073,0.09465 -0.2296053,0.172015 -0.036759,0.04406 -0.037543,0.105039 -0.076429,0.150428 -0.079617,0.09295 -0.1920308,0.140102 -0.2553302,0.247143 -0.023943,0.04049 -0.021254,0.08458 -0.030968,0.128945 -0.010168,0.04643 -0.031108,0.101485 -0.050458,0.145061 -0.02084,0.04694 -0.065464,0.07457 -0.090186,0.118194 -0.02774,0.04895 -0.00714,0.105963 -0.026929,0.155808 -0.037348,0.09412 -0.1142688,0.172328 -0.1404579,0.274005 -0.017428,0.06766 -0.040888,0.150508 -0.042566,0.22028 -0.00113,0.04696 0.017849,0.09275 0.018754,0.139688 9.653e-4,0.05006 -0.00925,0.09989 -0.00416,0.150436 0.00485,0.04835 0.03264,0.09109 0.036208,0.139688 0.00327,0.04441 0.013132,0.09631 2.491e-4,0.139689 -0.012873,0.04335 -0.051755,0.08123 -0.047045,0.128945 0.00429,0.04356 0.036428,0.08408 0.053336,0.123572 0.033551,0.07835 0.063336,0.162155 0.093512,0.241769 0.016601,0.0438 0.010091,0.09441 0.022635,0.139689 0.017202,0.0621 0.050266,0.113319 0.07415,0.171927 0.032362,0.07942 0.051237,0.165819 0.093048,0.241769 0.020935,0.03802 0.048325,0.08728 0.081815,0.115349 0.038464,0.03223 0.081847,0.04436 0.1110185,0.08882 0.023185,0.03532 0.051517,0.07411 0.068294,0.112826 0.033771,0.07793 0.045492,0.158261 0.1067028,0.225087 0.036116,0.03943 0.09599,0.03858 0.1304524,0.08125 0.026126,0.03233 0.034946,0.07563 0.062963,0.106865 0.030864,0.03441 0.074939,0.05291 0.1022019,0.09183 0.02808,0.04009 0.036577,0.08755 0.073546,0.122661 0.079226,0.07525 0.1836702,0.11311 0.2625654,0.189869 0.047404,0.04613 0.059868,0.113491 0.1037044,0.159688 0.035123,0.03701 0.0912647,0.03044 0.13317278,0.05476 0.0536727,0.03116 0.0832474,0.08841 0.13968932,0.118328 0.0655809,0.03478 0.16319975,0.06779 0.23639722,0.07885 0.0415002,0.0062 0.0842213,-0.01157 0.1235712,0.006 0.0435875,0.01947 0.10647453,0.05673 0.13856119,0.09208 0.0256075,0.02821 0.035421,0.07456 0.0711888,0.09234 0.0481679,0.02395 0.10440768,-0.01145 0.15559216,0.0065 0.0420896,0.01479 0.096123,0.02905 0.13431652,0.05132 0.031915,0.0186 0.055982,0.04843 0.091337,0.06151 0.038281,0.01416 0.083384,0.0084 0.1235712,0.01447 0.050372,0.0076 0.099588,0.02403 0.1504346,0.029 0.049858,0.0049 0.090912,-0.03929 0.13968927,-0.03311 0.057072,0.0072 0.1003341,0.04956 0.1611799,0.05152 0.1252792,0.0041 0.2488975,-0.03607 0.37071384,-0.05194 0.048633,-0.0062 0.096481,0.0077 0.145062,0.003 0.037408,-0.0038 0.075021,-0.02184 0.1128266,-0.0198 0.048005,0.0026 0.080942,0.04951 0.128944,0.05236 0.050222,0.003 0.086149,-0.0404 0.1343166,-0.04433 0.090401,-0.0073 0.1849294,0.0606 0.2740058,0.0606 0.039396,0 0.071629,-0.02423 0.1074535,-0.03662 0.048744,-0.01686 0.1150089,-0.02988 0.1665526,-0.03222 0.039619,-0.0018 0.078178,0.01244 0.1181983,0.0098 0.048728,-0.0033 0.095978,-0.02153 0.145062,-0.02092 0.088672,0.0011 0.157237,0.01577 0.2471425,-0.0068 0.054285,-0.01359 0.073374,-0.06889 0.1181984,-0.09681 0.030607,-0.01907 0.073696,-0.01382 0.1074533,-0.02595 0.050996,-0.01835 0.092148,-0.05774 0.145062,-0.07259 0.048093,-0.01349 0.091441,0.02513 0.1396893,0.01818 0.054742,-0.0078 0.077297,-0.07082 0.128944,-0.08266 0.03707,-0.0086 0.075477,0.0087 0.1128254,0.0087 0.07393,0 0.1458724,-0.0214 0.2095338,-0.05758 0.091841,-0.0522 0.1756898,-0.116052 0.2686332,-0.166402 0.046945,-0.02543 0.106452,-0.0313 0.1499337,-0.06148 0.041182,-0.02857 0.049416,-0.08526 0.091858,-0.1137 0.040296,-0.02699 0.095858,-0.0099 0.1337947,-0.04288 0.034129,-0.02966 0.042863,-0.07763 0.072111,-0.111104 0.033115,-0.0379 0.086296,-0.04582 0.120814,-0.08137 0.057912,-0.05964 0.098452,-0.149296 0.1626569,-0.201352 0.036701,-0.02976 0.089855,-0.01355 0.1274487,-0.03989 0.041525,-0.0291 0.023138,-0.0892 0.044742,-0.128916 0.033713,-0.06198 0.1094572,-0.07961 0.1448415,-0.145062 0.00904,-0.01671 0.025811,-0.04874 0.017503,-0.06813 -0.010436,-0.02439 -0.058923,-0.0034 -0.077133,-3.91e-4 -0.068768,0.01145 -0.1496055,-0.01587 -0.2149066,-0.03715 -0.1131245,-0.03687 -0.2402194,-0.04145 -0.3492232,-0.08562 -0.1471895,-0.05961 -0.2757977,-0.159947 -0.4298132,-0.205166 -0.049356,-0.01448 -0.096994,0.02213 -0.1450618,0.0077 -0.041575,-0.01247 -0.064081,-0.06045 -0.1020799,-0.08044 -0.079659,-0.04191 -0.1645799,-0.09023 -0.2471427,-0.126254 -0.036405,-0.01588 -0.080912,-0.01367 -0.1122617,-0.04066 -0.040381,-0.03474 -0.03037,-0.09932 -0.071553,-0.133273 -0.035165,-0.029 -0.086532,-0.02515 -0.1221939,-0.05475 -0.036572,-0.03036 -0.0394,-0.08173 -0.071221,-0.115535 -0.031486,-0.03346 -0.081694,-0.03402 -0.1170338,-0.06178 -0.03801,-0.02984 -0.050727,-0.07796 -0.086199,-0.109565 -0.045767,-0.04078 -0.1066141,-0.04377 -0.1486089,-0.09249 -0.02755,-0.03195 -0.06853,-0.07276 -0.082851,-0.112827 -0.010694,-0.02992 -0.00345,-0.06541 -0.00976,-0.09671 -0.00926,-0.04588 -0.036189,-0.11908 -0.057736,-0.16118 -0.019236,-0.03757 -0.057957,-0.06063 -0.079715,-0.09671 -0.023896,-0.03962 -0.021155,-0.08844 -0.042966,-0.128944 -0.085359,-0.158517 -0.1986523,-0.304498 -0.19042,-0.494286 0.00217,-0.04993 0.00426,-0.120532 0.024144,-0.166553 0.016731,-0.03874 0.052863,-0.06523 0.062566,-0.107461 0.010705,-0.04663 0.029301,-0.103149 0.031043,-0.150433 0.00222,-0.06058 -0.023984,-0.104825 0.01291,-0.16118 0.042436,-0.06483 0.087222,-0.139364 0.1431548,-0.193201 0.03503,-0.03371 0.082127,-0.05058 0.1150065,-0.08667 0.087362,-0.09586 0.1541049,-0.207362 0.2610597,-0.283351 0.044128,-0.03135 0.1012993,-0.02085 0.1445608,-0.05004 0.042828,-0.0289 0.048246,-0.08892 0.091916,-0.117591 0.048624,-0.03192 0.1104916,-0.02365 0.1611011,-0.05715 0.1045709,-0.0692 0.1492621,-0.178802 0.2578879,-0.243935 0.040838,-0.02449 0.090599,-0.02991 0.1343168,-0.04805 0.096558,-0.04004 0.1906692,-0.08475 0.2847512,-0.130272 0.043406,-0.021 0.089883,-0.04082 0.1289438,-0.06931 0.029707,-0.02166 0.053237,-0.05173 0.085964,-0.06907 0.044138,-0.02337 0.095974,-0.05113 0.1450619,-0.06161 0.046987,-0.01 0.092817,-7.56e-4 0.1396893,-0.01728 0.082088,-0.02895 0.1588032,-0.08741 0.24177,-0.109455 0.033973,-0.009 0.0679,0.0044 0.10208,0.0056 0.054711,0.0017 0.1248462,-0.0098 0.1772978,-0.0254 0.1292482,-0.03877 0.2614374,-0.09528 0.386832,-0.145877 0.038721,-0.01563 0.072459,-0.04382 0.1128254,-0.05527 0.091405,-0.02594 0.1971174,0.03586 0.2847511,0.0084 0.041579,-0.01303 0.059219,-0.05788 0.087573,-0.08683 0.031263,-0.03193 0.079966,-0.05027 0.1219602,-0.06313 0.066044,-0.02023 0.1029829,0.02205 0.1665531,0.02429 0.058716,0.002 0.095683,-0.05014 0.1504345,-0.06036 0.044505,-0.0084 0.090578,0.02334 0.1342955,0.006 0.051299,-0.02024 0.062124,-0.08785 0.1128473,-0.112483 0.081363,-0.0395 0.1769096,-0.05183 0.2578889,-0.09289 0.1137566,-0.05769 0.2121961,-0.148335 0.327732,-0.20331 0.048603,-0.02313 0.1120802,0.0028 0.1558074,-0.02432 0.062813,-0.03889 0.1047223,-0.125653 0.1560201,-0.178661 0.046203,-0.04774 0.1077897,-0.03489 0.1544511,-0.07335 0.030963,-0.02552 0.033428,-0.07077 0.051737,-0.103965 0.01765,-0.03202 0.053259,-0.05955 0.078558,-0.08596 0.020555,-0.02144 0.041295,-0.04267 0.069629,-0.05322 0.031555,-0.01169 0.074581,-0.01206 0.097491,-0.03995 0.030459,-0.03706 0.012348,-0.09528 0.044451,-0.131341 0.029757,-0.03342 0.078426,-0.02616 0.1159489,-0.04308 0.044045,-0.01985 0.1063758,-0.07635 0.1363992,-0.114364 0.021442,-0.02715 0.030239,-0.06222 0.049479,-0.09086 0.047102,-0.07009 0.1024761,-0.136136 0.1526716,-0.204162 0.033821,-0.04586 0.081343,-0.07914 0.1102507,-0.128944 0.066536,-0.114636 0.1159326,-0.241509 0.1847744,-0.354596 0.039361,-0.06467 0.1016354,-0.109379 0.1384253,-0.177298 0.029398,-0.05424 0.027164,-0.120237 0.057979,-0.171926 0.02768,-0.04643 0.071894,-0.07099 0.091822,-0.12357 0.01601,-0.04222 0.03071,-0.08868 0.02894,-0.134317 -0.0014,-0.03545 -0.01621,-0.07233 -0.0062,-0.10745 0.02415,-0.08542 0.11218,-0.140552 0.14061,-0.225651 0.04213,-0.126113 0.01739,-0.27509 0.05279,-0.40295 0.0096,-0.03438 0.03167,-0.06333 0.04366,-0.09671 0.0147,-0.04096 0.01999,-0.08366 0.03874,-0.123571 0.01947,-0.04147 0.04822,-0.07857 0.05975,-0.123572 0.01367,-0.05341 -0.02395,-0.09894 -0.01561,-0.150434 0.0064,-0.04013 0.03479,-0.07327 0.04373,-0.112827 0.0119,-0.05266 -0.005,-0.108481 8.5e-4,-0.161181 0.0097,-0.08563 0.04392,-0.171625 0.04494,-0.257888 9.75e-4,-0.08192 -0.0031,-0.168195 -0.02637,-0.247143 -0.01249,-0.04227 -0.04995,-0.07884 -0.05297,-0.12357 -0.0031,-0.04532 0.04062,-0.07967 0.04613,-0.123571 0.0068,-0.05374 -0.02613,-0.09409 -0.03309,-0.145063 -0.0048,-0.03569 0.0094,-0.07185 0.0039,-0.107462 -0.01609,-0.103321 -0.07572,-0.192176 -0.105565,-0.290122 -0.02323,-0.07624 -0.04952,-0.153828 -0.06891,-0.231025 -0.01084,-0.04321 -0.0097,-0.09395 -0.02935,-0.134317 -0.01679,-0.03435 -0.05183,-0.05307 -0.07639,-0.08081 -0.0239,-0.02696 -0.03638,-0.0638 -0.0503,-0.0965 -0.04242,-0.09961 -0.01558,-0.2072 -0.0505,-0.306241 -0.033273,-0.09437 -0.1266325,-0.154794 -0.1570512,-0.252517 -0.02506,-0.08048 -0.00612,-0.162425 -0.049003,-0.241769 -0.051,-0.09429 -0.1502016,-0.113454 -0.2142923,-0.188065 -0.033359,-0.03885 -0.045825,-0.09209 -0.074213,-0.134295 -0.024147,-0.0359 -0.065162,-0.0625 -0.08291,-0.102086 -0.016374,-0.03648 -0.00387,-0.08353 -0.026746,-0.117208 -0.031959,-0.04686 -0.1040866,-0.04522 -0.1414179,-0.09233 -0.049041,-0.0619 -0.1127814,-0.145537 -0.1393739,-0.220274 -0.016292,-0.04579 0.013421,-0.103611 -0.022275,-0.143918 -0.022856,-0.02579 -0.061564,-0.03321 -0.089087,-0.05292 -0.036737,-0.02632 -0.05888,-0.06758 -0.096702,-0.09272 -0.06656,-0.04426 -0.1297599,-0.05134 -0.1875629,-0.113392 -0.048888,-0.05249 -0.073189,-0.112089 -0.1161506,-0.166475 -0.030908,-0.03912 -0.077879,-0.06445 -0.1046343,-0.107537 -0.024094,-0.03878 -0.022132,-0.08817 -0.054837,-0.122638 -0.033144,-0.03493 -0.077802,-0.05732 -0.1114678,-0.09229 -0.028991,-0.03011 -0.045973,-0.07358 -0.080881,-0.09748 -0.036967,-0.02531 -0.089591,-0.02103 -0.1213779,-0.05471 -0.036342,-0.03849 -0.012524,-0.10637 -0.051693,-0.140963 -0.037921,-0.0335 -0.1052591,-0.0012 -0.148999,-0.03269 -0.030678,-0.02211 -0.046521,-0.05992 -0.071053,-0.08783 -0.05923,-0.06741 -0.135263,-0.154837 -0.208542,-0.206048 -0.069004,-0.04823 -0.1666895,-0.05454 -0.2363978,-0.09922 -0.04123,-0.02641 -0.057489,-0.08368 -0.1021035,-0.103074 -0.038359,-0.01667 -0.07904,-0.0041 -0.1181775,-0.01283 -0.028607,-0.0063 -0.056042,-0.02782 -0.080585,-0.04316 -0.062848,-0.03924 -0.07516,-0.0882 -0.117065,-0.142277 -0.023763,-0.03066 -0.065731,-0.05831 -0.097841,-0.07988 -0.042115,-0.0283 -0.1380265,-0.0569 -0.1880436,-0.06452 -0.039993,-0.0061 -0.08105,3.1e-5 -0.1181984,-0.02005 -0.1081538,-0.05798 -0.1810764,-0.151978 -0.285122,-0.213968 -0.085681,-0.05104 -0.1893313,-0.06195 -0.2739849,-0.119831 -0.04125,-0.02821 -0.048422,-0.0908 -0.091571,-0.113479 -0.041888,-0.02202 -0.090719,0.0099 -0.1341016,0.0032 -0.050806,-0.0077 -0.075395,-0.06628 -0.1235711,-0.0813 -0.054462,-0.01699 -0.1089226,0.02213 -0.1611801,-0.0053 -0.043301,-0.0227 -0.077867,-0.06032 -0.1181983,-0.08773 -0.074021,-0.05031 -0.1524388,-0.09305 -0.2256518,-0.144319 -0.029436,-0.02061 -0.053561,-0.04878 -0.085964,-0.06502 -0.042038,-0.02108 -0.1089435,-0.0408 -0.1558073,-0.0445 -0.036133,-0.0029 -0.07268,0.01253 -0.1074534,-0.0024 -0.045449,-0.01962 -0.067027,-0.06876 -0.1074534,-0.09552 -0.038389,-0.0254 -0.08852,-0.01444 -0.1289439,-0.03512 -0.029801,-0.01526 -0.049301,-0.04376 -0.075217,-0.06408 -0.037566,-0.02944 -0.095174,-0.05886 -0.1396893,-0.07617 -0.037846,-0.01473 -0.079365,-0.0026 -0.1181984,-0.0013 -0.045839,0.0014 -0.1013799,-0.01 -0.1450619,-0.02364 -0.063934,-0.02002 -0.068501,-0.101367 -0.1289439,-0.125784 -0.071533,-0.0289 -0.1608232,-0.0327 -0.2363973,-0.04809 -0.048752,-0.01 -0.092624,-0.03328 -0.1396892,-0.04835 -0.043946,-0.01405 -0.091448,-0.01903 -0.1343167,-0.03577 -0.072291,-0.02827 -0.1572789,-0.05957 -0.2256519,-0.09595 -0.039329,-0.02093 -0.071138,-0.05449 -0.1128266,-0.07098 -0.085221,-0.03372 -0.1813326,-0.02933 -0.2686332,-0.05636 -0.050361,-0.01558 -0.095632,-0.04224 -0.145062,-0.05875 -0.036934,-0.01234 -0.077133,-0.01368 -0.1128267,-0.02987 -0.037469,-0.01697 -0.066954,-0.04995 -0.1074533,-0.06034 -0.036416,-0.0093 -0.071002,0.0032 -0.1074533,0.0031 -0.070673,-3.41e-4 -0.1430473,-0.0098 -0.2149066,-0.0098 0.034531,-0.03017 0.072627,-0.06031 0.083733,-0.107462 0.00895,-0.038 -0.00738,-0.0759 0.013697,-0.111299 0.02685,-0.04509 0.073636,-0.04731 0.1027445,-0.08422 0.025434,-0.03226 0.014557,-0.09851 0.036293,-0.137113 0.020879,-0.03707 0.063536,-0.0636 0.085764,-0.09995 0.014406,-0.02355 0.00909,-0.05742 0.023568,-0.0832 0.015221,-0.02712 0.042448,-0.04895 0.048703,-0.08058 0.00629,-0.0318 -0.00462,-0.06959 -0.00461,-0.102086 1.31e-5,-0.03453 0.013957,-0.06785 0.012737,-0.102076 -7.293e-4,-0.02044 -0.014378,-0.03878 -0.012249,-0.0591 0.00417,-0.0396 0.0356,-0.07227 0.038923,-0.112826 0.00298,-0.03639 -0.017661,-0.08425 -0.00604,-0.118181 0.012854,-0.03753 0.061492,-0.04559 0.078686,-0.08069 0.013539,-0.02764 0.00271,-0.05712 0.010157,-0.0854 0.0071,-0.02694 0.043155,-0.09733 0.063916,-0.116581 0.029679,-0.02752 0.077135,-0.03728 0.111677,-0.05832 0.063263,-0.03855 0.1121521,-0.102194 0.1403452,-0.169644 0.012456,-0.02981 0.033014,-0.07239 0.040639,-0.102355 0.00706,-0.02777 -0.00396,-0.05759 0.00387,-0.08549 0.010468,-0.03728 0.042773,-0.06281 0.051465,-0.102086 0.011103,-0.05015 -0.00495,-0.114808 0.022325,-0.160674 0.02843,-0.0478 0.095567,-0.03333 0.1373125,-0.05773 0.014166,-0.0083 0.017714,-0.02666 0.026619,-0.03949 0.022739,-0.03272 0.055718,-0.06497 0.070917,-0.102291 0.01049,-0.02574 0.00219,-0.0542 0.01049,-0.08035 0.00658,-0.02073 0.029699,-0.03302 0.032284,-0.05431 0.00431,-0.0355 -0.018216,-0.07127 -0.010383,-0.106885 0.013437,-0.06114 0.064008,-0.111547 0.074096,-0.177299 0.00477,-0.03106 -0.023128,-0.06247 -0.013306,-0.09134 0.017091,-0.05024 0.050551,-0.09187 0.072281,-0.13969 0.00936,-0.02062 0.00756,-0.05003 0.021997,-0.0676 0.01255,-0.01527 0.034167,-0.01996 0.047705,-0.03507 0.050238,-0.05604 0.1054943,-0.125996 0.1483096,-0.187481 0.028989,-0.04164 0.023786,-0.09062 0.044841,-0.134297 0.017768,-0.03687 0.062253,-0.06961 0.093637,-0.09488 0.046147,-0.03716 0.1063499,-0.0019 0.1494245,-0.03268 0.037388,-0.02666 0.036306,-0.08555 0.049658,-0.124935 0.01493,-0.04403 0.079976,-0.117565 0.1232773,-0.134338 6.035e-4,-0.07249 0.03657,-0.127366 0.059827,-0.193416 0.015001,-0.0426 0.018156,-0.08785 0.04877,-0.12355 0.031244,-0.03644 0.077831,-0.05186 0.1100718,-0.08649 0.029799,-0.03201 0.046391,-0.07897 0.08228,-0.105039 0.021263,-0.01544 0.051154,-0.0077 0.075138,-0.01842 0.039837,-0.01767 0.07824,-0.05196 0.1128266,-0.07835 0.042221,-0.03221 0.090745,-0.06579 0.1260846,-0.105555 0.021275,-0.02394 0.027971,-0.05541 0.051446,-0.07849 0.028005,-0.02752 0.079155,-0.03869 0.1019156,-0.06838 0.014483,-0.01889 0.019617,-0.05021 0.030989,-0.07179 0.025861,-0.0491 0.070721,-0.108337 0.084813,-0.161181 0.00803,-0.03007 -0.010587,-0.06193 1.967e-4,-0.09134 0.01644,-0.04485 0.073709,-0.07001 0.090223,-0.113034 0.017883,-0.0466 -0.013339,-0.103611 0.00262,-0.155596 0.012846,-0.04181 0.022527,-0.103718 0.047375,-0.139477 0.019886,-0.02861 0.054611,-0.04023 0.066107,-0.07544 0.015033,-0.04604 -0.024294,-0.111411 -0.00505,-0.149866 0.018647,-0.03726 0.089766,-0.04424 0.1232013,-0.06465 0.047543,-0.02902 0.070604,-0.08184 0.1128365,-0.116827 0.031424,-0.02604 0.077933,-0.0352 0.1040201,-0.06724 0.053917,-0.06622 -0.015593,-0.136358 0.015157,-0.197715 0.019907,-0.03972 0.073145,-0.04566 0.09711,-0.08117 0.014893,-0.02205 0.013985,-0.05527 0.024812,-0.08008 0.019068,-0.04368 0.052531,-0.0797 0.071156,-0.123571 0.010468,-0.02464 0.00485,-0.05114 0.014088,-0.0752 0.014531,-0.03786 0.061742,-0.04549 0.078468,-0.08082 0.01981,-0.04184 0.00114,-0.09044 0.00888,-0.1341 -0.014533,-0.0087 -0.030021,-0.01633 -0.042418,-0.028 -0.067417,-0.06358 -0.0082,-0.12791 -0.00289,-0.197645 0.00172,-0.02264 -0.011189,-0.05291 -0.016611,-0.07521 -0.011448,-0.0471 -0.043056,-0.08398 -0.045319,-0.134316 -0.00304,-0.06757 0.00704,-0.149069 0.022549,-0.214906 0.00947,-0.0402 0.029095,-0.07607 0.030752,-0.118194 0.00214,-0.05443 -0.022993,-0.10287 -0.026142,-0.155807 -0.00178,-0.03001 0.028921,-0.05931 0.022398,-0.08588 -0.00778,-0.03171 -0.054994,-0.04865 -0.072854,-0.07532 -0.024332,-0.03632 -0.015021,-0.0854 -0.037199,-0.12355 -0.023884,-0.04108 -0.056534,-0.105167 -0.091899,-0.136697 -0.041004,-0.03654 -0.1115784,-0.06051 -0.1594472,-0.0907 -0.022225,-0.01401 -0.03685,-0.03883 -0.059579,-0.05102 -0.029245,-0.01569 -0.066909,0.0041 -0.095667,-0.01181 -0.039445,-0.02175 -0.048751,-0.06908 -0.097269,-0.08462 -0.041318,-0.01323 -0.085346,0.01384 -0.1235661,1.06e-4 -0.043554,-0.01564 -0.046667,-0.06965 -0.08159,-0.0934 -0.026541,-0.01806 -0.062049,-0.0044 -0.089861,-0.02122 -0.04143,-0.02507 -0.059055,-0.07621 -0.097688,-0.102183 -0.024372,-0.01637 -0.053573,-0.0054 -0.080067,-0.01367 -0.045711,-0.01427 -0.089138,-0.04537 -0.1343378,-0.0624 -0.074499,-0.02807 -0.152974,-0.03832 -0.2310245,-0.05713 -0.039387,-0.0096 -0.077079,-0.03101 -0.1181983,-0.03209 -0.030413,-8e-4 -0.060871,0.0099 -0.091337,0.0079 -0.027404,-0.0017 -0.052861,-0.01497 -0.08059,-0.01372 -0.061687,0.0029 -0.1250799,0.01743 -0.1878309,-0.0018 -0.02202,-0.0068 -0.034492,-0.02879 -0.053959,-0.04026 -0.035623,-0.02101 -0.089845,-0.04538 -0.1289228,-0.05961 -0.045917,-0.01671 -0.090605,0.02351 -0.1341016,0.0112 -0.028985,-0.0082 -0.044668,-0.04575 -0.075432,-0.05731 -0.052332,-0.01966 -0.1092053,-0.0088 -0.1606999,-0.0257 -0.020255,-0.0067 -0.033777,-0.02478 -0.054213,-0.03181 -0.032985,-0.01133 -0.068412,-0.0061 -0.1020756,-0.01169 -0.035623,-0.0059 -0.064875,-0.0211 -0.1020799,-0.01952 -0.025922,0.0011 -0.064711,7.04e-4 -0.085461,0.01762 -0.025154,0.0205 -0.035597,0.05704 -0.065187,0.07255 -0.059699,0.03127 -0.1476644,0.01416 -0.2093004,0.038 -0.048428,0.01872 -0.071733,0.08052 -0.1235923,0.09807 -0.027133,0.0092 -0.086044,0.0312 -0.1128266,0.03014 -0.053729,-0.002 -0.098646,-0.02823 -0.1558073,-0.02534 -0.039718,0.0019 -0.066982,0.03307 -0.1074533,0.03179 -0.048223,-0.0014 -0.1023773,-0.03252 -0.1504347,-0.01776 -0.032954,0.01009 -0.056093,0.04001 -0.085964,0.05605 -0.044084,0.02366 -0.1034446,0.04258 -0.1504346,0.06145 -0.043288,0.01736 -0.094615,0.006 -0.1342326,0.03321 -0.043668,0.02999 -0.044909,0.08936 -0.08244,0.123465 -0.019366,0.01759 -0.046547,0.0086 -0.06808,0.02182 -0.021955,0.01356 -0.036515,0.03641 -0.059099,0.04926 -0.034807,0.01981 -0.10065087,0.03454 -0.13968927,0.04528 -0.039511,0.01084 -0.083153,-0.01859 -0.1235714,-0.01763 -0.036504,8.67e-4 -0.066969,0.02251 -0.1020799,0.02909 -0.029489,0.0056 -0.056731,-0.01145 -0.085964,-0.01269 -0.022571,-9.59e-4 -0.042376,0.01366 -0.064472,0.01074 -0.06969,-0.0092 -0.11861316,-0.05775 -0.1934159,-0.042 -0.0659149,0.01387 -0.10497458,0.05313 -0.16125866,0.08198 -0.0234204,0.01206 -0.0518238,0.0076 -0.0751378,0.01951 -0.0393453,0.02007 -0.0822854,0.0569 -0.11819835,0.08373 -0.0388332,0.02902 -0.0937567,0.09941 -0.13976802,0.111767 -0.0249536,0.0067 -0.0503077,-0.0062 -0.0751378,-0.0072 -0.0236888,-8.98e-4 -0.0411867,0.01705 -0.0644718,0.01625 -0.0458433,-0.0016 -0.0887275,-0.02633 -0.13431669,-0.02792 -0.0448416,-0.0016 -0.0714164,0.03331 -0.1128254,0.04045 -0.021787,0.0038 -0.042528,-0.0077 -0.064472,-0.0043 -0.026445,0.0042 -0.047877,0.02151 -0.075217,0.02241 -0.023356,7.69e-4 -0.046609,-0.0084 -0.069846,-0.0029 -0.047679,0.01145 -0.079249,0.0659 -0.1235766,0.07435 -0.047496,0.0091 -0.092537,-0.02834 -0.139684,-0.0024 -0.049348,0.02712 -0.089916,0.109565 -0.1504346,0.111744 -0.044962,0.0016 -0.083985,-0.03727 -0.1289439,-0.04032 -0.055393,-0.0039 -0.1084373,0.03147 -0.1665527,0.01812 -0.042968,-0.0099 -0.077962,-0.05061 -0.1235713,-0.04982 -0.051882,9.04e-4 -0.078897,0.05856 -0.1235713,0.0762 -0.047137,0.01862 -0.1061988,-0.0054 -0.1558073,0.0054 -0.047084,0.0102 -0.07729,0.05557 -0.1235713,0.06889 -0.057816,0.01662 -0.1114999,-0.01505 -0.1665526,0.02094 -0.072369,0.04732 -0.119349,0.138397 -0.2026279,0.17266 -0.034107,0.01403 -0.08326,-0.0011 -0.1195209,0.01342 -0.031517,0.01264 -0.040213,0.0562 -0.075432,0.06303 -0.037451,0.0072 -0.07468,-0.02876 -0.112822,-0.01464 -0.041151,0.01522 -0.059005,0.06786 -0.1020799,0.07963 -0.039051,0.01074 -0.080085,-0.01358 -0.1181986,0.004 -0.1109397,0.05109 -0.1956051,0.141923 -0.3277326,0.141445 -0.030856,-1.12e-4 -0.057129,-0.0232 -0.085963,-0.03139 -0.029909,-0.0086 -0.065682,-0.0058 -0.096707,-0.0088 -0.045889,-0.0043 -0.1248213,0.0257 -0.1647661,-0.0018 -0.055063,-0.03801 0.063442,-0.127831 0.083695,-0.149466 0.049976,-0.05339 0.1149585,-0.04791 0.1653248,-0.09118 0.026238,-0.02254 0.00584,-0.06336 0.03961,-0.08616 0.024668,-0.01665 0.056945,-0.01948 0.079579,-0.03968 0.017095,-0.01526 0.016859,-0.0373 0.03074,-0.05379 0.013374,-0.01589 0.030615,-0.02343 0.033575,-0.04618 0.011055,-0.08502 -0.059053,-0.140674 -0.1118513,-0.189029 -0.0181,-0.01658 -0.036579,-0.04067 -0.010307,-0.05949 0.021974,-0.01575 0.051139,-0.0071 0.073771,-0.02443 0.03327,-0.02537 0.048189,-0.07092 0.086883,-0.08992 0.027863,-0.01366 0.057959,0.0011 0.085473,-0.01794 0.029993,-0.0208 0.045664,-0.05859 0.067739,-0.08661 0.027485,-0.03488 0.062145,-0.0657 0.093925,-0.09662 0.029217,-0.02844 0.065216,-0.04176 0.096708,-0.06657 0.04292,-0.0338 0.064222,-0.07025 0.098316,-0.108327 0.029069,-0.03247 0.070727,-0.06071 0.095161,-0.09659 0.023891,-0.03508 0.021033,-0.08863 0.042854,-0.125271 0.0096,-0.01612 0.025343,-0.02639 0.033355,-0.04393 0.012025,-0.02631 0.011268,-0.05633 0.02855,-0.08056 0.02436,-0.03418 0.067049,-0.05317 0.086141,-0.09134 0.00939,-0.01877 0.0055,-0.04008 0.013679,-0.0591 0.00904,-0.02103 0.02816,-0.0365 0.033978,-0.05909 0.00547,-0.02124 -0.00282,-0.0428 0.00278,-0.06448 0.012612,-0.04877 0.045158,-0.106296 0.0697,-0.150436 0.015329,-0.02757 0.04471,-0.04414 0.059464,-0.07076 0.027879,-0.0503 0.029324,-0.101067 0.07249,-0.14861 0.043684,-0.04812 0.1156697,-0.08927 0.1413342,-0.151347 0.00983,-0.02378 -0.0011,-0.04576 0.00253,-0.06984 0.00444,-0.02942 0.022346,-0.06839 0.033427,-0.09672 0.014596,-0.0373 0.047252,-0.05785 0.06385,-0.09181 0.018658,-0.03817 0.013576,-0.08464 0.029584,-0.123092 0.010847,-0.02605 0.036263,-0.04229 0.044813,-0.06984 0.00766,-0.02468 -1.06e-5,-0.05074 0.00961,-0.07521 0.025237,-0.06422 0.070215,-0.122255 0.093574,-0.188043 0.01139,-0.03208 -0.0031,-0.06932 0.0063,-0.102087 0.00777,-0.02709 0.035335,-0.04244 0.041993,-0.06984 0.00609,-0.02505 -0.00858,-0.05056 0.00425,-0.075 0.013285,-0.0253 0.04534,-0.04294 0.064207,-0.06471 0.031971,-0.03689 0.050783,-0.08351 0.08548,-0.117947 0.033026,-0.03278 0.078069,-0.05022 0.1116769,-0.08244 0.038319,-0.03675 0.05997,-0.086 0.1030149,-0.119117 0.043873,-0.03377 0.1245183,-0.03434 0.1579375,-0.07921 0.020069,-0.02694 0.014476,-0.08893 0.023017,-0.122428 0.00983,-0.03856 0.048415,-0.05823 0.057955,-0.09671 0.013941,-0.05623 -0.011842,-0.114562 -1.836e-4,-0.166551 0.012595,-0.05617 0.084921,-0.07074 0.1134345,-0.118207 0.035324,-0.05881 0.081624,-0.113293 0.1074533,-0.177293 0.017251,-0.04275 0.011691,-0.08596 0.02354,-0.128943 0.015887,-0.05762 0.068648,-0.102183 0.1185842,-0.128943 -0.00652,-0.0204 -0.023178,-0.05322 -0.017258,-0.07465 0.016536,-0.05986 0.1379158,-0.01795 0.1592466,-0.09191 0.01347,-0.04669 -0.00899,-0.09991 0.014703,-0.145057 0.025147,-0.04792 0.0985464,-0.07435 0.1037548,-0.134317 0.00291,-0.03363 -0.0371303,-0.05596 -0.0471285,-0.08596 -0.013755,-0.04126 0.0100283,-0.150156 0.0306957,-0.188043 0.0321699,-0.05896 0.0966932,-0.06253 0.14260653,-0.103225 0.0419447,-0.03717 0.0608148,-0.08304 0.0913667,-0.127584 0.0337632,-0.04923 0.0734489,-0.08403 0.10201335,-0.139906 0.0131924,-0.02581 0.007967,-0.05362 0.0160602,-0.08058 0.008804,-0.02934 0.0362628,-0.04638 0.0457971,-0.07522 0.0110536,-0.03342 0.001611,-0.0693 0.0117429,-0.102076 0.0108797,-0.03527 0.0493221,-0.05875 0.0528523,-0.09671 0.002598,-0.02792 -0.0130904,-0.05365 -0.0169181,-0.08059 -0.005229,-0.03683 0.001117,-0.09338 0.0122723,-0.128944 0.0144229,-0.04603 0.0560272,-0.06494 0.0874219,-0.09719 0.0187294,-0.01924 0.0291227,-0.04415 0.0491513,-0.06237 0.0187198,-0.01704 0.0457177,-0.03014 0.0548,-0.05535 0.0162009,-0.04498 -0.0378218,-0.08787 -0.033643,-0.134297 0.005207,-0.05784 0.0394108,-0.11151 0.0549622,-0.166551 0.0137046,-0.04849 0.007881,-0.105297 0.0182119,-0.155807 0.0170019,-0.08313 0.0812063,-0.109837 0.11726532,-0.178212 0.0182269,-0.03456 -0.006979,-0.07176 0.006313,-0.106317 0.0190043,-0.04938 0.0698263,-0.09196 0.0908921,-0.145276 0.0283851,-0.07184 -0.0104792,-0.16061 0.0166132,-0.236396 0.031948,-0.08939 0.1659047,-0.0914 0.226814,-0.15602 0.03794,-0.04025 0.040275,-0.08271 0.064506,-0.128648 0.01272,-0.02412 0.039665,-0.03466 0.051101,-0.05928 0.014867,-0.03201 0.00905,-0.0701 0.024997,-0.101989 0.013272,-0.02653 0.038409,-0.04549 0.045487,-0.07521 0.00982,-0.04123 -0.00554,-0.09136 -0.00251,-0.134316 0.07464,0.01975 0.062276,-0.0238 0.091819,-0.07519 0.010286,-0.01789 0.029269,-0.02944 0.036953,-0.04885 0.023741,-0.05999 0.026197,-0.123256 0.059087,-0.182191 0.014297,-0.02562 0.032357,-0.04574 0.038766,-0.07522 0.013745,-0.06321 -0.00129,-0.130728 0.021317,-0.193314 0.016262,-0.04503 0.084618,-0.03693 0.1026716,-0.08092 0.015779,-0.03846 0.0037,-0.08406 0.017678,-0.123338 0.010361,-0.02912 0.031588,-0.05229 0.043454,-0.08058 0.00751,-0.01792 0.00359,-0.04158 0.01594,-0.057 0.018267,-0.02282 0.048986,-0.03012 0.065827,-0.05604 0.015938,-0.02452 0.014506,-0.0552 0.02839,-0.08036 0.024458,-0.04431 0.086124,-0.105759 0.1281938,-0.133773 0.035721,-0.02378 0.0871,-0.05497 0.1289438,-0.06437 0.053568,-0.01206 0.1046761,0.003 0.1504346,-0.03468 0.055253,-0.04545 0.061768,-0.10724 0.097079,-0.164785 0.027303,-0.04448 0.072925,-0.07672 0.096338,-0.12357 0.027917,-0.05586 0.036388,-0.124624 0.074141,-0.17722 0.022215,-0.03094 0.062676,-0.0439 0.083046,-0.0755 0.01294,-0.02008 -2.021e-4,-0.04434 0.012818,-0.06311 0.03021,-0.04357 0.1094869,-0.07017 0.1523342,-0.101281 0.064605,-0.04691 0.1078433,-0.109333 0.1594222,-0.167562 0.016459,-0.01858 0.040451,-0.02735 0.05664,-0.04574 0.02361,-0.02681 0.037624,-0.06484 0.036258,-0.100261 -0.00133,-0.03467 -0.015315,-0.07244 0.012185,-0.100938 0.025937,-0.02689 0.066487,-0.02949 0.094337,-0.05293 0.029736,-0.02502 0.028195,-0.07066 0.056698,-0.09632 0.021866,-0.0197 0.058556,-0.01665 0.084133,-0.03178 0.040095,-0.02371 0.067801,-0.06333 0.1074533,-0.08685 0.058879,-0.03495 0.124799,-0.04038 0.1789979,-0.08742 0.063635,-0.05522 0.1399675,-0.13066 0.1884735,-0.200137 0.015686,-0.02246 0.00786,-0.05116 0.026853,-0.07381 0.028854,-0.03439 0.081791,-0.04278 0.1060988,-0.08131 0.016887,-0.02676 0.043496,-0.1032667 0.04636,-0.1341017 0.00251,-0.02696 -0.010039,-0.05384 -1.783e-4,-0.08058 0.022195,-0.06023 0.097642,-0.08621 0.1160971,-0.145063 0.011324,-0.03611 0.00307,-0.08039 0.0093,-0.118193 0.014476,-0.08761 0.041022,-0.1714145 0.057267,-0.2578883 0.0069,-0.036731 -3.488e-4,-0.077091 0.00846,-0.1126174 C 3.1761765,8.5482587 3.2882727,8.452463 3.2786632,8.3184194 3.2696657,8.1928525 3.2103133,8.0502323 3.1318411,7.9535584 3.0937348,7.9066059 3.0459835,7.8716788 3.013538,7.8187621 2.9907372,7.7815802 3.0098553,7.7384716 2.9913213,7.7006423 2.9739146,7.6651247 2.9293254,7.6508553 2.9051824,7.6199546 2.8815795,7.5897517 2.8856144,7.5494776 2.8654248,7.5181366 2.8430813,7.4834457 2.7960569,7.4795804 2.774596,7.442667 2.756237,7.4110791 2.7524447,7.3693018 2.738635,7.3352282 2.7199732,7.2891895 2.6912799,7.2486169 2.6760464,7.2009118 2.6650046,7.1663337 2.6685413,7.1261015 2.6522202,7.0934508 2.6354137,7.0598475 2.6043594,7.0347243 2.5854131,7.0021174 2.5666407,6.9698069 2.5578407,6.9299687 2.5342937,6.9006162 2.4979654,6.8553226 2.4301888,6.8862964 2.3882769,6.8495591 2.3430928,6.8099518 2.3118796,6.7527585 2.2627983,6.7157402 2.2297415,6.6908145 2.1851544,6.6897848 2.1529813,6.668879 2.1257214,6.6511846 2.1186942,6.615915 2.0863944,6.6005763 2.0186875,6.56843 1.9412701,6.5813476 1.8715094,6.5581086 c -0.041777,-0.013921 -0.068,-0.052954 -0.1128267,-0.061041 z"
       id="path2" /></g></svg>
